<?xml version="1.0" encoding="utf-8"?>
<!-- Generator: Adobe Illustrator 25.2.0, SVG Export Plug-In . SVG Version: 6.00 Build 0)  -->
<svg version="1.1"
	 id="Layer_1" xmlns:ev="http://www.w3.org/2001/xml-events" xmlns:v="http://schemas.microsoft.com/visio/2003/SVGExtensions/"
	 xmlns="http://www.w3.org/2000/svg" xmlns:xlink="http://www.w3.org/1999/xlink" x="0px" y="0px" viewBox="0 0 547.8 85.6"
	 style="enable-background:new 0 0 547.8 85.6;" xml:space="preserve">
<style type="text/css">
	.st0{fill:none;}
	.st1{fill:#3F3F3F;enable-background:new    ;}
	.st2{font-family:'Calibri-Bold';}
	.st3{font-size:13.9999px;}
	.st4{enable-background:new    ;}
	.st5{fill:#3F3F3F;}
	.st6{fill:none;stroke:#7F7F7F;stroke-width:1.5;stroke-linecap:round;stroke-linejoin:round;stroke-miterlimit:3;}
	.st7{font-size:9.0984px;}
</style>
<v:documentProperties  v:langID="1033" v:metric="true" v:viewMarkup="false"></v:documentProperties>
<path class="st0" d="M182.6,30.3H167v24h15.6V30.3"/>
<text transform="matrix(1 0 0 1 171.3261 46.499)" class="st1 st2 st3">=<v:paragraph  v:horizAlign="1"></v:paragraph><v:tabList></v:tabList></text>
<g class="st4">
	<path class="st5" d="M15.1,45.5c0,0.1,0,0.2,0,0.3c0,0.1,0,0.1,0,0.2c0,0.1,0,0.1-0.1,0.1s-0.1,0.1-0.1,0.1
		c-0.1,0.1-0.1,0.1-0.3,0.2s-0.3,0.2-0.5,0.2s-0.4,0.1-0.7,0.2S12.8,47,12.5,47c-0.6,0-1.2-0.1-1.6-0.3s-0.9-0.5-1.2-0.8
		C9.3,45.5,9,45,8.8,44.4s-0.3-1.2-0.3-1.9c0-0.8,0.1-1.4,0.3-2s0.5-1.1,0.8-1.5s0.8-0.7,1.3-0.9s1.1-0.3,1.7-0.3
		c0.2,0,0.5,0,0.7,0.1S13.8,38,14,38c0.2,0.1,0.4,0.1,0.5,0.2s0.3,0.2,0.3,0.2s0.1,0.1,0.1,0.2s0,0.1,0.1,0.2s0,0.1,0,0.2
		s0,0.2,0,0.3c0,0.1,0,0.3,0,0.3s0,0.2,0,0.2S15,40,14.9,40.1s-0.1,0-0.1,0c-0.1,0-0.2,0-0.3-0.1c-0.1-0.1-0.2-0.2-0.4-0.3
		c-0.2-0.1-0.4-0.2-0.6-0.3c-0.2-0.1-0.5-0.1-0.8-0.1c-0.4,0-0.7,0.1-0.9,0.2s-0.5,0.3-0.7,0.6s-0.3,0.6-0.4,1s-0.2,0.8-0.2,1.3
		c0,0.5,0.1,1,0.2,1.4c0.1,0.4,0.3,0.7,0.5,0.9s0.4,0.4,0.7,0.6c0.3,0.1,0.6,0.2,0.9,0.2c0.3,0,0.6,0,0.8-0.1s0.4-0.2,0.6-0.2
		s0.3-0.2,0.4-0.2s0.2-0.1,0.2-0.1c0,0,0.1,0,0.1,0s0.1,0.1,0.1,0.1s0,0.1,0,0.2C15.1,45.2,15.1,45.3,15.1,45.5z"/>
	<path class="st5" d="M22.5,43.5c0,0.5-0.1,1-0.2,1.4s-0.3,0.8-0.6,1.1s-0.6,0.5-1,0.7S19.7,47,19.1,47c-0.5,0-1-0.1-1.4-0.2
		s-0.7-0.4-1-0.7s-0.5-0.6-0.6-1.1s-0.2-0.9-0.2-1.4c0-0.5,0.1-1,0.2-1.4s0.3-0.8,0.6-1.1s0.6-0.5,1-0.7s0.9-0.3,1.5-0.3
		c0.5,0,1,0.1,1.4,0.2c0.4,0.1,0.7,0.4,1,0.7s0.5,0.6,0.6,1.1S22.5,42.9,22.5,43.5z M20.7,43.5c0-0.3,0-0.6-0.1-0.8
		s-0.1-0.5-0.2-0.7s-0.3-0.3-0.5-0.4s-0.4-0.2-0.7-0.2c-0.3,0-0.5,0-0.7,0.1c-0.2,0.1-0.3,0.2-0.5,0.4c-0.1,0.2-0.2,0.4-0.3,0.6
		s-0.1,0.5-0.1,0.9c0,0.3,0,0.6,0.1,0.8s0.1,0.5,0.2,0.7s0.3,0.3,0.5,0.4s0.4,0.2,0.7,0.2c0.3,0,0.5,0,0.7-0.1
		c0.2-0.1,0.3-0.2,0.5-0.4s0.2-0.4,0.3-0.6S20.7,43.9,20.7,43.5z"/>
	<path class="st5" d="M33.5,46.6c0,0,0,0.1,0,0.1s-0.1,0.1-0.1,0.1c-0.1,0-0.2,0-0.3,0.1c-0.1,0-0.2,0-0.4,0c-0.2,0-0.3,0-0.4,0
		c-0.1,0-0.2,0-0.3-0.1c-0.1,0-0.1-0.1-0.1-0.1c0,0,0-0.1,0-0.1V43c0-0.2,0-0.4-0.1-0.6c0-0.2-0.1-0.3-0.2-0.4
		c-0.1-0.1-0.2-0.2-0.3-0.3c-0.1-0.1-0.3-0.1-0.4-0.1c-0.2,0-0.4,0.1-0.6,0.2s-0.4,0.4-0.7,0.7v4.1c0,0,0,0.1,0,0.1
		s-0.1,0.1-0.1,0.1s-0.2,0-0.3,0.1c-0.1,0-0.2,0-0.4,0c-0.2,0-0.3,0-0.4,0c-0.1,0-0.2,0-0.3-0.1s-0.1-0.1-0.1-0.1s0-0.1,0-0.1V43
		c0-0.2,0-0.4-0.1-0.6s-0.1-0.3-0.2-0.4c-0.1-0.1-0.2-0.2-0.3-0.3c-0.1-0.1-0.3-0.1-0.4-0.1c-0.2,0-0.4,0.1-0.6,0.2
		s-0.4,0.4-0.7,0.7v4.1c0,0,0,0.1,0,0.1s-0.1,0.1-0.1,0.1s-0.2,0-0.3,0.1c-0.1,0-0.2,0-0.4,0s-0.3,0-0.4,0c-0.1,0-0.2,0-0.3-0.1
		s-0.1-0.1-0.1-0.1s0-0.1,0-0.1v-6.1c0,0,0-0.1,0-0.1s0.1-0.1,0.1-0.1s0.1,0,0.2-0.1c0.1,0,0.2,0,0.4,0c0.1,0,0.3,0,0.4,0
		c0.1,0,0.2,0,0.2,0.1s0.1,0.1,0.1,0.1s0,0.1,0,0.1v0.7c0.3-0.4,0.7-0.6,1-0.8s0.7-0.3,1-0.3c0.3,0,0.5,0,0.7,0.1
		c0.2,0.1,0.4,0.1,0.5,0.2c0.2,0.1,0.3,0.2,0.4,0.4s0.2,0.3,0.3,0.5c0.2-0.2,0.4-0.4,0.5-0.5s0.3-0.3,0.5-0.3s0.3-0.2,0.5-0.2
		c0.2,0,0.3-0.1,0.5-0.1c0.4,0,0.7,0.1,1,0.2c0.3,0.1,0.5,0.3,0.7,0.6c0.2,0.2,0.3,0.5,0.4,0.8c0.1,0.3,0.1,0.6,0.1,1V46.6z"/>
	<path class="st5" d="M41.4,43.4c0,0.5-0.1,1-0.2,1.5c-0.1,0.4-0.3,0.8-0.5,1.1s-0.5,0.5-0.8,0.7S39.1,47,38.7,47
		c-0.2,0-0.3,0-0.5-0.1s-0.3-0.1-0.4-0.2c-0.1-0.1-0.3-0.2-0.4-0.3s-0.3-0.2-0.4-0.4V49c0,0,0,0.1,0,0.1s-0.1,0.1-0.1,0.1
		c-0.1,0-0.2,0-0.3,0.1s-0.2,0-0.4,0s-0.3,0-0.4,0s-0.2,0-0.3-0.1c-0.1,0-0.1-0.1-0.1-0.1s0-0.1,0-0.1v-8.5c0,0,0-0.1,0-0.1
		s0.1-0.1,0.1-0.1s0.1,0,0.2-0.1c0.1,0,0.2,0,0.4,0c0.1,0,0.3,0,0.3,0c0.1,0,0.2,0,0.2,0.1s0.1,0.1,0.1,0.1s0,0.1,0,0.1v0.7
		c0.2-0.2,0.4-0.3,0.5-0.5c0.2-0.1,0.3-0.3,0.5-0.3c0.2-0.1,0.4-0.2,0.6-0.2s0.4-0.1,0.6-0.1c0.4,0,0.8,0.1,1.1,0.3
		c0.3,0.2,0.6,0.4,0.8,0.7s0.3,0.7,0.4,1.1S41.4,43,41.4,43.4z M39.6,43.6c0-0.3,0-0.5-0.1-0.7s-0.1-0.5-0.2-0.6s-0.2-0.3-0.4-0.4
		c-0.2-0.1-0.3-0.2-0.6-0.2c-0.1,0-0.2,0-0.3,0.1s-0.2,0.1-0.3,0.2s-0.2,0.2-0.4,0.3s-0.3,0.3-0.4,0.5v2c0.2,0.3,0.5,0.5,0.7,0.7
		c0.2,0.2,0.4,0.2,0.7,0.2c0.2,0,0.4-0.1,0.6-0.2s0.3-0.3,0.4-0.4s0.2-0.4,0.2-0.6S39.6,43.8,39.6,43.6z"/>
	<path class="st5" d="M48.9,43.5c0,0.5-0.1,1-0.2,1.4s-0.3,0.8-0.6,1.1s-0.6,0.5-1,0.7S46.1,47,45.6,47c-0.5,0-1-0.1-1.4-0.2
		s-0.7-0.4-1-0.7s-0.5-0.6-0.6-1.1s-0.2-0.9-0.2-1.4c0-0.5,0.1-1,0.2-1.4s0.3-0.8,0.6-1.1s0.6-0.5,1-0.7s0.9-0.3,1.5-0.3
		c0.5,0,1,0.1,1.4,0.2c0.4,0.1,0.7,0.4,1,0.7s0.5,0.6,0.6,1.1S48.9,42.9,48.9,43.5z M47.1,43.5c0-0.3,0-0.6-0.1-0.8
		s-0.1-0.5-0.2-0.7s-0.3-0.3-0.5-0.4s-0.4-0.2-0.7-0.2c-0.3,0-0.5,0-0.7,0.1c-0.2,0.1-0.3,0.2-0.5,0.4c-0.1,0.2-0.2,0.4-0.3,0.6
		s-0.1,0.5-0.1,0.9c0,0.3,0,0.6,0.1,0.8s0.1,0.5,0.2,0.7s0.3,0.3,0.5,0.4s0.4,0.2,0.7,0.2c0.3,0,0.5,0,0.7-0.1
		c0.2-0.1,0.3-0.2,0.5-0.4s0.2-0.4,0.3-0.6S47.1,43.9,47.1,43.5z"/>
	<path class="st5" d="M56.1,46.6c0,0,0,0.1,0,0.1s-0.1,0.1-0.1,0.1s-0.2,0-0.3,0.1c-0.1,0-0.2,0-0.4,0c-0.2,0-0.3,0-0.4,0
		c-0.1,0-0.2,0-0.3-0.1s-0.1-0.1-0.1-0.1s0-0.1,0-0.1v-3.5c0-0.3,0-0.5-0.1-0.7s-0.1-0.3-0.2-0.4c-0.1-0.1-0.2-0.2-0.3-0.3
		c-0.1-0.1-0.3-0.1-0.5-0.1c-0.2,0-0.4,0.1-0.7,0.2s-0.5,0.4-0.7,0.7v4.1c0,0,0,0.1,0,0.1s-0.1,0.1-0.1,0.1s-0.2,0-0.3,0.1
		c-0.1,0-0.2,0-0.4,0s-0.3,0-0.4,0c-0.1,0-0.2,0-0.3-0.1s-0.1-0.1-0.1-0.1s0-0.1,0-0.1v-6.1c0,0,0-0.1,0-0.1s0.1-0.1,0.1-0.1
		s0.1,0,0.2-0.1c0.1,0,0.2,0,0.4,0c0.1,0,0.3,0,0.4,0c0.1,0,0.2,0,0.2,0.1s0.1,0.1,0.1,0.1s0,0.1,0,0.1v0.7c0.3-0.4,0.7-0.6,1-0.8
		s0.7-0.3,1.1-0.3c0.4,0,0.8,0.1,1,0.2s0.5,0.3,0.7,0.6c0.2,0.2,0.3,0.5,0.4,0.8s0.1,0.7,0.1,1.1V46.6z"/>
	<path class="st5" d="M63.4,43.4c0,0.2,0,0.4-0.1,0.5C63.2,43.9,63,44,62.9,44h-3.7c0,0.3,0,0.5,0.1,0.7s0.2,0.4,0.3,0.5
		c0.1,0.1,0.3,0.3,0.5,0.3s0.5,0.1,0.8,0.1c0.3,0,0.6,0,0.8-0.1c0.2,0,0.4-0.1,0.6-0.1c0.2-0.1,0.3-0.1,0.4-0.1
		c0.1,0,0.2-0.1,0.3-0.1c0,0,0.1,0,0.1,0c0,0,0.1,0,0.1,0.1s0,0.1,0,0.2s0,0.2,0,0.3c0,0.1,0,0.2,0,0.3c0,0.1,0,0.1,0,0.2
		s0,0.1,0,0.1s0,0.1-0.1,0.1s-0.1,0.1-0.2,0.1s-0.3,0.1-0.5,0.2c-0.2,0.1-0.4,0.1-0.7,0.1C61.3,47,61,47,60.7,47
		c-0.5,0-1-0.1-1.4-0.2s-0.7-0.3-1-0.6s-0.5-0.6-0.6-1.1s-0.2-0.9-0.2-1.5c0-0.5,0.1-1,0.2-1.5c0.1-0.4,0.3-0.8,0.6-1.1
		c0.3-0.3,0.6-0.5,1-0.7s0.8-0.2,1.3-0.2c0.5,0,0.9,0.1,1.3,0.2s0.7,0.4,0.9,0.6s0.4,0.6,0.5,0.9s0.2,0.8,0.2,1.2V43.4z M61.7,42.9
		c0-0.5-0.1-0.9-0.3-1.1c-0.2-0.3-0.5-0.4-1-0.4c-0.2,0-0.4,0-0.6,0.1s-0.3,0.2-0.4,0.3c-0.1,0.1-0.2,0.3-0.2,0.5
		c-0.1,0.2-0.1,0.4-0.1,0.6H61.7z"/>
	<path class="st5" d="M70.6,46.6c0,0,0,0.1,0,0.1s-0.1,0.1-0.1,0.1s-0.2,0-0.3,0.1c-0.1,0-0.2,0-0.4,0c-0.2,0-0.3,0-0.4,0
		c-0.1,0-0.2,0-0.3-0.1S69,46.7,69,46.7s0-0.1,0-0.1v-3.5c0-0.3,0-0.5-0.1-0.7s-0.1-0.3-0.2-0.4c-0.1-0.1-0.2-0.2-0.3-0.3
		c-0.1-0.1-0.3-0.1-0.5-0.1c-0.2,0-0.4,0.1-0.7,0.2s-0.5,0.4-0.7,0.7v4.1c0,0,0,0.1,0,0.1s-0.1,0.1-0.1,0.1s-0.2,0-0.3,0.1
		c-0.1,0-0.2,0-0.4,0s-0.3,0-0.4,0c-0.1,0-0.2,0-0.3-0.1s-0.1-0.1-0.1-0.1s0-0.1,0-0.1v-6.1c0,0,0-0.1,0-0.1s0.1-0.1,0.1-0.1
		s0.1,0,0.2-0.1c0.1,0,0.2,0,0.4,0c0.1,0,0.3,0,0.4,0c0.1,0,0.2,0,0.2,0.1s0.1,0.1,0.1,0.1s0,0.1,0,0.1v0.7c0.3-0.4,0.7-0.6,1-0.8
		s0.7-0.3,1.1-0.3c0.4,0,0.8,0.1,1,0.2s0.5,0.3,0.7,0.6c0.2,0.2,0.3,0.5,0.4,0.8s0.1,0.7,0.1,1.1V46.6z"/>
	<path class="st5" d="M75.9,46c0,0.2,0,0.4,0,0.5c0,0.1-0.1,0.2-0.1,0.2c0,0-0.1,0.1-0.2,0.1c-0.1,0-0.2,0.1-0.3,0.1
		c-0.1,0-0.2,0-0.3,0.1s-0.3,0-0.4,0c-0.3,0-0.6,0-0.9-0.1s-0.5-0.2-0.6-0.4c-0.2-0.2-0.3-0.4-0.4-0.7s-0.1-0.6-0.1-1v-3.1h-0.7
		c-0.1,0-0.2-0.1-0.2-0.2c0-0.1-0.1-0.3-0.1-0.5c0-0.1,0-0.2,0-0.3s0-0.2,0.1-0.2c0-0.1,0.1-0.1,0.1-0.1s0.1,0,0.1,0h0.7v-1.4
		c0,0,0-0.1,0-0.1s0.1-0.1,0.1-0.1c0.1,0,0.2,0,0.3-0.1c0.1,0,0.2,0,0.4,0c0.2,0,0.3,0,0.4,0c0.1,0,0.2,0,0.3,0.1
		c0.1,0,0.1,0.1,0.1,0.1s0,0.1,0,0.1v1.4h1.3c0,0,0.1,0,0.1,0s0.1,0.1,0.1,0.1c0,0.1,0,0.1,0.1,0.2s0,0.2,0,0.3c0,0.3,0,0.4-0.1,0.5
		c0,0.1-0.1,0.2-0.2,0.2h-1.3v2.9c0,0.3,0.1,0.6,0.2,0.7c0.1,0.2,0.3,0.2,0.6,0.2c0.1,0,0.2,0,0.2,0c0.1,0,0.1,0,0.2-0.1
		s0.1,0,0.1-0.1c0,0,0.1,0,0.1,0c0,0,0.1,0,0.1,0c0,0,0,0,0.1,0.1s0,0.1,0,0.2S75.9,45.9,75.9,46z"/>
	<path class="st5" d="M85.7,44.2c0,0.5-0.1,0.9-0.3,1.2S85,46,84.7,46.3c-0.3,0.2-0.6,0.4-1,0.5S82.9,47,82.4,47
		c-0.3,0-0.6,0-0.9-0.1s-0.5-0.1-0.7-0.2c-0.2-0.1-0.4-0.1-0.5-0.2s-0.2-0.1-0.3-0.2S80,46.1,80,46c0-0.1,0-0.3,0-0.5
		c0-0.1,0-0.3,0-0.4s0-0.2,0-0.2s0-0.1,0.1-0.1c0,0,0.1,0,0.1,0c0.1,0,0.2,0,0.3,0.1s0.3,0.2,0.4,0.2s0.4,0.2,0.7,0.2
		s0.5,0.1,0.9,0.1c0.2,0,0.4,0,0.6-0.1c0.2-0.1,0.3-0.1,0.4-0.2s0.2-0.2,0.3-0.4s0.1-0.3,0.1-0.5c0-0.2-0.1-0.4-0.2-0.5
		c-0.1-0.1-0.3-0.3-0.4-0.4c-0.2-0.1-0.4-0.2-0.6-0.3c-0.2-0.1-0.5-0.2-0.7-0.3s-0.5-0.2-0.7-0.4c-0.2-0.1-0.4-0.3-0.6-0.5
		c-0.2-0.2-0.3-0.4-0.4-0.7s-0.2-0.6-0.2-1c0-0.4,0.1-0.8,0.2-1.1s0.4-0.6,0.6-0.8s0.6-0.4,0.9-0.5s0.7-0.2,1.2-0.2
		c0.2,0,0.4,0,0.6,0s0.4,0.1,0.6,0.1s0.3,0.1,0.5,0.2s0.2,0.1,0.3,0.2s0.1,0.1,0.1,0.1s0,0.1,0,0.1c0,0.1,0,0.1,0,0.2
		c0,0.1,0,0.2,0,0.3c0,0.1,0,0.2,0,0.3s0,0.2,0,0.2s0,0.1-0.1,0.1s-0.1,0-0.1,0s-0.1,0-0.2-0.1s-0.2-0.1-0.4-0.2s-0.3-0.1-0.6-0.2
		s-0.4-0.1-0.7-0.1c-0.2,0-0.4,0-0.5,0.1s-0.3,0.1-0.4,0.2c-0.1,0.1-0.2,0.2-0.2,0.3s-0.1,0.2-0.1,0.4c0,0.2,0.1,0.4,0.2,0.5
		s0.3,0.3,0.4,0.4c0.2,0.1,0.4,0.2,0.6,0.3c0.2,0.1,0.5,0.2,0.7,0.3s0.5,0.2,0.7,0.4c0.2,0.1,0.4,0.3,0.6,0.5
		c0.2,0.2,0.3,0.4,0.4,0.7C85.6,43.5,85.7,43.8,85.7,44.2z"/>
	<path class="st5" d="M93.6,46.6c0,0,0,0.1,0,0.1s-0.1,0.1-0.1,0.1s-0.2,0-0.3,0s-0.3,0-0.5,0c-0.2,0-0.3,0-0.5,0s-0.2,0-0.3-0.1
		c-0.1,0-0.1-0.1-0.1-0.1c0,0-0.1-0.1-0.1-0.1l-0.8-2c-0.1-0.2-0.2-0.4-0.3-0.6c-0.1-0.2-0.2-0.3-0.3-0.4s-0.2-0.2-0.4-0.3
		s-0.3-0.1-0.5-0.1h-0.6v3.4c0,0,0,0.1,0,0.1s-0.1,0.1-0.1,0.1s-0.2,0-0.3,0.1s-0.3,0-0.4,0c-0.2,0-0.3,0-0.4,0s-0.2,0-0.3-0.1
		s-0.1-0.1-0.1-0.1s0-0.1,0-0.1v-8c0-0.2,0.1-0.3,0.2-0.4s0.2-0.1,0.4-0.1h2.3c0.2,0,0.4,0,0.6,0s0.3,0,0.4,0c0.4,0,0.7,0.1,1,0.3
		s0.5,0.3,0.7,0.5s0.3,0.4,0.5,0.7c0.1,0.3,0.2,0.6,0.2,0.9c0,0.3,0,0.6-0.1,0.8c-0.1,0.2-0.2,0.5-0.3,0.7s-0.3,0.4-0.5,0.5
		s-0.5,0.3-0.7,0.3c0.1,0.1,0.3,0.1,0.4,0.2s0.2,0.2,0.3,0.3s0.2,0.3,0.3,0.4c0.1,0.2,0.2,0.4,0.3,0.6l0.7,1.7
		c0.1,0.2,0.1,0.3,0.1,0.4C93.6,46.5,93.6,46.5,93.6,46.6z M91.3,40.6c0-0.3-0.1-0.5-0.2-0.7s-0.3-0.3-0.6-0.4c-0.1,0-0.2,0-0.3-0.1
		s-0.3,0-0.5,0h-0.8v2.5h0.9c0.3,0,0.5,0,0.7-0.1s0.4-0.1,0.5-0.3c0.1-0.1,0.2-0.2,0.3-0.4S91.3,40.8,91.3,40.6z"/>
	<path class="st5" d="M89.8,35.1c0.1,0,0.3,0,0.4,0s0.2,0,0.3,0s0.1,0,0.2,0.1s0.1,0.1,0.2,0.2l1.4,1.5c0.1,0.1,0.1,0.1,0.1,0.2
		c0,0,0,0.1,0,0.1c0,0-0.1,0-0.2,0.1s-0.2,0-0.4,0c-0.2,0-0.3,0-0.5,0s-0.2,0-0.3,0c-0.1,0-0.1,0-0.2-0.1s-0.1-0.1-0.1-0.1L89.8,36
		L89,36.9c0,0-0.1,0.1-0.1,0.1s-0.1,0-0.2,0.1s-0.2,0-0.3,0s-0.3,0-0.5,0c-0.2,0-0.3,0-0.4,0c-0.1,0-0.2,0-0.2-0.1
		c0,0-0.1-0.1,0-0.1s0-0.1,0.1-0.2l1.3-1.5c0.1-0.1,0.1-0.1,0.2-0.1s0.1-0.1,0.2-0.1s0.2,0,0.3,0S89.7,35.1,89.8,35.1z"/>
	<path class="st5" d="M99.8,46.1c0,0.1,0,0.3,0,0.3c0,0.1,0,0.2-0.1,0.2s-0.1,0.1-0.1,0.1s-0.1,0-0.1,0h-4.1c-0.2,0-0.3,0-0.4-0.1
		S95,46.4,95,46.2v-8c0,0,0-0.1,0-0.1s0.1-0.1,0.1-0.1s0.2,0,0.3-0.1s0.3,0,0.4,0c0.2,0,0.3,0,0.4,0s0.2,0,0.3,0.1s0.1,0.1,0.1,0.1
		s0,0.1,0,0.1v7.1h2.8c0,0,0.1,0,0.1,0c0,0,0.1,0.1,0.1,0.1c0,0.1,0,0.1,0.1,0.2C99.8,45.8,99.8,45.9,99.8,46.1z"/>
	<path class="st5" d="M109.5,41.5c0,0.2,0,0.4-0.1,0.5s-0.1,0.2-0.2,0.2h-5.2c-0.1,0-0.2,0-0.2-0.2s-0.1-0.3-0.1-0.5
		c0-0.2,0-0.4,0.1-0.5s0.1-0.2,0.2-0.2h5.2c0.1,0,0.2,0,0.2,0.2S109.5,41.3,109.5,41.5z M109.5,44.3c0,0.2,0,0.4-0.1,0.5
		s-0.1,0.1-0.2,0.1h-5.2c-0.1,0-0.2,0-0.2-0.1s-0.1-0.3-0.1-0.5c0-0.2,0-0.4,0.1-0.5s0.1-0.2,0.2-0.2h5.2c0.1,0,0.2,0.1,0.2,0.2
		S109.5,44,109.5,44.3z"/>
</g>
<g class="st4">
	<path class="st5" d="M277.3,45.5c0,0.1,0,0.2,0,0.3c0,0.1,0,0.1,0,0.2c0,0.1,0,0.1-0.1,0.1c0,0-0.1,0.1-0.1,0.1
		c-0.1,0.1-0.1,0.1-0.3,0.2s-0.3,0.2-0.5,0.2c-0.2,0.1-0.4,0.1-0.7,0.2S275,47,274.7,47c-0.6,0-1.2-0.1-1.6-0.3s-0.9-0.5-1.2-0.8
		c-0.3-0.4-0.6-0.8-0.8-1.4s-0.3-1.2-0.3-1.9c0-0.8,0.1-1.4,0.3-2s0.5-1.1,0.8-1.5s0.8-0.7,1.3-0.9s1.1-0.3,1.7-0.3
		c0.2,0,0.5,0,0.7,0.1c0.2,0,0.4,0.1,0.6,0.2c0.2,0.1,0.4,0.1,0.5,0.2c0.2,0.1,0.3,0.2,0.3,0.2s0.1,0.1,0.1,0.2c0,0,0,0.1,0.1,0.2
		s0,0.1,0,0.2s0,0.2,0,0.3c0,0.1,0,0.3,0,0.3c0,0.1,0,0.2,0,0.2c0,0.1-0.1,0.1-0.1,0.1c0,0-0.1,0-0.1,0c-0.1,0-0.2,0-0.3-0.1
		c-0.1-0.1-0.2-0.2-0.4-0.3c-0.2-0.1-0.4-0.2-0.6-0.3c-0.2-0.1-0.5-0.1-0.8-0.1c-0.4,0-0.7,0.1-0.9,0.2s-0.5,0.3-0.7,0.6
		s-0.3,0.6-0.4,1s-0.2,0.8-0.2,1.3c0,0.5,0.1,1,0.2,1.4c0.1,0.4,0.3,0.7,0.5,0.9s0.4,0.4,0.7,0.6c0.3,0.1,0.6,0.2,0.9,0.2
		c0.3,0,0.6,0,0.8-0.1s0.4-0.2,0.6-0.2c0.2-0.1,0.3-0.2,0.4-0.2c0.1-0.1,0.2-0.1,0.2-0.1c0,0,0.1,0,0.1,0s0,0.1,0.1,0.1
		c0,0.1,0,0.1,0,0.2C277.3,45.2,277.3,45.3,277.3,45.5z"/>
	<path class="st5" d="M284.7,43.5c0,0.5-0.1,1-0.2,1.4s-0.3,0.8-0.6,1.1c-0.3,0.3-0.6,0.5-1,0.7c-0.4,0.2-0.9,0.3-1.5,0.3
		c-0.5,0-1-0.1-1.4-0.2c-0.4-0.2-0.7-0.4-1-0.7c-0.3-0.3-0.5-0.6-0.6-1.1c-0.1-0.4-0.2-0.9-0.2-1.4c0-0.5,0.1-1,0.2-1.4
		c0.1-0.4,0.3-0.8,0.6-1.1c0.3-0.3,0.6-0.5,1-0.7s0.9-0.3,1.5-0.3c0.5,0,1,0.1,1.4,0.2c0.4,0.1,0.7,0.4,1,0.7
		c0.3,0.3,0.5,0.6,0.6,1.1C284.6,42.4,284.7,42.9,284.7,43.5z M282.9,43.5c0-0.3,0-0.6-0.1-0.8s-0.1-0.5-0.2-0.7
		c-0.1-0.2-0.3-0.3-0.5-0.4c-0.2-0.1-0.4-0.2-0.7-0.2c-0.3,0-0.5,0-0.7,0.1c-0.2,0.1-0.3,0.2-0.5,0.4c-0.1,0.2-0.2,0.4-0.3,0.6
		s-0.1,0.5-0.1,0.9c0,0.3,0,0.6,0.1,0.8c0,0.3,0.1,0.5,0.2,0.7c0.1,0.2,0.3,0.3,0.5,0.4s0.4,0.2,0.7,0.2c0.3,0,0.5,0,0.7-0.1
		c0.2-0.1,0.3-0.2,0.5-0.4s0.2-0.4,0.3-0.6C282.9,44.2,282.9,43.9,282.9,43.5z"/>
	<path class="st5" d="M295.7,46.6c0,0,0,0.1,0,0.1s-0.1,0.1-0.1,0.1c-0.1,0-0.2,0-0.3,0.1c-0.1,0-0.2,0-0.4,0c-0.2,0-0.3,0-0.4,0
		c-0.1,0-0.2,0-0.3-0.1s-0.1-0.1-0.1-0.1s0-0.1,0-0.1V43c0-0.2,0-0.4-0.1-0.6s-0.1-0.3-0.2-0.4c-0.1-0.1-0.2-0.2-0.3-0.3
		c-0.1-0.1-0.3-0.1-0.4-0.1c-0.2,0-0.4,0.1-0.6,0.2c-0.2,0.2-0.4,0.4-0.7,0.7v4.1c0,0,0,0.1,0,0.1s-0.1,0.1-0.1,0.1
		c-0.1,0-0.2,0-0.3,0.1c-0.1,0-0.2,0-0.4,0c-0.2,0-0.3,0-0.4,0c-0.1,0-0.2,0-0.3-0.1c-0.1,0-0.1-0.1-0.1-0.1s0-0.1,0-0.1V43
		c0-0.2,0-0.4-0.1-0.6c0-0.2-0.1-0.3-0.2-0.4c-0.1-0.1-0.2-0.2-0.3-0.3c-0.1-0.1-0.3-0.1-0.4-0.1c-0.2,0-0.4,0.1-0.6,0.2
		c-0.2,0.2-0.4,0.4-0.7,0.7v4.1c0,0,0,0.1,0,0.1s-0.1,0.1-0.1,0.1c-0.1,0-0.2,0-0.3,0.1c-0.1,0-0.2,0-0.4,0c-0.2,0-0.3,0-0.4,0
		c-0.1,0-0.2,0-0.3-0.1c-0.1,0-0.1-0.1-0.1-0.1s0-0.1,0-0.1v-6.1c0,0,0-0.1,0-0.1c0,0,0.1-0.1,0.1-0.1c0.1,0,0.1,0,0.2-0.1
		c0.1,0,0.2,0,0.4,0c0.1,0,0.3,0,0.4,0c0.1,0,0.2,0,0.2,0.1c0.1,0,0.1,0.1,0.1,0.1c0,0,0,0.1,0,0.1v0.7c0.3-0.4,0.7-0.6,1-0.8
		s0.7-0.3,1-0.3c0.2,0,0.5,0,0.7,0.1c0.2,0.1,0.4,0.1,0.5,0.2c0.2,0.1,0.3,0.2,0.4,0.4c0.1,0.1,0.2,0.3,0.3,0.5
		c0.2-0.2,0.4-0.4,0.5-0.5c0.2-0.1,0.3-0.3,0.5-0.3s0.3-0.2,0.5-0.2c0.2,0,0.3-0.1,0.5-0.1c0.4,0,0.7,0.1,1,0.2
		c0.3,0.1,0.5,0.3,0.7,0.6c0.2,0.2,0.3,0.5,0.4,0.8c0.1,0.3,0.1,0.6,0.1,1V46.6z"/>
	<path class="st5" d="M303.5,43.4c0,0.5-0.1,1-0.2,1.5c-0.1,0.4-0.3,0.8-0.5,1.1c-0.2,0.3-0.5,0.5-0.8,0.7c-0.3,0.2-0.7,0.2-1.1,0.2
		c-0.2,0-0.3,0-0.5-0.1c-0.1,0-0.3-0.1-0.4-0.2c-0.1-0.1-0.3-0.2-0.4-0.3s-0.3-0.2-0.4-0.4V49c0,0,0,0.1,0,0.1s-0.1,0.1-0.1,0.1
		c-0.1,0-0.2,0-0.3,0.1s-0.2,0-0.4,0c-0.2,0-0.3,0-0.4,0s-0.2,0-0.3-0.1c-0.1,0-0.1-0.1-0.1-0.1s0-0.1,0-0.1v-8.5c0,0,0-0.1,0-0.1
		c0,0,0.1-0.1,0.1-0.1c0.1,0,0.1,0,0.2-0.1c0.1,0,0.2,0,0.4,0c0.1,0,0.3,0,0.3,0c0.1,0,0.2,0,0.2,0.1c0.1,0,0.1,0.1,0.1,0.1
		c0,0,0,0.1,0,0.1v0.7c0.2-0.2,0.4-0.3,0.5-0.5c0.2-0.1,0.3-0.3,0.5-0.3c0.2-0.1,0.4-0.2,0.5-0.2c0.2,0,0.4-0.1,0.6-0.1
		c0.4,0,0.8,0.1,1.1,0.3c0.3,0.2,0.6,0.4,0.8,0.7s0.3,0.7,0.4,1.1C303.5,42.6,303.5,43,303.5,43.4z M301.8,43.6c0-0.3,0-0.5-0.1-0.7
		c0-0.2-0.1-0.5-0.2-0.6c-0.1-0.2-0.2-0.3-0.4-0.4c-0.2-0.1-0.3-0.2-0.6-0.2c-0.1,0-0.2,0-0.3,0.1c-0.1,0-0.2,0.1-0.3,0.2
		s-0.2,0.2-0.4,0.3s-0.3,0.3-0.4,0.5v2c0.2,0.3,0.5,0.5,0.7,0.7c0.2,0.2,0.4,0.2,0.7,0.2c0.2,0,0.4-0.1,0.6-0.2s0.3-0.3,0.4-0.4
		c0.1-0.2,0.2-0.4,0.2-0.6S301.8,43.8,301.8,43.6z"/>
	<path class="st5" d="M311.1,43.5c0,0.5-0.1,1-0.2,1.4s-0.3,0.8-0.6,1.1c-0.3,0.3-0.6,0.5-1,0.7c-0.4,0.2-0.9,0.3-1.5,0.3
		c-0.5,0-1-0.1-1.4-0.2c-0.4-0.2-0.7-0.4-1-0.7c-0.3-0.3-0.5-0.6-0.6-1.1c-0.1-0.4-0.2-0.9-0.2-1.4c0-0.5,0.1-1,0.2-1.4
		c0.1-0.4,0.3-0.8,0.6-1.1c0.3-0.3,0.6-0.5,1-0.7s0.9-0.3,1.5-0.3c0.5,0,1,0.1,1.4,0.2c0.4,0.1,0.7,0.4,1,0.7
		c0.3,0.3,0.5,0.6,0.6,1.1C311,42.4,311.1,42.9,311.1,43.5z M309.3,43.5c0-0.3,0-0.6-0.1-0.8s-0.1-0.5-0.2-0.7
		c-0.1-0.2-0.3-0.3-0.5-0.4c-0.2-0.1-0.4-0.2-0.7-0.2c-0.3,0-0.5,0-0.7,0.1c-0.2,0.1-0.3,0.2-0.5,0.4c-0.1,0.2-0.2,0.4-0.3,0.6
		s-0.1,0.5-0.1,0.9c0,0.3,0,0.6,0.1,0.8c0,0.3,0.1,0.5,0.2,0.7c0.1,0.2,0.3,0.3,0.5,0.4s0.4,0.2,0.7,0.2c0.3,0,0.5,0,0.7-0.1
		c0.2-0.1,0.3-0.2,0.5-0.4s0.2-0.4,0.3-0.6C309.3,44.2,309.3,43.9,309.3,43.5z"/>
	<path class="st5" d="M316.7,44.9c0,0.3-0.1,0.7-0.2,0.9s-0.3,0.5-0.5,0.7c-0.2,0.2-0.5,0.3-0.8,0.4c-0.3,0.1-0.7,0.1-1.1,0.1
		c-0.2,0-0.4,0-0.7-0.1c-0.2,0-0.4-0.1-0.6-0.1c-0.2-0.1-0.3-0.1-0.4-0.2s-0.2-0.1-0.2-0.2c-0.1,0-0.1-0.1-0.1-0.2s0-0.3,0-0.5
		c0-0.1,0-0.2,0-0.3c0-0.1,0-0.1,0-0.2c0,0,0-0.1,0.1-0.1c0,0,0.1,0,0.1,0c0,0,0.1,0,0.2,0.1c0.1,0.1,0.2,0.1,0.4,0.2
		c0.1,0.1,0.3,0.1,0.5,0.2c0.2,0.1,0.4,0.1,0.7,0.1c0.2,0,0.3,0,0.4,0c0.1,0,0.2-0.1,0.3-0.1s0.2-0.1,0.2-0.2c0-0.1,0.1-0.2,0.1-0.3
		c0-0.1,0-0.3-0.1-0.4c-0.1-0.1-0.2-0.2-0.3-0.3c-0.1-0.1-0.3-0.1-0.5-0.2c-0.2-0.1-0.4-0.1-0.5-0.2s-0.4-0.2-0.5-0.3
		c-0.2-0.1-0.3-0.2-0.5-0.4c-0.1-0.1-0.2-0.3-0.3-0.5c-0.1-0.2-0.1-0.5-0.1-0.7c0-0.3,0.1-0.6,0.2-0.8c0.1-0.2,0.3-0.5,0.5-0.6
		c0.2-0.2,0.5-0.3,0.8-0.4s0.7-0.1,1-0.1c0.2,0,0.4,0,0.6,0c0.2,0,0.3,0.1,0.5,0.1c0.1,0,0.3,0.1,0.4,0.1c0.1,0,0.2,0.1,0.2,0.1
		c0,0,0.1,0.1,0.1,0.1c0,0,0,0.1,0,0.1c0,0,0,0.1,0,0.2c0,0.1,0,0.2,0,0.3c0,0.1,0,0.2,0,0.3s0,0.1,0,0.2c0,0,0,0.1-0.1,0.1
		c0,0-0.1,0-0.1,0c0,0-0.1,0-0.2-0.1c-0.1,0-0.2-0.1-0.3-0.2s-0.3-0.1-0.5-0.2s-0.4-0.1-0.6-0.1c-0.2,0-0.3,0-0.4,0
		c-0.1,0-0.2,0.1-0.3,0.1c-0.1,0.1-0.1,0.1-0.2,0.2c0,0.1-0.1,0.2-0.1,0.3c0,0.1,0,0.3,0.1,0.4c0.1,0.1,0.2,0.2,0.3,0.3
		c0.1,0.1,0.3,0.1,0.5,0.2c0.2,0.1,0.4,0.1,0.5,0.2s0.4,0.2,0.5,0.3c0.2,0.1,0.3,0.2,0.5,0.4c0.1,0.1,0.3,0.3,0.3,0.5
		C316.7,44.3,316.7,44.6,316.7,44.9z"/>
	<path class="st5" d="M319.9,38.4c0,0.3-0.1,0.6-0.2,0.7c-0.1,0.1-0.4,0.2-0.8,0.2c-0.4,0-0.6-0.1-0.8-0.2c-0.1-0.1-0.2-0.4-0.2-0.7
		c0-0.3,0.1-0.6,0.2-0.7c0.1-0.1,0.4-0.2,0.8-0.2c0.4,0,0.6,0.1,0.8,0.2S319.9,38.1,319.9,38.4z M319.8,46.6c0,0,0,0.1,0,0.1
		s-0.1,0.1-0.1,0.1c-0.1,0-0.2,0-0.3,0.1c-0.1,0-0.2,0-0.4,0c-0.2,0-0.3,0-0.4,0c-0.1,0-0.2,0-0.3-0.1c-0.1,0-0.1-0.1-0.1-0.1
		s0-0.1,0-0.1v-6.1c0,0,0-0.1,0-0.1s0.1-0.1,0.1-0.1c0.1,0,0.2,0,0.3-0.1s0.2,0,0.4,0c0.2,0,0.3,0,0.4,0s0.2,0,0.3,0.1
		c0.1,0,0.1,0.1,0.1,0.1s0,0.1,0,0.1V46.6z"/>
	<path class="st5" d="M325.1,46c0,0.2,0,0.4,0,0.5c0,0.1-0.1,0.2-0.1,0.2c0,0-0.1,0.1-0.2,0.1c-0.1,0-0.2,0.1-0.3,0.1
		c-0.1,0-0.2,0-0.3,0.1c-0.1,0-0.3,0-0.4,0c-0.3,0-0.6,0-0.9-0.1c-0.2-0.1-0.5-0.2-0.6-0.4c-0.2-0.2-0.3-0.4-0.4-0.7
		c-0.1-0.3-0.1-0.6-0.1-1v-3.1H321c-0.1,0-0.2-0.1-0.2-0.2c0-0.1-0.1-0.3-0.1-0.5c0-0.1,0-0.2,0-0.3c0-0.1,0-0.2,0.1-0.2
		c0-0.1,0.1-0.1,0.1-0.1s0.1,0,0.1,0h0.7v-1.4c0,0,0-0.1,0-0.1c0,0,0.1-0.1,0.1-0.1c0.1,0,0.2,0,0.3-0.1c0.1,0,0.2,0,0.4,0
		c0.2,0,0.3,0,0.4,0c0.1,0,0.2,0,0.3,0.1c0.1,0,0.1,0.1,0.1,0.1s0,0.1,0,0.1v1.4h1.3c0,0,0.1,0,0.1,0s0.1,0.1,0.1,0.1
		c0,0.1,0,0.1,0.1,0.2c0,0.1,0,0.2,0,0.3c0,0.3,0,0.4-0.1,0.5c0,0.1-0.1,0.2-0.2,0.2h-1.3v2.9c0,0.3,0.1,0.6,0.2,0.7
		c0.1,0.2,0.3,0.2,0.6,0.2c0.1,0,0.2,0,0.2,0c0.1,0,0.1,0,0.2-0.1c0.1,0,0.1,0,0.1-0.1c0,0,0.1,0,0.1,0c0,0,0.1,0,0.1,0
		c0,0,0,0,0.1,0.1s0,0.1,0,0.2C325.1,45.7,325.1,45.9,325.1,46z"/>
	<path class="st5" d="M332,43.4c0,0.2,0,0.4-0.1,0.5c-0.1,0.1-0.2,0.1-0.4,0.1h-3.7c0,0.3,0,0.5,0.1,0.7s0.2,0.4,0.3,0.5
		c0.1,0.1,0.3,0.3,0.5,0.3s0.5,0.1,0.8,0.1c0.3,0,0.6,0,0.8-0.1c0.2,0,0.4-0.1,0.6-0.1c0.2-0.1,0.3-0.1,0.4-0.1
		c0.1,0,0.2-0.1,0.3-0.1c0,0,0.1,0,0.1,0c0,0,0.1,0,0.1,0.1c0,0,0,0.1,0,0.2s0,0.2,0,0.3c0,0.1,0,0.2,0,0.3c0,0.1,0,0.1,0,0.2
		c0,0,0,0.1,0,0.1c0,0,0,0.1-0.1,0.1c0,0-0.1,0.1-0.2,0.1c-0.1,0.1-0.3,0.1-0.5,0.2c-0.2,0.1-0.4,0.1-0.7,0.1
		c-0.3,0-0.5,0.1-0.8,0.1c-0.5,0-1-0.1-1.4-0.2c-0.4-0.1-0.7-0.3-1-0.6s-0.5-0.6-0.6-1.1c-0.1-0.4-0.2-0.9-0.2-1.5
		c0-0.5,0.1-1,0.2-1.5c0.1-0.4,0.3-0.8,0.6-1.1c0.3-0.3,0.6-0.5,1-0.7c0.4-0.2,0.8-0.2,1.3-0.2c0.5,0,0.9,0.1,1.3,0.2
		s0.7,0.4,0.9,0.6s0.4,0.6,0.5,0.9s0.2,0.8,0.2,1.2V43.4z M330.3,42.9c0-0.5-0.1-0.9-0.3-1.1c-0.2-0.3-0.5-0.4-1-0.4
		c-0.2,0-0.4,0-0.6,0.1c-0.2,0.1-0.3,0.2-0.4,0.3c-0.1,0.1-0.2,0.3-0.2,0.5c-0.1,0.2-0.1,0.4-0.1,0.6H330.3z"/>
	<path class="st5" d="M341.9,44.2c0,0.5-0.1,0.9-0.3,1.2c-0.2,0.4-0.4,0.6-0.7,0.9c-0.3,0.2-0.6,0.4-1,0.5s-0.8,0.2-1.3,0.2
		c-0.3,0-0.6,0-0.9-0.1c-0.3,0-0.5-0.1-0.7-0.2c-0.2-0.1-0.4-0.1-0.5-0.2c-0.1-0.1-0.2-0.1-0.3-0.2c-0.1-0.1-0.1-0.1-0.1-0.3
		c0-0.1,0-0.3,0-0.5c0-0.1,0-0.3,0-0.4c0-0.1,0-0.2,0-0.2s0-0.1,0.1-0.1c0,0,0.1,0,0.1,0c0.1,0,0.2,0,0.3,0.1s0.3,0.2,0.4,0.2
		c0.2,0.1,0.4,0.2,0.7,0.2s0.5,0.1,0.9,0.1c0.2,0,0.4,0,0.6-0.1c0.2-0.1,0.3-0.1,0.4-0.2c0.1-0.1,0.2-0.2,0.3-0.4
		c0.1-0.1,0.1-0.3,0.1-0.5c0-0.2-0.1-0.4-0.2-0.5c-0.1-0.1-0.3-0.3-0.4-0.4c-0.2-0.1-0.4-0.2-0.6-0.3c-0.2-0.1-0.5-0.2-0.7-0.3
		c-0.2-0.1-0.5-0.2-0.7-0.4c-0.2-0.1-0.4-0.3-0.6-0.5c-0.2-0.2-0.3-0.4-0.4-0.7s-0.2-0.6-0.2-1c0-0.4,0.1-0.8,0.2-1.1
		s0.4-0.6,0.6-0.8s0.6-0.4,0.9-0.5s0.7-0.2,1.2-0.2c0.2,0,0.4,0,0.6,0c0.2,0,0.4,0.1,0.6,0.1c0.2,0.1,0.3,0.1,0.5,0.2
		c0.1,0.1,0.2,0.1,0.3,0.2c0,0,0.1,0.1,0.1,0.1c0,0,0,0.1,0,0.1c0,0.1,0,0.1,0,0.2c0,0.1,0,0.2,0,0.3c0,0.1,0,0.2,0,0.3s0,0.2,0,0.2
		c0,0.1,0,0.1-0.1,0.1c0,0-0.1,0-0.1,0c0,0-0.1,0-0.2-0.1s-0.2-0.1-0.4-0.2c-0.2-0.1-0.3-0.1-0.6-0.2c-0.2-0.1-0.4-0.1-0.7-0.1
		c-0.2,0-0.4,0-0.5,0.1c-0.1,0-0.3,0.1-0.4,0.2c-0.1,0.1-0.2,0.2-0.2,0.3s-0.1,0.2-0.1,0.4c0,0.2,0.1,0.4,0.2,0.5
		c0.1,0.1,0.2,0.3,0.4,0.4c0.2,0.1,0.4,0.2,0.6,0.3c0.2,0.1,0.5,0.2,0.7,0.3c0.2,0.1,0.5,0.2,0.7,0.4c0.2,0.1,0.4,0.3,0.6,0.5
		c0.2,0.2,0.3,0.4,0.4,0.7C341.8,43.5,341.9,43.8,341.9,44.2z"/>
	<path class="st5" d="M349.8,46.6c0,0,0,0.1,0,0.1c0,0-0.1,0.1-0.1,0.1s-0.2,0-0.3,0c-0.1,0-0.3,0-0.5,0c-0.2,0-0.3,0-0.5,0
		c-0.1,0-0.2,0-0.3-0.1c-0.1,0-0.1-0.1-0.1-0.1c0,0,0-0.1-0.1-0.1l-0.8-2c-0.1-0.2-0.2-0.4-0.3-0.6c-0.1-0.2-0.2-0.3-0.3-0.4
		c-0.1-0.1-0.2-0.2-0.4-0.3c-0.1-0.1-0.3-0.1-0.5-0.1h-0.6v3.4c0,0,0,0.1,0,0.1c0,0-0.1,0.1-0.1,0.1s-0.2,0-0.3,0.1
		c-0.1,0-0.3,0-0.4,0c-0.2,0-0.3,0-0.4,0s-0.2,0-0.3-0.1s-0.1-0.1-0.1-0.1s0-0.1,0-0.1v-8c0-0.2,0.1-0.3,0.2-0.4s0.2-0.1,0.4-0.1
		h2.3c0.2,0,0.4,0,0.6,0s0.3,0,0.4,0c0.4,0,0.7,0.1,1,0.3c0.3,0.1,0.5,0.3,0.7,0.5s0.3,0.4,0.5,0.7c0.1,0.3,0.2,0.6,0.2,0.9
		c0,0.3,0,0.6-0.1,0.8c-0.1,0.2-0.2,0.5-0.3,0.7c-0.1,0.2-0.3,0.4-0.5,0.5c-0.2,0.1-0.5,0.3-0.7,0.3c0.1,0.1,0.3,0.1,0.4,0.2
		s0.2,0.2,0.3,0.3s0.2,0.3,0.3,0.4c0.1,0.2,0.2,0.4,0.3,0.6l0.7,1.7c0.1,0.2,0.1,0.3,0.1,0.4C349.8,46.5,349.8,46.5,349.8,46.6z
		 M347.5,40.6c0-0.3-0.1-0.5-0.2-0.7c-0.1-0.2-0.3-0.3-0.6-0.4c-0.1,0-0.2,0-0.3-0.1s-0.3,0-0.5,0h-0.8v2.5h0.9c0.3,0,0.5,0,0.7-0.1
		s0.4-0.1,0.5-0.3c0.1-0.1,0.2-0.2,0.3-0.4C347.5,40.9,347.5,40.8,347.5,40.6z"/>
	<path class="st5" d="M346,35.1c0.1,0,0.3,0,0.4,0c0.1,0,0.2,0,0.3,0s0.1,0,0.2,0.1s0.1,0.1,0.2,0.2l1.4,1.5
		c0.1,0.1,0.1,0.1,0.1,0.2c0,0,0,0.1,0,0.1c0,0-0.1,0-0.2,0.1s-0.2,0-0.4,0c-0.2,0-0.3,0-0.5,0c-0.1,0-0.2,0-0.3,0
		c-0.1,0-0.1,0-0.2-0.1c0,0-0.1-0.1-0.1-0.1L346,36l-0.8,0.9c0,0-0.1,0.1-0.1,0.1c0,0-0.1,0-0.2,0.1c-0.1,0-0.2,0-0.3,0
		c-0.1,0-0.3,0-0.5,0c-0.2,0-0.3,0-0.4,0c-0.1,0-0.2,0-0.2-0.1c0,0-0.1-0.1,0-0.1c0,0,0-0.1,0.1-0.2l1.3-1.5
		c0.1-0.1,0.1-0.1,0.2-0.1c0.1,0,0.1-0.1,0.2-0.1c0.1,0,0.2,0,0.3,0S345.9,35.1,346,35.1z"/>
	<path class="st5" d="M356,46.1c0,0.1,0,0.3,0,0.3c0,0.1,0,0.2-0.1,0.2c0,0.1-0.1,0.1-0.1,0.1s-0.1,0-0.1,0h-4.1
		c-0.2,0-0.3,0-0.4-0.1s-0.2-0.2-0.2-0.4v-8c0,0,0-0.1,0-0.1c0,0,0.1-0.1,0.1-0.1s0.2,0,0.3-0.1s0.3,0,0.4,0c0.2,0,0.3,0,0.4,0
		c0.1,0,0.2,0,0.3,0.1s0.1,0.1,0.1,0.1c0,0,0,0.1,0,0.1v7.1h2.8c0,0,0.1,0,0.1,0c0,0,0.1,0.1,0.1,0.1c0,0.1,0,0.1,0.1,0.2
		C356,45.8,356,45.9,356,46.1z"/>
	<path class="st5" d="M365.6,41.5c0,0.2,0,0.4-0.1,0.5c-0.1,0.1-0.1,0.2-0.2,0.2h-5.2c-0.1,0-0.2,0-0.2-0.2
		c-0.1-0.1-0.1-0.3-0.1-0.5c0-0.2,0-0.4,0.1-0.5s0.1-0.2,0.2-0.2h5.2c0.1,0,0.2,0,0.2,0.2S365.6,41.3,365.6,41.5z M365.6,44.3
		c0,0.2,0,0.4-0.1,0.5c-0.1,0.1-0.1,0.1-0.2,0.1h-5.2c-0.1,0-0.2,0-0.2-0.1c-0.1-0.1-0.1-0.3-0.1-0.5c0-0.2,0-0.4,0.1-0.5
		s0.1-0.2,0.2-0.2h5.2c0.1,0,0.2,0.1,0.2,0.2S365.6,44,365.6,44.3z"/>
</g>
<path class="st0" d="M195.3,4.2c-2.5,0-4.5,2-4.5,4.4c0,0,0,0,0,0v67.7c0,2.5,2,4.4,4.5,4.4c0,0,0,0,0,0V4.2z"/>
<path class="st6" d="M195.3,4.2c-2.5,0-4.5,2-4.5,4.4c0,0,0,0,0,0v67.7c0,2.5,2,4.4,4.5,4.4c0,0,0,0,0,0"/>
<path class="st0" d="M226.2,0H195v24h31.2V0"/>
<g class="st4">
	<path class="st5" d="M204.8,11.8c0,0.7-0.1,1.3-0.2,1.9s-0.3,1.1-0.6,1.5s-0.6,0.7-1,0.9c-0.4,0.2-0.9,0.3-1.5,0.3
		c-0.6,0-1.1-0.1-1.5-0.3c-0.4-0.2-0.7-0.5-0.9-0.9s-0.4-0.9-0.5-1.4c-0.1-0.6-0.1-1.2-0.1-1.9c0-0.7,0.1-1.3,0.2-1.9
		c0.1-0.6,0.3-1.1,0.6-1.5s0.6-0.7,1-0.9s0.9-0.3,1.5-0.3c0.6,0,1.1,0.1,1.5,0.3c0.4,0.2,0.7,0.5,0.9,0.9s0.4,0.9,0.5,1.4
		C204.8,10.4,204.8,11,204.8,11.8z M203,11.8c0-0.4,0-0.8,0-1.1s-0.1-0.6-0.1-0.8s-0.1-0.4-0.2-0.6s-0.2-0.3-0.3-0.4
		c-0.1-0.1-0.2-0.2-0.3-0.2s-0.3-0.1-0.4-0.1c-0.3,0-0.5,0.1-0.7,0.2s-0.3,0.3-0.4,0.6s-0.2,0.6-0.2,1s-0.1,0.8-0.1,1.4
		c0,0.6,0,1.1,0.1,1.6c0.1,0.4,0.1,0.7,0.2,1c0.1,0.2,0.2,0.4,0.4,0.5c0.2,0.1,0.4,0.1,0.6,0.1c0.2,0,0.3,0,0.5-0.1
		c0.1-0.1,0.3-0.1,0.4-0.3s0.2-0.3,0.3-0.4s0.1-0.4,0.2-0.6s0.1-0.5,0.1-0.8S203,12.2,203,11.8z"/>
	<path class="st5" d="M208.1,15.2c0,0.4-0.1,0.7-0.2,0.9c-0.1,0.1-0.4,0.2-0.8,0.2s-0.6-0.1-0.8-0.2c-0.1-0.1-0.2-0.4-0.2-0.8
		c0-0.4,0.1-0.7,0.2-0.9s0.4-0.2,0.8-0.2c0.4,0,0.6,0.1,0.8,0.2S208.1,14.8,208.1,15.2z"/>
	<path class="st5" d="M215.6,13.3c0,0.4-0.1,0.9-0.2,1.2c-0.1,0.4-0.3,0.7-0.6,1c-0.3,0.3-0.6,0.5-1,0.6c-0.4,0.2-0.8,0.2-1.3,0.2
		c-0.4,0-0.8,0-1.1-0.1c-0.3-0.1-0.6-0.2-0.8-0.4c-0.2-0.2-0.4-0.4-0.5-0.6s-0.3-0.5-0.3-0.8s-0.1-0.7-0.2-1s0-0.8,0-1.2
		c0-0.3,0-0.7,0.1-1.1s0.1-0.8,0.2-1.1s0.2-0.7,0.4-1c0.2-0.3,0.4-0.6,0.7-0.9c0.3-0.2,0.6-0.4,1-0.6s0.9-0.2,1.4-0.2
		c0.2,0,0.3,0,0.5,0s0.3,0,0.5,0.1s0.3,0.1,0.4,0.1s0.2,0.1,0.2,0.1c0,0,0.1,0.1,0.1,0.1s0,0.1,0,0.1c0,0,0,0.1,0,0.2s0,0.1,0,0.2
		c0,0.1,0,0.3,0,0.4c0,0.1,0,0.2,0,0.2c0,0.1,0,0.1-0.1,0.1s-0.1,0-0.1,0c-0.1,0-0.1,0-0.2,0c-0.1,0-0.2-0.1-0.3-0.1
		s-0.3-0.1-0.4-0.1s-0.4,0-0.6,0c-0.4,0-0.7,0.1-0.9,0.2s-0.5,0.3-0.6,0.6c-0.2,0.2-0.3,0.5-0.3,0.8s-0.1,0.6-0.1,1
		c0.1-0.1,0.2-0.1,0.3-0.2s0.3-0.1,0.4-0.2s0.3-0.1,0.5-0.1c0.2,0,0.4,0,0.6,0c0.4,0,0.8,0.1,1.1,0.2s0.6,0.3,0.8,0.5
		s0.4,0.5,0.4,0.8S215.6,12.9,215.6,13.3z M213.8,13.4c0-0.2,0-0.4-0.1-0.6c0-0.2-0.1-0.3-0.2-0.4c-0.1-0.1-0.2-0.2-0.4-0.3
		s-0.3-0.1-0.5-0.1c-0.1,0-0.3,0-0.4,0s-0.2,0.1-0.4,0.1s-0.2,0.1-0.3,0.1c-0.1,0.1-0.2,0.1-0.3,0.2c0,0.5,0,0.9,0.1,1.2
		c0.1,0.3,0.1,0.6,0.2,0.8s0.2,0.3,0.4,0.4c0.2,0.1,0.3,0.1,0.6,0.1c0.2,0,0.4,0,0.6-0.1s0.3-0.2,0.4-0.3s0.2-0.3,0.2-0.5
		C213.8,13.9,213.8,13.6,213.8,13.4z"/>
	<path class="st5" d="M222.7,13.3c0,0.4-0.1,0.9-0.2,1.2c-0.1,0.4-0.3,0.7-0.6,1c-0.3,0.3-0.6,0.5-1,0.6c-0.4,0.2-0.8,0.2-1.3,0.2
		c-0.4,0-0.8,0-1.1-0.1c-0.3-0.1-0.6-0.2-0.8-0.4c-0.2-0.2-0.4-0.4-0.5-0.6s-0.3-0.5-0.3-0.8s-0.1-0.7-0.2-1s0-0.8,0-1.2
		c0-0.3,0-0.7,0.1-1.1s0.1-0.8,0.2-1.1s0.2-0.7,0.4-1c0.2-0.3,0.4-0.6,0.7-0.9c0.3-0.2,0.6-0.4,1-0.6s0.9-0.2,1.4-0.2
		c0.2,0,0.3,0,0.5,0s0.3,0,0.5,0.1s0.3,0.1,0.4,0.1s0.2,0.1,0.2,0.1c0,0,0.1,0.1,0.1,0.1s0,0.1,0,0.1c0,0,0,0.1,0,0.2s0,0.1,0,0.2
		c0,0.1,0,0.3,0,0.4c0,0.1,0,0.2,0,0.2c0,0.1,0,0.1-0.1,0.1s-0.1,0-0.1,0c-0.1,0-0.1,0-0.2,0c-0.1,0-0.2-0.1-0.3-0.1
		s-0.3-0.1-0.4-0.1s-0.4,0-0.6,0c-0.4,0-0.7,0.1-0.9,0.2s-0.5,0.3-0.6,0.6c-0.2,0.2-0.3,0.5-0.3,0.8s-0.1,0.6-0.1,1
		c0.1-0.1,0.2-0.1,0.3-0.2s0.3-0.1,0.4-0.2s0.3-0.1,0.5-0.1c0.2,0,0.4,0,0.6,0c0.4,0,0.8,0.1,1.1,0.2s0.6,0.3,0.8,0.5
		s0.4,0.5,0.4,0.8S222.7,12.9,222.7,13.3z M220.9,13.4c0-0.2,0-0.4-0.1-0.6c0-0.2-0.1-0.3-0.2-0.4c-0.1-0.1-0.2-0.2-0.4-0.3
		S220,12,219.8,12c-0.1,0-0.3,0-0.4,0s-0.2,0.1-0.4,0.1s-0.2,0.1-0.3,0.1c-0.1,0.1-0.2,0.1-0.3,0.2c0,0.5,0,0.9,0.1,1.2
		c0.1,0.3,0.1,0.6,0.2,0.8s0.2,0.3,0.4,0.4c0.2,0.1,0.3,0.1,0.6,0.1c0.2,0,0.4,0,0.6-0.1s0.3-0.2,0.4-0.3s0.2-0.3,0.2-0.5
		C220.9,13.9,220.9,13.6,220.9,13.4z"/>
	<v:paragraph  v:horizAlign="1"></v:paragraph>
	<v:tabList></v:tabList>
</g>
<path class="st0" d="M226.2,30.5H195v24h31.2V30.5"/>
<g>
	<g>
		<path class="st5" d="M204.8,42.3c0,0.7-0.1,1.3-0.2,1.9s-0.3,1.1-0.6,1.5s-0.6,0.7-1,0.9s-0.9,0.3-1.5,0.3c-0.6,0-1.1-0.1-1.5-0.3
			c-0.4-0.2-0.7-0.5-0.9-0.9s-0.4-0.9-0.5-1.4c-0.1-0.6-0.1-1.2-0.1-1.9c0-0.7,0.1-1.3,0.2-1.9c0.1-0.6,0.3-1.1,0.6-1.5
			s0.6-0.7,1-0.9s0.9-0.3,1.5-0.3c0.6,0,1.1,0.1,1.5,0.3c0.4,0.2,0.7,0.5,0.9,0.9s0.4,0.9,0.5,1.4C204.8,40.9,204.8,41.6,204.8,42.3
			z M203,42.3c0-0.4,0-0.8,0-1.1s-0.1-0.6-0.1-0.8s-0.1-0.4-0.2-0.6s-0.2-0.3-0.3-0.4c-0.1-0.1-0.2-0.2-0.3-0.2s-0.3-0.1-0.4-0.1
			c-0.3,0-0.5,0.1-0.7,0.2s-0.3,0.3-0.4,0.6s-0.2,0.6-0.2,1s-0.1,0.8-0.1,1.4c0,0.6,0,1.1,0.1,1.6c0.1,0.4,0.1,0.7,0.2,1
			c0.1,0.2,0.2,0.4,0.4,0.5c0.2,0.1,0.4,0.1,0.6,0.1c0.2,0,0.3,0,0.5-0.1c0.1-0.1,0.3-0.1,0.4-0.3s0.2-0.3,0.3-0.4s0.1-0.4,0.2-0.6
			s0.1-0.5,0.1-0.8S203,42.7,203,42.3z"/>
		<path class="st5" d="M208.1,45.7c0,0.4-0.1,0.7-0.2,0.9s-0.4,0.2-0.8,0.2s-0.6-0.1-0.8-0.2c-0.1-0.1-0.2-0.4-0.2-0.8
			c0-0.4,0.1-0.7,0.2-0.9s0.4-0.2,0.8-0.2c0.4,0,0.6,0.1,0.8,0.2S208.1,45.3,208.1,45.7z"/>
		<path class="st5" d="M215.7,44.2c0,0.2,0,0.4-0.1,0.5c0,0.1-0.1,0.2-0.2,0.2h-0.8v1.6c0,0,0,0.1,0,0.1s-0.1,0.1-0.1,0.1
			s-0.2,0-0.3,0.1c-0.1,0-0.3,0-0.4,0c-0.2,0-0.3,0-0.4,0c-0.1,0-0.2,0-0.3-0.1s-0.1-0.1-0.1-0.1s0-0.1,0-0.1v-1.6h-3.4
			c-0.1,0-0.1,0-0.2,0c-0.1,0-0.1-0.1-0.1-0.1c0-0.1-0.1-0.1-0.1-0.2c0-0.1,0-0.2,0-0.4c0-0.1,0-0.3,0-0.4c0-0.1,0-0.2,0-0.3
			s0-0.2,0.1-0.2s0.1-0.2,0.1-0.2l2.7-4.8c0,0,0.1-0.1,0.1-0.1c0.1,0,0.1-0.1,0.2-0.1s0.2,0,0.4,0s0.3,0,0.5,0c0.2,0,0.4,0,0.6,0
			c0.2,0,0.3,0,0.4,0.1c0.1,0,0.2,0.1,0.2,0.1s0.1,0.1,0.1,0.1v5.3h0.8c0.1,0,0.1,0.1,0.2,0.2C215.7,43.7,215.7,43.9,215.7,44.2z
			 M213,39.4L213,39.4l-2.3,4.1h2.3V39.4z"/>
		<path class="st5" d="M222.5,43.8c0,0.5-0.1,0.9-0.2,1.3s-0.4,0.7-0.7,1c-0.3,0.3-0.7,0.5-1.1,0.6s-0.9,0.2-1.4,0.2
			c-0.3,0-0.5,0-0.8-0.1s-0.5-0.1-0.7-0.1c-0.2-0.1-0.4-0.1-0.5-0.2c-0.1-0.1-0.2-0.1-0.2-0.1s-0.1-0.1-0.1-0.1s0-0.1,0-0.1
			c0-0.1,0-0.1,0-0.2s0-0.2,0-0.3c0-0.1,0-0.2,0-0.3s0-0.2,0-0.2s0-0.1,0.1-0.1s0.1,0,0.1,0c0,0,0.1,0,0.2,0.1
			c0.1,0.1,0.2,0.1,0.4,0.2s0.3,0.1,0.6,0.2c0.2,0.1,0.5,0.1,0.8,0.1c0.3,0,0.5,0,0.7-0.1s0.4-0.1,0.6-0.3c0.2-0.1,0.3-0.3,0.3-0.5
			s0.1-0.4,0.1-0.7c0-0.2,0-0.4-0.1-0.6s-0.2-0.3-0.3-0.4s-0.3-0.2-0.6-0.3s-0.5-0.1-0.8-0.1c-0.3,0-0.5,0-0.7,0s-0.4,0-0.6,0
			c-0.1,0-0.2,0-0.3-0.1c-0.1-0.1-0.1-0.2-0.1-0.4v-3.8c0-0.2,0-0.3,0.1-0.4c0.1-0.1,0.2-0.1,0.3-0.1h4.2c0,0,0.1,0,0.1,0
			s0.1,0.1,0.1,0.1s0,0.1,0.1,0.2c0,0.1,0,0.2,0,0.4c0,0.3,0,0.5-0.1,0.6s-0.1,0.2-0.2,0.2h-3.1v1.9c0.2,0,0.3,0,0.5,0s0.3,0,0.5,0
			c0.5,0,0.9,0.1,1.3,0.2c0.4,0.1,0.7,0.3,0.9,0.5c0.3,0.2,0.4,0.5,0.6,0.8S222.5,43.4,222.5,43.8z"/>
	</g>
	<v:paragraph  v:horizAlign="1"></v:paragraph>
	<v:tabList></v:tabList>
</g>
<path class="st0" d="M226.2,61H195v24h31.2V61"/>
<g>
	<g>
		<path class="st5" d="M204.8,72.8c0,0.7-0.1,1.3-0.2,1.9s-0.3,1.1-0.6,1.5s-0.6,0.7-1,0.9s-0.9,0.3-1.5,0.3c-0.6,0-1.1-0.1-1.5-0.3
			c-0.4-0.2-0.7-0.5-0.9-0.9s-0.4-0.9-0.5-1.4c-0.1-0.6-0.1-1.2-0.1-1.9c0-0.7,0.1-1.3,0.2-1.9c0.1-0.6,0.3-1.1,0.6-1.5
			s0.6-0.7,1-0.9s0.9-0.3,1.5-0.3c0.6,0,1.1,0.1,1.5,0.3c0.4,0.2,0.7,0.5,0.9,0.9s0.4,0.9,0.5,1.4C204.8,71.4,204.8,72.1,204.8,72.8
			z M203,72.9c0-0.4,0-0.8,0-1.1s-0.1-0.6-0.1-0.8s-0.1-0.4-0.2-0.6s-0.2-0.3-0.3-0.4c-0.1-0.1-0.2-0.2-0.3-0.2s-0.3-0.1-0.4-0.1
			c-0.3,0-0.5,0.1-0.7,0.2s-0.3,0.3-0.4,0.6s-0.2,0.6-0.2,1s-0.1,0.8-0.1,1.4c0,0.6,0,1.1,0.1,1.6c0.1,0.4,0.1,0.7,0.2,1
			c0.1,0.2,0.2,0.4,0.4,0.5c0.2,0.1,0.4,0.1,0.6,0.1c0.2,0,0.3,0,0.5-0.1c0.1-0.1,0.3-0.1,0.4-0.3s0.2-0.3,0.3-0.4s0.1-0.4,0.2-0.6
			s0.1-0.5,0.1-0.8S203,73.2,203,72.9z"/>
		<path class="st5" d="M208.1,76.2c0,0.4-0.1,0.7-0.2,0.9s-0.4,0.2-0.8,0.2s-0.6-0.1-0.8-0.2c-0.1-0.1-0.2-0.4-0.2-0.8
			c0-0.4,0.1-0.7,0.2-0.9s0.4-0.2,0.8-0.2c0.4,0,0.6,0.1,0.8,0.2S208.1,75.8,208.1,76.2z"/>
		<path class="st5" d="M215.6,74.3c0,0.4-0.1,0.9-0.2,1.2c-0.1,0.4-0.3,0.7-0.6,1c-0.3,0.3-0.6,0.5-1,0.6c-0.4,0.2-0.8,0.2-1.3,0.2
			c-0.4,0-0.8,0-1.1-0.1c-0.3-0.1-0.6-0.2-0.8-0.4c-0.2-0.2-0.4-0.4-0.5-0.6s-0.3-0.5-0.3-0.8s-0.1-0.7-0.2-1s0-0.8,0-1.2
			c0-0.3,0-0.7,0.1-1.1s0.1-0.8,0.2-1.1s0.2-0.7,0.4-1c0.2-0.3,0.4-0.6,0.7-0.9c0.3-0.2,0.6-0.4,1-0.6s0.9-0.2,1.4-0.2
			c0.2,0,0.3,0,0.5,0s0.3,0,0.5,0.1s0.3,0.1,0.4,0.1s0.2,0.1,0.2,0.1c0,0,0.1,0.1,0.1,0.1s0,0.1,0,0.1c0,0,0,0.1,0,0.2s0,0.1,0,0.2
			c0,0.1,0,0.3,0,0.4c0,0.1,0,0.2,0,0.2c0,0.1,0,0.1-0.1,0.1s-0.1,0-0.1,0c-0.1,0-0.1,0-0.2,0c-0.1,0-0.2-0.1-0.3-0.1
			s-0.3-0.1-0.4-0.1s-0.4,0-0.6,0c-0.4,0-0.7,0.1-0.9,0.2s-0.5,0.3-0.6,0.6c-0.2,0.2-0.3,0.5-0.3,0.8s-0.1,0.6-0.1,1
			c0.1-0.1,0.2-0.1,0.3-0.2s0.3-0.1,0.4-0.2s0.3-0.1,0.5-0.1c0.2,0,0.4,0,0.6,0c0.4,0,0.8,0.1,1.1,0.2s0.6,0.3,0.8,0.5
			s0.4,0.5,0.4,0.8S215.6,73.9,215.6,74.3z M213.8,74.4c0-0.2,0-0.4-0.1-0.6c0-0.2-0.1-0.3-0.2-0.4c-0.1-0.1-0.2-0.2-0.4-0.3
			s-0.3-0.1-0.5-0.1c-0.1,0-0.3,0-0.4,0s-0.2,0.1-0.4,0.1s-0.2,0.1-0.3,0.1c-0.1,0.1-0.2,0.1-0.3,0.2c0,0.5,0,0.9,0.1,1.2
			c0.1,0.3,0.1,0.6,0.2,0.8s0.2,0.3,0.4,0.4c0.2,0.1,0.3,0.1,0.6,0.1c0.2,0,0.4,0,0.6-0.1s0.3-0.2,0.4-0.3s0.2-0.3,0.2-0.5
			C213.8,74.9,213.8,74.7,213.8,74.4z"/>
		<path class="st5" d="M222.5,76.5c0,0.1,0,0.2,0,0.3s0,0.2-0.1,0.2c0,0.1-0.1,0.1-0.1,0.1s-0.1,0-0.1,0h-4.9c0,0-0.1,0-0.1,0
			s-0.1-0.1-0.1-0.1c0-0.1,0-0.1-0.1-0.2s0-0.2,0-0.3c0-0.1,0-0.2,0-0.3s0-0.2,0.1-0.2s0.1-0.1,0.1-0.1c0,0,0.1,0,0.1,0h1.6v-5.8
			l-1.4,0.8c-0.1,0-0.2,0.1-0.3,0.1c-0.1,0-0.1,0-0.2,0c0,0-0.1-0.1-0.1-0.2s0-0.2,0-0.4c0-0.1,0-0.2,0-0.3c0-0.1,0-0.1,0-0.2
			s0-0.1,0.1-0.1s0.1-0.1,0.1-0.1l1.9-1.2c0,0,0.1,0,0.1,0c0,0,0.1,0,0.1,0s0.1,0,0.2,0c0.1,0,0.2,0,0.3,0c0.2,0,0.3,0,0.4,0
			s0.2,0,0.2,0c0.1,0,0.1,0,0.1,0.1s0,0.1,0,0.1v7.3h1.4c0,0,0.1,0,0.1,0c0,0,0.1,0.1,0.1,0.1s0,0.1,0.1,0.2S222.5,76.4,222.5,76.5z
			"/>
	</g>
	<v:paragraph  v:horizAlign="1"></v:paragraph>
	<v:tabList></v:tabList>
</g>
<path class="st0" d="M225.8,4.2c2.5,0,4.5,2,4.5,4.4c0,0,0,0,0,0v67.7c0,2.5-2,4.4-4.5,4.4c0,0,0,0,0,0V4.2z"/>
<path class="st6" d="M225.8,4.2c2.5,0,4.5,2,4.5,4.4c0,0,0,0,0,0v67.7c0,2.5-2,4.4-4.5,4.4c0,0,0,0,0,0"/>
<path class="st0" d="M123.3,4.8c-2.5,0-4.5,2-4.5,4.4c0,0,0,0,0,0v67.7c0,2.5,2,4.4,4.5,4.4c0,0,0,0,0,0V4.8z"/>
<path class="st6" d="M123.3,4.8c-2.5,0-4.5,2-4.5,4.4c0,0,0,0,0,0v67.7c0,2.5,2,4.4,4.5,4.4c0,0,0,0,0,0"/>
<path class="st0" d="M153.6,0.6H125v24h28.6V0.6"/>
<g class="st4">
	<path class="st5" d="M132.5,14.1c0,0.5-0.1,0.9-0.3,1.2s-0.4,0.6-0.7,0.9c-0.3,0.2-0.6,0.4-1,0.5s-0.8,0.2-1.3,0.2
		c-0.3,0-0.6,0-0.9-0.1s-0.5-0.1-0.7-0.2c-0.2-0.1-0.4-0.1-0.5-0.2s-0.2-0.1-0.3-0.2s-0.1-0.1-0.1-0.3c0-0.1,0-0.3,0-0.5
		c0-0.1,0-0.3,0-0.4s0-0.2,0-0.2s0-0.1,0.1-0.1c0,0,0.1,0,0.1,0c0.1,0,0.2,0,0.3,0.1s0.3,0.2,0.4,0.2s0.4,0.2,0.7,0.2
		s0.5,0.1,0.9,0.1c0.2,0,0.4,0,0.6-0.1c0.2-0.1,0.3-0.1,0.4-0.2s0.2-0.2,0.3-0.4s0.1-0.3,0.1-0.5c0-0.2-0.1-0.4-0.2-0.5
		s-0.3-0.3-0.4-0.4c-0.2-0.1-0.4-0.2-0.6-0.3c-0.2-0.1-0.5-0.2-0.7-0.3s-0.5-0.2-0.7-0.4c-0.2-0.1-0.4-0.3-0.6-0.5
		c-0.2-0.2-0.3-0.4-0.4-0.7s-0.2-0.6-0.2-1c0-0.4,0.1-0.8,0.2-1.1s0.4-0.6,0.6-0.8s0.6-0.4,0.9-0.5c0.4-0.1,0.7-0.2,1.2-0.2
		c0.2,0,0.4,0,0.6,0s0.4,0.1,0.6,0.1c0.2,0.1,0.3,0.1,0.5,0.2s0.2,0.1,0.3,0.2s0.1,0.1,0.1,0.1s0,0.1,0,0.1c0,0.1,0,0.1,0,0.2
		c0,0.1,0,0.2,0,0.3c0,0.1,0,0.2,0,0.3s0,0.2,0,0.2s0,0.1-0.1,0.1s-0.1,0-0.1,0s-0.1,0-0.2-0.1s-0.2-0.1-0.4-0.2s-0.3-0.1-0.6-0.2
		s-0.4-0.1-0.7-0.1c-0.2,0-0.4,0-0.5,0.1s-0.3,0.1-0.4,0.2c-0.1,0.1-0.2,0.2-0.2,0.3s-0.1,0.2-0.1,0.4c0,0.2,0.1,0.4,0.2,0.5
		s0.3,0.3,0.4,0.4c0.2,0.1,0.4,0.2,0.6,0.3c0.2,0.1,0.5,0.2,0.7,0.3s0.5,0.2,0.7,0.4c0.2,0.1,0.4,0.3,0.6,0.5
		c0.2,0.2,0.3,0.4,0.4,0.7C132.5,13.5,132.5,13.8,132.5,14.1z"/>
	<path class="st5" d="M140.5,16.6c0,0,0,0.1,0,0.1s-0.1,0.1-0.1,0.1s-0.2,0-0.3,0s-0.3,0-0.5,0c-0.2,0-0.3,0-0.5,0s-0.2,0-0.3-0.1
		c-0.1,0-0.1-0.1-0.1-0.1c0,0-0.1-0.1-0.1-0.1l-0.8-2c-0.1-0.2-0.2-0.4-0.3-0.6s-0.2-0.3-0.3-0.4s-0.2-0.2-0.4-0.3s-0.3-0.1-0.5-0.1
		h-0.6v3.4c0,0,0,0.1,0,0.1s-0.1,0.1-0.1,0.1s-0.2,0-0.3,0.1s-0.3,0-0.4,0c-0.2,0-0.3,0-0.4,0s-0.2,0-0.3-0.1s-0.1-0.1-0.1-0.1
		s0-0.1,0-0.1v-8c0-0.2,0.1-0.3,0.2-0.4c0.1-0.1,0.2-0.1,0.4-0.1h2.3c0.2,0,0.4,0,0.6,0s0.3,0,0.4,0c0.4,0,0.7,0.1,1,0.3
		s0.5,0.3,0.7,0.5s0.3,0.4,0.5,0.7c0.1,0.3,0.2,0.6,0.2,0.9c0,0.3,0,0.6-0.1,0.8c-0.1,0.2-0.2,0.5-0.3,0.7s-0.3,0.4-0.5,0.5
		s-0.5,0.3-0.7,0.3c0.1,0.1,0.3,0.1,0.4,0.2s0.2,0.2,0.3,0.3s0.2,0.3,0.3,0.4c0.1,0.2,0.2,0.4,0.3,0.6l0.7,1.7
		c0.1,0.2,0.1,0.3,0.1,0.4C140.5,16.5,140.5,16.5,140.5,16.6z M138.2,10.6c0-0.3-0.1-0.5-0.2-0.7s-0.3-0.3-0.6-0.4
		c-0.1,0-0.2,0-0.3-0.1s-0.3,0-0.5,0h-0.8v2.5h0.9c0.3,0,0.5,0,0.7-0.1s0.4-0.1,0.5-0.3c0.1-0.1,0.2-0.2,0.3-0.4
		S138.2,10.8,138.2,10.6z"/>
	<path class="st5" d="M146.7,16c0,0.1,0,0.3,0,0.3c0,0.1,0,0.2-0.1,0.2s-0.1,0.1-0.1,0.1s-0.1,0-0.1,0h-4.1c-0.2,0-0.3,0-0.4-0.1
		s-0.2-0.2-0.2-0.4v-8c0,0,0-0.1,0-0.1S141.9,8,142,8c0.1,0,0.2,0,0.3-0.1s0.3,0,0.4,0c0.2,0,0.3,0,0.4,0s0.2,0,0.3,0.1
		c0.1,0,0.1,0.1,0.1,0.1s0,0.1,0,0.1v7.1h2.8c0,0,0.1,0,0.1,0c0,0,0.1,0.1,0.1,0.1c0,0.1,0,0.1,0.1,0.2
		C146.6,15.8,146.7,15.9,146.7,16z"/>
</g>
<text transform="matrix(1 0 0 1 146.7489 18.763)" class="st5 st2 st7">A</text>
<path class="st0" d="M153.6,31.1H125v24h28.6V31.1"/>
<g class="st4">
	<path class="st5" d="M132.7,44.7c0,0.5-0.1,0.9-0.3,1.2s-0.4,0.6-0.7,0.9c-0.3,0.2-0.6,0.4-1,0.5s-0.8,0.2-1.3,0.2
		c-0.3,0-0.6,0-0.9-0.1s-0.5-0.1-0.7-0.2c-0.2-0.1-0.4-0.1-0.5-0.2s-0.2-0.1-0.3-0.2s-0.1-0.1-0.1-0.3c0-0.1,0-0.3,0-0.5
		c0-0.1,0-0.3,0-0.4s0-0.2,0-0.2s0-0.1,0.1-0.1c0,0,0.1,0,0.1,0c0.1,0,0.2,0,0.3,0.1s0.3,0.2,0.4,0.2s0.4,0.2,0.7,0.2
		s0.5,0.1,0.9,0.1c0.2,0,0.4,0,0.6-0.1c0.2-0.1,0.3-0.1,0.4-0.2s0.2-0.2,0.3-0.4s0.1-0.3,0.1-0.5c0-0.2-0.1-0.4-0.2-0.5
		s-0.3-0.3-0.4-0.4c-0.2-0.1-0.4-0.2-0.6-0.3c-0.2-0.1-0.5-0.2-0.7-0.3s-0.5-0.2-0.7-0.4c-0.2-0.1-0.4-0.3-0.6-0.5
		c-0.2-0.2-0.3-0.4-0.4-0.7s-0.2-0.6-0.2-1c0-0.4,0.1-0.8,0.2-1.1s0.4-0.6,0.6-0.8s0.6-0.4,0.9-0.5s0.7-0.2,1.2-0.2
		c0.2,0,0.4,0,0.6,0s0.4,0.1,0.6,0.1s0.3,0.1,0.5,0.2s0.2,0.1,0.3,0.2s0.1,0.1,0.1,0.1s0,0.1,0,0.1c0,0.1,0,0.1,0,0.2
		c0,0.1,0,0.2,0,0.3c0,0.1,0,0.2,0,0.3s0,0.2,0,0.2s0,0.1-0.1,0.1s-0.1,0-0.1,0s-0.1,0-0.2-0.1s-0.2-0.1-0.4-0.2s-0.3-0.1-0.6-0.2
		s-0.4-0.1-0.7-0.1c-0.2,0-0.4,0-0.5,0.1s-0.3,0.1-0.4,0.2c-0.1,0.1-0.2,0.2-0.2,0.3s-0.1,0.2-0.1,0.4c0,0.2,0.1,0.4,0.2,0.5
		s0.3,0.3,0.4,0.4c0.2,0.1,0.4,0.2,0.6,0.3c0.2,0.1,0.5,0.2,0.7,0.3s0.5,0.2,0.7,0.4c0.2,0.1,0.4,0.3,0.6,0.5
		c0.2,0.2,0.3,0.4,0.4,0.7C132.7,44,132.7,44.3,132.7,44.7z"/>
	<path class="st5" d="M140.7,47.1c0,0,0,0.1,0,0.1s-0.1,0.1-0.1,0.1s-0.2,0-0.3,0s-0.3,0-0.5,0c-0.2,0-0.3,0-0.5,0s-0.2,0-0.3-0.1
		c-0.1,0-0.1-0.1-0.1-0.1c0,0-0.1-0.1-0.1-0.1l-0.8-2c-0.1-0.2-0.2-0.4-0.3-0.6s-0.2-0.3-0.3-0.4s-0.2-0.2-0.4-0.3s-0.3-0.1-0.5-0.1
		h-0.6v3.4c0,0,0,0.1,0,0.1s-0.1,0.1-0.1,0.1s-0.2,0-0.3,0.1s-0.3,0-0.4,0c-0.2,0-0.3,0-0.4,0s-0.2,0-0.3-0.1s-0.1-0.1-0.1-0.1
		s0-0.1,0-0.1v-8c0-0.2,0.1-0.3,0.2-0.4s0.2-0.1,0.4-0.1h2.3c0.2,0,0.4,0,0.6,0s0.3,0,0.4,0c0.4,0,0.7,0.1,1,0.3s0.5,0.3,0.7,0.5
		s0.3,0.4,0.5,0.7c0.1,0.3,0.2,0.6,0.2,0.9c0,0.3,0,0.6-0.1,0.8c-0.1,0.2-0.2,0.5-0.3,0.7s-0.3,0.4-0.5,0.5s-0.5,0.3-0.7,0.3
		c0.1,0.1,0.3,0.1,0.4,0.2s0.2,0.2,0.3,0.3s0.2,0.3,0.3,0.4c0.1,0.2,0.2,0.4,0.3,0.6l0.7,1.7c0.1,0.2,0.1,0.3,0.1,0.4
		C140.7,47,140.7,47,140.7,47.1z M138.4,41.1c0-0.3-0.1-0.5-0.2-0.7s-0.3-0.3-0.6-0.4c-0.1,0-0.2,0-0.3-0.1s-0.3,0-0.5,0h-0.8v2.5
		h0.9c0.3,0,0.5,0,0.7-0.1s0.4-0.1,0.5-0.3c0.1-0.1,0.2-0.2,0.3-0.4S138.4,41.3,138.4,41.1z"/>
	<path class="st5" d="M146.9,46.6c0,0.1,0,0.3,0,0.3c0,0.1,0,0.2-0.1,0.2s-0.1,0.1-0.1,0.1s-0.1,0-0.1,0h-4.1c-0.2,0-0.3,0-0.4-0.1
		s-0.2-0.2-0.2-0.4v-8c0,0,0-0.1,0-0.1s0.1-0.1,0.1-0.1s0.2,0,0.3-0.1s0.3,0,0.4,0c0.2,0,0.3,0,0.4,0s0.2,0,0.3,0.1s0.1,0.1,0.1,0.1
		s0,0.1,0,0.1v7.1h2.8c0,0,0.1,0,0.1,0c0,0,0.1,0.1,0.1,0.1c0,0.1,0,0.1,0.1,0.2C146.9,46.3,146.9,46.4,146.9,46.6z"/>
</g>
<text transform="matrix(1 0 0 1 146.9589 49.2742)" class="st5 st2 st7">B</text>
<path class="st0" d="M153.6,61.6H125v24h28.6V61.6"/>
<g class="st4">
	<path class="st5" d="M132.9,75.2c0,0.5-0.1,0.9-0.3,1.2s-0.4,0.6-0.7,0.9c-0.3,0.2-0.6,0.4-1,0.5s-0.8,0.2-1.3,0.2
		c-0.3,0-0.6,0-0.9-0.1s-0.5-0.1-0.7-0.2c-0.2-0.1-0.4-0.1-0.5-0.2s-0.2-0.1-0.3-0.2s-0.1-0.1-0.1-0.3c0-0.1,0-0.3,0-0.5
		c0-0.1,0-0.3,0-0.4s0-0.2,0-0.2s0-0.1,0.1-0.1c0,0,0.1,0,0.1,0c0.1,0,0.2,0,0.3,0.1s0.3,0.2,0.4,0.2s0.4,0.2,0.7,0.2
		s0.5,0.1,0.9,0.1c0.2,0,0.4,0,0.6-0.1c0.2-0.1,0.3-0.1,0.4-0.2s0.2-0.2,0.3-0.4s0.1-0.3,0.1-0.5c0-0.2-0.1-0.4-0.2-0.5
		s-0.3-0.3-0.4-0.4c-0.2-0.1-0.4-0.2-0.6-0.3c-0.2-0.1-0.5-0.2-0.7-0.3s-0.5-0.2-0.7-0.4c-0.2-0.1-0.4-0.3-0.6-0.5
		c-0.2-0.2-0.3-0.4-0.4-0.7s-0.2-0.6-0.2-1c0-0.4,0.1-0.8,0.2-1.1s0.4-0.6,0.6-0.8s0.6-0.4,0.9-0.5s0.7-0.2,1.2-0.2
		c0.2,0,0.4,0,0.6,0s0.4,0.1,0.6,0.1s0.3,0.1,0.5,0.2s0.2,0.1,0.3,0.2s0.1,0.1,0.1,0.1s0,0.1,0,0.1c0,0.1,0,0.1,0,0.2
		c0,0.1,0,0.2,0,0.3c0,0.1,0,0.2,0,0.3s0,0.2,0,0.2s0,0.1-0.1,0.1s-0.1,0-0.1,0s-0.1,0-0.2-0.1s-0.2-0.1-0.4-0.2s-0.3-0.1-0.6-0.2
		s-0.4-0.1-0.7-0.1c-0.2,0-0.4,0-0.5,0.1s-0.3,0.1-0.4,0.2c-0.1,0.1-0.2,0.2-0.2,0.3s-0.1,0.2-0.1,0.4c0,0.2,0.1,0.4,0.2,0.5
		s0.3,0.3,0.4,0.4c0.2,0.1,0.4,0.2,0.6,0.3c0.2,0.1,0.5,0.2,0.7,0.3s0.5,0.2,0.7,0.4c0.2,0.1,0.4,0.3,0.6,0.5
		c0.2,0.2,0.3,0.4,0.4,0.7C132.8,74.5,132.9,74.8,132.9,75.2z"/>
	<path class="st5" d="M140.8,77.6c0,0,0,0.1,0,0.1s-0.1,0.1-0.1,0.1s-0.2,0-0.3,0s-0.3,0-0.5,0c-0.2,0-0.3,0-0.5,0s-0.2,0-0.3-0.1
		c-0.1,0-0.1-0.1-0.1-0.1c0,0-0.1-0.1-0.1-0.1l-0.8-2c-0.1-0.2-0.2-0.4-0.3-0.6s-0.2-0.3-0.3-0.4s-0.2-0.2-0.4-0.3s-0.3-0.1-0.5-0.1
		h-0.6v3.4c0,0,0,0.1,0,0.1s-0.1,0.1-0.1,0.1s-0.2,0-0.3,0.1s-0.3,0-0.4,0c-0.2,0-0.3,0-0.4,0s-0.2,0-0.3-0.1s-0.1-0.1-0.1-0.1
		s0-0.1,0-0.1v-8c0-0.2,0.1-0.3,0.2-0.4s0.2-0.1,0.4-0.1h2.3c0.2,0,0.4,0,0.6,0s0.3,0,0.4,0c0.4,0,0.7,0.1,1,0.3s0.5,0.3,0.7,0.5
		s0.3,0.4,0.5,0.7c0.1,0.3,0.2,0.6,0.2,0.9c0,0.3,0,0.6-0.1,0.8c-0.1,0.2-0.2,0.5-0.3,0.7s-0.3,0.4-0.5,0.5s-0.5,0.3-0.7,0.3
		c0.1,0.1,0.3,0.1,0.4,0.2s0.2,0.2,0.3,0.3s0.2,0.3,0.3,0.4c0.1,0.2,0.2,0.4,0.3,0.6l0.7,1.7c0.1,0.2,0.1,0.3,0.1,0.4
		C140.8,77.5,140.8,77.5,140.8,77.6z M138.5,71.6c0-0.3-0.1-0.5-0.2-0.7s-0.3-0.3-0.6-0.4c-0.1,0-0.2,0-0.3-0.1s-0.3,0-0.5,0h-0.8
		v2.5h0.9c0.3,0,0.5,0,0.7-0.1s0.4-0.1,0.5-0.3c0.1-0.1,0.2-0.2,0.3-0.4S138.5,71.8,138.5,71.6z"/>
	<path class="st5" d="M147,77.1c0,0.1,0,0.3,0,0.3c0,0.1,0,0.2-0.1,0.2s-0.1,0.1-0.1,0.1s-0.1,0-0.1,0h-4.1c-0.2,0-0.3,0-0.4-0.1
		s-0.2-0.2-0.2-0.4v-8c0,0,0-0.1,0-0.1s0.1-0.1,0.1-0.1s0.2,0,0.3-0.1s0.3,0,0.4,0c0.2,0,0.3,0,0.4,0s0.2,0,0.3,0.1s0.1,0.1,0.1,0.1
		s0,0.1,0,0.1v7.1h2.8c0,0,0.1,0,0.1,0c0,0,0.1,0.1,0.1,0.1c0,0.1,0,0.1,0.1,0.2C147,76.8,147,76.9,147,77.1z"/>
</g>
<text transform="matrix(1 0 0 1 147.0989 79.7852)" class="st5 st2 st7">C</text>
<path class="st0" d="M155.6,4.8c2.5,0,4.5,2,4.5,4.4c0,0,0,0,0,0v67.7c0,2.5-2,4.4-4.5,4.4c0,0,0,0,0,0V4.8z"/>
<path class="st6" d="M155.6,4.8c2.5,0,4.5,2,4.5,4.4c0,0,0,0,0,0v67.7c0,2.5-2,4.4-4.5,4.4c0,0,0,0,0,0"/>
<g>
	<g>
		<path class="st5" d="M374.7,42C374.7,42,374.7,42,374.7,42c0,0.1-0.1,0.1-0.1,0.1s-0.1,0-0.2,0s-0.2,0-0.3,0c-0.1,0-0.2,0-0.3,0
			s-0.2,0-0.2,0c-0.1,0-0.1,0-0.1-0.1s0-0.1,0-0.1v-3.2l-0.8,0.4c-0.1,0-0.1,0.1-0.2,0.1c0,0-0.1,0-0.1,0s0-0.1-0.1-0.1s0-0.1,0-0.3
			c0-0.1,0-0.1,0-0.2c0-0.1,0-0.1,0-0.1c0,0,0-0.1,0.1-0.1c0,0,0.1,0,0.1-0.1l1.2-0.7c0,0,0,0,0.1,0c0,0,0.1,0,0.1,0
			c0,0,0.1,0,0.2,0c0.1,0,0.2,0,0.3,0c0.1,0,0.2,0,0.3,0c0.1,0,0.1,0,0.2,0c0,0,0.1,0,0.1,0c0,0,0,0,0,0V42z M373.7,46.5
			c0,0.1-0.1,0.1-0.1,0.1c0,0-0.1,0.1-0.2,0.1c-0.1,0-0.1,0-0.2,0s-0.2,0-0.3,0c-0.1,0-0.3,0-0.4,0c-0.1,0-0.2,0-0.2-0.1
			s-0.1-0.1,0-0.1c0,0,0-0.1,0.1-0.2l6.2-8.6c0,0,0.1-0.1,0.1-0.1c0,0,0.1-0.1,0.2-0.1c0.1,0,0.1,0,0.2,0c0.1,0,0.2,0,0.3,0
			c0.1,0,0.3,0,0.4,0c0.1,0,0.2,0,0.2,0.1c0,0,0.1,0.1,0,0.1c0,0.1,0,0.1-0.1,0.2L373.7,46.5z M380.9,45.2c0,0.2-0.1,0.4-0.2,0.6
			c-0.1,0.2-0.2,0.3-0.4,0.4c-0.2,0.1-0.4,0.2-0.7,0.3c-0.3,0.1-0.5,0.1-0.9,0.1c-0.2,0-0.4,0-0.5,0s-0.3,0-0.4-0.1
			c-0.1,0-0.2-0.1-0.3-0.1c-0.1,0-0.2-0.1-0.2-0.1c0,0-0.1-0.1-0.1-0.2c0-0.1,0-0.2,0-0.3c0-0.1,0-0.2,0-0.3s0.1-0.1,0.1-0.1
			c0,0,0.1,0,0.2,0c0.1,0,0.1,0.1,0.2,0.1c0.1,0,0.2,0.1,0.3,0.1c0.1,0,0.3,0,0.5,0c0.1,0,0.3,0,0.4,0c0.1,0,0.2-0.1,0.2-0.1
			c0.1,0,0.1-0.1,0.1-0.2s0-0.1,0-0.2c0-0.1,0-0.2,0-0.2c0-0.1-0.1-0.1-0.2-0.2s-0.2-0.1-0.3-0.1c-0.1,0-0.3,0-0.5,0h-0.4
			c0,0-0.1,0-0.1,0c0,0-0.1,0-0.1-0.1s0-0.1,0-0.1c0-0.1,0-0.1,0-0.2s0-0.2,0-0.2s0-0.1,0-0.1c0,0,0,0,0.1-0.1c0,0,0.1,0,0.1,0h0.5
			c0.3,0,0.5,0,0.6-0.1s0.2-0.2,0.2-0.4c0-0.1,0-0.2-0.1-0.3s-0.3-0.1-0.5-0.1c-0.1,0-0.3,0-0.4,0.1c-0.1,0-0.2,0.1-0.3,0.1
			s-0.2,0.1-0.2,0.1s-0.1,0.1-0.2,0.1c0,0,0,0-0.1,0c0,0,0,0,0-0.1c0,0,0-0.1,0-0.1c0-0.1,0-0.1,0-0.2c0-0.1,0-0.1,0-0.2
			c0,0,0-0.1,0-0.1s0-0.1,0-0.1c0,0,0,0,0.1-0.1s0.1-0.1,0.2-0.1c0.1,0,0.2-0.1,0.3-0.1c0.1,0,0.3-0.1,0.5-0.1c0.2,0,0.4,0,0.6,0
			c0.3,0,0.5,0,0.7,0.1c0.2,0.1,0.4,0.1,0.5,0.2c0.1,0.1,0.2,0.2,0.3,0.4c0.1,0.1,0.1,0.3,0.1,0.5c0,0.1,0,0.2-0.1,0.4
			s-0.1,0.2-0.2,0.3c-0.1,0.1-0.2,0.2-0.3,0.2s-0.2,0.1-0.4,0.2c0.2,0,0.4,0.1,0.5,0.1c0.1,0.1,0.3,0.1,0.4,0.2s0.2,0.2,0.2,0.3
			S380.9,45.1,380.9,45.2z"/>
		<path class="st5" d="M388.1,37.2c-0.4,0.9-0.7,1.8-0.9,2.8c-0.2,0.9-0.3,1.9-0.3,2.9c0,1,0.1,2,0.3,2.9c0.2,0.9,0.5,1.9,0.8,2.8
			c0,0.1,0,0.1,0,0.2c0,0.1,0,0.1-0.1,0.1c0,0-0.1,0.1-0.2,0.1s-0.2,0-0.4,0c-0.1,0-0.2,0-0.3,0s-0.2,0-0.2,0c-0.1,0-0.1,0-0.1-0.1
			c0,0-0.1-0.1-0.1-0.1c-0.2-0.5-0.5-1-0.6-1.4c-0.2-0.5-0.3-1-0.4-1.5c-0.1-0.5-0.2-1-0.3-1.5c-0.1-0.5-0.1-1-0.1-1.5
			c0-0.5,0-1,0.1-1.5s0.2-1,0.3-1.5s0.3-1,0.4-1.5c0.2-0.5,0.4-1,0.6-1.4c0,0,0,0,0.1-0.1c0,0,0.1,0,0.1-0.1c0.1,0,0.1,0,0.2,0
			s0.2,0,0.4,0c0.2,0,0.3,0,0.4,0c0.1,0,0.2,0,0.2,0.1c0.1,0,0.1,0.1,0.1,0.1C388.1,37.1,388.1,37.1,388.1,37.2z"/>
		<path class="st5" d="M395.4,42.1c0,0.7-0.1,1.3-0.2,1.9c-0.1,0.6-0.3,1.1-0.5,1.5c-0.3,0.4-0.6,0.7-1,0.9s-0.9,0.3-1.5,0.3
			c-0.6,0-1.1-0.1-1.5-0.3c-0.4-0.2-0.7-0.5-0.9-0.9c-0.2-0.4-0.4-0.9-0.5-1.4c-0.1-0.6-0.1-1.2-0.1-1.9c0-0.7,0.1-1.3,0.2-1.9
			s0.3-1.1,0.6-1.5s0.6-0.7,1-0.9c0.4-0.2,0.9-0.3,1.5-0.3c0.6,0,1.1,0.1,1.5,0.3c0.4,0.2,0.7,0.5,0.9,0.9c0.2,0.4,0.4,0.9,0.5,1.4
			S395.4,41.4,395.4,42.1z M393.6,42.2c0-0.4,0-0.8,0-1.1s-0.1-0.6-0.1-0.8c0-0.2-0.1-0.4-0.2-0.6c-0.1-0.2-0.2-0.3-0.3-0.4
			s-0.2-0.2-0.3-0.2s-0.3-0.1-0.4-0.1c-0.3,0-0.5,0.1-0.7,0.2c-0.2,0.1-0.3,0.3-0.4,0.6s-0.2,0.6-0.2,1S391,41.5,391,42
			c0,0.6,0,1.1,0.1,1.6c0,0.4,0.1,0.7,0.2,1c0.1,0.2,0.2,0.4,0.4,0.5c0.2,0.1,0.4,0.1,0.6,0.1c0.2,0,0.3,0,0.5-0.1
			c0.1-0.1,0.3-0.1,0.4-0.3c0.1-0.1,0.2-0.3,0.3-0.4s0.1-0.4,0.2-0.6c0-0.2,0.1-0.5,0.1-0.8S393.6,42.5,393.6,42.2z"/>
		<path class="st5" d="M398.6,45.5c0,0.4-0.1,0.7-0.2,0.9s-0.4,0.2-0.8,0.2s-0.6-0.1-0.8-0.2c-0.1-0.1-0.2-0.4-0.2-0.8
			c0-0.4,0.1-0.7,0.2-0.9c0.1-0.1,0.4-0.2,0.8-0.2c0.4,0,0.6,0.1,0.8,0.2C398.6,44.9,398.6,45.1,398.6,45.5z"/>
		<path class="st5" d="M406.1,43.6c0,0.4-0.1,0.9-0.2,1.2c-0.1,0.4-0.3,0.7-0.6,1c-0.3,0.3-0.6,0.5-1,0.6c-0.4,0.2-0.8,0.2-1.3,0.2
			c-0.4,0-0.8,0-1.1-0.1c-0.3-0.1-0.6-0.2-0.8-0.4c-0.2-0.2-0.4-0.4-0.5-0.6c-0.1-0.3-0.2-0.5-0.3-0.8s-0.1-0.7-0.2-1s0-0.8,0-1.2
			c0-0.3,0-0.7,0.1-1.1c0-0.4,0.1-0.7,0.2-1.1c0.1-0.4,0.2-0.7,0.4-1s0.4-0.6,0.7-0.9c0.3-0.2,0.6-0.4,1-0.6
			c0.4-0.1,0.9-0.2,1.4-0.2c0.2,0,0.3,0,0.5,0s0.3,0,0.5,0.1c0.1,0,0.3,0.1,0.4,0.1c0.1,0,0.2,0.1,0.2,0.1c0,0,0.1,0.1,0.1,0.1
			c0,0,0,0.1,0,0.1c0,0,0,0.1,0,0.2c0,0.1,0,0.1,0,0.2c0,0.1,0,0.3,0,0.4s0,0.2,0,0.2c0,0.1,0,0.1-0.1,0.1s-0.1,0-0.1,0
			c-0.1,0-0.1,0-0.2,0s-0.2-0.1-0.3-0.1s-0.3-0.1-0.4-0.1s-0.4,0-0.6,0c-0.4,0-0.7,0.1-0.9,0.2s-0.5,0.3-0.6,0.6s-0.3,0.5-0.3,0.8
			c-0.1,0.3-0.1,0.6-0.1,1c0.1-0.1,0.2-0.1,0.3-0.2s0.3-0.1,0.4-0.2s0.3-0.1,0.5-0.1c0.2,0,0.4,0,0.6,0c0.4,0,0.8,0.1,1.1,0.2
			c0.3,0.1,0.6,0.3,0.8,0.5c0.2,0.2,0.3,0.5,0.4,0.8C406,42.8,406.1,43.2,406.1,43.6z M404.3,43.7c0-0.2,0-0.4-0.1-0.6
			c0-0.2-0.1-0.3-0.2-0.4s-0.2-0.2-0.4-0.3c-0.1-0.1-0.3-0.1-0.5-0.1c-0.1,0-0.2,0-0.4,0s-0.2,0.1-0.4,0.1c-0.1,0-0.2,0.1-0.3,0.1
			c-0.1,0.1-0.2,0.1-0.3,0.2c0,0.5,0,0.9,0.1,1.2c0.1,0.3,0.1,0.6,0.2,0.8s0.2,0.3,0.4,0.4c0.2,0.1,0.3,0.1,0.6,0.1
			c0.2,0,0.4,0,0.5-0.1c0.2-0.1,0.3-0.2,0.4-0.3c0.1-0.1,0.2-0.3,0.2-0.5C404.3,44.2,404.3,44,404.3,43.7z"/>
		<path class="st5" d="M413,43.6c0,0.4-0.1,0.9-0.2,1.2c-0.1,0.4-0.3,0.7-0.6,1c-0.3,0.3-0.6,0.5-1,0.6c-0.4,0.2-0.8,0.2-1.3,0.2
			c-0.4,0-0.8,0-1.1-0.1c-0.3-0.1-0.6-0.2-0.8-0.4c-0.2-0.2-0.4-0.4-0.5-0.6c-0.1-0.3-0.2-0.5-0.3-0.8s-0.1-0.7-0.2-1s0-0.8,0-1.2
			c0-0.3,0-0.7,0.1-1.1c0-0.4,0.1-0.7,0.2-1.1c0.1-0.4,0.2-0.7,0.4-1s0.4-0.6,0.7-0.9c0.3-0.2,0.6-0.4,1-0.6
			c0.4-0.1,0.9-0.2,1.4-0.2c0.2,0,0.3,0,0.5,0s0.3,0,0.5,0.1c0.1,0,0.3,0.1,0.4,0.1c0.1,0,0.2,0.1,0.2,0.1c0,0,0.1,0.1,0.1,0.1
			c0,0,0,0.1,0,0.1c0,0,0,0.1,0,0.2c0,0.1,0,0.1,0,0.2c0,0.1,0,0.3,0,0.4s0,0.2,0,0.2c0,0.1,0,0.1-0.1,0.1s-0.1,0-0.1,0
			c-0.1,0-0.1,0-0.2,0s-0.2-0.1-0.3-0.1s-0.3-0.1-0.4-0.1s-0.4,0-0.6,0c-0.4,0-0.7,0.1-0.9,0.2s-0.5,0.3-0.6,0.6s-0.3,0.5-0.3,0.8
			c-0.1,0.3-0.1,0.6-0.1,1c0.1-0.1,0.2-0.1,0.3-0.2s0.3-0.1,0.4-0.2s0.3-0.1,0.5-0.1c0.2,0,0.4,0,0.6,0c0.4,0,0.8,0.1,1.1,0.2
			c0.3,0.1,0.6,0.3,0.8,0.5c0.2,0.2,0.3,0.5,0.4,0.8C413,42.8,413,43.2,413,43.6z M411.3,43.7c0-0.2,0-0.4-0.1-0.6
			c0-0.2-0.1-0.3-0.2-0.4s-0.2-0.2-0.4-0.3c-0.1-0.1-0.3-0.1-0.5-0.1c-0.1,0-0.2,0-0.4,0s-0.2,0.1-0.4,0.1c-0.1,0-0.2,0.1-0.3,0.1
			c-0.1,0.1-0.2,0.1-0.3,0.2c0,0.5,0,0.9,0.1,1.2c0.1,0.3,0.1,0.6,0.2,0.8s0.2,0.3,0.4,0.4c0.2,0.1,0.3,0.1,0.6,0.1
			c0.2,0,0.4,0,0.5-0.1c0.2-0.1,0.3-0.2,0.4-0.3c0.1-0.1,0.2-0.3,0.2-0.5C411.3,44.2,411.3,44,411.3,43.7z"/>
		<path class="st5" d="M423.1,42.6c0,0.1,0,0.2,0,0.3c0,0.1,0,0.2-0.1,0.2c0,0.1-0.1,0.1-0.1,0.1s-0.1,0-0.1,0h-2.1v2.3
			c0,0,0,0.1,0,0.1s-0.1,0.1-0.1,0.1c-0.1,0-0.1,0-0.2,0.1c-0.1,0-0.2,0-0.3,0s-0.2,0-0.3,0s-0.2,0-0.2-0.1c-0.1,0-0.1-0.1-0.1-0.1
			s0-0.1,0-0.1v-2.3h-2.1c0,0-0.1,0-0.1,0c0,0-0.1-0.1-0.1-0.1c0-0.1,0-0.1-0.1-0.2c0-0.1,0-0.2,0-0.3c0-0.1,0-0.2,0-0.3
			s0-0.2,0.1-0.2c0-0.1,0.1-0.1,0.1-0.1s0.1,0,0.1,0h2.1v-2.3c0,0,0-0.1,0-0.1s0.1-0.1,0.1-0.1c0.1,0,0.1,0,0.2-0.1s0.2,0,0.3,0
			s0.2,0,0.3,0c0.1,0,0.2,0,0.2,0.1s0.1,0.1,0.1,0.1s0,0.1,0,0.1v2.3h2.1c0,0,0.1,0,0.1,0c0,0,0.1,0.1,0.1,0.1s0,0.1,0.1,0.2
			C423.1,42.4,423.1,42.5,423.1,42.6z"/>
		<path class="st5" d="M433.2,42.1c0,0.7-0.1,1.3-0.2,1.9c-0.1,0.6-0.3,1.1-0.5,1.5c-0.3,0.4-0.6,0.7-1,0.9s-0.9,0.3-1.5,0.3
			c-0.6,0-1.1-0.1-1.5-0.3c-0.4-0.2-0.7-0.5-0.9-0.9c-0.2-0.4-0.4-0.9-0.5-1.4c-0.1-0.6-0.1-1.2-0.1-1.9c0-0.7,0.1-1.3,0.2-1.9
			s0.3-1.1,0.6-1.5s0.6-0.7,1-0.9c0.4-0.2,0.9-0.3,1.5-0.3c0.6,0,1.1,0.1,1.5,0.3c0.4,0.2,0.7,0.5,0.9,0.9c0.2,0.4,0.4,0.9,0.5,1.4
			S433.2,41.4,433.2,42.1z M431.4,42.2c0-0.4,0-0.8,0-1.1s-0.1-0.6-0.1-0.8c0-0.2-0.1-0.4-0.2-0.6c-0.1-0.2-0.2-0.3-0.3-0.4
			s-0.2-0.2-0.3-0.2s-0.3-0.1-0.4-0.1c-0.3,0-0.5,0.1-0.7,0.2c-0.2,0.1-0.3,0.3-0.4,0.6s-0.2,0.6-0.2,1s-0.1,0.8-0.1,1.4
			c0,0.6,0,1.1,0.1,1.6c0,0.4,0.1,0.7,0.2,1c0.1,0.2,0.2,0.4,0.4,0.5c0.2,0.1,0.4,0.1,0.6,0.1c0.2,0,0.3,0,0.5-0.1
			c0.1-0.1,0.3-0.1,0.4-0.3c0.1-0.1,0.2-0.3,0.3-0.4s0.1-0.4,0.2-0.6c0-0.2,0.1-0.5,0.1-0.8S431.4,42.5,431.4,42.2z"/>
		<path class="st5" d="M436.4,45.5c0,0.4-0.1,0.7-0.2,0.9s-0.4,0.2-0.8,0.2s-0.6-0.1-0.8-0.2c-0.1-0.1-0.2-0.4-0.2-0.8
			c0-0.4,0.1-0.7,0.2-0.9c0.1-0.1,0.4-0.2,0.8-0.2c0.4,0,0.6,0.1,0.8,0.2C436.3,44.9,436.4,45.1,436.4,45.5z"/>
		<path class="st5" d="M443.9,44c0,0.2,0,0.4-0.1,0.5c0,0.1-0.1,0.2-0.2,0.2h-0.8v1.6c0,0,0,0.1,0,0.1c0,0-0.1,0.1-0.1,0.1
			c-0.1,0-0.2,0-0.3,0.1c-0.1,0-0.2,0-0.4,0c-0.2,0-0.3,0-0.4,0c-0.1,0-0.2,0-0.3-0.1c-0.1,0-0.1-0.1-0.1-0.1c0,0,0-0.1,0-0.1v-1.6
			h-3.3c-0.1,0-0.1,0-0.2,0c0,0-0.1-0.1-0.1-0.1c0-0.1-0.1-0.1-0.1-0.2c0-0.1,0-0.2,0-0.4c0-0.1,0-0.3,0-0.4c0-0.1,0-0.2,0-0.3
			s0-0.2,0.1-0.2s0.1-0.2,0.1-0.2l2.7-4.8c0,0,0.1-0.1,0.1-0.1c0.1,0,0.1-0.1,0.2-0.1s0.2,0,0.4,0c0.1,0,0.3,0,0.5,0
			c0.2,0,0.4,0,0.6,0c0.2,0,0.3,0,0.4,0.1c0.1,0,0.2,0.1,0.2,0.1c0,0,0.1,0.1,0.1,0.1v5.3h0.8c0.1,0,0.1,0.1,0.2,0.2
			S443.9,43.7,443.9,44z M441.2,39.2L441.2,39.2l-2.3,4.1h2.3V39.2z"/>
		<path class="st5" d="M450.6,43.6c0,0.5-0.1,0.9-0.2,1.3s-0.4,0.7-0.7,1c-0.3,0.3-0.7,0.5-1.1,0.6s-0.9,0.2-1.4,0.2
			c-0.3,0-0.5,0-0.8-0.1s-0.5-0.1-0.7-0.1c-0.2-0.1-0.4-0.1-0.5-0.2c-0.1-0.1-0.2-0.1-0.2-0.1s-0.1-0.1-0.1-0.1c0,0,0-0.1,0-0.1
			c0-0.1,0-0.1,0-0.2c0-0.1,0-0.2,0-0.3c0-0.1,0-0.2,0-0.3c0-0.1,0-0.2,0-0.2c0-0.1,0-0.1,0.1-0.1c0,0,0.1,0,0.1,0
			c0,0,0.1,0,0.2,0.1c0.1,0.1,0.2,0.1,0.4,0.2s0.3,0.1,0.5,0.2c0.2,0.1,0.5,0.1,0.8,0.1c0.3,0,0.5,0,0.7-0.1
			c0.2-0.1,0.4-0.1,0.5-0.3c0.1-0.1,0.3-0.3,0.3-0.5c0.1-0.2,0.1-0.4,0.1-0.7c0-0.2,0-0.4-0.1-0.6s-0.2-0.3-0.3-0.4
			s-0.3-0.2-0.6-0.3c-0.2-0.1-0.5-0.1-0.8-0.1c-0.3,0-0.5,0-0.7,0c-0.2,0-0.4,0-0.6,0c-0.1,0-0.2,0-0.3-0.1
			c-0.1-0.1-0.1-0.2-0.1-0.4v-3.8c0-0.2,0-0.3,0.1-0.4c0.1-0.1,0.2-0.1,0.3-0.1h4.1c0,0,0.1,0,0.1,0c0,0,0.1,0.1,0.1,0.1
			c0,0.1,0,0.1,0.1,0.2c0,0.1,0,0.2,0,0.4c0,0.3,0,0.5-0.1,0.6c0,0.1-0.1,0.2-0.2,0.2h-3.1v1.9c0.2,0,0.3,0,0.5,0c0.2,0,0.3,0,0.5,0
			c0.5,0,0.9,0.1,1.3,0.2c0.4,0.1,0.7,0.3,0.9,0.5s0.4,0.5,0.6,0.8S450.6,43.2,450.6,43.6z"/>
		<path class="st5" d="M460.8,42.6c0,0.1,0,0.2,0,0.3c0,0.1,0,0.2-0.1,0.2c0,0.1-0.1,0.1-0.1,0.1s-0.1,0-0.1,0h-2.1v2.3
			c0,0,0,0.1,0,0.1s-0.1,0.1-0.1,0.1c-0.1,0-0.1,0-0.2,0.1c-0.1,0-0.2,0-0.3,0s-0.2,0-0.3,0s-0.2,0-0.2-0.1c-0.1,0-0.1-0.1-0.1-0.1
			s0-0.1,0-0.1v-2.3H455c0,0-0.1,0-0.1,0c0,0-0.1-0.1-0.1-0.1c0-0.1,0-0.1-0.1-0.2c0-0.1,0-0.2,0-0.3c0-0.1,0-0.2,0-0.3
			s0-0.2,0.1-0.2c0-0.1,0.1-0.1,0.1-0.1s0.1,0,0.1,0h2.1v-2.3c0,0,0-0.1,0-0.1s0.1-0.1,0.1-0.1c0.1,0,0.1,0,0.2-0.1s0.2,0,0.3,0
			s0.2,0,0.3,0c0.1,0,0.2,0,0.2,0.1s0.1,0.1,0.1,0.1s0,0.1,0,0.1v2.3h2.1c0,0,0.1,0,0.1,0c0,0,0.1,0.1,0.1,0.1s0,0.1,0.1,0.2
			C460.8,42.4,460.8,42.5,460.8,42.6z"/>
		<path class="st5" d="M470.9,42.1c0,0.7-0.1,1.3-0.2,1.9c-0.1,0.6-0.3,1.1-0.5,1.5c-0.3,0.4-0.6,0.7-1,0.9s-0.9,0.3-1.5,0.3
			c-0.6,0-1.1-0.1-1.5-0.3c-0.4-0.2-0.7-0.5-0.9-0.9c-0.2-0.4-0.4-0.9-0.5-1.4c-0.1-0.6-0.1-1.2-0.1-1.9c0-0.7,0.1-1.3,0.2-1.9
			s0.3-1.1,0.6-1.5s0.6-0.7,1-0.9c0.4-0.2,0.9-0.3,1.5-0.3c0.6,0,1.1,0.1,1.5,0.3c0.4,0.2,0.7,0.5,0.9,0.9c0.2,0.4,0.4,0.9,0.5,1.4
			S470.9,41.4,470.9,42.1z M469.1,42.2c0-0.4,0-0.8,0-1.1s-0.1-0.6-0.1-0.8c0-0.2-0.1-0.4-0.2-0.6c-0.1-0.2-0.2-0.3-0.3-0.4
			s-0.2-0.2-0.3-0.2s-0.3-0.1-0.4-0.1c-0.3,0-0.5,0.1-0.7,0.2c-0.2,0.1-0.3,0.3-0.4,0.6s-0.2,0.6-0.2,1s-0.1,0.8-0.1,1.4
			c0,0.6,0,1.1,0.1,1.6c0,0.4,0.1,0.7,0.2,1c0.1,0.2,0.2,0.4,0.4,0.5c0.2,0.1,0.4,0.1,0.6,0.1c0.2,0,0.3,0,0.5-0.1
			c0.1-0.1,0.3-0.1,0.4-0.3c0.1-0.1,0.2-0.3,0.3-0.4s0.1-0.4,0.2-0.6c0-0.2,0.1-0.5,0.1-0.8S469.1,42.5,469.1,42.2z"/>
		<path class="st5" d="M474.1,45.5c0,0.4-0.1,0.7-0.2,0.9s-0.4,0.2-0.8,0.2s-0.6-0.1-0.8-0.2c-0.1-0.1-0.2-0.4-0.2-0.8
			c0-0.4,0.1-0.7,0.2-0.9c0.1-0.1,0.4-0.2,0.8-0.2c0.4,0,0.6,0.1,0.8,0.2C474.1,44.9,474.1,45.1,474.1,45.5z"/>
		<path class="st5" d="M481.5,43.6c0,0.4-0.1,0.9-0.2,1.2c-0.1,0.4-0.3,0.7-0.6,1c-0.3,0.3-0.6,0.5-1,0.6c-0.4,0.2-0.8,0.2-1.3,0.2
			c-0.4,0-0.8,0-1.1-0.1c-0.3-0.1-0.6-0.2-0.8-0.4c-0.2-0.2-0.4-0.4-0.5-0.6c-0.1-0.3-0.2-0.5-0.3-0.8s-0.1-0.7-0.2-1s0-0.8,0-1.2
			c0-0.3,0-0.7,0.1-1.1c0-0.4,0.1-0.7,0.2-1.1c0.1-0.4,0.2-0.7,0.4-1s0.4-0.6,0.7-0.9c0.3-0.2,0.6-0.4,1-0.6
			c0.4-0.1,0.9-0.2,1.4-0.2c0.2,0,0.3,0,0.5,0s0.3,0,0.5,0.1c0.1,0,0.3,0.1,0.4,0.1c0.1,0,0.2,0.1,0.2,0.1c0,0,0.1,0.1,0.1,0.1
			c0,0,0,0.1,0,0.1c0,0,0,0.1,0,0.2c0,0.1,0,0.1,0,0.2c0,0.1,0,0.3,0,0.4s0,0.2,0,0.2c0,0.1,0,0.1-0.1,0.1s-0.1,0-0.1,0
			c-0.1,0-0.1,0-0.2,0s-0.2-0.1-0.3-0.1s-0.3-0.1-0.4-0.1s-0.4,0-0.6,0c-0.4,0-0.7,0.1-0.9,0.2s-0.5,0.3-0.6,0.6s-0.3,0.5-0.3,0.8
			c-0.1,0.3-0.1,0.6-0.1,1c0.1-0.1,0.2-0.1,0.3-0.2s0.3-0.1,0.4-0.2s0.3-0.1,0.5-0.1c0.2,0,0.4,0,0.6,0c0.4,0,0.8,0.1,1.1,0.2
			c0.3,0.1,0.6,0.3,0.8,0.5c0.2,0.2,0.3,0.5,0.4,0.8C481.5,42.8,481.5,43.2,481.5,43.6z M479.8,43.7c0-0.2,0-0.4-0.1-0.6
			c0-0.2-0.1-0.3-0.2-0.4s-0.2-0.2-0.4-0.3c-0.1-0.1-0.3-0.1-0.5-0.1c-0.1,0-0.2,0-0.4,0s-0.2,0.1-0.4,0.1c-0.1,0-0.2,0.1-0.3,0.1
			c-0.1,0.1-0.2,0.1-0.3,0.2c0,0.5,0,0.9,0.1,1.2c0.1,0.3,0.1,0.6,0.2,0.8s0.2,0.3,0.4,0.4c0.2,0.1,0.3,0.1,0.6,0.1
			c0.2,0,0.4,0,0.5-0.1c0.2-0.1,0.3-0.2,0.4-0.3c0.1-0.1,0.2-0.3,0.2-0.5C479.8,44.2,479.8,44,479.8,43.7z"/>
		<path class="st5" d="M488.3,45.8c0,0.1,0,0.2,0,0.3s0,0.2-0.1,0.2c0,0.1-0.1,0.1-0.1,0.1s-0.1,0-0.1,0h-4.8c0,0-0.1,0-0.1,0
			c0,0-0.1-0.1-0.1-0.1c0-0.1,0-0.1-0.1-0.2c0-0.1,0-0.2,0-0.3c0-0.1,0-0.2,0-0.3c0-0.1,0-0.2,0.1-0.2c0-0.1,0.1-0.1,0.1-0.1
			c0,0,0.1,0,0.1,0h1.6v-5.8l-1.4,0.8c-0.1,0.1-0.2,0.1-0.3,0.1c-0.1,0-0.1,0-0.2,0S483,40.1,483,40s0-0.2,0-0.4c0-0.1,0-0.2,0-0.3
			c0-0.1,0-0.1,0-0.2c0-0.1,0-0.1,0.1-0.1c0,0,0.1-0.1,0.1-0.1l1.9-1.2c0,0,0.1,0,0.1,0c0,0,0.1,0,0.1,0c0.1,0,0.1,0,0.2,0
			c0.1,0,0.2,0,0.3,0c0.2,0,0.3,0,0.4,0s0.2,0,0.2,0c0.1,0,0.1,0,0.1,0.1c0,0,0,0.1,0,0.1v7.3h1.4c0,0,0.1,0,0.1,0
			c0,0,0.1,0.1,0.1,0.1c0,0.1,0,0.1,0.1,0.2C488.3,45.6,488.3,45.7,488.3,45.8z"/>
		<path class="st5" d="M492.5,42.8c0,0.5,0,1-0.1,1.5c-0.1,0.5-0.1,1-0.3,1.5c-0.1,0.5-0.3,1-0.4,1.5c-0.2,0.5-0.4,1-0.6,1.4
			c0,0,0,0.1-0.1,0.1c0,0-0.1,0-0.1,0.1c-0.1,0-0.1,0-0.2,0s-0.2,0-0.3,0c-0.2,0-0.3,0-0.4,0c-0.1,0-0.2,0-0.2-0.1
			c0,0-0.1-0.1-0.1-0.1c0-0.1,0-0.1,0-0.2c0.4-0.9,0.7-1.8,0.9-2.8c0.2-0.9,0.3-1.9,0.3-2.9c0-1-0.1-2-0.3-2.9
			c-0.2-0.9-0.5-1.9-0.9-2.8c0-0.1,0-0.1,0-0.2c0,0,0-0.1,0.1-0.1c0.1,0,0.1-0.1,0.2-0.1c0.1,0,0.2,0,0.4,0c0.1,0,0.3,0,0.3,0
			s0.2,0,0.2,0c0.1,0,0.1,0,0.1,0.1c0,0,0,0,0.1,0.1c0.5,1,0.8,1.9,1.1,2.9C492.4,40.8,492.5,41.8,492.5,42.8z"/>
		<path class="st5" d="M502.7,41.2c0,0.2,0,0.4-0.1,0.5c-0.1,0.1-0.1,0.2-0.2,0.2h-5.1c-0.1,0-0.2-0.1-0.2-0.2
			c-0.1-0.1-0.1-0.3-0.1-0.5c0-0.2,0-0.4,0.1-0.5c0-0.1,0.1-0.2,0.2-0.2h5.1c0.1,0,0.2,0.1,0.2,0.2C502.6,40.8,502.7,41,502.7,41.2z
			 M502.7,44c0,0.2,0,0.4-0.1,0.5c-0.1,0.1-0.1,0.1-0.2,0.1h-5.1c-0.1,0-0.2,0-0.2-0.1c-0.1-0.1-0.1-0.3-0.1-0.5
			c0-0.2,0-0.4,0.1-0.5c0-0.1,0.1-0.2,0.2-0.2h5.1c0.1,0,0.2,0.1,0.2,0.2C502.6,43.6,502.7,43.7,502.7,44z"/>
		<path class="st5" d="M513,42.1c0,0.7-0.1,1.3-0.2,1.9c-0.1,0.6-0.3,1.1-0.5,1.5c-0.3,0.4-0.6,0.7-1,0.9s-0.9,0.3-1.5,0.3
			c-0.6,0-1.1-0.1-1.5-0.3c-0.4-0.2-0.7-0.5-0.9-0.9c-0.2-0.4-0.4-0.9-0.5-1.4c-0.1-0.6-0.1-1.2-0.1-1.9c0-0.7,0.1-1.3,0.2-1.9
			s0.3-1.1,0.6-1.5s0.6-0.7,1-0.9c0.4-0.2,0.9-0.3,1.5-0.3c0.6,0,1.1,0.1,1.5,0.3c0.4,0.2,0.7,0.5,0.9,0.9c0.2,0.4,0.4,0.9,0.5,1.4
			S513,41.4,513,42.1z M511.2,42.2c0-0.4,0-0.8,0-1.1s-0.1-0.6-0.1-0.8c0-0.2-0.1-0.4-0.2-0.6c-0.1-0.2-0.2-0.3-0.3-0.4
			s-0.2-0.2-0.3-0.2s-0.3-0.1-0.4-0.1c-0.3,0-0.5,0.1-0.7,0.2c-0.2,0.1-0.3,0.3-0.4,0.6s-0.2,0.6-0.2,1s-0.1,0.8-0.1,1.4
			c0,0.6,0,1.1,0.1,1.6c0,0.4,0.1,0.7,0.2,1c0.1,0.2,0.2,0.4,0.4,0.5c0.2,0.1,0.4,0.1,0.6,0.1c0.2,0,0.3,0,0.5-0.1
			c0.1-0.1,0.3-0.1,0.4-0.3c0.1-0.1,0.2-0.3,0.3-0.4s0.1-0.4,0.2-0.6c0-0.2,0.1-0.5,0.1-0.8S511.2,42.5,511.2,42.2z"/>
		<path class="st5" d="M516.2,45.5c0,0.4-0.1,0.7-0.2,0.9s-0.4,0.2-0.8,0.2s-0.6-0.1-0.8-0.2c-0.1-0.1-0.2-0.4-0.2-0.8
			c0-0.4,0.1-0.7,0.2-0.9c0.1-0.1,0.4-0.2,0.8-0.2c0.4,0,0.6,0.1,0.8,0.2C516.1,44.9,516.2,45.1,516.2,45.5z"/>
		<path class="st5" d="M523.4,43.6c0,0.5-0.1,0.9-0.2,1.3s-0.4,0.7-0.7,1c-0.3,0.3-0.7,0.5-1.1,0.6s-0.9,0.2-1.4,0.2
			c-0.3,0-0.5,0-0.8-0.1s-0.5-0.1-0.7-0.1c-0.2-0.1-0.4-0.1-0.5-0.2c-0.1-0.1-0.2-0.1-0.2-0.1s-0.1-0.1-0.1-0.1c0,0,0-0.1,0-0.1
			c0-0.1,0-0.1,0-0.2c0-0.1,0-0.2,0-0.3c0-0.1,0-0.2,0-0.3c0-0.1,0-0.2,0-0.2c0-0.1,0-0.1,0.1-0.1c0,0,0.1,0,0.1,0
			c0,0,0.1,0,0.2,0.1c0.1,0.1,0.2,0.1,0.4,0.2s0.3,0.1,0.5,0.2c0.2,0.1,0.5,0.1,0.8,0.1c0.3,0,0.5,0,0.7-0.1
			c0.2-0.1,0.4-0.1,0.5-0.3c0.1-0.1,0.3-0.3,0.3-0.5c0.1-0.2,0.1-0.4,0.1-0.7c0-0.2,0-0.4-0.1-0.6s-0.2-0.3-0.3-0.4
			s-0.3-0.2-0.6-0.3c-0.2-0.1-0.5-0.1-0.8-0.1c-0.3,0-0.5,0-0.7,0c-0.2,0-0.4,0-0.6,0c-0.1,0-0.2,0-0.3-0.1
			c-0.1-0.1-0.1-0.2-0.1-0.4v-3.8c0-0.2,0-0.3,0.1-0.4c0.1-0.1,0.2-0.1,0.3-0.1h4.1c0,0,0.1,0,0.1,0c0,0,0.1,0.1,0.1,0.1
			c0,0.1,0,0.1,0.1,0.2c0,0.1,0,0.2,0,0.4c0,0.3,0,0.5-0.1,0.6c0,0.1-0.1,0.2-0.2,0.2h-3.1v1.9c0.2,0,0.3,0,0.5,0c0.2,0,0.3,0,0.5,0
			c0.5,0,0.9,0.1,1.3,0.2c0.4,0.1,0.7,0.3,0.9,0.5s0.4,0.5,0.6,0.8S523.4,43.2,523.4,43.6z"/>
		<path class="st5" d="M530.4,38.4c0,0.1,0,0.2,0,0.3s0,0.2,0,0.3s0,0.2-0.1,0.2c0,0.1-0.1,0.2-0.1,0.2l-2.9,6.7
			c0,0.1-0.1,0.1-0.1,0.1c0,0-0.1,0.1-0.2,0.1c-0.1,0-0.2,0-0.3,0c-0.1,0-0.3,0-0.4,0c-0.2,0-0.4,0-0.6,0c-0.1,0-0.2,0-0.3-0.1
			c-0.1,0-0.1-0.1-0.1-0.1c0-0.1,0-0.1,0-0.2l3.1-6.9h-3.7c-0.1,0-0.2-0.1-0.2-0.2s-0.1-0.3-0.1-0.6c0-0.1,0-0.3,0-0.4
			c0-0.1,0-0.2,0.1-0.2c0-0.1,0.1-0.1,0.1-0.1c0,0,0.1,0,0.1,0h5.2c0.1,0,0.1,0,0.2,0c0.1,0,0.1,0.1,0.1,0.1s0.1,0.1,0.1,0.2
			C530.4,38.1,530.4,38.3,530.4,38.4z"/>
	</g>
</g>
</svg>
