<?xml version="1.0" encoding="UTF-8" standalone="no"?>
<!DOCTYPE svg PUBLIC "-//W3C//DTD SVG 1.1//EN" "http://www.w3.org/Graphics/SVG/1.1/DTD/svg11.dtd">
<!-- Generated by Microsoft Visio, SVG Export calcs_1.svg Page-1 -->
<svg xmlns="http://www.w3.org/2000/svg" xmlns:xlink="http://www.w3.org/1999/xlink" xmlns:ev="http://www.w3.org/2001/xml-events"
		xmlns:v="http://schemas.microsoft.com/visio/2003/SVGExtensions/" width="7.17085in" height="1.66285in"
		viewBox="0 0 516.301 119.725" xml:space="preserve" color-interpolation-filters="sRGB" class="st9">
	<v:documentProperties v:langID="1033" v:metric="true" v:viewMarkup="false"/>

	<style type="text/css">
	<![CDATA[
		.st1 {fill:none}
		.st2 {stroke:#7f7f7f;stroke-linecap:round;stroke-linejoin:round;stroke-width:1.5}
		.st3 {stroke:none;stroke-linecap:round;stroke-linejoin:round;stroke-width:0.75}
		.st4 {fill:#3f3f3f;font-family:Calibri;font-size:1.16666em;font-weight:bold}
		.st5 {baseline-shift:-32.4943%;font-size:0.649886em}
		.st6 {font-size:1em}
		.st7 {fill:#e48f01;font-family:Vazir;font-size:1.16666em;font-weight:bold}
		.st8 {font-size:14}
		.st9 {fill:none;fill-rule:evenodd;font-size:12px;overflow:visible;stroke-linecap:square;stroke-miterlimit:3}
	]]>
	</style>

	<g v:mID="0" v:index="1" v:groupContext="foregroundPage">
		<title>Page-1</title>
		<v:pageProperties v:drawingScale="0.0393701" v:pageScale="0.0393701" v:drawingUnits="24" v:shadowOffsetX="8.50394"
				v:shadowOffsetY="-8.50394"/>
		<g id="shape60-1" v:mID="60" v:groupContext="shape" transform="translate(0.75,-4.25198)">
			<title>Sheet.60</title>
			<path d="M4.54 43.19 A4.53519 4.43676 -180 0 0 0 47.63 L0 115.29 A4.53519 4.43676 -180 0 0 4.54 119.73 L4.54 43.19 Z"
					class="st1"/>
			<path d="M4.54 43.19 A4.53519 4.43676 -180 0 0 0 47.63 L0 115.29 A4.53519 4.43676 -180 0 0 4.54 119.73" class="st2"/>
		</g>
		<g id="shape61-4" v:mID="61" v:groupContext="shape" transform="translate(7.03499,-61.0222)">
			<title>Sheet.61</title>
			<desc>TRLA</desc>
			<v:textBlock v:margins="rect(0,0,0,0)" v:tabSpace="42.5197"/>
			<v:textRect cx="14.2905" cy="107.717" width="28.59" height="24.0172"/>
			<path d="M28.58 95.71 L0 95.71 L0 119.73 L28.58 119.73 L28.58 95.71" class="st3"/>
			<text x="1.17" y="111.92" class="st4" v:langID="1033"><v:paragraph v:horizAlign="1"/><v:tabList/>TRL<tspan
						dy="-0.284em" class="st5" v:baseFontSize="14">A</tspan></text>		</g>
		<g id="shape62-9" v:mID="62" v:groupContext="shape" transform="translate(7.03499,-30.5111)">
			<title>Sheet.62</title>
			<desc>TRLB</desc>
			<v:textBlock v:margins="rect(0,0,0,0)" v:tabSpace="42.5197"/>
			<v:textRect cx="14.2905" cy="107.717" width="28.59" height="24.0172"/>
			<path d="M28.58 95.71 L0 95.71 L0 119.73 L28.58 119.73 L28.58 95.71" class="st3"/>
			<text x="1.37" y="111.92" class="st4" v:langID="1033"><v:paragraph v:horizAlign="1"/><v:tabList/>TRL<tspan
						dy="-0.284em" class="st5" v:baseFontSize="14">B</tspan></text>		</g>
		<g id="shape63-14" v:mID="63" v:groupContext="shape" transform="translate(7.03499,-2.84217E-14)">
			<title>Sheet.63</title>
			<desc>TRLC</desc>
			<v:textBlock v:margins="rect(0,0,0,0)" v:tabSpace="42.5197"/>
			<v:textRect cx="14.2905" cy="107.717" width="28.59" height="24.0172"/>
			<path d="M28.58 95.71 L0 95.71 L0 119.73 L28.58 119.73 L28.58 95.71" class="st3"/>
			<text x="1.52" y="111.92" class="st4" v:langID="1033"><v:paragraph v:horizAlign="1"/><v:tabList/>TRL<tspan
						dy="-0.284em" class="st5" v:baseFontSize="14">C</tspan></text>		</g>
		<g id="shape64-19" v:mID="64" v:groupContext="shape" transform="translate(42.1356,-4.25198) scale(-1,1)">
			<title>Sheet.64</title>
			<path d="M4.54 43.19 A4.53519 4.43676 -180 0 0 0 47.63 L0 115.29 A4.53519 4.43676 -180 0 0 4.54 119.73 L4.54 43.19 Z"
					class="st1"/>
			<path d="M4.54 43.19 A4.53519 4.43676 -180 0 0 0 47.63 L0 115.29 A4.53519 4.43676 -180 0 0 4.54 119.73" class="st2"/>
		</g>
		<g id="shape65-22" v:mID="65" v:groupContext="shape" transform="translate(45.5373,-30.5111)">
			<title>Sheet.65</title>
			<desc>=</desc>
			<v:textBlock v:margins="rect(0,0,0,0)" v:tabSpace="42.5197"/>
			<v:textRect cx="7.79528" cy="107.717" width="15.6" height="24.0172"/>
			<path d="M15.59 95.71 L0 95.71 L0 119.73 L15.59 119.73 L15.59 95.71" class="st3"/>
			<text x="4.31" y="111.92" class="st4" v:langID="1033"><v:paragraph v:horizAlign="1"/><v:tabList/>=</text>		</g>
		<g id="shape66-26" v:mID="66" v:groupContext="shape" transform="translate(64.5295,-4.25198)">
			<title>Sheet.66</title>
			<path d="M4.54 43.19 A4.53519 4.43676 -180 0 0 0 47.63 L0 115.29 A4.53519 4.43676 -180 0 0 4.54 119.73 L4.54 43.19 Z"
					class="st1"/>
			<path d="M4.54 43.19 A4.53519 4.43676 -180 0 0 0 47.63 L0 115.29 A4.53519 4.43676 -180 0 0 4.54 119.73" class="st2"/>
		</g>
		<g id="shape67-29" v:mID="67" v:groupContext="shape" transform="translate(68.7815,-61.0222)">
			<title>Sheet.67</title>
			<desc>7</desc>
			<v:textBlock v:margins="rect(0,0,0,0)" v:tabSpace="42.5197"/>
			<v:textRect cx="11.1723" cy="107.717" width="22.35" height="24.0172"/>
			<path d="M22.34 95.71 L0 95.71 L0 119.73 L22.34 119.73 L22.34 95.71" class="st3"/>
			<text x="7.62" y="111.92" class="st4" v:langID="1033"><v:paragraph v:horizAlign="1"/><v:tabList/>7</text>		</g>
		<g id="shape68-33" v:mID="68" v:groupContext="shape" transform="translate(68.7815,-30.5111)">
			<title>Sheet.68</title>
			<desc>4</desc>
			<v:textBlock v:margins="rect(0,0,0,0)" v:tabSpace="42.5197"/>
			<v:textRect cx="11.1723" cy="107.717" width="22.35" height="24.0172"/>
			<path d="M22.34 95.71 L0 95.71 L0 119.73 L22.34 119.73 L22.34 95.71" class="st3"/>
			<text x="7.62" y="111.92" class="st4" v:langID="1033"><v:paragraph v:horizAlign="1"/><v:tabList/>4</text>		</g>
		<g id="shape69-37" v:mID="69" v:groupContext="shape" transform="translate(68.7815,-2.84217E-14)">
			<title>Sheet.69</title>
			<desc>6</desc>
			<v:textBlock v:margins="rect(0,0,0,0)" v:tabSpace="42.5197"/>
			<v:textRect cx="11.1723" cy="107.717" width="22.35" height="24.0172"/>
			<path d="M22.34 95.71 L0 95.71 L0 119.73 L22.34 119.73 L22.34 95.71" class="st3"/>
			<text x="7.62" y="111.92" class="st4" v:langID="1033"><v:paragraph v:horizAlign="1"/><v:tabList/>6</text>		</g>
		<g id="shape70-41" v:mID="70" v:groupContext="shape" transform="translate(95.049,-4.25198) scale(-1,1)">
			<title>Sheet.70</title>
			<path d="M4.54 43.19 A4.53519 4.43676 -180 0 0 0 47.63 L0 115.29 A4.53519 4.43676 -180 0 0 4.54 119.73 L4.54 43.19 Z"
					class="st1"/>
			<path d="M4.54 43.19 A4.53519 4.43676 -180 0 0 0 47.63 L0 115.29 A4.53519 4.43676 -180 0 0 4.54 119.73" class="st2"/>
		</g>
		<g id="shape71-44" v:mID="71" v:groupContext="shape" transform="translate(145.034,-4.25198)">
			<title>Sheet.71</title>
			<path d="M4.54 43.19 A4.53519 4.43676 -180 0 0 0 47.63 L0 115.29 A4.53519 4.43676 -180 0 0 4.54 119.73 L4.54 43.19 Z"
					class="st1"/>
			<path d="M4.54 43.19 A4.53519 4.43676 -180 0 0 0 47.63 L0 115.29 A4.53519 4.43676 -180 0 0 4.54 119.73" class="st2"/>
		</g>
		<g id="shape72-47" v:mID="72" v:groupContext="shape" transform="translate(259.553,-4.25198) scale(-1,1)">
			<title>Sheet.72</title>
			<path d="M4.54 43.19 A4.53519 4.43676 -180 0 0 0 47.63 L0 115.29 A4.53519 4.43676 -180 0 0 4.54 119.73 L4.54 43.19 Z"
					class="st1"/>
			<path d="M4.54 43.19 A4.53519 4.43676 -180 0 0 0 47.63 L0 115.29 A4.53519 4.43676 -180 0 0 4.54 119.73" class="st2"/>
		</g>
		<g id="shape74-50" v:mID="74" v:groupContext="shape" transform="translate(288.183,-4.25198)">
			<title>Sheet.74</title>
			<path d="M4.54 43.19 A4.53519 4.43676 -180 0 0 0 47.63 L0 115.29 A4.53519 4.43676 -180 0 0 4.54 119.73 L4.54 43.19 Z"
					class="st1"/>
			<path d="M4.54 43.19 A4.53519 4.43676 -180 0 0 0 47.63 L0 115.29 A4.53519 4.43676 -180 0 0 4.54 119.73" class="st2"/>
		</g>
		<g id="shape75-53" v:mID="75" v:groupContext="shape" transform="translate(369.254,-4.25198) scale(-1,1)">
			<title>Sheet.75</title>
			<path d="M4.54 43.19 A4.53519 4.43676 -180 0 0 0 47.63 L0 115.29 A4.53519 4.43676 -180 0 0 4.54 119.73 L4.54 43.19 Z"
					class="st1"/>
			<path d="M4.54 43.19 A4.53519 4.43676 -180 0 0 0 47.63 L0 115.29 A4.53519 4.43676 -180 0 0 4.54 119.73" class="st2"/>
		</g>
		<g id="shape76-56" v:mID="76" v:groupContext="shape" transform="translate(151.319,-61.0222)">
			<title>Sheet.76</title>
			<desc>IRLA</desc>
			<v:textBlock v:margins="rect(0,0,0,0)" v:tabSpace="42.5197"/>
			<v:textRect cx="14.2905" cy="107.717" width="28.59" height="24.0172"/>
			<path d="M28.58 95.71 L0 95.71 L0 119.73 L28.58 119.73 L28.58 95.71" class="st3"/>
			<text x="2.77" y="111.92" class="st4" v:langID="1033"><v:paragraph v:horizAlign="1"/><v:tabList/>IRL<tspan
						dy="-0.284em" class="st5" v:baseFontSize="14">A</tspan></text>		</g>
		<g id="shape77-61" v:mID="77" v:groupContext="shape" transform="translate(151.319,-30.5111)">
			<title>Sheet.77</title>
			<desc>IRLAB</desc>
			<v:textBlock v:margins="rect(0,0,0,0)" v:tabSpace="42.5197"/>
			<v:textRect cx="14.2905" cy="107.717" width="28.59" height="24.0172"/>
			<path d="M28.58 95.71 L0 95.71 L0 119.73 L28.58 119.73 L28.58 95.71" class="st3"/>
			<text x="0.22" y="111.92" class="st4" v:langID="1033"><v:paragraph v:horizAlign="1"/><v:tabList/>IRL<tspan
						dy="-0.284em" class="st5" v:baseFontSize="14">AB</tspan></text>		</g>
		<g id="shape78-66" v:mID="78" v:groupContext="shape" transform="translate(151.319,-2.84217E-14)">
			<title>Sheet.78</title>
			<desc>IRLAC</desc>
			<v:textBlock v:margins="rect(0,0,0,0)" v:tabSpace="42.5197"/>
			<v:textRect cx="14.2905" cy="107.717" width="28.59" height="24.0172"/>
			<path d="M28.58 95.71 L0 95.71 L0 119.73 L28.58 119.73 L28.58 95.71" class="st3"/>
			<text x="0.36" y="111.92" class="st4" v:langID="1033"><v:paragraph v:horizAlign="1"/><v:tabList/>IRL<tspan
						dy="-0.284em" class="st5" v:baseFontSize="14">AC</tspan></text>		</g>
		<g id="shape79-71" v:mID="79" v:groupContext="shape" transform="translate(188.594,-61.0222)">
			<title>Sheet.79</title>
			<desc>IRLAB</desc>
			<v:textBlock v:margins="rect(0,0,0,0)" v:tabSpace="42.5197"/>
			<v:textRect cx="14.2905" cy="107.717" width="28.59" height="24.0172"/>
			<path d="M28.58 95.71 L0 95.71 L0 119.73 L28.58 119.73 L28.58 95.71" class="st3"/>
			<text x="0.22" y="111.92" class="st4" v:langID="1033"><v:paragraph v:horizAlign="1"/><v:tabList/>IRL<tspan
						dy="-0.284em" class="st5" v:baseFontSize="14">AB</tspan></text>		</g>
		<g id="shape80-76" v:mID="80" v:groupContext="shape" transform="translate(188.594,-30.5111)">
			<title>Sheet.80</title>
			<desc>IRLB</desc>
			<v:textBlock v:margins="rect(0,0,0,0)" v:tabSpace="42.5197"/>
			<v:textRect cx="14.2905" cy="107.717" width="28.59" height="24.0172"/>
			<path d="M28.58 95.71 L0 95.71 L0 119.73 L28.58 119.73 L28.58 95.71" class="st3"/>
			<text x="2.97" y="111.92" class="st4" v:langID="1033"><v:paragraph v:horizAlign="1"/><v:tabList/>IRL<tspan
						dy="-0.284em" class="st5" v:baseFontSize="14">B</tspan></text>		</g>
		<g id="shape81-81" v:mID="81" v:groupContext="shape" transform="translate(188.594,-2.84217E-14)">
			<title>Sheet.81</title>
			<desc>IRLBC</desc>
			<v:textBlock v:margins="rect(0,0,0,0)" v:tabSpace="42.5197"/>
			<v:textRect cx="14.2905" cy="107.717" width="28.59" height="24.0172"/>
			<path d="M28.58 95.71 L0 95.71 L0 119.73 L28.58 119.73 L28.58 95.71" class="st3"/>
			<text x="0.57" y="111.92" class="st4" v:langID="1033"><v:paragraph v:horizAlign="1"/><v:tabList/>IRL<tspan
						dy="-0.284em" class="st5" v:baseFontSize="14">BC</tspan></text>		</g>
		<g id="shape82-86" v:mID="82" v:groupContext="shape" transform="translate(225.87,-61.0222)">
			<title>Sheet.82</title>
			<desc>IRLAC</desc>
			<v:textBlock v:margins="rect(0,0,0,0)" v:tabSpace="42.5197"/>
			<v:textRect cx="14.2905" cy="107.717" width="28.59" height="24.0172"/>
			<path d="M28.58 95.71 L0 95.71 L0 119.73 L28.58 119.73 L28.58 95.71" class="st3"/>
			<text x="0.36" y="111.92" class="st4" v:langID="1033"><v:paragraph v:horizAlign="1"/><v:tabList/>IRL<tspan
						dy="-0.284em" class="st5" v:baseFontSize="14">AC</tspan></text>		</g>
		<g id="shape83-91" v:mID="83" v:groupContext="shape" transform="translate(225.87,-30.5111)">
			<title>Sheet.83</title>
			<desc>IRLBC</desc>
			<v:textBlock v:margins="rect(0,0,0,0)" v:tabSpace="42.5197"/>
			<v:textRect cx="14.2905" cy="107.717" width="28.59" height="24.0172"/>
			<path d="M28.58 95.71 L0 95.71 L0 119.73 L28.58 119.73 L28.58 95.71" class="st3"/>
			<text x="0.57" y="111.92" class="st4" v:langID="1033"><v:paragraph v:horizAlign="1"/><v:tabList/>IRL<tspan
						dy="-0.284em" class="st5" v:baseFontSize="14">BC</tspan></text>		</g>
		<g id="shape84-96" v:mID="84" v:groupContext="shape" transform="translate(225.87,-2.84217E-14)">
			<title>Sheet.84</title>
			<desc>IRLC</desc>
			<v:textBlock v:margins="rect(0,0,0,0)" v:tabSpace="42.5197"/>
			<v:textRect cx="14.2905" cy="107.717" width="28.59" height="24.0172"/>
			<path d="M28.58 95.71 L0 95.71 L0 119.73 L28.58 119.73 L28.58 95.71" class="st3"/>
			<text x="3.12" y="111.92" class="st4" v:langID="1033"><v:paragraph v:horizAlign="1"/><v:tabList/>IRL<tspan
						dy="-0.284em" class="st5" v:baseFontSize="14">C</tspan></text>		</g>
		<g id="shape85-101" v:mID="85" v:groupContext="shape" transform="translate(292.201,-61.0222)">
			<title>Sheet.85</title>
			<desc>9</desc>
			<v:textBlock v:margins="rect(0,0,0,0)" v:tabSpace="42.5197"/>
			<v:textRect cx="10.4637" cy="107.717" width="20.93" height="24.0172"/>
			<path d="M20.93 95.71 L0 95.71 L0 119.73 L20.93 119.73 L20.93 95.71" class="st3"/>
			<text x="6.92" y="111.92" class="st4" v:langID="1033"><v:paragraph v:horizAlign="1"/><v:tabList/>9</text>		</g>
		<g id="shape86-105" v:mID="86" v:groupContext="shape" transform="translate(292.201,-30.5111)">
			<title>Sheet.86</title>
			<desc>5</desc>
			<v:textBlock v:margins="rect(0,0,0,0)" v:tabSpace="42.5197"/>
			<v:textRect cx="10.4637" cy="107.717" width="20.93" height="24.0172"/>
			<path d="M20.93 95.71 L0 95.71 L0 119.73 L20.93 119.73 L20.93 95.71" class="st3"/>
			<text x="6.92" y="111.92" class="st4" v:langID="1033"><v:paragraph v:horizAlign="1"/><v:tabList/>5</text>		</g>
		<g id="shape87-109" v:mID="87" v:groupContext="shape" transform="translate(292.201,-2.84217E-14)">
			<title>Sheet.87</title>
			<desc>8</desc>
			<v:textBlock v:margins="rect(0,0,0,0)" v:tabSpace="42.5197"/>
			<v:textRect cx="10.4637" cy="107.717" width="20.93" height="24.0172"/>
			<path d="M20.93 95.71 L0 95.71 L0 119.73 L20.93 119.73 L20.93 95.71" class="st3"/>
			<text x="6.92" y="111.92" class="st4" v:langID="1033"><v:paragraph v:horizAlign="1"/><v:tabList/>8</text>		</g>
		<g id="shape88-113" v:mID="88" v:groupContext="shape" transform="translate(318.421,-61.0222)">
			<title>Sheet.88</title>
			<desc>5</desc>
			<v:textBlock v:margins="rect(0,0,0,0)" v:tabSpace="42.5197"/>
			<v:textRect cx="10.4637" cy="107.717" width="20.93" height="24.0172"/>
			<path d="M20.93 95.71 L0 95.71 L0 119.73 L20.93 119.73 L20.93 95.71" class="st3"/>
			<text x="6.92" y="111.92" class="st4" v:langID="1033"><v:paragraph v:horizAlign="1"/><v:tabList/>5</text>		</g>
		<g id="shape89-117" v:mID="89" v:groupContext="shape" transform="translate(318.421,-30.5111)">
			<title>Sheet.89</title>
			<desc>9</desc>
			<v:textBlock v:margins="rect(0,0,0,0)" v:tabSpace="42.5197"/>
			<v:textRect cx="10.4637" cy="107.717" width="20.93" height="24.0172"/>
			<path d="M20.93 95.71 L0 95.71 L0 119.73 L20.93 119.73 L20.93 95.71" class="st3"/>
			<text x="6.92" y="111.92" class="st4" v:langID="1033"><v:paragraph v:horizAlign="1"/><v:tabList/>9</text>		</g>
		<g id="shape90-121" v:mID="90" v:groupContext="shape" transform="translate(318.421,-2.84217E-14)">
			<title>Sheet.90</title>
			<desc>3</desc>
			<v:textBlock v:margins="rect(0,0,0,0)" v:tabSpace="42.5197"/>
			<v:textRect cx="10.4637" cy="107.717" width="20.93" height="24.0172"/>
			<path d="M20.93 95.71 L0 95.71 L0 119.73 L20.93 119.73 L20.93 95.71" class="st3"/>
			<text x="6.92" y="111.92" class="st4" v:langID="1033"><v:paragraph v:horizAlign="1"/><v:tabList/>3</text>		</g>
		<g id="shape91-125" v:mID="91" v:groupContext="shape" transform="translate(344.642,-61.0222)">
			<title>Sheet.91</title>
			<desc>8</desc>
			<v:textBlock v:margins="rect(0,0,0,0)" v:tabSpace="42.5197"/>
			<v:textRect cx="10.4637" cy="107.717" width="20.93" height="24.0172"/>
			<path d="M20.93 95.71 L0 95.71 L0 119.73 L20.93 119.73 L20.93 95.71" class="st3"/>
			<text x="6.92" y="111.92" class="st4" v:langID="1033"><v:paragraph v:horizAlign="1"/><v:tabList/>8</text>		</g>
		<g id="shape92-129" v:mID="92" v:groupContext="shape" transform="translate(344.642,-30.5111)">
			<title>Sheet.92</title>
			<desc>3</desc>
			<v:textBlock v:margins="rect(0,0,0,0)" v:tabSpace="42.5197"/>
			<v:textRect cx="10.4637" cy="107.717" width="20.93" height="24.0172"/>
			<path d="M20.93 95.71 L0 95.71 L0 119.73 L20.93 119.73 L20.93 95.71" class="st3"/>
			<text x="6.92" y="111.92" class="st4" v:langID="1033"><v:paragraph v:horizAlign="1"/><v:tabList/>3</text>		</g>
		<g id="shape93-133" v:mID="93" v:groupContext="shape" transform="translate(344.642,-2.84217E-14)">
			<title>Sheet.93</title>
			<desc>9</desc>
			<v:textBlock v:margins="rect(0,0,0,0)" v:tabSpace="42.5197"/>
			<v:textRect cx="10.4637" cy="107.717" width="20.93" height="24.0172"/>
			<path d="M20.93 95.71 L0 95.71 L0 119.73 L20.93 119.73 L20.93 95.71" class="st3"/>
			<text x="6.92" y="111.92" class="st4" v:langID="1033"><v:paragraph v:horizAlign="1"/><v:tabList/>9</text>		</g>
		<g id="shape94-137" v:mID="94" v:groupContext="shape" transform="translate(383.427,-28.3465)">
			<title>Sheet.94</title>
			<desc>SRL=IRL ×TRL (Normalized)</desc>
			<v:textBlock v:margins="rect(0,0,0,0)" v:tabSpace="42.5197"/>
			<v:textRect cx="60.5905" cy="107.717" width="121.19" height="24.0172"/>
			<path d="M121.18 95.71 L0 95.71 L0 119.73 L121.18 119.73 L121.18 95.71" class="st3"/>
			<text x="22.69" y="103.52" class="st4" v:langID="1033"><v:paragraph v:horizAlign="1"/><v:tabList/>SRL=IRL ×TRL <tspan
						x="22.72" dy="1.2em" class="st6">(Normalized)</tspan></text>		</g>
		<g id="shape95-142" v:mID="95" v:groupContext="shape" transform="translate(500.711,-28.3465)">
			<title>Sheet.95</title>
			<desc>→</desc>
			<v:textBlock v:margins="rect(0,0,0,0)" v:tabSpace="42.5197"/>
			<v:textRect cx="7.79528" cy="107.717" width="15.6" height="24.0172"/>
			<path d="M15.59 95.71 L0 95.71 L0 119.73 L15.59 119.73 L15.59 95.71" class="st3"/>
		</g>
		<g id="shape102-145" v:mID="102" v:groupContext="shape" transform="translate(9.25394,-95.708)">
			<title>Sheet.102</title>
			<desc>TRL ماتریس</desc>
			<v:textBlock v:margins="rect(0,0,0,0)" v:tabSpace="42.5197"/>
			<v:textRect cx="36.9771" cy="107.717" width="73.96" height="24.0172"/>
			<path d="M73.95 95.71 L0 95.71 L0 119.73 L73.95 119.73 L73.95 95.71" class="st3"/>
			<text x="0.05" y="111.92" class="st7" v:langID="1033"><v:paragraph v:horizAlign="1"/><v:tabList/>TRL <tspan class="st8"
						v:langID="1065">ماتریس</tspan></text>		</g>
		<g id="shape103-150" v:mID="103" v:groupContext="shape" transform="translate(233.064,-95.708)">
			<title>Sheet.103</title>
			<desc>IRL ماتریس</desc>
			<v:textBlock v:margins="rect(0,0,0,0)" v:tabSpace="42.5197"/>
			<v:textRect cx="36.9771" cy="107.717" width="73.96" height="24.0172"/>
			<path d="M73.95 95.71 L0 95.71 L0 119.73 L73.95 119.73 L73.95 95.71" class="st3"/>
			<text x="2.34" y="111.92" class="st7" v:langID="1033"><v:paragraph v:horizAlign="1"/><v:tabList/>IRL <tspan class="st8"
						v:langID="1065">ماتریس</tspan></text>		</g>
		<g id="shape206-155" v:mID="206" v:groupContext="shape" transform="translate(265.789,-30.5111)">
			<title>Sheet.206</title>
			<desc>=</desc>
			<v:textBlock v:margins="rect(0,0,0,0)" v:tabSpace="42.5197"/>
			<v:textRect cx="7.79528" cy="107.717" width="15.6" height="24.0172"/>
			<path d="M15.59 95.71 L0 95.71 L0 119.73 L15.59 119.73 L15.59 95.71" class="st3"/>
			<text x="4.31" y="111.92" class="st4" v:langID="1033"><v:paragraph v:horizAlign="1"/><v:tabList/>=</text>		</g>
	</g>
</svg>
