<?xml version="1.0" encoding="utf-8"?>
<!-- Generator: Adobe Illustrator 25.2.0, SVG Export Plug-In . SVG Version: 6.00 Build 0)  -->
<svg version="1.1"
	 id="Layer_1" xmlns:ev="http://www.w3.org/2001/xml-events" xmlns:v="http://schemas.microsoft.com/visio/2003/SVGExtensions/"
	 xmlns="http://www.w3.org/2000/svg" xmlns:xlink="http://www.w3.org/1999/xlink" x="0px" y="0px" viewBox="0 0 198 163.9"
	 style="enable-background:new 0 0 198 163.9;" xml:space="preserve">
<style type="text/css">
	.st0{fill:none;stroke:#848484;stroke-width:5;stroke-linecap:square;stroke-miterlimit:10;}
	.st1{fill:none;stroke:#5B9BD5;stroke-width:0.5002;stroke-linecap:square;stroke-miterlimit:10;}
	.st2{fill-rule:evenodd;clip-rule:evenodd;fill:#609ED7;stroke:#0470BF;stroke-width:2;stroke-miterlimit:10;}
	.st3{fill-rule:evenodd;clip-rule:evenodd;fill:#94BEE4;stroke:#0877BC;stroke-width:2;stroke-miterlimit:10;}
	.st4{fill-rule:evenodd;clip-rule:evenodd;fill:#FFD966;stroke:#E0A207;stroke-width:2;stroke-miterlimit:10;}
</style>
<path id="mfid5" class="st0" d="M103.8,16.1L32.4,33.5"/>
<path id="mfid6" class="st0" d="M105.2,14.9l56.9,48"/>
<path id="mfid7" class="st0" d="M99.2,74.1L32.4,33.5"/>
<path id="mfid9" class="st0" d="M99.2,74.1l62.4-9.3"/>
<path id="mfid10" class="st0" d="M99.3,74l-27.8,60.9"/>
<path id="mfid14_1_" class="st1" d="M146.5,96.2"/>
<path id="mfid14_2_" class="st1" d="M146.5,96.2"/>
<path id="mfid12_1_" class="st0" d="M17,93.9l11.1-60.4"/>
<path id="mfid13" class="st0" d="M64.9,134.9l-48.6-41"/>
<path id="mfid15" class="st0" d="M137.4,132l-65.3,7.8"/>
<path id="mfid16" class="st0" d="M137.4,132l24.7-69"/>
<path id="mfid17" class="st2" d="M129.5,64c0-4.6,11.5-15.8,19.3-18.9c7.9-3.1,20.9-2,27.8,0.4c1.7,6.2,4.3,19,1,26.1
	c-3.4,7.1-16.4,17.6-21.2,17.8s-3.3-12.6-7.8-16.8C144.1,68.3,129.4,68.6,129.5,64z"/>
<path id="mfid19" class="st3" d="M168.4,57l14.2-9.7l14.2,9.7l-5.4,15.7h-17.6L168.4,57z"/>
<path id="mfid20" class="st4" d="M85,74.1c0-7.8,6.3-14.2,14.2-14.2c7.8,0,14.2,6.4,14.2,14.2s-6.3,14.2-14.2,14.2
	C91.3,88.3,85,81.9,85,74.1z"/>
<path id="mfid21" class="st2" d="M1,35.7c0-4.6,11.5-15.8,19.3-18.9s20.8-2,27.7,0.4c1.7,6.2,4.3,19,1,26.1
	c-3.4,7-16.4,17.6-21.2,17.7c-4.8,0.2-3.3-12.6-7.7-16.8C15.6,40,1,40.3,1,35.7z"/>
<path id="mfid22" class="st3" d="M39.9,28.7L54.1,19l14.2,9.7l-5.4,15.8H45.3L39.9,28.7z"/>
<path id="mfid27" class="st2" d="M37.9,137.5c0-4.6,11.5-15.8,19.3-18.9s20.8-2,27.7,0.4c1.7,6.2,4.3,19,1,26.1
	c-3.4,7.1-16.3,17.6-21.1,17.8s-3.3-12.6-7.7-16.8C52.5,141.8,37.9,142.1,37.9,137.5z"/>
<path id="mfid28" class="st3" d="M76.8,130.6l14.2-9.7l14.2,9.7l-5.4,15.8H82.2L76.8,130.6z"/>
<path id="mfid29" class="st4" d="M2.8,93.8C2.8,86,9.1,79.7,17,79.7c7.8,0,14.2,6.3,14.2,14.1s-6.3,14.1-14.2,14.1
	C9.1,108,2.8,101.7,2.8,93.8z"/>
<path id="mfid30" class="st4" d="M121.8,132c0-7.8,6.3-14.1,14.2-14.1c7.8,0,14.2,6.3,14.2,14.1s-6.3,14.1-14.2,14.1
	C128.2,146.1,121.8,139.8,121.8,132z"/>
<path id="mfid31" class="st4" d="M90.6,15.1C90.6,7.3,97,1,104.8,1S119,7.3,119,15.1s-6.3,14.1-14.2,14.1
	C97,29.3,90.6,22.9,90.6,15.1z"/>
</svg>
