<?xml version="1.0" encoding="utf-8"?>
<!-- Generator: Adobe Illustrator 25.2.0, SVG Export Plug-In . SVG Version: 6.00 Build 0)  -->
<svg version="1.1" xmlns="http://www.w3.org/2000/svg" xmlns:xlink="http://www.w3.org/1999/xlink" x="0px" y="0px"
	 viewBox="0 0 505.5 229.6" style="enable-background:new 0 0 505.5 229.6;" xml:space="preserve">
<style type="text/css">
	.st0{fill:none;stroke:#5B9BD5;stroke-width:0.5002;stroke-linecap:square;stroke-miterlimit:10;}
	.st1{fill-rule:evenodd;clip-rule:evenodd;fill:#609ED7;}
	.st2{fill:none;stroke:#3E89CE;stroke-width:1.0005;stroke-linecap:square;stroke-miterlimit:10;}
	.st3{fill:#002B82;}
	.st4{font-family:'Arial-Black';}
	.st5{font-size:14.0201px;}
	.st6{fill-rule:evenodd;clip-rule:evenodd;fill:#94BEE4;}
	.st7{font-family:'Arial-BoldMT';}
	.st8{fill-rule:evenodd;clip-rule:evenodd;fill:#FFD966;}
	.st9{fill:none;stroke:#FFC000;stroke-width:1.0005;stroke-linecap:square;stroke-miterlimit:10;}
	.st10{fill:#684F00;}
	.st11{fill:#7F7F7F;}
	.st12{font-family:'Calibri-Bold';}
	.st13{font-size:16.0526px;}
	.st14{fill-rule:evenodd;clip-rule:evenodd;fill:#BFBFBF;fill-opacity:0.1804;}
	
		.st15{fill:none;stroke:#7F7F7F;stroke-width:2.251;stroke-linecap:square;stroke-miterlimit:10;stroke-opacity:0.3412;stroke-dasharray:2.251,2.251;}
	.st16{opacity:5.000000e-02;}
</style>
<g id="Layer_1" xmlns:ev="http://www.w3.org/2001/xml-events" xmlns:v="http://schemas.microsoft.com/visio/2003/SVGExtensions/">
	<path id="mfid4" class="st0" d="M251.7,74.3l-53.6-48.4"/>
	<path id="mfid5" class="st0" d="M196.7,25l-76.3-1.2"/>
	<path id="mfid6" class="st0" d="M198.1,23.9l-165,56.4"/>
	<path id="mfid7" class="st0" d="M155.6,117.5l-38.2-92.5"/>
	<path id="mfid8" class="st0" d="M155.7,117.5l92.4-36.3"/>
	<path id="mfid9" class="st0" d="M158,119L32.6,82.1"/>
	<path id="mfid10" class="st0" d="M155.6,119.9l-46.5,81.3"/>
	<path id="mfid11" class="st0" d="M155.6,118.9l92.4,32"/>
	<path id="mfid12" class="st0" d="M59.6,143.4L31.4,82.1"/>
	<path id="mfid13" class="st0" d="M102.5,201.1l-41.6-57.8"/>
	<path id="mfid14" class="st0" d="M248.6,152.3l-189.2-9.8"/>
	<path id="mfid15" class="st0" d="M194.7,193.1l-85,13"/>
	<path id="mfid16" class="st0" d="M194.4,193L251,74.7"/>
	<path id="mfid17" class="st1" d="M0.5,81.3c0-4.6,11.5-15.8,19.3-18.9c7.9-3.1,20.9-2,27.8,0.4c1.7,6.2,4.3,19,1,26.1
		c-3.4,7.1-16.4,17.6-21.2,17.8c-4.8,0.2-3.3-12.6-7.8-16.8C15.2,85.6,0.5,85.9,0.5,81.3z"/>
	<path id="mfid17_1_" class="st2" d="M0.5,81.3c0-4.6,11.5-15.8,19.3-18.9c7.9-3.1,20.9-2,27.8,0.4c1.7,6.2,4.3,19,1,26.1
		c-3.4,7.1-16.4,17.6-21.2,17.8c-4.8,0.2-3.3-12.6-7.8-16.8C15.2,85.6,0.5,85.9,0.5,81.3z"/>
	<text transform="matrix(1.0019 0 0 1 18.4832 85.4176)" class="st3 st4 st5">S</text>
	<text transform="matrix(1.0019 0 0 1 28.5677 85.4176)" class="st3 st4 st5">5</text>
	<path id="mfid19" class="st6" d="M39.4,74.3l14.2-9.7l14.2,9.7L62.4,90H44.8L39.4,74.3z"/>
	<path id="mfid19_1_" class="st2" d="M39.4,74.3l14.2-9.7l14.2,9.7L62.4,90H44.8L39.4,74.3z"/>
	<text transform="matrix(1.0019 0 0 1 50.6893 83.7086)" class="st3 st7 st5">3</text>
	<path id="mfid20" class="st8" d="M142.9,119c0-7.8,6.3-14.2,14.2-14.2c7.8,0,14.2,6.4,14.2,14.2c0,7.8-6.3,14.2-14.2,14.2
		C149.2,133.2,142.9,126.8,142.9,119z"/>
	<path id="mfid20_1_" class="st9" d="M142.9,119c0-7.8,6.3-14.2,14.2-14.2c7.8,0,14.2,6.4,14.2,14.2c0,7.8-6.3,14.2-14.2,14.2
		C149.2,133.2,142.9,126.8,142.9,119z"/>
	<text transform="matrix(1.0019 0 0 1 147.3279 123.6134)" class="st10 st4 st5">T</text>
	<text transform="matrix(1.0019 0 0 1 157.4124 123.6134)" class="st10 st4 st5">1</text>
	<path id="mfid21" class="st1" d="M84.5,21.3c0-4.6,11.5-15.8,19.3-18.9c7.8-3.1,20.8-2,27.7,0.4c1.7,6.2,4.3,19,1,26.1
		c-3.4,7.1-16.3,17.6-21.1,17.8c-4.8,0.2-3.3-12.6-7.7-16.8C99.2,25.6,84.5,25.9,84.5,21.3z"/>
	<path id="mfid21_1_" class="st2" d="M84.5,21.3c0-4.6,11.5-15.8,19.3-18.9c7.8-3.1,20.8-2,27.7,0.4c1.7,6.2,4.3,19,1,26.1
		c-3.4,7.1-16.3,17.6-21.1,17.8c-4.8,0.2-3.3-12.6-7.7-16.8C99.2,25.6,84.5,25.9,84.5,21.3z"/>
	<text transform="matrix(1.0019 0 0 1 102.4476 25.4425)" class="st3 st4 st5">S</text>
	<text transform="matrix(1.0019 0 0 1 112.532 25.4425)" class="st3 st4 st5">1</text>
	<path id="mfid22" class="st6" d="M123.4,14.3l14.2-9.7l14.2,9.7l-5.4,15.8h-17.5L123.4,14.3z"/>
	<path id="mfid22_1_" class="st2" d="M123.4,14.3l14.2-9.7l14.2,9.7l-5.4,15.8h-17.5L123.4,14.3z"/>
	<text transform="matrix(1.0019 0 0 1 134.6497 23.734)" class="st3 st7 st5">7</text>
	<path id="mfid23" class="st1" d="M219.2,75.1c0-4.6,11.5-15.9,19.3-19c7.9-3.1,20.9-2,27.8,0.4c1.7,6.3,4.3,19,1,26.1
		c-3.4,7.1-16.4,17.7-21.2,17.9c-4.8,0.2-3.3-12.6-7.8-16.9C233.9,79.3,219.2,79.6,219.2,75.1z"/>
	<path id="mfid23_1_" class="st2" d="M219.2,75.1c0-4.6,11.5-15.9,19.3-19c7.9-3.1,20.9-2,27.8,0.4c1.7,6.3,4.3,19,1,26.1
		c-3.4,7.1-16.4,17.7-21.2,17.9c-4.8,0.2-3.3-12.6-7.8-16.9C233.9,79.3,219.2,79.6,219.2,75.1z"/>
	<text transform="matrix(1.0019 0 0 1 237.2493 79.1656)" class="st3 st4 st5">S</text>
	<text transform="matrix(1.0019 0 0 1 247.3338 79.1656)" class="st3 st4 st5">2</text>
	<path id="mfid24" class="st6" d="M258.1,68.1l14.2-9.7l14.2,9.7l-5.4,15.7h-17.6L258.1,68.1z"/>
	<path id="mfid24_1_" class="st2" d="M258.1,68.1l14.2-9.7l14.2,9.7l-5.4,15.7h-17.6L258.1,68.1z"/>
	<text transform="matrix(1.0019 0 0 1 269.4481 77.4571)" class="st3 st7 st5">1</text>
	<path id="mfid25" class="st1" d="M223.8,154c0-4.6,11.5-15.8,19.3-18.9c7.8-3.1,20.8-2,27.7,0.4c1.7,6.2,4.3,19,1,26.1
		c-3.4,7.1-16.3,17.6-21.1,17.8c-4.8,0.2-3.3-12.6-7.7-16.8C238.4,158.2,223.8,158.5,223.8,154z"/>
	<path id="mfid25_1_" class="st2" d="M223.8,154c0-4.6,11.5-15.8,19.3-18.9c7.8-3.1,20.8-2,27.7,0.4c1.7,6.2,4.3,19,1,26.1
		c-3.4,7.1-16.3,17.6-21.1,17.8c-4.8,0.2-3.3-12.6-7.7-16.8C238.4,158.2,223.8,158.5,223.8,154z"/>
	<text transform="matrix(1.0019 0 0 1 241.7274 158.0162)" class="st3 st4 st5">S</text>
	<text transform="matrix(1.0019 0 0 1 251.8118 158.0162)" class="st3 st4 st5">3</text>
	<path id="mfid26" class="st6" d="M262.7,146.9l14.2-9.7l14.2,9.7l-5.4,15.7h-17.5L262.7,146.9z"/>
	<path id="mfid26_1_" class="st2" d="M262.7,146.9l14.2-9.7l14.2,9.7l-5.4,15.7h-17.5L262.7,146.9z"/>
	<text transform="matrix(1.0019 0 0 1 273.9261 156.3146)" class="st3 st7 st5">4</text>
	<path id="mfid27" class="st1" d="M75.5,203.8c0-4.6,11.5-15.8,19.3-18.9c7.8-3.1,20.8-2,27.7,0.4c1.7,6.2,4.3,19,1,26.1
		c-3.4,7.1-16.3,17.6-21.1,17.8c-4.8,0.2-3.3-12.6-7.7-16.8C90.1,208.1,75.5,208.4,75.5,203.8z"/>
	<path id="mfid27_1_" class="st2" d="M75.5,203.8c0-4.6,11.5-15.8,19.3-18.9c7.8-3.1,20.8-2,27.7,0.4c1.7,6.2,4.3,19,1,26.1
		c-3.4,7.1-16.3,17.6-21.1,17.8c-4.8,0.2-3.3-12.6-7.7-16.8C90.1,208.1,75.5,208.4,75.5,203.8z"/>
	<text transform="matrix(1.0019 0 0 1 93.4998 207.9376)" class="st3 st4 st5">S</text>
	<text transform="matrix(1.0019 0 0 1 103.5843 207.9376)" class="st3 st4 st5">4</text>
	<path id="mfid28" class="st6" d="M114.4,196.8l14.2-9.7l14.2,9.7l-5.4,15.8h-17.5L114.4,196.8z"/>
	<path id="mfid28_1_" class="st2" d="M114.4,196.8l14.2-9.7l14.2,9.7l-5.4,15.8h-17.5L114.4,196.8z"/>
	<text transform="matrix(1.0019 0 0 1 125.7059 206.2359)" class="st3 st7 st5">5</text>
	<path id="mfid29" class="st8" d="M47.4,143.3c0-7.8,6.3-14.1,14.2-14.1c7.8,0,14.2,6.3,14.2,14.1c0,7.8-6.3,14.1-14.2,14.1
		C53.8,157.5,47.4,151.1,47.4,143.3z"/>
	<path id="mfid29_1_" class="st9" d="M47.4,143.3c0-7.8,6.3-14.1,14.2-14.1c7.8,0,14.2,6.3,14.2,14.1c0,7.8-6.3,14.1-14.2,14.1
		C53.8,157.5,47.4,151.1,47.4,143.3z"/>
	<text transform="matrix(1.0019 0 0 1 51.8167 148.0104)" class="st10 st4 st5">T</text>
	<text transform="matrix(1.0019 0 0 1 61.9012 148.0104)" class="st10 st4 st5">2</text>
	<path id="mfid30" class="st8" d="M179.1,193.1c0-7.8,6.3-14.1,14.2-14.1c7.8,0,14.2,6.3,14.2,14.1c0,7.8-6.3,14.1-14.2,14.1
		C185.5,207.2,179.1,200.9,179.1,193.1z"/>
	<path id="mfid30_1_" class="st9" d="M179.1,193.1c0-7.8,6.3-14.1,14.2-14.1c7.8,0,14.2,6.3,14.2,14.1c0,7.8-6.3,14.1-14.2,14.1
		C185.5,207.2,179.1,200.9,179.1,193.1z"/>
	<text transform="matrix(1.0019 0 0 1 183.5242 197.776)" class="st10 st4 st5">T</text>
	<text transform="matrix(1.0019 0 0 1 193.6092 197.776)" class="st10 st4 st5">3</text>
	<path id="mfid31" class="st8" d="M183.6,24.1c0-7.8,6.3-14.1,14.2-14.1c7.8,0,14.2,6.3,14.2,14.1c0,7.8-6.3,14.1-14.2,14.1
		C189.9,38.2,183.6,31.9,183.6,24.1z"/>
	<path id="mfid31_1_" class="st9" d="M183.6,24.1c0-7.8,6.3-14.1,14.2-14.1c7.8,0,14.2,6.3,14.2,14.1c0,7.8-6.3,14.1-14.2,14.1
		C189.9,38.2,183.6,31.9,183.6,24.1z"/>
	<text transform="matrix(1.0019 0 0 1 187.9783 28.8087)" class="st10 st4 st5">T</text>
	<text transform="matrix(1.0019 0 0 1 198.0633 28.8087)" class="st10 st4 st5">4</text>
	<path id="mfid32" class="st8" d="M371.5,113.9c0-7,5.7-12.7,12.7-12.7c7,0,12.7,5.7,12.7,12.7c0,7-5.7,12.7-12.7,12.7
		C377.2,126.6,371.5,120.9,371.5,113.9z"/>
	<path id="mfid32_1_" class="st9" d="M371.5,113.9c0-7,5.7-12.7,12.7-12.7c7,0,12.7,5.7,12.7,12.7c0,7-5.7,12.7-12.7,12.7
		C377.2,126.6,371.5,120.9,371.5,113.9z"/>
	<path id="mfid33" class="st1" d="M372,80.3c0-2.3,5.8-8.1,9.8-9.6c4-1.6,10.6-1,14.1,0.2c0.9,3.2,2.2,9.7,0.5,13.3
		c-1.7,3.6-8.3,9-10.8,9.1c-2.5,0.1-1.7-6.4-3.9-8.6C379.5,82.5,372,82.6,372,80.3z"/>
	<path id="mfid33_1_" class="st2" d="M372,80.3c0-2.3,5.8-8.1,9.8-9.6c4-1.6,10.6-1,14.1,0.2c0.9,3.2,2.2,9.7,0.5,13.3
		c-1.7,3.6-8.3,9-10.8,9.1c-2.5,0.1-1.7-6.4-3.9-8.6C379.5,82.5,372,82.6,372,80.3z"/>
	<path id="mfid34" class="st6" d="M371.5,143.3l12.7-8.7l12.7,8.7l-4.9,14.1h-15.7L371.5,143.3z"/>
	<path id="mfid34_1_" class="st2" d="M371.5,143.3l12.7-8.7l12.7,8.7l-4.9,14.1h-15.7L371.5,143.3z"/>
	<text transform="matrix(1.0019 0 0 1 409.0579 115.9953)" class="st11 st12 st13">T</text>
	<text transform="matrix(1.0019 0 0 1 415.5979 115.9953)" class="st11 st12 st13">e</text>
	<text transform="matrix(1.0019 0 0 1 423.7464 115.9953)" class="st11 st12 st13">c</text>
	<text transform="matrix(1.0019 0 0 1 430.5013 115.9953)" class="st11 st12 st13">h</text>
	<text transform="matrix(1.0019 0 0 1 439.1858 115.9953)" class="st11 st12 st13">n</text>
	<text transform="matrix(1.0019 0 0 1 447.8704 115.9953)" class="st11 st12 st13">o</text>
	<text transform="matrix(1.0019 0 0 1 456.4485 115.9953)" class="st11 st12 st13">l</text>
	<text transform="matrix(1.0019 0 0 1 460.4143 115.9953)" class="st11 st12 st13">o</text>
	<text transform="matrix(1.0019 0 0 1 468.9925 115.9953)" class="st11 st12 st13">g</text>
	<text transform="matrix(1.0019 0 0 1 476.6048 115.9953)" class="st11 st12 st13">y</text>
	<text transform="matrix(1.0019 0 0 1 409.0579 155.5324)" class="st11 st12 st13">S</text>
	<text transform="matrix(1.0019 0 0 1 416.6692 155.5324)" class="st11 st12 st13">R</text>
	<text transform="matrix(1.0019 0 0 1 425.6761 155.5324)" class="st11 st12 st13">L</text>
	<text transform="matrix(1.0019 0 0 1 409.0579 81.8058)" class="st11 st12 st13">S</text>
	<text transform="matrix(1.0019 0 0 1 416.4554 81.8058)" class="st11 st12 st13">y</text>
	<text transform="matrix(1.0019 0 0 1 423.9602 81.8058)" class="st11 st12 st13">s</text>
	<text transform="matrix(1.0019 0 0 1 430.179 81.8058)" class="st11 st12 st13">t</text>
	<text transform="matrix(1.0019 0 0 1 435.5403 81.8058)" class="st11 st12 st13">e</text>
	<text transform="matrix(1.0019 0 0 1 443.6888 81.8058)" class="st11 st12 st13">m</text>
	<path id="mfid35" class="st14" d="M504.4,78.5c0-10-8.1-18.1-18.1-18.1H362.9c-10,0-18.1,8.1-18.1,18.1v72.4
		c0,10,8.1,18.1,18.1,18.1h123.4c10,0,18.1-8.1,18.1-18.1V78.5z"/>
	<path id="mfid35_1_" class="st15" d="M504.4,78.5c0-10-8.1-18.1-18.1-18.1H362.9c-10,0-18.1,8.1-18.1,18.1v72.4
		c0,10,8.1,18.1,18.1,18.1h123.4c10,0,18.1-8.1,18.1-18.1V78.5z"/>
</g>
<g id="watermark" class="st16">
	<g>
		<path d="M18.8,214.6l1.3,0.4c-0.2,0.7-0.5,1.2-1,1.6c-0.5,0.3-1,0.5-1.7,0.5c-0.9,0-1.6-0.3-2.1-0.9s-0.8-1.4-0.8-2.4
			c0-1.1,0.3-1.9,0.8-2.5c0.6-0.6,1.3-0.9,2.2-0.9c0.8,0,1.4,0.2,1.9,0.7c0.3,0.3,0.5,0.7,0.7,1.2l-1.3,0.3
			c-0.1-0.3-0.2-0.6-0.5-0.8c-0.2-0.2-0.5-0.3-0.9-0.3c-0.5,0-0.9,0.2-1.2,0.5c-0.3,0.3-0.5,0.9-0.5,1.7c0,0.8,0.1,1.4,0.4,1.8
			c0.3,0.3,0.7,0.5,1.2,0.5c0.3,0,0.6-0.1,0.9-0.3C18.5,215.4,18.7,215,18.8,214.6z"/>
		<path d="M20.9,214.5c0-0.4,0.1-0.8,0.3-1.2c0.2-0.4,0.5-0.7,0.9-0.9s0.8-0.3,1.3-0.3c0.7,0,1.3,0.2,1.8,0.7c0.5,0.5,0.7,1,0.7,1.8
			c0,0.7-0.2,1.3-0.7,1.8c-0.5,0.5-1,0.7-1.7,0.7c-0.4,0-0.8-0.1-1.2-0.3c-0.4-0.2-0.7-0.5-0.9-0.9C21,215.5,20.9,215.1,20.9,214.5z
			 M22.2,214.6c0,0.5,0.1,0.8,0.3,1.1s0.5,0.4,0.8,0.4c0.3,0,0.6-0.1,0.8-0.4s0.3-0.6,0.3-1.1c0-0.5-0.1-0.8-0.3-1.1
			s-0.5-0.4-0.8-0.4c-0.3,0-0.6,0.1-0.8,0.4S22.2,214.1,22.2,214.6z"/>
		<path d="M26.7,212.2h1.2v0.7c0.2-0.2,0.4-0.4,0.6-0.6c0.3-0.1,0.5-0.2,0.9-0.2c0.5,0,1,0.2,1.4,0.6c0.4,0.4,0.6,1,0.6,1.8
			c0,0.8-0.2,1.4-0.6,1.8c-0.4,0.4-0.9,0.7-1.4,0.7c-0.3,0-0.5-0.1-0.7-0.2c-0.2-0.1-0.4-0.3-0.7-0.5v2.4h-1.2V212.2z M28,214.5
			c0,0.5,0.1,0.9,0.3,1.2c0.2,0.3,0.5,0.4,0.8,0.4c0.3,0,0.5-0.1,0.7-0.3c0.2-0.2,0.3-0.6,0.3-1.1c0-0.5-0.1-0.9-0.3-1.1
			c-0.2-0.2-0.4-0.4-0.7-0.4c-0.3,0-0.6,0.1-0.8,0.4C28.1,213.7,28,214.1,28,214.5z"/>
		<path d="M31.7,212.2H33l1.1,3.3l1.1-3.3h1.3l-1.7,4.5l-0.3,0.8c-0.1,0.3-0.2,0.5-0.3,0.6c-0.1,0.1-0.2,0.3-0.3,0.4
			c-0.1,0.1-0.3,0.2-0.5,0.2c-0.2,0.1-0.4,0.1-0.6,0.1c-0.2,0-0.5,0-0.7-0.1l-0.1-1c0.2,0,0.4,0.1,0.5,0.1c0.3,0,0.5-0.1,0.6-0.3
			s0.2-0.4,0.3-0.6L31.7,212.2z"/>
		<path d="M38.6,217h-1.2v-4.7h1.2v0.7c0.2-0.3,0.4-0.5,0.5-0.6c0.2-0.1,0.3-0.2,0.5-0.2c0.3,0,0.6,0.1,0.8,0.2l-0.4,1.1
			c-0.2-0.1-0.4-0.2-0.6-0.2c-0.2,0-0.3,0-0.4,0.1c-0.1,0.1-0.2,0.3-0.3,0.5c-0.1,0.3-0.1,0.8-0.1,1.6V217z"/>
		<path d="M40.9,211.6v-1.2h1.2v1.2H40.9z M40.9,217v-4.7h1.2v4.7H40.9z"/>
		<path d="M43.3,217.3l1.4,0.2c0,0.2,0.1,0.3,0.2,0.3c0.1,0.1,0.3,0.1,0.6,0.1c0.3,0,0.6,0,0.7-0.1c0.1-0.1,0.2-0.2,0.2-0.3
			c0-0.1,0.1-0.3,0.1-0.6v-0.7c-0.4,0.5-0.8,0.8-1.4,0.8c-0.6,0-1.1-0.3-1.5-0.8c-0.3-0.4-0.4-0.9-0.4-1.6c0-0.8,0.2-1.4,0.6-1.8
			s0.9-0.6,1.4-0.6c0.6,0,1.1,0.3,1.4,0.8v-0.7h1.2v4.2c0,0.6,0,1-0.1,1.2c-0.1,0.3-0.2,0.5-0.4,0.6c-0.2,0.2-0.4,0.3-0.7,0.4
			c-0.3,0.1-0.6,0.1-1.1,0.1c-0.8,0-1.4-0.1-1.7-0.4c-0.3-0.3-0.5-0.6-0.5-1C43.3,217.4,43.3,217.3,43.3,217.3z M44.4,214.5
			c0,0.5,0.1,0.9,0.3,1.1c0.2,0.2,0.4,0.3,0.7,0.3c0.3,0,0.6-0.1,0.8-0.4c0.2-0.2,0.3-0.6,0.3-1.1c0-0.5-0.1-0.8-0.3-1.1
			c-0.2-0.2-0.5-0.4-0.8-0.4c-0.3,0-0.5,0.1-0.7,0.3C44.5,213.7,44.4,214,44.4,214.5z"/>
		<path d="M50.2,210.5v2.4c0.4-0.5,0.9-0.7,1.4-0.7c0.3,0,0.5,0.1,0.8,0.2s0.4,0.2,0.5,0.4c0.1,0.2,0.2,0.3,0.2,0.5s0.1,0.5,0.1,0.9
			v2.8H52v-2.5c0-0.5,0-0.8-0.1-0.9c0-0.1-0.1-0.2-0.3-0.3c-0.1-0.1-0.3-0.1-0.5-0.1c-0.2,0-0.4,0.1-0.6,0.2
			c-0.2,0.1-0.3,0.3-0.4,0.5c-0.1,0.2-0.1,0.5-0.1,0.9v2.4H49v-6.5H50.2z"/>
		<path d="M56.7,212.2v1h-0.9v1.9c0,0.4,0,0.6,0,0.7c0,0.1,0.1,0.1,0.1,0.2c0.1,0,0.1,0.1,0.2,0.1c0.1,0,0.3,0,0.5-0.1l0.1,1
			c-0.3,0.1-0.6,0.2-1,0.2c-0.2,0-0.4,0-0.6-0.1s-0.3-0.2-0.4-0.3c-0.1-0.1-0.1-0.3-0.2-0.5c0-0.1,0-0.4,0-0.9v-2.1H54v-1h0.6v-0.9
			l1.3-0.7v1.7H56.7z"/>
		<path d="M65.3,210.3c0.6,0,1.1,0.1,1.7,0.4c0.5,0.3,1,0.7,1.3,1.3c0.3,0.5,0.5,1.1,0.5,1.7c0,0.6-0.2,1.2-0.5,1.7
			c-0.3,0.5-0.7,1-1.3,1.3s-1.1,0.4-1.7,0.4s-1.2-0.1-1.7-0.4c-0.5-0.3-1-0.7-1.3-1.3c-0.3-0.5-0.5-1.1-0.5-1.7
			c0-0.6,0.2-1.2,0.5-1.7c0.3-0.5,0.7-1,1.3-1.3C64.2,210.5,64.8,210.3,65.3,210.3z M65.3,211c-0.5,0-0.9,0.1-1.3,0.4s-0.8,0.6-1,1
			c-0.2,0.4-0.4,0.9-0.4,1.4c0,0.5,0.1,0.9,0.4,1.4s0.6,0.8,1,1c0.4,0.2,0.9,0.4,1.4,0.4s0.9-0.1,1.4-0.4c0.4-0.2,0.8-0.6,1-1
			c0.2-0.4,0.4-0.9,0.4-1.4c0-0.5-0.1-0.9-0.4-1.4c-0.2-0.4-0.6-0.8-1-1C66.3,211.1,65.8,211,65.3,211z M66.2,214.2l0.7,0.2
			c-0.1,0.4-0.3,0.7-0.6,0.9s-0.6,0.3-0.9,0.3c-0.5,0-0.9-0.2-1.2-0.5s-0.5-0.8-0.5-1.4c0-0.4,0.1-0.7,0.2-1
			c0.1-0.3,0.3-0.5,0.6-0.7c0.3-0.1,0.6-0.2,0.9-0.2c0.4,0,0.7,0.1,0.9,0.3c0.2,0.2,0.4,0.4,0.6,0.8l-0.7,0.2
			c-0.1-0.2-0.2-0.4-0.3-0.5s-0.3-0.1-0.5-0.1c-0.3,0-0.5,0.1-0.7,0.3s-0.3,0.5-0.3,1s0.1,0.7,0.3,1c0.2,0.2,0.4,0.3,0.6,0.3
			c0.2,0,0.4-0.1,0.5-0.2C66,214.7,66.1,214.5,66.2,214.2z"/>
		<path d="M73.3,217v-5.4h-1.9v-1.1h5.2v1.1h-1.9v5.4H73.3z"/>
		<path d="M80.1,215.5l1.2,0.2c-0.2,0.5-0.4,0.8-0.8,1c-0.3,0.2-0.8,0.4-1.3,0.4c-0.8,0-1.4-0.3-1.8-0.8c-0.3-0.4-0.5-1-0.5-1.6
			c0-0.8,0.2-1.4,0.6-1.8c0.4-0.4,0.9-0.7,1.5-0.7c0.7,0,1.3,0.2,1.7,0.7c0.4,0.5,0.6,1.2,0.6,2.1h-3.1c0,0.4,0.1,0.7,0.3,0.9
			c0.2,0.2,0.4,0.3,0.7,0.3c0.2,0,0.4-0.1,0.5-0.2S80.1,215.7,80.1,215.5z M80.2,214.2c0-0.4-0.1-0.6-0.3-0.8
			c-0.2-0.2-0.4-0.3-0.6-0.3c-0.3,0-0.5,0.1-0.7,0.3s-0.3,0.5-0.3,0.8H80.2z"/>
		<path d="M86.6,213.6l-1.2,0.2c0-0.2-0.1-0.4-0.3-0.6s-0.3-0.2-0.6-0.2c-0.3,0-0.6,0.1-0.7,0.3c-0.2,0.2-0.3,0.6-0.3,1.1
			c0,0.6,0.1,1,0.3,1.2c0.2,0.2,0.4,0.3,0.8,0.3c0.2,0,0.4-0.1,0.6-0.2s0.3-0.4,0.3-0.7l1.2,0.2c-0.1,0.6-0.4,1-0.7,1.3
			c-0.4,0.3-0.8,0.4-1.5,0.4c-0.7,0-1.2-0.2-1.6-0.7s-0.6-1-0.6-1.8c0-0.8,0.2-1.4,0.6-1.8c0.4-0.4,1-0.6,1.7-0.6
			c0.6,0,1,0.1,1.4,0.4C86.2,212.8,86.4,213.1,86.6,213.6z"/>
		<path d="M88.8,210.5v2.4c0.4-0.5,0.9-0.7,1.4-0.7c0.3,0,0.5,0.1,0.8,0.2s0.4,0.2,0.5,0.4c0.1,0.2,0.2,0.3,0.2,0.5s0.1,0.5,0.1,0.9
			v2.8h-1.2v-2.5c0-0.5,0-0.8-0.1-0.9c0-0.1-0.1-0.2-0.3-0.3c-0.1-0.1-0.3-0.1-0.5-0.1c-0.2,0-0.4,0.1-0.6,0.2
			c-0.2,0.1-0.3,0.3-0.4,0.5c-0.1,0.2-0.1,0.5-0.1,0.9v2.4h-1.2v-6.5H88.8z"/>
		<path d="M93,212.2h1.2v0.6c0.4-0.5,0.9-0.7,1.5-0.7c0.3,0,0.6,0.1,0.8,0.2s0.4,0.3,0.5,0.6c0.2-0.3,0.4-0.4,0.7-0.6
			c0.2-0.1,0.5-0.2,0.8-0.2c0.3,0,0.6,0.1,0.9,0.2c0.2,0.1,0.4,0.3,0.5,0.6c0.1,0.2,0.1,0.5,0.1,1v3h-1.2v-2.7c0-0.5,0-0.8-0.1-0.9
			c-0.1-0.2-0.3-0.3-0.5-0.3c-0.2,0-0.3,0.1-0.5,0.2c-0.2,0.1-0.3,0.3-0.3,0.5c-0.1,0.2-0.1,0.5-0.1,1v2.3h-1.2v-2.6
			c0-0.5,0-0.8-0.1-0.9c0-0.1-0.1-0.2-0.2-0.3c-0.1-0.1-0.2-0.1-0.4-0.1c-0.2,0-0.4,0.1-0.5,0.2c-0.2,0.1-0.3,0.3-0.3,0.4
			c-0.1,0.2-0.1,0.5-0.1,1v2.3H93V212.2z"/>
		<path d="M101.2,211.6v-1.2h1.2v1.2H101.2z M101.2,217v-4.7h1.2v4.7H101.2z"/>
		<path d="M108,217h-1.2v-2.4c0-0.5,0-0.8-0.1-1c-0.1-0.1-0.1-0.3-0.3-0.3c-0.1-0.1-0.3-0.1-0.4-0.1c-0.2,0-0.4,0.1-0.6,0.2
			c-0.2,0.1-0.3,0.3-0.4,0.5c-0.1,0.2-0.1,0.6-0.1,1.1v2.1h-1.2v-4.7h1.2v0.7c0.4-0.5,0.9-0.8,1.6-0.8c0.3,0,0.5,0,0.8,0.1
			c0.2,0.1,0.4,0.2,0.5,0.4c0.1,0.2,0.2,0.3,0.2,0.5s0.1,0.5,0.1,0.8V217z"/>
		<path d="M109.3,211.6v-1.2h1.2v1.2H109.3z M109.3,217v-4.7h1.2v4.7H109.3z"/>
		<path d="M116.1,217h-1.2v-2.4c0-0.5,0-0.8-0.1-1c-0.1-0.1-0.1-0.3-0.3-0.3c-0.1-0.1-0.3-0.1-0.4-0.1c-0.2,0-0.4,0.1-0.6,0.2
			c-0.2,0.1-0.3,0.3-0.4,0.5c-0.1,0.2-0.1,0.6-0.1,1.1v2.1h-1.2v-4.7h1.2v0.7c0.4-0.5,0.9-0.8,1.6-0.8c0.3,0,0.5,0,0.8,0.1
			c0.2,0.1,0.4,0.2,0.5,0.4c0.1,0.2,0.2,0.3,0.2,0.5s0.1,0.5,0.1,0.8V217z"/>
		<path d="M117.2,217.3l1.4,0.2c0,0.2,0.1,0.3,0.2,0.3c0.1,0.1,0.3,0.1,0.6,0.1c0.3,0,0.6,0,0.7-0.1c0.1-0.1,0.2-0.2,0.2-0.3
			c0-0.1,0.1-0.3,0.1-0.6v-0.7c-0.4,0.5-0.8,0.8-1.4,0.8c-0.6,0-1.1-0.3-1.5-0.8c-0.3-0.4-0.4-0.9-0.4-1.6c0-0.8,0.2-1.4,0.6-1.8
			s0.9-0.6,1.4-0.6c0.6,0,1.1,0.3,1.4,0.8v-0.7h1.2v4.2c0,0.6,0,1-0.1,1.2c-0.1,0.3-0.2,0.5-0.4,0.6c-0.2,0.2-0.4,0.3-0.7,0.4
			c-0.3,0.1-0.6,0.1-1.1,0.1c-0.8,0-1.4-0.1-1.7-0.4c-0.3-0.3-0.5-0.6-0.5-1C117.2,217.4,117.2,217.3,117.2,217.3z M118.3,214.5
			c0,0.5,0.1,0.9,0.3,1.1c0.2,0.2,0.4,0.3,0.7,0.3c0.3,0,0.6-0.1,0.8-0.4c0.2-0.2,0.3-0.6,0.3-1.1c0-0.5-0.1-0.8-0.3-1.1
			c-0.2-0.2-0.5-0.4-0.8-0.4c-0.3,0-0.5,0.1-0.7,0.3C118.4,213.7,118.3,214,118.3,214.5z"/>
		<path d="M122.9,217v-1.2h1.2v1.2H122.9z"/>
		<path d="M125.4,211.6v-1.2h1.2v1.2H125.4z M125.4,217v-4.7h1.2v4.7H125.4z"/>
		<path d="M129.2,217h-1.2v-4.7h1.2v0.7c0.2-0.3,0.4-0.5,0.5-0.6c0.2-0.1,0.3-0.2,0.5-0.2c0.3,0,0.6,0.1,0.8,0.2l-0.4,1.1
			c-0.2-0.1-0.4-0.2-0.6-0.2c-0.2,0-0.3,0-0.4,0.1c-0.1,0.1-0.2,0.3-0.3,0.5c-0.1,0.3-0.1,0.8-0.1,1.6V217z"/>
		<path d="M134,210.5h2.6c0.5,0,0.9,0,1.2,0.1c0.3,0,0.5,0.1,0.7,0.3c0.2,0.1,0.4,0.3,0.5,0.5c0.1,0.2,0.2,0.5,0.2,0.8
			c0,0.3-0.1,0.6-0.2,0.8c-0.2,0.3-0.4,0.4-0.7,0.6c0.4,0.1,0.7,0.3,0.9,0.6c0.2,0.3,0.3,0.6,0.3,1c0,0.3-0.1,0.6-0.2,0.9
			s-0.3,0.5-0.6,0.7c-0.2,0.2-0.5,0.3-0.9,0.3c-0.2,0-0.7,0-1.6,0H134V210.5z M135.4,211.5v1.5h0.9c0.5,0,0.8,0,1,0
			c0.2,0,0.4-0.1,0.5-0.2c0.1-0.1,0.2-0.3,0.2-0.5c0-0.2-0.1-0.4-0.2-0.5c-0.1-0.1-0.3-0.2-0.5-0.2c-0.1,0-0.5,0-1.1,0H135.4z
			 M135.4,214.1v1.7h1.2c0.5,0,0.8,0,0.9,0c0.2,0,0.4-0.1,0.5-0.3c0.1-0.1,0.2-0.3,0.2-0.6c0-0.2,0-0.4-0.1-0.5s-0.2-0.2-0.4-0.3
			c-0.2-0.1-0.6-0.1-1.2-0.1H135.4z"/>
		<path d="M140,212.2h1.3l1.1,3.3l1.1-3.3h1.3l-1.7,4.5l-0.3,0.8c-0.1,0.3-0.2,0.5-0.3,0.6c-0.1,0.1-0.2,0.3-0.3,0.4
			c-0.1,0.1-0.3,0.2-0.5,0.2c-0.2,0.1-0.4,0.1-0.6,0.1c-0.2,0-0.5,0-0.7-0.1l-0.1-1c0.2,0,0.4,0.1,0.5,0.1c0.3,0,0.5-0.1,0.6-0.3
			s0.2-0.4,0.3-0.6L140,212.2z"/>
		<path d="M147.9,214.8l1.3-0.1c0.1,0.4,0.2,0.7,0.5,0.9c0.2,0.2,0.6,0.3,1,0.3c0.4,0,0.7-0.1,1-0.3c0.2-0.2,0.3-0.4,0.3-0.6
			c0-0.2,0-0.3-0.1-0.4c-0.1-0.1-0.2-0.2-0.5-0.3c-0.2-0.1-0.5-0.1-1.1-0.3c-0.7-0.2-1.2-0.4-1.5-0.6c-0.4-0.4-0.6-0.8-0.6-1.3
			c0-0.3,0.1-0.6,0.3-0.9s0.5-0.5,0.8-0.7c0.4-0.2,0.8-0.2,1.3-0.2c0.8,0,1.4,0.2,1.8,0.5s0.6,0.8,0.7,1.4l-1.3,0.1
			c-0.1-0.3-0.2-0.6-0.4-0.7c-0.2-0.1-0.5-0.2-0.8-0.2c-0.4,0-0.7,0.1-0.9,0.2c-0.1,0.1-0.2,0.2-0.2,0.4c0,0.2,0.1,0.3,0.2,0.4
			c0.2,0.1,0.6,0.3,1.2,0.4c0.6,0.2,1.1,0.3,1.4,0.5s0.5,0.4,0.7,0.7c0.2,0.3,0.3,0.6,0.3,1c0,0.4-0.1,0.7-0.3,1
			c-0.2,0.3-0.5,0.6-0.9,0.7s-0.9,0.2-1.4,0.2c-0.8,0-1.5-0.2-1.9-0.6C148.2,216.1,147.9,215.6,147.9,214.8z"/>
		<path d="M155.2,213.7l-1.1-0.2c0.1-0.5,0.3-0.8,0.7-1s0.8-0.3,1.4-0.3c0.6,0,1,0.1,1.2,0.2s0.5,0.3,0.6,0.5s0.2,0.6,0.2,1.1l0,1.5
			c0,0.4,0,0.7,0.1,0.9c0,0.2,0.1,0.4,0.2,0.6h-1.2c0-0.1-0.1-0.2-0.1-0.4c0-0.1,0-0.1,0-0.1c-0.2,0.2-0.4,0.4-0.7,0.5
			s-0.5,0.2-0.8,0.2c-0.5,0-0.9-0.1-1.1-0.4s-0.4-0.6-0.4-1c0-0.3,0.1-0.5,0.2-0.7s0.3-0.4,0.5-0.5c0.2-0.1,0.6-0.2,1-0.3
			c0.6-0.1,1-0.2,1.2-0.3v-0.1c0-0.2-0.1-0.4-0.2-0.5c-0.1-0.1-0.3-0.2-0.7-0.2c-0.2,0-0.4,0-0.5,0.1S155.3,213.5,155.2,213.7z
			 M156.8,214.7c-0.2,0.1-0.4,0.1-0.8,0.2c-0.3,0.1-0.6,0.1-0.7,0.2c-0.2,0.1-0.2,0.3-0.2,0.4c0,0.2,0.1,0.3,0.2,0.5
			s0.3,0.2,0.5,0.2c0.2,0,0.4-0.1,0.6-0.2c0.2-0.1,0.2-0.2,0.3-0.4c0-0.1,0-0.3,0-0.6V214.7z"/>
		<path d="M158.9,215.6l1.3-0.2c0.1,0.2,0.2,0.4,0.3,0.6c0.2,0.1,0.4,0.2,0.7,0.2c0.3,0,0.6-0.1,0.7-0.2c0.1-0.1,0.2-0.2,0.2-0.3
			c0-0.1,0-0.2-0.1-0.2c-0.1-0.1-0.2-0.1-0.4-0.2c-1-0.2-1.6-0.4-1.9-0.6c-0.4-0.3-0.6-0.6-0.6-1.1c0-0.4,0.2-0.8,0.5-1
			c0.3-0.3,0.8-0.4,1.5-0.4c0.6,0,1.1,0.1,1.4,0.3c0.3,0.2,0.5,0.5,0.6,0.9l-1.2,0.2c-0.1-0.2-0.1-0.3-0.3-0.4s-0.3-0.1-0.6-0.1
			c-0.3,0-0.6,0-0.7,0.1c-0.1,0.1-0.1,0.1-0.1,0.3c0,0.1,0,0.2,0.1,0.2c0.1,0.1,0.5,0.2,1.2,0.4c0.7,0.2,1.1,0.3,1.4,0.6
			c0.3,0.2,0.4,0.5,0.4,0.9c0,0.4-0.2,0.8-0.5,1.1c-0.4,0.3-0.9,0.5-1.6,0.5c-0.6,0-1.2-0.1-1.5-0.4
			C159.2,216.4,159,216.1,158.9,215.6z"/>
		<path d="M165.3,213.7l-1.1-0.2c0.1-0.5,0.3-0.8,0.7-1s0.8-0.3,1.4-0.3c0.6,0,1,0.1,1.2,0.2s0.5,0.3,0.6,0.5s0.2,0.6,0.2,1.1l0,1.5
			c0,0.4,0,0.7,0.1,0.9c0,0.2,0.1,0.4,0.2,0.6h-1.2c0-0.1-0.1-0.2-0.1-0.4c0-0.1,0-0.1,0-0.1c-0.2,0.2-0.4,0.4-0.7,0.5
			s-0.5,0.2-0.8,0.2c-0.5,0-0.9-0.1-1.1-0.4s-0.4-0.6-0.4-1c0-0.3,0.1-0.5,0.2-0.7s0.3-0.4,0.5-0.5c0.2-0.1,0.6-0.2,1-0.3
			c0.6-0.1,1-0.2,1.2-0.3v-0.1c0-0.2-0.1-0.4-0.2-0.5c-0.1-0.1-0.3-0.2-0.7-0.2c-0.2,0-0.4,0-0.5,0.1S165.4,213.5,165.3,213.7z
			 M167,214.7c-0.2,0.1-0.4,0.1-0.8,0.2c-0.3,0.1-0.6,0.1-0.7,0.2c-0.2,0.1-0.2,0.3-0.2,0.4c0,0.2,0.1,0.3,0.2,0.5s0.3,0.2,0.5,0.2
			c0.2,0,0.4-0.1,0.6-0.2c0.2-0.1,0.2-0.2,0.3-0.4c0-0.1,0-0.3,0-0.6V214.7z"/>
		<path d="M173.7,217h-1.2v-2.4c0-0.5,0-0.8-0.1-1c-0.1-0.1-0.1-0.3-0.3-0.3c-0.1-0.1-0.3-0.1-0.4-0.1c-0.2,0-0.4,0.1-0.6,0.2
			c-0.2,0.1-0.3,0.3-0.4,0.5c-0.1,0.2-0.1,0.6-0.1,1.1v2.1h-1.2v-4.7h1.2v0.7c0.4-0.5,0.9-0.8,1.6-0.8c0.3,0,0.5,0,0.8,0.1
			c0.2,0.1,0.4,0.2,0.5,0.4c0.1,0.2,0.2,0.3,0.2,0.5s0.1,0.5,0.1,0.8V217z"/>
		<path d="M183.4,217H182l-0.6-1.5h-2.6l-0.5,1.5h-1.4l2.5-6.5h1.4L183.4,217z M181,214.4l-0.9-2.4l-0.9,2.4H181z"/>
		<path d="M183.6,217v-1l1.8-2c0.3-0.3,0.5-0.6,0.6-0.7c-0.1,0-0.3,0-0.6,0l-1.7,0v-1h3.9v0.9l-1.8,2.1l-0.6,0.7c0.3,0,0.6,0,0.6,0
			h1.9v1.1H183.6z"/>
		<path d="M188.6,211.6v-1.2h1.2v1.2H188.6z M188.6,217v-4.7h1.2v4.7H188.6z"/>
		<path d="M191.1,212.2h1.2v0.6c0.4-0.5,0.9-0.7,1.5-0.7c0.3,0,0.6,0.1,0.8,0.2s0.4,0.3,0.5,0.6c0.2-0.3,0.4-0.4,0.7-0.6
			c0.2-0.1,0.5-0.2,0.8-0.2c0.3,0,0.6,0.1,0.9,0.2c0.2,0.1,0.4,0.3,0.5,0.6c0.1,0.2,0.1,0.5,0.1,1v3h-1.2v-2.7c0-0.5,0-0.8-0.1-0.9
			c-0.1-0.2-0.3-0.3-0.5-0.3c-0.2,0-0.3,0.1-0.5,0.2c-0.2,0.1-0.3,0.3-0.3,0.5c-0.1,0.2-0.1,0.5-0.1,1v2.3h-1.2v-2.6
			c0-0.5,0-0.8-0.1-0.9c0-0.1-0.1-0.2-0.2-0.3c-0.1-0.1-0.2-0.1-0.4-0.1c-0.2,0-0.4,0.1-0.5,0.2c-0.2,0.1-0.3,0.3-0.3,0.4
			c-0.1,0.2-0.1,0.5-0.1,1v2.3h-1.2V212.2z"/>
		<path d="M199.2,211.6v-1.2h1.2v1.2H199.2z M199.2,217v-4.7h1.2v4.7H199.2z"/>
	</g>
</g>
</svg>
