<svg xmlns="http://www.w3.org/2000/svg" viewBox="0 0 453 251.9">
  <defs>
    <style>
      .cls-1, .cls-4 {
        fill: #e7d87f;
        stroke-dasharray: 3 3;
      }

      .cls-1, .cls-3, .cls-4 {
        stroke: #ffc000;
        stroke-miterlimit: 8;
      }

      .cls-1, .cls-2, .cls-4 {
        stroke-width: 3px;
      }

      .cls-1 {
        opacity: 0;
      }

      .cls-2 {
        fill: none;
        stroke: #848484;
        stroke-linecap: square;
        stroke-miterlimit: 10;
      }

      .cls-3 {
        fill: #ffd966;
        stroke-width: 1.33px;
        fill-rule: evenodd;
      }

      .cls-4 {
        fill-opacity: 0.1;
        stroke-opacity: 0.34;
      }

      .cls-4, .cls-5, .cls-6 {
        isolation: isolate;
      }

      .cls-5 {
        font-size: 19px;
      }

      .cls-5, .cls-6 {
        fill: #684f00;
        font-family: Arial-Black, Arial;
        font-weight: 800;
      }

      .cls-6 {
        font-size: 12px;
      }

      .cls-7 {
        fill: #a3a3a3;
      }

      .cls-8 {
        opacity: 0.03;
      }
	  
	  	#asso {
			animation: appear_asso 12s 0s ease infinite; 
		}
		
  		@keyframes appear_asso {

			0%  {fill-opacity: 0%;}
			20% {fill-opacity: 0%;}
			30% {fill-opacity: 100%;}
			96% {fill-opacity: 100%;}
			100% {fill-opacity: 0%;}
		}
		
		#selected_techs {
			animation: appear_selected_techs 12s 0s ease infinite; 
		}
		
  		@keyframes appear_selected_techs {

			0%  {opacity: 0%;}
			40% {opacity: 0%;}
			50% {opacity: 100%;}
			96% {opacity: 100%;}
			100% {opacity: 0%;}
		}
    </style>
  </defs>
  <g id="Layer_7" data-name="Layer 7">
    <rect class="cls-1" x="1.5" y="1.5" width="450" height="248.9"/>
  </g>
  <g id="Layer_2" data-name="Layer 2">
    <g id="paths">
      <path id="mfid7" class="cls-2" d="M1344.26,117l-95.53,16.35" transform="translate(-999.69 -76.24)"/>
      <path id="mfid7-2" data-name="mfid7" class="cls-2" d="M1161.36,98.42l-29.45,58.47" transform="translate(-999.69 -76.24)"/>
      <path id="mfid7-3" data-name="mfid7" class="cls-2" d="M1161.36,98.42l63.92,106.51" transform="translate(-999.69 -76.24)"/>
      <path id="mfid7-4" data-name="mfid7" class="cls-2" d="M1351.16,186.57l-125.88,18.36" transform="translate(-999.69 -76.24)"/>
      <path id="mfid7-5" data-name="mfid7" class="cls-2" d="M1131.91,156.89l-32.76,66.72" transform="translate(-999.69 -76.24)"/>
      <path id="mfid7-6" data-name="mfid7" class="cls-2" d="M1161.36,275.89l-62.21-52.28" transform="translate(-999.69 -76.24)"/>
      <path id="mfid7-7" data-name="mfid7" class="cls-2" d="M1305.76,260.37l-58,50.34" transform="translate(-999.69 -76.24)"/>
      <path id="mfid7-8" data-name="mfid7" class="cls-2" d="M1131.91,156.89l93.37,48" transform="translate(-999.69 -76.24)"/>
      <path id="mfid7-9" data-name="mfid7" class="cls-2" d="M1161.36,275.89l63.92-71" transform="translate(-999.69 -76.24)"/>
      <path id="mfid7-10" data-name="mfid7" class="cls-2" d="M1161.36,275.89l189.8-89.32" transform="translate(-999.69 -76.24)"/>
      <path id="mfid7-11" data-name="mfid7" class="cls-2" d="M1225.28,204.93l23.45-71.56" transform="translate(-999.69 -76.24)"/>
      <path id="mfid7-12" data-name="mfid7" class="cls-2" d="M1248.73,133.37l104,53.92" transform="translate(-999.69 -76.24)"/>
      <path id="mfid7-13" data-name="mfid7" class="cls-2" d="M1352.77,187.29l-47,73.08" transform="translate(-999.69 -76.24)"/>
      <path id="mfid7-14" data-name="mfid7" class="cls-2" d="M1247.75,310.71,1131.91,156.89" transform="translate(-999.69 -76.24)"/>
    </g>
    <path class="cls-3" d="M1141,267.24a4.27,4.27,0,0,1,4.3-4.3h38.3a4.27,4.27,0,0,1,4.3,4.3v17.3a4.27,4.27,0,0,1-4.3,4.3h-38.3a4.27,4.27,0,0,1-4.3-4.3Z" transform="translate(-999.69 -76.24)"/>
    <path class="cls-3" d="M1201.7,196.28a4.27,4.27,0,0,1,4.3-4.3h38.3a4.27,4.27,0,0,1,4.3,4.3v17.3a4.27,4.27,0,0,1-4.3,4.3H1206a4.27,4.27,0,0,1-4.3-4.3Z" transform="translate(-999.69 -76.24)"/>
    <path class="cls-3" d="M1108.46,148.24a4.27,4.27,0,0,1,4.3-4.3h38.3a4.27,4.27,0,0,1,4.3,4.3v17.3a4.27,4.27,0,0,1-4.3,4.3h-38.3a4.27,4.27,0,0,1-4.3-4.3Z" transform="translate(-999.69 -76.24)"/>
    <path class="cls-3" d="M1224.3,124.72a4.27,4.27,0,0,1,4.3-4.3h38.3a4.27,4.27,0,0,1,4.3,4.3V142a4.27,4.27,0,0,1-4.3,4.3h-38.3a4.27,4.27,0,0,1-4.3-4.3Z" transform="translate(-999.69 -76.24)"/>
    <path class="cls-3" d="M1327.71,177.87a4.27,4.27,0,0,1,4.3-4.3h38.3a4.27,4.27,0,0,1,4.3,4.3v17.3a4.27,4.27,0,0,1-4.3,4.3H1332a4.27,4.27,0,0,1-4.3-4.3Z" transform="translate(-999.69 -76.24)"/>
    <path class="cls-3" d="M1320.81,108.37a4.27,4.27,0,0,1,4.3-4.3h38.3a4.27,4.27,0,0,1,4.3,4.3v17.3a4.27,4.27,0,0,1-4.3,4.3h-38.3a4.27,4.27,0,0,1-4.3-4.3Z" transform="translate(-999.69 -76.24)"/>
    <path class="cls-3" d="M1137.91,89.77a4.27,4.27,0,0,1,4.3-4.3h38.3a4.27,4.27,0,0,1,4.3,4.3v17.3a4.27,4.27,0,0,1-4.3,4.3h-38.3a4.27,4.27,0,0,1-4.3-4.3Z" transform="translate(-999.69 -76.24)"/>
    <path class="cls-3" d="M1075.7,215a4.27,4.27,0,0,1,4.3-4.3h38.3a4.27,4.27,0,0,1,4.3,4.3v17.3a4.27,4.27,0,0,1-4.3,4.3H1080a4.27,4.27,0,0,1-4.3-4.3Z" transform="translate(-999.69 -76.24)"/>
    <path class="cls-3" d="M1225.28,299.77a4.27,4.27,0,0,1,4.3-4.3h38.3a4.27,4.27,0,0,1,4.3,4.3v17.3a4.27,4.27,0,0,1-4.3,4.3h-38.3a4.27,4.27,0,0,1-4.3-4.3Z" transform="translate(-999.69 -76.24)"/>
    <path class="cls-3" d="M1281.81,251.72a4.27,4.27,0,0,1,4.3-4.3h39.3a4.27,4.27,0,0,1,4.3,4.3V269a4.27,4.27,0,0,1-4.3,4.3h-39.3a4.27,4.27,0,0,1-4.3-4.3Z" transform="translate(-999.69 -76.24)"/>
    <path id="selected_techs" class="cls-4" d="M1117.34,124.7c-14,5-21.57,7.1-23.91,16.86-3,12.65,9,23.85,30.55,57.69,12.67,19.84,19,29.76,18.38,41.36-1.26,23.86-15.5,26.7-15.74,48.23-.2,17.86,41.56,11.32,58.19,6.63,23.51-6.63,51.83-11,66.12-15,40-11.19,72.08,15.08,89,3.54,12-8.17,18.38-26.89,13.79-40.34-7.1-20.8-35.32-14-51.07-37.79-9.62-14.52-1.85-21.22-10.21-61.28-5.94-28.45-12.4-35.25-22.89-41.08-15.85-8.8-24.29,4-65.45,12C1168,122.54,1153.93,111.51,1117.34,124.7Z" transform="translate(-999.69 -76.24)"/>
  </g>
  <g id="tech_labels">
    <text class="cls-5" transform="translate(151.88 204.24)">T</text>
    <text class="cls-6" transform="translate(165.38 208.24)">D</text>
    <text class="cls-5" transform="translate(212.04 134.24)">T</text>
    <text class="cls-6" transform="translate(224.9 138.24)">C</text>
    <text class="cls-5" transform="translate(119 86.24)">T</text>
    <text class="cls-6" transform="translate(132.5 90.24)">B</text>
    <text class="cls-5" transform="translate(235.82 61.24)">T</text>
    <text class="cls-6" transform="translate(248.05 65.24)">A</text>
    <text class="cls-5" transform="translate(341.22 115.39)">T</text>
    <text class="cls-6" transform="translate(353.45 119.39)">F</text>
    <text class="cls-5" transform="translate(334.32 45.89)">T</text>
    <text class="cls-6" transform="translate(346.55 49.89)">G</text>
    <text class="cls-5" transform="translate(151.42 27.29)">T</text>
    <text class="cls-6" transform="translate(163.65 31.29)">I</text>
    <text class="cls-5" transform="translate(89.21 152.48)">T</text>
    <text class="cls-6" transform="translate(101.44 156.48)">H</text>
    <text class="cls-5" transform="translate(238.79 237.29)">T</text>
    <text class="cls-6" transform="translate(251.03 241.29)">J</text>
    <text class="cls-5" transform="translate(294.47 188.24)">T</text>
    <text class="cls-6" transform="translate(307.97 192.24)">E</text>
  </g>
  <g id="asso">
    <g>
      <path class="cls-7" d="M1129.82,129.46a2.27,2.27,0,0,1-.56-1.63v-3.55a2.26,2.26,0,0,1,.57-1.64,2.67,2.67,0,0,1,3.32,0,2.24,2.24,0,0,1,.56,1.64v3.55a2,2,0,0,1-2.22,2.22A2.24,2.24,0,0,1,1129.82,129.46Zm2.52-.76a1.21,1.21,0,0,0,.28-.87v-3.55a1.26,1.26,0,0,0-.27-.87,1.09,1.09,0,0,0-.86-.31,1.08,1.08,0,0,0-.86.31,1.21,1.21,0,0,0-.28.87v3.55a1.21,1.21,0,0,0,.28.87,1.33,1.33,0,0,0,1.71,0Z" transform="translate(-999.69 -76.24)"/>
      <path class="cls-7" d="M1134.87,128.82H1136V130h-1.15Z" transform="translate(-999.69 -76.24)"/>
      <path class="cls-7" d="M1138.63,129.82a1.89,1.89,0,0,1-.75-.68,2.57,2.57,0,0,1-.38-1h1.09a1,1,0,0,0,.35.67,1.13,1.13,0,0,0,.74.23,1,1,0,0,0,.81-.35,1.52,1.52,0,0,0,.29-1V127a1.54,1.54,0,0,0-.29-1,1.08,1.08,0,0,0-1.36-.19,1.51,1.51,0,0,0-.46.45h-1v-4.11h4v1h-2.89V125a1.4,1.4,0,0,1,.46-.26,1.54,1.54,0,0,1,.52-.09,2.2,2.2,0,0,1,1.15.28,1.7,1.7,0,0,1,.73.81,3,3,0,0,1,.25,1.3v.65a3,3,0,0,1-.25,1.3,2,2,0,0,1-.76.82,2.42,2.42,0,0,1-1.18.28A2.32,2.32,0,0,1,1138.63,129.82Z" transform="translate(-999.69 -76.24)"/>
    </g>
    <g>
      <path class="cls-7" d="M1120.5,196.37a2.23,2.23,0,0,1-.57-1.63v-3.55a2.35,2.35,0,0,1,3.89-1.64,2.24,2.24,0,0,1,.57,1.64v3.55a2,2,0,0,1-2.23,2.22A2.21,2.21,0,0,1,1120.5,196.37Zm2.52-.76a1.26,1.26,0,0,0,.27-.87v-3.55a1.26,1.26,0,0,0-.27-.87,1.35,1.35,0,0,0-1.72,0,1.26,1.26,0,0,0-.27.87v3.55a1.26,1.26,0,0,0,.27.87,1.35,1.35,0,0,0,1.72,0Z" transform="translate(-999.69 -76.24)"/>
      <path class="cls-7" d="M1125.54,195.73h1.15v1.15h-1.15Z" transform="translate(-999.69 -76.24)"/>
      <path class="cls-7" d="M1128.06,194.73l2.62-5.66h1.13l-2.55,5.6h3.83v1h-5Zm3.37-2.44h1.07v4.59h-1.07Z" transform="translate(-999.69 -76.24)"/>
    </g>
    <g>
      <path class="cls-7" d="M1172.57,173.86a2.26,2.26,0,0,1-.57-1.64v-3.55a2.23,2.23,0,0,1,.57-1.63,2.23,2.23,0,0,1,3.89,1.63v3.55a2.24,2.24,0,0,1-.57,1.64,2.67,2.67,0,0,1-3.32,0Zm2.52-.76a1.3,1.3,0,0,0,.27-.88v-3.55a1.26,1.26,0,0,0-.27-.87,1.38,1.38,0,0,0-1.72,0,1.26,1.26,0,0,0-.27.87v3.55a1.3,1.3,0,0,0,.27.88,1.38,1.38,0,0,0,1.72,0Z" transform="translate(-999.69 -76.24)"/>
      <path class="cls-7" d="M1177.61,173.21h1.15v1.15h-1.15Z" transform="translate(-999.69 -76.24)"/>
      <path class="cls-7" d="M1180.12,173.41l2.72-3.63a2.65,2.65,0,0,0,.37-.65,1.64,1.64,0,0,0,.13-.62h0a1,1,0,0,0-.27-.73,1.1,1.1,0,0,0-.78-.26,1,1,0,0,0-.77.29,1.22,1.22,0,0,0-.36.79H1180a3,3,0,0,1,.4-1.14,2.07,2.07,0,0,1,.77-.73,2.37,2.37,0,0,1,1.09-.25,2.69,2.69,0,0,1,1.19.24,1.64,1.64,0,0,1,.75.7,2.11,2.11,0,0,1,.26,1.1h0a2.53,2.53,0,0,1-.17.87,3.4,3.4,0,0,1-.48.87l-2.26,3.07h3v1h-4.41Z" transform="translate(-999.69 -76.24)"/>
    </g>
    <g>
      <path class="cls-7" d="M1190,141a2.3,2.3,0,0,1-.56-1.64v-3.55a2.23,2.23,0,0,1,.57-1.63,2.23,2.23,0,0,1,3.89,1.63v3.55A2.35,2.35,0,0,1,1190,141Zm2.52-.76a1.26,1.26,0,0,0,.28-.88v-3.55a1.26,1.26,0,0,0-.27-.87,1.12,1.12,0,0,0-.86-.3,1.11,1.11,0,0,0-.86.3,1.21,1.21,0,0,0-.28.87v3.55a1.26,1.26,0,0,0,.28.88,1.37,1.37,0,0,0,1.71,0Z" transform="translate(-999.69 -76.24)"/>
      <path class="cls-7" d="M1195,140.33h1.15v1.15H1195Z" transform="translate(-999.69 -76.24)"/>
      <path class="cls-7" d="M1197.54,139.33l2.62-5.65h1.13l-2.56,5.59h3.83v1h-5Zm3.37-2.44H1202v4.6h-1.07Z" transform="translate(-999.69 -76.24)"/>
    </g>
    <g>
      <path class="cls-7" d="M1242.47,169.33a2.27,2.27,0,0,1-.56-1.63v-3.55a2,2,0,0,1,2.23-2.22,2,2,0,0,1,2.23,2.22v3.55a2.26,2.26,0,0,1-.57,1.64,2.66,2.66,0,0,1-3.33,0Zm2.52-.76a1.21,1.21,0,0,0,.28-.87v-3.55a1.26,1.26,0,0,0-.27-.87,1.13,1.13,0,0,0-.86-.31,1.11,1.11,0,0,0-.86.31,1.21,1.21,0,0,0-.28.87v3.55a1.21,1.21,0,0,0,.28.87,1.33,1.33,0,0,0,1.71,0Z" transform="translate(-999.69 -76.24)"/>
      <path class="cls-7" d="M1247.52,168.69h1.15v1.15h-1.15Z" transform="translate(-999.69 -76.24)"/>
      <path class="cls-7" d="M1250,168.89l2.72-3.63a2.85,2.85,0,0,0,.37-.65,1.65,1.65,0,0,0,.13-.63h0a.94.94,0,0,0-.27-.72,1.11,1.11,0,0,0-.78-.26,1.13,1.13,0,0,0-.78.28,1.32,1.32,0,0,0-.35.8h-1.14a3,3,0,0,1,.4-1.15,2,2,0,0,1,.77-.72,2.25,2.25,0,0,1,1.09-.25,2.72,2.72,0,0,1,1.19.24,1.68,1.68,0,0,1,.75.69,2.26,2.26,0,0,1,.26,1.1h0a2.48,2.48,0,0,1-.17.86,3.7,3.7,0,0,1-.48.87l-2.26,3.08h3v1H1250Z" transform="translate(-999.69 -76.24)"/>
    </g>
    <g>
      <path class="cls-7" d="M1300.38,156.38a2.23,2.23,0,0,1-.57-1.63V151.2A2,2,0,0,1,1302,149a2,2,0,0,1,2.23,2.22v3.55a2.26,2.26,0,0,1-.57,1.64,2.65,2.65,0,0,1-3.32,0Zm2.52-.76a1.26,1.26,0,0,0,.27-.87V151.2a1.26,1.26,0,0,0-.27-.87,1.12,1.12,0,0,0-.86-.3,1.11,1.11,0,0,0-.86.3,1.26,1.26,0,0,0-.27.87v3.55a1.26,1.26,0,0,0,.27.87,1.35,1.35,0,0,0,1.72,0Z" transform="translate(-999.69 -76.24)"/>
      <path class="cls-7" d="M1305.42,155.74h1.15v1.15h-1.15Z" transform="translate(-999.69 -76.24)"/>
      <path class="cls-7" d="M1309.18,156.74a1.86,1.86,0,0,1-.75-.67,2.68,2.68,0,0,1-.38-1.06h1.09a1,1,0,0,0,.35.67,1.1,1.1,0,0,0,.74.24,1,1,0,0,0,.81-.35,1.57,1.57,0,0,0,.29-1v-.65a1.56,1.56,0,0,0-.29-1,1,1,0,0,0-.81-.35,1.12,1.12,0,0,0-.55.16,1.64,1.64,0,0,0-.46.45h-1v-4.11h4v1h-2.88v1.76a1.43,1.43,0,0,1,.45-.26,1.54,1.54,0,0,1,.52-.09,2.24,2.24,0,0,1,1.16.28,1.8,1.8,0,0,1,.73.81,3.17,3.17,0,0,1,.25,1.3v.65a3,3,0,0,1-.26,1.3,1.81,1.81,0,0,1-.75.82,2.35,2.35,0,0,1-1.19.28A2.38,2.38,0,0,1,1309.18,156.74Z" transform="translate(-999.69 -76.24)"/>
    </g>
    <g>
      <path class="cls-7" d="M1260.57,239.36a2.3,2.3,0,0,1-.56-1.64v-3.54a2.24,2.24,0,0,1,.57-1.64,2.23,2.23,0,0,1,3.89,1.64v3.54a2.35,2.35,0,0,1-3.9,1.64Zm2.52-.76a1.24,1.24,0,0,0,.28-.88v-3.54a1.29,1.29,0,0,0-.27-.88,1.12,1.12,0,0,0-.86-.3,1.11,1.11,0,0,0-.86.3,1.24,1.24,0,0,0-.28.88v3.54a1.29,1.29,0,0,0,.28.88,1.37,1.37,0,0,0,1.71,0Z" transform="translate(-999.69 -76.24)"/>
      <path class="cls-7" d="M1265.62,238.71h1.15v1.15h-1.15Z" transform="translate(-999.69 -76.24)"/>
      <path class="cls-7" d="M1269.38,239.71a1.86,1.86,0,0,1-.75-.67,2.62,2.62,0,0,1-.38-1.06h1.09a1,1,0,0,0,.35.67,1.1,1.1,0,0,0,.74.24,1,1,0,0,0,.81-.35,1.56,1.56,0,0,0,.29-1v-.66a1.51,1.51,0,0,0-.29-1,1,1,0,0,0-.81-.35,1,1,0,0,0-.55.16,1.31,1.31,0,0,0-.46.45h-1v-4.12h4v1h-2.89v1.75a1.61,1.61,0,0,1,.46-.26,1.54,1.54,0,0,1,.52-.09,2.3,2.3,0,0,1,1.15.28,1.85,1.85,0,0,1,.74.82,3.16,3.16,0,0,1,.24,1.29v.66a3,3,0,0,1-.25,1.29,1.87,1.87,0,0,1-.75.82,2.35,2.35,0,0,1-1.19.28A2.2,2.2,0,0,1,1269.38,239.71Z" transform="translate(-999.69 -76.24)"/>
    </g>
    <g>
      <path class="cls-7" d="M1333.19,230.73a2.23,2.23,0,0,1-.57-1.63v-3.55a2,2,0,0,1,2.23-2.22,2.23,2.23,0,0,1,1.67.58,2.28,2.28,0,0,1,.56,1.64v3.55a2,2,0,0,1-2.23,2.22A2.21,2.21,0,0,1,1333.19,230.73Zm2.52-.76a1.21,1.21,0,0,0,.28-.87v-3.55a1.21,1.21,0,0,0-.28-.87,1.08,1.08,0,0,0-.86-.31,1.05,1.05,0,0,0-.85.31,1.21,1.21,0,0,0-.28.87v3.55a1.21,1.21,0,0,0,.28.87,1.33,1.33,0,0,0,1.71,0Z" transform="translate(-999.69 -76.24)"/>
      <path class="cls-7" d="M1338.24,230.09h1.15v1.15h-1.15Z" transform="translate(-999.69 -76.24)"/>
      <path class="cls-7" d="M1341.7,231a1.8,1.8,0,0,1-.74-.8,3,3,0,0,1-.26-1.28h0a5.07,5.07,0,0,1,.1-.92,5.4,5.4,0,0,1,.3-.94s.05-.1.07-.16l.08-.15,1.69-3.36h1.18l-2,3.89v-.19a.92.92,0,0,1,.39-.39,1.16,1.16,0,0,1,.6-.14,1.92,1.92,0,0,1,1,.27,1.7,1.7,0,0,1,.66.8,3.19,3.19,0,0,1,.23,1.26h0a3,3,0,0,1-.26,1.29,1.85,1.85,0,0,1-.74.82,2.42,2.42,0,0,1-1.18.28A2.32,2.32,0,0,1,1341.7,231Zm2-1.1a1.33,1.33,0,0,0,.28-.92h0a1.52,1.52,0,0,0-.29-1,1,1,0,0,0-.85-.36.88.88,0,0,0-.75.36,1.66,1.66,0,0,0-.27,1h0a1.35,1.35,0,0,0,.28.92,1,1,0,0,0,.8.32A1,1,0,0,0,1343.68,229.94Z" transform="translate(-999.69 -76.24)"/>
    </g>
    <g>
      <path class="cls-7" d="M1281.17,293.16a2.23,2.23,0,0,1-.56-1.63V288a2,2,0,0,1,2.23-2.22,2.21,2.21,0,0,1,1.66.58,2.24,2.24,0,0,1,.56,1.64v3.55a2.34,2.34,0,0,1-3.89,1.63Zm2.52-.76a1.21,1.21,0,0,0,.28-.87V288a1.26,1.26,0,0,0-.27-.87,1.09,1.09,0,0,0-.86-.31,1.08,1.08,0,0,0-.86.31,1.21,1.21,0,0,0-.28.87v3.55a1.21,1.21,0,0,0,.28.87,1.33,1.33,0,0,0,1.71,0Z" transform="translate(-999.69 -76.24)"/>
      <path class="cls-7" d="M1286.22,292.52h1.15v1.15h-1.15Z" transform="translate(-999.69 -76.24)"/>
      <path class="cls-7" d="M1288.74,291.52l2.62-5.66h1.13l-2.56,5.59h3.83v1h-5Zm3.37-2.44h1.06v4.59h-1.06Z" transform="translate(-999.69 -76.24)"/>
    </g>
    <g>
      <path class="cls-7" d="M1156.74,220.66a2.26,2.26,0,0,1-.57-1.64v-3.55a2.23,2.23,0,0,1,.57-1.63,2.23,2.23,0,0,1,3.89,1.63V219a2.24,2.24,0,0,1-.57,1.64,2.67,2.67,0,0,1-3.32,0Zm2.52-.76a1.3,1.3,0,0,0,.27-.88v-3.55a1.28,1.28,0,0,0-.27-.87,1.38,1.38,0,0,0-1.72,0,1.28,1.28,0,0,0-.27.87V219a1.3,1.3,0,0,0,.27.88,1.38,1.38,0,0,0,1.72,0Z" transform="translate(-999.69 -76.24)"/>
      <path class="cls-7" d="M1161.78,220h1.15v1.15h-1.15Z" transform="translate(-999.69 -76.24)"/>
      <path class="cls-7" d="M1165.25,221a1.84,1.84,0,0,1-.75-.81,2.91,2.91,0,0,1-.25-1.27h0a4.22,4.22,0,0,1,.1-.91,5.14,5.14,0,0,1,.3-.94l.06-.16a1.09,1.09,0,0,0,.08-.15l1.7-3.37h1.18l-2,3.9v-.2a1,1,0,0,1,.39-.39,1.34,1.34,0,0,1,.61-.14,1.86,1.86,0,0,1,1,.28,1.67,1.67,0,0,1,.66.79,3.19,3.19,0,0,1,.22,1.26h0a3,3,0,0,1-.25,1.29,1.74,1.74,0,0,1-.75.81,2.32,2.32,0,0,1-1.18.28A2.35,2.35,0,0,1,1165.25,221Zm2-1.1a1.4,1.4,0,0,0,.28-.92h0a1.54,1.54,0,0,0-.3-1,1,1,0,0,0-.84-.36.89.89,0,0,0-.76.36,1.67,1.67,0,0,0-.27,1h0a1.33,1.33,0,0,0,.29.92,1,1,0,0,0,.79.32A1,1,0,0,0,1167.23,219.87Z" transform="translate(-999.69 -76.24)"/>
    </g>
    <g>
      <path class="cls-7" d="M1116.9,259.86a2.27,2.27,0,0,1-.56-1.63v-3.55a2,2,0,0,1,2.23-2.22,2,2,0,0,1,2.22,2.22v3.55a2.25,2.25,0,0,1-.56,1.64,2.66,2.66,0,0,1-3.33,0Zm2.52-.76a1.21,1.21,0,0,0,.28-.87v-3.55a1.26,1.26,0,0,0-.27-.87,1.13,1.13,0,0,0-.86-.31,1.11,1.11,0,0,0-.86.31,1.21,1.21,0,0,0-.28.87v3.55a1.21,1.21,0,0,0,.28.87,1.33,1.33,0,0,0,1.71,0Z" transform="translate(-999.69 -76.24)"/>
      <path class="cls-7" d="M1122,259.22h1.15v1.15H1122Z" transform="translate(-999.69 -76.24)"/>
      <path class="cls-7" d="M1125.71,260.22a1.94,1.94,0,0,1-.75-.67,2.68,2.68,0,0,1-.38-1.06h1.09a1,1,0,0,0,.35.67,1.1,1.1,0,0,0,.74.24,1,1,0,0,0,.81-.36,1.52,1.52,0,0,0,.29-1v-.65a1.56,1.56,0,0,0-.29-1,1.08,1.08,0,0,0-1.36-.19,1.51,1.51,0,0,0-.46.45h-1v-4.11h4v1h-2.89v1.76a1.61,1.61,0,0,1,.46-.26,1.54,1.54,0,0,1,.52-.09,2.2,2.2,0,0,1,1.15.28,1.75,1.75,0,0,1,.73.81,3,3,0,0,1,.25,1.3v.65a3,3,0,0,1-.25,1.3,1.89,1.89,0,0,1-.76.82,2.42,2.42,0,0,1-1.18.28A2.32,2.32,0,0,1,1125.71,260.22Z" transform="translate(-999.69 -76.24)"/>
    </g>
    <g>
      <path class="cls-7" d="M1166.83,252.45a2.27,2.27,0,0,1-.56-1.63v-3.55a2,2,0,0,1,2.23-2.22,2.21,2.21,0,0,1,1.66.58,2.24,2.24,0,0,1,.57,1.64v3.55a2.34,2.34,0,0,1-3.9,1.63Zm2.52-.76a1.21,1.21,0,0,0,.28-.87v-3.55a1.26,1.26,0,0,0-.27-.87,1.09,1.09,0,0,0-.86-.31,1.08,1.08,0,0,0-.86.31,1.21,1.21,0,0,0-.28.87v3.55a1.26,1.26,0,0,0,.28.87,1.33,1.33,0,0,0,1.71,0Z" transform="translate(-999.69 -76.24)"/>
      <path class="cls-7" d="M1171.88,251.81H1173V253h-1.15Z" transform="translate(-999.69 -76.24)"/>
      <path class="cls-7" d="M1176.39,253h-1.09v-6.62l-1.12.68v-1.13l1.12-.74h1.09Z" transform="translate(-999.69 -76.24)"/>
    </g>
    <g>
      <path class="cls-7" d="M1279.47,191.48a2.3,2.3,0,0,1-.56-1.64v-3.55a2.23,2.23,0,0,1,.57-1.63,2.23,2.23,0,0,1,3.89,1.63v3.55a2.35,2.35,0,0,1-3.9,1.64Zm2.52-.76a1.26,1.26,0,0,0,.28-.88v-3.55a1.26,1.26,0,0,0-.27-.87,1.12,1.12,0,0,0-.86-.3,1.11,1.11,0,0,0-.86.3,1.21,1.21,0,0,0-.28.87v3.55a1.26,1.26,0,0,0,.28.88,1.37,1.37,0,0,0,1.71,0Z" transform="translate(-999.69 -76.24)"/>
      <path class="cls-7" d="M1284.52,190.83h1.15V192h-1.15Z" transform="translate(-999.69 -76.24)"/>
      <path class="cls-7" d="M1287,189.83l2.62-5.65h1.13l-2.56,5.59h3.83v1h-5Zm3.37-2.44h1.07V192h-1.07Z" transform="translate(-999.69 -76.24)"/>
    </g>
    <g>
      <path class="cls-7" d="M1288,121.62a2.27,2.27,0,0,1-.56-1.63v-3.55a2,2,0,0,1,2.23-2.22,2,2,0,0,1,2.23,2.22V120a2.26,2.26,0,0,1-.57,1.64,2.66,2.66,0,0,1-3.33,0Zm2.52-.76a1.21,1.21,0,0,0,.28-.87v-3.55a1.26,1.26,0,0,0-.27-.87,1.12,1.12,0,0,0-.86-.3,1.11,1.11,0,0,0-.86.3,1.21,1.21,0,0,0-.28.87V120a1.21,1.21,0,0,0,.28.87,1.33,1.33,0,0,0,1.71,0Z" transform="translate(-999.69 -76.24)"/>
      <path class="cls-7" d="M1293.07,121h1.15v1.15h-1.15Z" transform="translate(-999.69 -76.24)"/>
      <path class="cls-7" d="M1297.58,122.13h-1.09v-6.62l-1.12.68v-1.13l1.12-.74h1.09Z" transform="translate(-999.69 -76.24)"/>
    </g>
  </g>
  <g id="copyright">
    <g id="Layer_2-2" data-name="Layer 2" class="cls-8">
      <g>
        <path d="M1157.76,247.09l1.3-.8a4.94,4.94,0,0,1,.8,3.2,4.7,4.7,0,0,1-1.4,2.8,5.53,5.53,0,0,1-2.7,1.6,4.61,4.61,0,0,1-2.8-.3,9,9,0,0,1-2.6-1.7,6.5,6.5,0,0,1-1.7-2.7,5.33,5.33,0,0,1-.1-2.8,7.25,7.25,0,0,1,1.5-2.5,4.45,4.45,0,0,1,2.7-1.4,5.08,5.08,0,0,1,2.9.6l-.8,1.3a3.57,3.57,0,0,0-2.1-.5,3.82,3.82,0,0,0-1.8.9,3.65,3.65,0,0,0-1.1,2,3.86,3.86,0,0,0,.3,2.1,5.94,5.94,0,0,0,1.3,1.8,6.85,6.85,0,0,0,2.1,1.5,3.07,3.07,0,0,0,2.1.2,4,4,0,0,0,1.8-1,3.47,3.47,0,0,0,1-2A3.61,3.61,0,0,0,1157.76,247.09Z" transform="translate(-999.69 -76.24)"/>
        <path d="M1159.56,245.09a3.79,3.79,0,0,1-.3-5.8,3.78,3.78,0,0,1,2.8-1.2,4.6,4.6,0,0,1,3,1.4,5.42,5.42,0,0,1,1.4,2.1,3.79,3.79,0,0,1-1.1,3.8,3.78,3.78,0,0,1-2.8,1.2A4.32,4.32,0,0,1,1159.56,245.09Zm1-1a3.26,3.26,0,0,0,2.2,1.2,2.4,2.4,0,0,0,2.5-2.5,3.74,3.74,0,0,0-1.2-2.2,3.81,3.81,0,0,0-2.1-1.2,2.4,2.4,0,0,0-2.5,2.5A3.53,3.53,0,0,0,1160.56,244.09Z" transform="translate(-999.69 -76.24)"/>
        <path d="M1171.36,243.59l-8.1-8.1.9-.9.8.8a2.2,2.2,0,0,1,.1-1.4,2.8,2.8,0,0,1,.8-1.2,3.15,3.15,0,0,1,1.7-.9,4.71,4.71,0,0,1,2,.2,4.63,4.63,0,0,1,1.8,1.3,5.86,5.86,0,0,1,1.3,1.9,3.53,3.53,0,0,1,.2,2,4.61,4.61,0,0,1-.9,1.7,2.59,2.59,0,0,1-1.1.7,2.46,2.46,0,0,1-1.2.1l2.9,2.9Zm-4.2-6a3.29,3.29,0,0,0,2.1,1.2,1.83,1.83,0,0,0,1.7-.6,2.35,2.35,0,0,0,.6-1.7,3.47,3.47,0,0,0-1.3-2.2,3.54,3.54,0,0,0-2.1-1.2,2.05,2.05,0,0,0-1.7.5,2,2,0,0,0-.5,1.7A3.26,3.26,0,0,0,1167.16,237.59Z" transform="translate(-999.69 -76.24)"/>
        <path d="M1177.66,237.39l-1-.8a4.23,4.23,0,0,0,.7-.5c.2-.2.4-.4.4-.6a.64.64,0,0,0,0-.6,4.91,4.91,0,0,0-.4-1c0-.1-.1-.2-.2-.3l-8.1-3.7,1.1-1.1,4.6,2.2,1.8.9c-.3-.6-.7-1.2-.9-1.7l-2.2-4.7,1-1,3.7,8.2a16.44,16.44,0,0,1,.8,1.9,2,2,0,0,1,.1,1.3,2.07,2.07,0,0,1-.6,1A5.58,5.58,0,0,1,1177.66,237.39Z" transform="translate(-999.69 -76.24)"/>
        <path d="M1181.06,229.39l-5.9-5.9.9-.9.9.9a2.83,2.83,0,0,1-.2-1.5,1.51,1.51,0,0,1,.4-.8,2.73,2.73,0,0,1,1.3-.7l.6,1.3a1.93,1.93,0,0,0-.9.5,2,2,0,0,0-.4.8,1.49,1.49,0,0,0,.2.9,4.12,4.12,0,0,0,1,1.3l3.1,3.1Z" transform="translate(-999.69 -76.24)"/>
        <path d="M1178,218.69l-1.1-1.1,1-1,1.1,1.1Zm6.9,7-5.9-5.9,1-1,5.9,5.9Z" transform="translate(-999.69 -76.24)"/>
        <path d="M1187.66,223.79l1.1-.8a1,1,0,0,0,1,.3,2.79,2.79,0,0,0,1.3-.7,2.69,2.69,0,0,0,.8-1.3,1.59,1.59,0,0,0-.3-1.3,11.05,11.05,0,0,0-1.2-1.3,2.82,2.82,0,0,1-.9,2.4,3.19,3.19,0,0,1-2.7,1,5,5,0,0,1-2.8-1.4,4.36,4.36,0,0,1-1.2-1.9,3.46,3.46,0,0,1-.2-2,3.42,3.42,0,0,1,3.6-2.6l-.7-.7.9-.9,5.1,5.1a8.06,8.06,0,0,1,1.7,2.2,2.78,2.78,0,0,1,0,1.8,4.72,4.72,0,0,1-1.2,1.8,3.74,3.74,0,0,1-2.2,1.2A2.54,2.54,0,0,1,1187.66,223.79Zm-2.7-4.3a3.29,3.29,0,0,0,2.1,1.2,2.52,2.52,0,0,0,1.7-.6,1.83,1.83,0,0,0,.6-1.7,2.9,2.9,0,0,0-1.2-2.1,3.11,3.11,0,0,0-2.1-1.1,2.52,2.52,0,0,0-1.7.6,2.35,2.35,0,0,0-.6,1.7A3.94,3.94,0,0,0,1185,219.49Z" transform="translate(-999.69 -76.24)"/>
        <path d="M1193.66,216.89l-8.1-8.1,1-1,2.9,2.9a2.91,2.91,0,0,1,1-2.6,4.19,4.19,0,0,1,1.4-.9,2.23,2.23,0,0,1,1.4,0,5.54,5.54,0,0,1,1.5,1.1l3.7,3.7-1,1-3.7-3.7a2.27,2.27,0,0,0-1.4-.8,1.94,1.94,0,0,0-1.3.6,2,2,0,0,0-.6,1.1,1.67,1.67,0,0,0,.1,1.2,4.7,4.7,0,0,0,.9,1.2l3.2,3.2Z" transform="translate(-999.69 -76.24)"/>
        <path d="M1201.26,207.49l1,.7a2.7,2.7,0,0,1-.7.8,2.61,2.61,0,0,1-1,.7,1.39,1.39,0,0,1-.9,0,4.88,4.88,0,0,1-1.3-1.1l-3.4-3.4-.7.7-.8-.8.7-.7-1.5-1.5.4-1.6,2,2,1-1,.8.8-1,1,3.4,3.4a7.37,7.37,0,0,0,.6.5c.1,0,.2.1.4,0a.54.54,0,0,0,.4-.3C1201,207.89,1201.06,207.69,1201.26,207.49Z" transform="translate(-999.69 -76.24)"/>
        <path d="M1201.46,192.59a6.14,6.14,0,0,1,2.6-1.5,5.45,5.45,0,0,1,3.1,0,5.79,5.79,0,0,1,4.1,4.1,5.45,5.45,0,0,1,0,3.1,5.79,5.79,0,0,1-4.1,4.1,5.45,5.45,0,0,1-3.1,0,6.14,6.14,0,0,1-2.6-1.5,5.94,5.94,0,0,1-1.5-2.7,5.45,5.45,0,0,1,0-3.1A5.79,5.79,0,0,1,1201.46,192.59Zm.7.7a5.37,5.37,0,0,0-1.3,2.2,3.87,3.87,0,0,0,0,2.6,5.13,5.13,0,0,0,3.5,3.5,5.71,5.71,0,0,0,2.6,0,4.47,4.47,0,0,0,2.2-1.3,5.37,5.37,0,0,0,1.3-2.2,4.6,4.6,0,0,0,0-2.6,4.47,4.47,0,0,0-1.3-2.2,5.37,5.37,0,0,0-2.2-1.3,5.71,5.71,0,0,0-2.6,0A5.37,5.37,0,0,0,1202.16,193.29Zm5.5,2.8.9-.5a3,3,0,0,1,.4,1.8,3.15,3.15,0,0,1-.9,1.7,3.21,3.21,0,0,1-2.2,1,3.75,3.75,0,0,1-2.4-1.1,4.37,4.37,0,0,1-1-1.5,2.21,2.21,0,0,1,0-1.6,4.19,4.19,0,0,1,.9-1.4,2.89,2.89,0,0,1,1.6-.9,2.22,2.22,0,0,1,1.6.3l-.5.8a1.45,1.45,0,0,0-1.1-.1,1.91,1.91,0,0,0-1,.5,2,2,0,0,0-.6,1.5,3.27,3.27,0,0,0,2.6,2.6,2,2,0,0,0,1.4-.6,2.28,2.28,0,0,0,.6-1.2A2.77,2.77,0,0,0,1207.66,196.09Z" transform="translate(-999.69 -76.24)"/>
        <path d="M1214.86,190.39l.9-1.1a3.35,3.35,0,0,0,1.3.7,2.4,2.4,0,0,0,1.4-.2,4.37,4.37,0,0,0,1.5-1,3.81,3.81,0,0,0,.9-1.3,1.72,1.72,0,0,0,.2-1.2,1.35,1.35,0,0,0-.5-.9,1.09,1.09,0,0,0-.9-.4,2.1,2.1,0,0,0-1.2.3c-.3.1-.9.5-1.8,1a10.81,10.81,0,0,1-2.1,1.1,3,3,0,0,1-1.6.1,3.29,3.29,0,0,1-1.3-.7,2.75,2.75,0,0,1-.8-1.5,2.82,2.82,0,0,1,.2-1.8,9.39,9.39,0,0,1,1.2-1.8,5.86,5.86,0,0,1,1.9-1.3,3.2,3.2,0,0,1,1.9-.2,3.15,3.15,0,0,1,1.7.9l-1,1.1a2,2,0,0,0-1.7-.6,3.29,3.29,0,0,0-1.8,1,3.53,3.53,0,0,0-1.1,1.8,1.48,1.48,0,0,0,.4,1.3,1.28,1.28,0,0,0,1,.4,7.07,7.07,0,0,0,2.2-1,15.85,15.85,0,0,1,2.3-1.3,3.2,3.2,0,0,1,1.9-.2,2.75,2.75,0,0,1,1.5.8,3,3,0,0,1,.8,1.6,3.53,3.53,0,0,1-.2,2,7.61,7.61,0,0,1-1.2,1.9,7.18,7.18,0,0,1-2.2,1.5,3.8,3.8,0,0,1-2.1.2A7.67,7.67,0,0,1,1214.86,190.39Z" transform="translate(-999.69 -76.24)"/>
        <path d="M1228.36,180.69a6.07,6.07,0,0,1-.4,1.7,3.81,3.81,0,0,1-.9,1.3,3,3,0,0,1-2,1,2.19,2.19,0,0,1-1.7-.7,2.07,2.07,0,0,1-.6-1,4.1,4.1,0,0,1-.1-1.1,3,3,0,0,1,.4-1,9.82,9.82,0,0,1,.7-1,10.62,10.62,0,0,0,1.4-2.1l-.3-.3a1.74,1.74,0,0,0-1.1-.6,2.24,2.24,0,0,0-1.5.8,2.69,2.69,0,0,0-.8,1.3c-.1.4.1.8.4,1.4l-1.1.8a5.34,5.34,0,0,1-.6-1.4,2.15,2.15,0,0,1,.3-1.5,4.79,4.79,0,0,1,1.1-1.5,5.27,5.27,0,0,1,1.4-1,1.54,1.54,0,0,1,1.1-.2,2.11,2.11,0,0,1,1,.4,5.8,5.8,0,0,1,1,.9l1.3,1.3a19.47,19.47,0,0,0,1.8,1.7,3.13,3.13,0,0,0,1,.5l-1,1C1229,181.09,1228.66,181,1228.36,180.69Zm-2.3-2.1a9.44,9.44,0,0,1-1.2,2,9,9,0,0,0-.7,1.1,1.7,1.7,0,0,0-.1.7c0,.2.2.4.3.6a1.28,1.28,0,0,0,1,.4,1.38,1.38,0,0,0,1.1-.6,3.53,3.53,0,0,0,.8-1.3,2.85,2.85,0,0,0,0-1.3,4.88,4.88,0,0,0-.8-1.2Z" transform="translate(-999.69 -76.24)"/>
        <path d="M1229.46,177.59l.8-1.1a1.79,1.79,0,0,0,1.4.4,2.33,2.33,0,0,0,1.4-.7,1.88,1.88,0,0,0,.7-1.3,1.69,1.69,0,0,0-.3-1,.78.78,0,0,0-.8-.2,5.57,5.57,0,0,0-1.4.7,11.9,11.9,0,0,1-2,1,2.46,2.46,0,0,1-1.2.1,2.07,2.07,0,0,1-1-.6,2,2,0,0,1-.5-.9,3.4,3.4,0,0,1-.1-1,3.18,3.18,0,0,1,.3-.9,6.07,6.07,0,0,1,.7-1,4.06,4.06,0,0,1,1.4-1,2.09,2.09,0,0,1,1.3-.2,3,3,0,0,1,1.3.6l-.8,1.1a1.13,1.13,0,0,0-1.1-.3,2.27,2.27,0,0,0-1.2.6,3,3,0,0,0-.8,1.2,1.08,1.08,0,0,0,.2.8.76.76,0,0,0,.5.2,1.27,1.27,0,0,0,.6-.1,7.37,7.37,0,0,1,1.1-.6,12.1,12.1,0,0,1,1.9-1,1.67,1.67,0,0,1,1.2-.1,2.38,2.38,0,0,1,1.1.6,2.28,2.28,0,0,1,.6,1.2,2.62,2.62,0,0,1-.2,1.5,4.37,4.37,0,0,1-1,1.5,4,4,0,0,1-2.2,1.3A4.85,4.85,0,0,1,1229.46,177.59Z" transform="translate(-999.69 -76.24)"/>
        <path d="M1240.36,168.79a6.07,6.07,0,0,1-.4,1.7,5.08,5.08,0,0,1-.9,1.3,3,3,0,0,1-2,1,2.19,2.19,0,0,1-1.7-.7,2.07,2.07,0,0,1-.6-1,4.1,4.1,0,0,1-.1-1.1,3,3,0,0,1,.4-1,9.82,9.82,0,0,1,.7-1,10.62,10.62,0,0,0,1.4-2.1l-.3-.3a1.74,1.74,0,0,0-1.1-.6,2.24,2.24,0,0,0-1.5.8,2.69,2.69,0,0,0-.8,1.3c-.1.4.1.8.4,1.4l-1.1.8a5.34,5.34,0,0,1-.6-1.4,2.15,2.15,0,0,1,.3-1.5,4.79,4.79,0,0,1,1.1-1.5,5.27,5.27,0,0,1,1.4-1,1.54,1.54,0,0,1,1.1-.2,2.11,2.11,0,0,1,1,.4,5.8,5.8,0,0,1,1,.9l1.3,1.3a19.47,19.47,0,0,0,1.8,1.7,3.13,3.13,0,0,0,1,.5l-1,1A2.7,2.7,0,0,0,1240.36,168.79Zm-2.3-2.2a9.44,9.44,0,0,1-1.2,2,9,9,0,0,0-.7,1.1,1.7,1.7,0,0,0-.1.7c0,.2.2.4.3.6a1.28,1.28,0,0,0,1,.4,1.38,1.38,0,0,0,1.1-.6,3.53,3.53,0,0,0,.8-1.3,2.85,2.85,0,0,0,0-1.3,4.88,4.88,0,0,0-.8-1.2Z" transform="translate(-999.69 -76.24)"/>
        <path d="M1243.56,167l-5.9-5.9.9-.9.8.8a3,3,0,0,1,.9-2.8,3.17,3.17,0,0,1,1.2-.8,2.54,2.54,0,0,1,1.2-.2,3,3,0,0,1,1,.4,6.53,6.53,0,0,1,1,.9l3.6,3.6-1,1-3.6-3.6a3.14,3.14,0,0,0-1-.8,2.77,2.77,0,0,0-.9-.1,2,2,0,0,0-.9.5,2.13,2.13,0,0,0-.7,1.5,2.9,2.9,0,0,0,1.1,2l3.2,3.2Z" transform="translate(-999.69 -76.24)"/>
        <path d="M1252.16,158.29l-5-11.2,1.2-1.2,11.4,4.8-1.2,1.2-3.4-1.5-3.4,3.4,1.6,3.3Zm-1-5.6,2.7-2.7-3.1-1.4c-.9-.4-1.7-.8-2.3-1.1a12.81,12.81,0,0,1,1.1,2Z" transform="translate(-999.69 -76.24)"/>
        <path d="M1260,150.59l-.8-.8-.6-8a12,12,0,0,0-1.1,1.2l-2.4,2.4-.8-.8,4.8-4.8.7.7.5,6.9.1,1.3a15.38,15.38,0,0,1,1.2-1.3l2.7-2.7.9.9Z" transform="translate(-999.69 -76.24)"/>
        <path d="M1259.16,137.39l-1.1-1.1,1-1,1.1,1.1Zm7,7-5.9-5.9,1-1,5.9,5.9Z" transform="translate(-999.69 -76.24)"/>
        <path d="M1268.66,141.89l-5.9-5.9.9-.9.8.8a3.3,3.3,0,0,1,0-1.4,2.58,2.58,0,0,1,.8-1.3,3.07,3.07,0,0,1,1.3-.8,1.91,1.91,0,0,1,1.3.2,2.77,2.77,0,0,1,.8-2.8,2.59,2.59,0,0,1,1.8-.9,2.93,2.93,0,0,1,2,1l4,4-1,1-3.7-3.7a3.14,3.14,0,0,0-1-.8,2.2,2.2,0,0,0-.8-.1,3,3,0,0,0-.8.4,2,2,0,0,0-.6,1.4,2.59,2.59,0,0,0,.9,1.7l3.4,3.4-1,1-3.8-3.8a3.55,3.55,0,0,0-1.2-.8,1.14,1.14,0,0,0-1.1.5,2.07,2.07,0,0,0-.6,1,2.46,2.46,0,0,0,.1,1.2,3.17,3.17,0,0,0,1.1,1.4l3,3Z" transform="translate(-999.69 -76.24)"/>
        <path d="M1271.16,125.49l-1.1-1.1,1-1,1.1,1.1Zm6.9,6.9-5.9-5.9,1-1,5.9,5.9Z" transform="translate(-999.69 -76.24)"/>
        <path d="M1200.56,242.49l-7.1-7.1-2.7,2.7-1-1,6.4-6.4,1,1-2.7,2.7,7.1,7.1Z" transform="translate(-999.69 -76.24)"/>
        <path d="M1207.46,231.89l1.2-.9a3.87,3.87,0,0,1,.5,2.3,3.74,3.74,0,0,1-1.2,2.2,3.39,3.39,0,0,1-2.8,1.2,5.27,5.27,0,0,1-4.5-4.6,3.45,3.45,0,0,1,1.2-2.8,3.28,3.28,0,0,1,2.7-1.1,4.77,4.77,0,0,1,3,1.5l.3.3-4.4,4.4a3.22,3.22,0,0,0,2,.9,2.19,2.19,0,0,0,1.7-.7,1.73,1.73,0,0,0,.6-1.2A4,4,0,0,0,1207.46,231.89Zm-4.9,1.6,3.3-3.3a2.28,2.28,0,0,0-3.3,0,2.13,2.13,0,0,0-.7,1.6A2.34,2.34,0,0,0,1202.56,233.49Z" transform="translate(-999.69 -76.24)"/>
        <path d="M1213.26,225.49l1.1-.9a3.84,3.84,0,0,1,.8,2.4,3.34,3.34,0,0,1-1.1,2.2,3.28,3.28,0,0,1-2.7,1.1,4.32,4.32,0,0,1-3-1.5,4.93,4.93,0,0,1-1.3-2,3.46,3.46,0,0,1-.1-2,4,4,0,0,1,1-1.8,3.65,3.65,0,0,1,2-1.1,3.22,3.22,0,0,1,2.2.6l-.8,1.1a2.5,2.5,0,0,0-1.4-.4,1.61,1.61,0,0,0-1.1.5,2.41,2.41,0,0,0-.7,1.8,3.74,3.74,0,0,0,1.2,2.2,4,4,0,0,0,2.2,1.3,2.11,2.11,0,0,0,1.7-.6,1.76,1.76,0,0,0,.6-1.3A2.9,2.9,0,0,0,1213.26,225.49Z" transform="translate(-999.69 -76.24)"/>
        <path d="M1217.26,225.79l-8.1-8.1,1-1,2.9,2.9a2.91,2.91,0,0,1,1-2.6,4.19,4.19,0,0,1,1.4-.9,3.3,3.3,0,0,1,1.4,0,5.54,5.54,0,0,1,1.5,1.1l3.7,3.7-1,1-3.7-3.7a2.27,2.27,0,0,0-1.4-.8,1.94,1.94,0,0,0-1.3.6,2,2,0,0,0-.6,1.1,1.63,1.63,0,0,0,.1,1.2,4.7,4.7,0,0,0,.9,1.2l3.2,3.2Z" transform="translate(-999.69 -76.24)"/>
        <path d="M1223.56,219.49l-5.9-5.9.9-.9.8.8a3.3,3.3,0,0,1,0-1.4,2.58,2.58,0,0,1,.8-1.3,3.07,3.07,0,0,1,1.3-.8,2,2,0,0,1,1.3.2,2.84,2.84,0,0,1,.8-2.8,2.59,2.59,0,0,1,1.8-.9,2.93,2.93,0,0,1,2,1l4,4-1,1-3.7-3.7a3.14,3.14,0,0,0-1-.8,2,2,0,0,0-.8-.1,3,3,0,0,0-.8.4,2,2,0,0,0-.6,1.4,2.59,2.59,0,0,0,.9,1.7l3.4,3.4-1,1-3.6-3.6a3.55,3.55,0,0,0-1.2-.8,1.07,1.07,0,0,0-1.1.5,2.07,2.07,0,0,0-.6,1,2.46,2.46,0,0,0,.1,1.2,3.17,3.17,0,0,0,1.1,1.4l3,3Z" transform="translate(-999.69 -76.24)"/>
        <path d="M1226,203.09l-1.1-1.1,1-1,1.1,1.1Zm7,7-5.9-5.9,1-1,5.9,5.9Z" transform="translate(-999.69 -76.24)"/>
        <path d="M1235.46,207.59l-5.9-5.9.9-.9.8.8a3,3,0,0,1,.9-2.8,3.17,3.17,0,0,1,1.2-.8,2.54,2.54,0,0,1,1.2-.2,3,3,0,0,1,1,.4,6.53,6.53,0,0,1,1,.9l3.6,3.6-1,1-3.6-3.6a3.14,3.14,0,0,0-1-.8,2.77,2.77,0,0,0-.9-.1,2,2,0,0,0-.9.5,2.13,2.13,0,0,0-.7,1.5,2.9,2.9,0,0,0,1.1,2l3.2,3.2Z" transform="translate(-999.69 -76.24)"/>
        <path d="M1234.86,194.29l-1.1-1.1,1-1,1.1,1.1Zm6.9,7-5.9-5.9,1-1,5.9,5.9Z" transform="translate(-999.69 -76.24)"/>
        <path d="M1244.26,198.79l-5.9-5.9.9-.9.8.8a3,3,0,0,1,.9-2.8,3.17,3.17,0,0,1,1.2-.8,2.54,2.54,0,0,1,1.2-.2,3,3,0,0,1,1,.4,6.53,6.53,0,0,1,1,.9l3.6,3.6-1,1-3.6-3.6a3.14,3.14,0,0,0-1-.8,2.77,2.77,0,0,0-.9-.1,1.38,1.38,0,0,0-.9.5,2.13,2.13,0,0,0-.7,1.5,2.9,2.9,0,0,0,1.1,2l3.2,3.2Z" transform="translate(-999.69 -76.24)"/>
        <path d="M1250.86,193.19l1.1-.8a1,1,0,0,0,1,.3,2.79,2.79,0,0,0,1.3-.7,2.69,2.69,0,0,0,.8-1.3,1.59,1.59,0,0,0-.3-1.3,11.05,11.05,0,0,0-1.2-1.3,2.82,2.82,0,0,1-.9,2.4,3.19,3.19,0,0,1-2.7,1,5,5,0,0,1-2.8-1.4,4.36,4.36,0,0,1-1.2-1.9,3.46,3.46,0,0,1-.2-2,2.53,2.53,0,0,1,1-1.7,3,3,0,0,1,2.6-.9l-.7-.7.9-.9,5.1,5.1a8.06,8.06,0,0,1,1.7,2.2,2.78,2.78,0,0,1,0,1.8,4.72,4.72,0,0,1-1.2,1.8,3.74,3.74,0,0,1-2.2,1.2A2.88,2.88,0,0,1,1250.86,193.19Zm-2.7-4.4a3.29,3.29,0,0,0,2.1,1.2,2.52,2.52,0,0,0,1.7-.6,1.83,1.83,0,0,0,.6-1.7,2.9,2.9,0,0,0-1.2-2.1,3.11,3.11,0,0,0-2.1-1.1,2.52,2.52,0,0,0-1.7.6,2.35,2.35,0,0,0-.6,1.7A3.94,3.94,0,0,0,1248.16,188.79Z" transform="translate(-999.69 -76.24)"/>
        <path d="M1257.16,185.89l-1.1-1.1,1.1-1.1,1.1,1.1Z" transform="translate(-999.69 -76.24)"/>
        <path d="M1253.06,176.09,1252,175l1-1,1.1,1.1Zm7,6.9-5.9-5.8,1-1,5.9,5.9Z" transform="translate(-999.69 -76.24)"/>
        <path d="M1262.46,180.49l-5.9-5.9.9-.9.9.9a2.83,2.83,0,0,1-.2-1.5,1.51,1.51,0,0,1,.4-.8,2.73,2.73,0,0,1,1.3-.7l.6,1.3a1.93,1.93,0,0,0-.9.5,2,2,0,0,0-.4.8,1.49,1.49,0,0,0,.2.9,4.12,4.12,0,0,0,1,1.3l3.1,3.1Z" transform="translate(-999.69 -76.24)"/>
      </g>
    </g>
  </g>
</svg>
