<?xml version="1.0" encoding="utf-8"?>
<!-- Generator: Adobe Illustrator 25.2.0, SVG Export Plug-In . SVG Version: 6.00 Build 0)  -->
<svg version="1.1" id="Layer_1" xmlns="http://www.w3.org/2000/svg" xmlns:xlink="http://www.w3.org/1999/xlink" x="0px" y="0px"
	 viewBox="0 0 135.2 126.6" style="enable-background:new 0 0 135.2 126.6;" xml:space="preserve">
<style type="text/css">
	.st0{fill:#FBC350;stroke:#1D1D1B;stroke-width:7;stroke-miterlimit:10;}
	.st1{fill:#F9DD53;stroke:#63312D;stroke-width:7;stroke-miterlimit:10;}
	.st2{fill:#F18904;}
	.st3{fill:#64322E;}
</style>
<g>
	<g>
		<path class="st0" d="M6.6,63.2C6.6,30.3,34.5,3.7,69,3.7l0,0"/>
		<path class="st0" d="M131.3,122.7"/>
		<path class="st0" d="M131.3,63.2c0,32.9-27.9,59.5-62.4,59.5"/>
		<path class="st1" d="M67.7,3.7c-34.1,0.7-61,28.1-61,60.7v53c0,2.9,2.5,5.2,5.5,5.2l0,0h55.7c34.1,0,63-25.7,63.6-58.2
			c0.7-32.9-26.7-60.1-61.2-60.7C69.4,3.7,68.5,3.7,67.7,3.7z"/>
	</g>
</g>
<path class="st2" d="M32.6,69.1h36c1.8,0,3.3,1.6,3.3,3.5l0,0c0,2-1.5,3.5-3.3,3.5h-36c-1.8,0-3.3-1.6-3.3-3.5l0,0
	C29.2,70.7,30.7,69.1,32.6,69.1z"/>
<path class="st2" d="M32.6,81.8h36c1.8,0,3.3,1.6,3.3,3.5l0,0c0,2-1.5,3.5-3.3,3.5h-36c-1.8,0-3.3-1.6-3.3-3.5l0,0
	C29.2,83.3,30.7,81.8,32.6,81.8z"/>
<path class="st2" d="M32.6,94.4h36c1.8,0,3.3,1.6,3.3,3.5l0,0c0,2-1.5,3.5-3.3,3.5h-36c-1.8,0-3.3-1.6-3.3-3.5l0,0
	C29.2,96,30.7,94.4,32.6,94.4z"/>
<path class="st2" d="M66.7,28.5C54,30,39.1,39,32.1,51.9c-0.7,2.4,1,4.7,3.5,4.7h31.9c2.1,0,3.7-1.7,3.7-3.7V32
	C71.3,29.7,68.9,27.8,66.7,28.5z"/>
<circle class="st3" cx="91.7" cy="38.5" r="8.3"/>
<path class="st3" d="M96.7,101.4h-10c-1.6,0-3-1.3-3-3v-42c0-1.6,1.3-3,3-3h10c1.6,0,3,1.3,3,3v42C99.7,100.1,98.4,101.4,96.7,101.4
	z"/>
</svg>
