<?xml version="1.0" encoding="UTF-8"?>
<svg xmlns="http://www.w3.org/2000/svg" viewBox="0 0 600 400">
  <defs>
    <style>
      .cls-1 {
        fill: #ffce33;
        opacity: .1;
      }

      .cls-2 {
        fill: #2dbcd3;
        font-family: FallingSkyBlk, 'Falling Sky';
        font-size: 39.94px;
      }

      .cls-3 {
        fill: none;
      }

      .cls-3, .cls-4 {
        stroke: #888;
        stroke-miterlimit: 10;
        stroke-width: 2px;
      }

      .cls-5 {
        fill: #888;
      }

      .cls-4 {
        fill: #fff;
      }
    </style>
  </defs>
  <g id="Layer_7" data-name="Layer 7">
    <polygon class="cls-1" points="422.56 7.39 330.89 7.39 285.05 86.78 330.89 166.18 422.56 166.18 468.4 86.78 422.56 7.39"/>
    <polygon class="cls-1" points="162.07 47.84 70.39 47.84 24.55 127.23 70.39 206.63 162.07 206.63 207.91 127.23 162.07 47.84"/>
    <polygon class="cls-1" points="135.37 217.72 43.69 217.72 -2.15 297.12 43.69 376.52 135.37 376.52 181.21 297.12 135.37 217.72"/>
    <polygon class="cls-1" points="403.96 233.1 312.28 233.1 266.44 312.49 312.28 391.89 403.96 391.89 449.8 312.49 403.96 233.1"/>
    <polygon class="cls-1" points="552 129.54 460.32 129.54 414.48 208.94 460.32 288.34 552 288.34 597.84 208.94 552 129.54"/>
    <polygon class="cls-1" points="491.73 240.38 428.37 240.38 396.69 295.25 428.37 350.13 491.73 350.13 523.42 295.25 491.73 240.38"/>
    <polygon class="cls-1" points="506.3 46.22 442.93 46.22 411.25 101.09 442.93 155.97 506.3 155.97 537.98 101.09 506.3 46.22"/>
    <polygon class="cls-1" points="300 7.39 236.64 7.39 204.96 62.26 236.64 117.14 300 117.14 331.69 62.26 300 7.39"/>
    <polygon class="cls-1" points="261.98 75.34 198.62 75.34 166.93 130.22 198.62 185.09 261.98 185.09 293.66 130.22 261.98 75.34"/>
    <polygon class="cls-1" points="285.44 243.61 222.08 243.61 190.39 298.49 222.08 353.36 285.44 353.36 317.12 298.49 285.44 243.61"/>
    <polygon class="cls-1" points="211.01 274.35 147.65 274.35 115.97 329.23 147.65 384.11 211.01 384.11 242.7 329.23 211.01 274.35"/>
    <polygon class="cls-1" points="100.18 149.77 36.82 149.77 5.14 204.65 36.82 259.52 100.18 259.52 131.87 204.65 100.18 149.77"/>
  </g>
  <g id="techmining">
    <text class="cls-2" transform="translate(184.44 218.39)"><tspan x="0" y="0">Techmining</tspan></text>
  </g>
  <g id="Layer_2" data-name="Layer 2">
    <rect class="cls-3" x="264.85" y="22.06" width="140" height="80" rx="12.37" ry="12.37"/>
    <rect class="cls-3" x="284.75" y="296.53" width="140" height="80" rx="12.37" ry="12.37"/>
    <rect class="cls-3" x="455.17" y="165.74" width="140" height="80" rx="12.37" ry="12.37"/>
    <rect class="cls-3" x="22.15" y="88.4" width="140" height="80" rx="12.37" ry="12.37"/>
    <path class="cls-3" d="M81.92,169.42v27.27c0,6.83,5.54,12.37,12.37,12.37h86.6"/>
    <line class="cls-4" x1="417.08" y1="209.07" x2="454.6" y2="209.07"/>
    <path id="p1" class="cls-5" d="M239.96,234.28v35.27c0,6.27-5.1,11.37-11.37,11.37h-75.05v-25.18c0-7.37-6-13.37-13.37-13.37H24.92c-7.37,0-13.37,6-13.37,13.37v55.26c0,7.37,6,13.37,13.37,13.37h115.26c7.37,0,13.37-6,13.37-13.37v-28.08h75.05c7.37,0,13.37-6,13.37-13.37v-35.27h-2ZM151.55,310.99c0,6.27-5.1,11.37-11.37,11.37H24.92c-6.27,0-11.37-5.1-11.37-11.37v-55.26c0-6.27,5.1-11.37,11.37-11.37h115.26c6.27,0,11.37,5.1,11.37,11.37v55.26Z"/>
    <path class="cls-3" d="M332.65,229.69v17.6c0,6.83,5.54,12.37,12.37,12.37h18.54c6.83,0,12.37,5.54,12.37,12.37v24.6"/>
    <path class="cls-3" d="M331.65,102.4v27.18c0,7.2-5.54,13.04-12.37,13.04h-18.54c-6.83,0-12.37,5.84-12.37,13.04v25.93"/>
  </g>
</svg>