<?xml version="1.0" encoding="utf-8"?>
<!-- Generator: Adobe Illustrator 24.0.0, SVG Export Plug-In . SVG Version: 6.00 Build 0)  -->
<svg version="1.1" id="Layer_2_1_" xmlns="http://www.w3.org/2000/svg" xmlns:xlink="http://www.w3.org/1999/xlink" x="0px" y="0px"
	 viewBox="0 0 423.5 509.6" style="enable-background:new 0 0 423.5 509.6;" xml:space="preserve">
<style type="text/css">
	.st0{fill:#FFC550;}
	.st1{fill:#EFEFEF;}
	.st2{fill:#63312D;}
	.st3{fill:#F2D3A0;}
</style>
<g>
	<path class="st0" d="M4.5,4h343.1v83.1H4.5V4z"/>
	<path class="st1" d="M4.5,95.2h343.1V452H4.5V95.2z"/>
	<path class="st2" d="M351.1,95.1H4c-2.2,0-4-1.8-4-4V4c0-2.2,1.8-4,4-4h347.1c2.2,0,4,1.8,4,4v87.1
		C355.1,93.3,353.3,95.1,351.1,95.1z M8,87.1h339.1V8H8V87.1z"/>
	<path class="st2" d="M351.1,456.7H4c-2.3-0.1-4.1-2.1-4-4.4V91.5c-0.1-2.3,1.7-4.3,4-4.4h347.1c2.3,0.1,4.1,2.1,4,4.4v360.8
		C355.2,454.7,353.4,456.6,351.1,456.7z M8,448h339.1V95.9H8V448z"/>
</g>
<g>
	<path class="st0" d="M35.6,28.9h343.1V112H35.6V28.9z"/>
	<path class="st1" d="M35.6,120.2h343.1V477H35.6V120.2z"/>
	<path class="st2" d="M382.3,120.1H35.2c-2.2,0-4-1.8-4-4V28.9c0-2.2,1.8-4,4-4h347.1c2.2,0,4,1.8,4,4V116
		C386.3,118.3,384.5,120.1,382.3,120.1z M39.2,112.1h339.1V32.9H39.2V112.1z"/>
	<path class="st2" d="M382.2,481.6h-347c-2.3-0.1-4.1-2.1-4-4.4V116.4c-0.1-2.3,1.7-4.3,4-4.4h347.1c2.3,0.1,4.1,2.1,4,4.4v360.8
		C386.4,479.6,384.6,481.5,382.2,481.6z M39.2,472.9h339.1V120.8H39.2V472.9z"/>
</g>
<title>article</title>
<path class="st0" d="M72.8,56.9h343.1V140H72.8V56.9z"/>
<path class="st1" d="M72.8,148.2h343.1V505H72.8V148.2z"/>
<path class="st2" d="M419.4,148.1H72.3c-2.2,0-4-1.8-4-4V56.9c0-2.2,1.8-4,4-4h347.1c2.2,0,4,1.8,4,4V144
	C423.4,146.3,421.7,148.1,419.4,148.1z M76.3,140.1h339.1V60.9H76.3V140.1z"/>
<path class="st2" d="M419.4,509.6H72.3c-2.3-0.1-4.1-2.1-4-4.4V144.4c-0.1-2.3,1.7-4.3,4-4.4h347.1c2.3,0.1,4.1,2.1,4,4.4v360.8
	C423.5,507.6,421.8,509.5,419.4,509.6z M76.3,500.9h339.1V148.8H76.3V500.9z"/>
<path class="st3" d="M277.6,287.9h91.1V387h-91.1V287.9z"/>
<path class="st2" d="M368.7,391h-91.1c-2.2,0-4-1.8-4-4v-99.1c0-2.2,1.8-4,4-4h91.1c2.2,0,4,1.8,4,4V387
	C372.7,389.2,370.9,391,368.7,391z M281.6,383h83.1v-91.1h-83.1V383z"/>
<path class="st2" d="M126.8,106.8h237.5c2.3,0,4.1-1.8,4.1-4.1v0c0-2.3-1.8-4.1-4.1-4.1H126.8c-2.3,0-4.1,1.8-4.1,4.1v0
	C122.7,105,124.5,106.8,126.8,106.8z"/>
<path class="st2" d="M109.4,190h115c2.3,0,4.1-1.8,4.1-4.1v0c0-2.3-1.8-4.1-4.1-4.1h-115c-2.3,0-4.1,1.8-4.1,4.1v0
	C105.3,188.2,107.2,190,109.4,190z"/>
<path class="st2" d="M109.4,218.4h115c2.3,0,4.1-1.8,4.1-4.1l0,0c0-2.3-1.8-4.1-4.1-4.1h-115c-2.3,0-4.1,1.8-4.1,4.1l0,0
	C105.3,216.6,107.2,218.4,109.4,218.4z"/>
<path class="st2" d="M109.4,246.9h115c2.3,0,4.1-1.8,4.1-4.1l0,0c0-2.3-1.8-4.1-4.1-4.1h-115c-2.3,0-4.1,1.8-4.1,4.1l0,0
	C105.3,245,107.2,246.9,109.4,246.9z"/>
<path class="st2" d="M109.4,339.9h115c2.3,0,4.1-1.8,4.1-4.1l0,0c0-2.3-1.8-4.1-4.1-4.1h-115c-2.3,0-4.1,1.8-4.1,4.1l0,0
	C105.3,338.1,107.2,339.9,109.4,339.9z"/>
<path class="st2" d="M109.4,378.9h115c2.3,0,4.1-1.8,4.1-4.1l0,0c0-2.3-1.8-4.1-4.1-4.1h-115c-2.3,0-4.1,1.8-4.1,4.1l0,0
	C105.3,377.1,107.2,378.9,109.4,378.9z"/>
<path class="st2" d="M109.4,417.9h115c2.3,0,4.1-1.8,4.1-4.1l0,0c0-2.3-1.8-4.1-4.1-4.1h-115c-2.3,0-4.1,1.8-4.1,4.1l0,0
	C105.3,416.1,107.2,417.9,109.4,417.9z"/>
<path class="st2" d="M109.4,457h115c2.3,0,4.1-1.8,4.1-4.1l0,0c0-2.3-1.8-4.1-4.1-4.1h-115c-2.3,0-4.1,1.8-4.1,4.1l0,0
	C105.3,455.1,107.2,457,109.4,457z"/>
<path class="st2" d="M265.7,190h115c2.3,0,4.1-1.8,4.1-4.1v0c0-2.3-1.8-4.1-4.1-4.1h-115c-2.3,0-4.1,1.8-4.1,4.1v0
	C261.6,188.2,263.4,190,265.7,190z"/>
<path class="st2" d="M265.7,225.9h115c2.3,0,4.1-1.8,4.1-4.1l0,0c0-2.3-1.8-4.1-4.1-4.1h-115c-2.3,0-4.1,1.8-4.1,4.1l0,0
	C261.6,224.1,263.4,225.9,265.7,225.9z"/>
<path class="st2" d="M265.7,261.9h115c2.3,0,4.1-1.8,4.1-4.1v0c0-2.3-1.8-4.1-4.1-4.1h-115c-2.3,0-4.1,1.8-4.1,4.1v0
	C261.6,260,263.4,261.9,265.7,261.9z"/>
<path class="st2" d="M265.7,417.9h115c2.3,0,4.1-1.8,4.1-4.1l0,0c0-2.3-1.8-4.1-4.1-4.1h-115c-2.3,0-4.1,1.8-4.1,4.1l0,0
	C261.6,416.1,263.4,417.9,265.7,417.9z"/>
<path class="st2" d="M265.7,457h115c2.3,0,4.1-1.8,4.1-4.1l0,0c0-2.3-1.8-4.1-4.1-4.1h-115c-2.3,0-4.1,1.8-4.1,4.1l0,0
	C261.6,455.1,263.4,457,265.7,457z"/>
</svg>
