<svg id="Layer_1" data-name="Layer 1" xmlns="http://www.w3.org/2000/svg" viewBox="0 0 163.02 166.82">
  <defs>
    <style>
		.cls-1 {
			fill: #ff9600;
		}

		#s1 {
			animation: recolor 12s 1s ease infinite; 
		}	  
	  
		#s2 {
			animation: recolor 12s 2.1s ease infinite; 
		}	  
	  
		#s3 {
			animation: recolor 12s 2.3s ease infinite; 
		}	  
	  
		#s4 {
			animation: recolor 12s 2.5s ease infinite; 
		}	  
	  
		#s5 {
			animation: recolor 12s 3.4s ease infinite; 
		}	  
	  
		#s6 {
			animation: recolor 12s 3.9s ease infinite; 
		}	  
	  
		#s7 {
			animation: recolor 12s 4.1s ease infinite; 
		}	  
	  
		#c1 {
			animation: recolor 12s 5.2s ease infinite; 
		}	  
	  
		#c3 {
			animation: recolor 12s 5.4s ease infinite; 
		}	  
	  
		#c2 {
			animation: recolor 12s 5.6s ease infinite; 
		}	  
	  
	    @keyframes recolor {
			0% {
				fill: #ff9600;
			}

			1% {
				fill: #fffd24;
			}

			11% {
				fill: #ff9600;         
			}
		}
	  
	  
    </style>
  </defs>
  <path id="s7" class="cls-1" d="M93.74,142.18c3.46,0,8.92,0,12.38,0a3.38,3.38,0,0,1,2.6,1c1.55,1.54,3.08,3.09,4.65,4.59a.94.94,0,0,1,.2,1.31,7.84,7.84,0,0,0-.71,5,8.37,8.37,0,1,0,16.29-3.73,8.22,8.22,0,0,0-10.5-5.58,1.29,1.29,0,0,1-1.5-.39c-1.81-1.82-3.64-3.62-5.51-5.38a6,6,0,0,0-4.2-1.72c-3.89,0-9.77-.06-13.66-.1h-.85v5Zm27.3,7.24a3.28,3.28,0,1,1-3.26,3.28A3.38,3.38,0,0,1,121,149.42Z"/>
  <path id="s6" class="cls-1" d="M120.79,130.61a8.49,8.49,0,0,1-7.92-5.52l-17.15,0h0a2.47,2.47,0,0,1-1.76-.73,2.5,2.5,0,0,1-.74-1.77A2.61,2.61,0,0,1,94,120.8a2.51,2.51,0,0,1,1.76-.78h0l16.87,0a8.46,8.46,0,1,1,8.19,10.55Zm-3.45-8.27v.07a3.45,3.45,0,1,0,0-.26Z"/>
  <path id="s5" class="cls-1" d="M126.9,110.6a8.49,8.49,0,0,1-7.93-5.52l-24.14,0h0a2.51,2.51,0,0,1-2.5-2.5,2.61,2.61,0,0,1,.74-1.81,2.53,2.53,0,0,1,1.76-.78h0l23.87,0a8.46,8.46,0,1,1,8.2,10.55Zm-3.46-8.27v.07a3.45,3.45,0,1,0,0-.26Z"/>
  <path id="s4" class="cls-1" d="M114,91.86a8.51,8.51,0,0,1-7.93-5.51l-9.14,0h0a2.49,2.49,0,0,1-2.5-2.5,2.58,2.58,0,0,1,.73-1.81,2.54,2.54,0,0,1,1.77-.78h0l8.87,0A8.46,8.46,0,1,1,114,91.86Zm-3.45-8.27v.07a3.45,3.45,0,1,0,0-.25A1.09,1.09,0,0,0,110.55,83.59Z"/>
  <path id="s3" class="cls-1" d="M154.32,86.36a8.28,8.28,0,0,0-10.71-5.69,1.86,1.86,0,0,1-2.29-.58c-1-1.13-10.13-10.06-13.13-12.93l-.08-.1c-1.43-1.48-2.93-2.9-4.33-4.41a7.64,7.64,0,0,0-6-2.46c-6.73.05-21.45,0-25.45,0,0,1.71-.1,3.42,0,5.13,4.83,0,19.23,0,26.11,0a2.34,2.34,0,0,1,1.41.64c1.42,1.3,2.79,2.65,4.18,4,1.6,1.69,12.64,12.66,13.94,13.89a1.52,1.52,0,0,1,.44,1.91,8.22,8.22,0,0,0,7.9,11.09C150.78,97.27,156,92.44,154.32,86.36Zm-8.11,5.5c-1.72,0-3.43-1.55-3.17-3.28-.29-1.72,1.51-3.31,3.16-3.27a3.34,3.34,0,0,1,3.4,3.25A3.39,3.39,0,0,1,146.21,91.86Z"/>
  <path id="s2" class="cls-1" d="M115.24,46.92a7.43,7.43,0,0,0,5.63-2.32c2.61-2.67,5.3-5.26,7.9-7.94a2,2,0,0,1,2.11-.62A8.34,8.34,0,0,0,141,26.1a8.42,8.42,0,0,0-16-1.28,8.49,8.49,0,0,0,.62,7.53c-2.81,2.89-5.55,5.7-8.26,8.54a3.32,3.32,0,0,1-2.6,1c-6,0-37.55,0-43.93-.06a7.73,7.73,0,0,1-7.45-5.6,21.15,21.15,0,0,1-.47-2.62,2.44,2.44,0,0,0-2.48-2.17A2.3,2.3,0,0,0,58,33.63,13.89,13.89,0,0,0,58.26,37c1.18,5.63,6.94,10.09,12.37,10C75.6,46.83,109.22,46.91,115.24,46.92ZM132.7,24.61a3.48,3.48,0,0,1,3.42,3.28,3.41,3.41,0,0,1-3.36,3.3,3.35,3.35,0,0,1-3.33-3.31A3.39,3.39,0,0,1,132.7,24.61Z"/>
  <path id="s1" class="cls-1" d="M109.11,33.06a8.51,8.51,0,0,1-7.93-5.51L84,27.57h0a2.55,2.55,0,0,1-1.77-.73,2.51,2.51,0,0,1-.73-1.77,2.61,2.61,0,0,1,.73-1.82A2.55,2.55,0,0,1,84,22.48h0l16.88,0a8.45,8.45,0,1,1,8.19,10.55Zm-3.45-8.27v.07a3.45,3.45,0,1,0,0-.25A1.09,1.09,0,0,0,105.66,24.79Z"/>
  <path id="p8" class="cls-1" d="M47.61,57.86a15.3,15.3,0,0,1-15.21,15,2.39,2.39,0,0,1-2.54-2.31A2.35,2.35,0,0,1,32.1,68a11.44,11.44,0,0,0,6.55-2.4A9.59,9.59,0,0,0,42,55.3a9.86,9.86,0,0,0-8.17-7.19l-1.5-.21a2.41,2.41,0,0,1-2.44-2.67,2.47,2.47,0,0,1,2.71-2.29A14.82,14.82,0,0,1,46.44,52.8,45.3,45.3,0,0,1,47.61,57.86Z"/>
  <path id="p7" class="cls-1" d="M49.36,105.13c3.58,0,7.15,0,10.73,0,1.81,0,2.74.94,2.73,2.46A2.3,2.3,0,0,1,60.65,110c-1.43.11-2.87.12-4.3.12-5.56,0-11.11,0-16.67,0a7.48,7.48,0,0,0-7.71,7,4.74,4.74,0,0,1-.56,1.86,2.3,2.3,0,0,1-2.77.9,2.43,2.43,0,0,1-1.72-2.37A12.56,12.56,0,0,1,39,105.13c3.46,0,6.92,0,10.37,0Z"/>
  <path id="p6" class="cls-1" d="M62.68,128.27a12.44,12.44,0,0,1-11.9,12.2,2.59,2.59,0,0,1-2.89-2.27c-.13-1.65.8-2.62,2.68-2.8a7.14,7.14,0,0,0,6.59-4.92,7.15,7.15,0,0,0-6-9.36A11.39,11.39,0,0,1,50,121a2.42,2.42,0,0,1-2.09-2.64A2.36,2.36,0,0,1,50.35,116c5.34-.3,10.65,3.85,11.94,9.38C62.51,126.33,62.55,127.31,62.68,128.27Z"/>
  <path id="p5" class="cls-1" d="M86.3,69.26A11,11,0,0,1,75.77,80a2.55,2.55,0,0,1-2.9-2.36c-.1-1.46.91-2.51,2.6-2.7,2.89-.33,5-2.07,5.53-4.53a5.81,5.81,0,0,0-5.18-6.94,4.71,4.71,0,0,1-2.14-.73A2.24,2.24,0,0,1,73,60.14a2.37,2.37,0,0,1,2.42-1.64,10.63,10.63,0,0,1,10.19,7.26A27.08,27.08,0,0,1,86.3,69.26Z"/>
  <path id="p4" class="cls-1" d="M48.54,77.73c-1.77,0-2.56-.42-3-1.65a2.22,2.22,0,0,1,.84-2.77,5,5,0,0,1,2.3-.63,12.69,12.69,0,0,0,11.39-9.3,26.16,26.16,0,0,0,.46-3.33,2.61,2.61,0,0,1,2.06-2.36,2.39,2.39,0,0,1,2.74,1.46,5.84,5.84,0,0,1,.21,2.17A17.77,17.77,0,0,1,49.23,77.73Z"/>
  <path id="p3" class="cls-1" d="M33.35,92.21a44.5,44.5,0,0,1-6.67-.76A12.77,12.77,0,0,1,17.34,79.1a2.57,2.57,0,0,1,1.77-2.46,2.35,2.35,0,0,1,2.77,1,4,4,0,0,1,.52,1.87c.17,4.12,4.1,7.7,8,7.46a67.42,67.42,0,0,1,7.1.15,2.36,2.36,0,0,1,2.36,2.48A2.47,2.47,0,0,1,37.33,92c-1.31-.13-2.64,0-4,0Z"/>
  <path id="p2" class="cls-1" d="M49.77,33.26a2.49,2.49,0,0,1-2.54-2.71,10.81,10.81,0,0,1,10.71-9.91c1.86.05,3,1,3,2.55s-1.11,2.48-3,2.53a5.75,5.75,0,0,0-5.65,5C52,32.38,51.14,33.26,49.77,33.26Z"/>
  <path id="p1" class="cls-1" d="M75.22,110.1c-1.71,0-3.42,0-5.13,0a2.32,2.32,0,0,1-2.4-2.18c-.11-1.48.66-2.68,2.06-2.72,3.61-.09,7.22-.1,10.82,0a2.28,2.28,0,0,1,2.14,2.67,2.37,2.37,0,0,1-2.49,2.23C78.55,110.11,76.89,110.1,75.22,110.1Z"/>
  <path id="c3" class="cls-1" d="M146.25,114.7a8.26,8.26,0,0,1,8.14-8.42,8.37,8.37,0,1,1,.12,16.73A8.25,8.25,0,0,1,146.25,114.7Zm8.4-3.34a3.39,3.39,0,0,0-3.38,3.29,3.32,3.32,0,0,0,3.27,3.27,3.28,3.28,0,1,0,.11-6.56Z"/>
  <path id="c2" class="cls-1" d="M132.84,137.22A8.25,8.25,0,0,1,141,128.8a8.37,8.37,0,1,1,.11,16.73A8.25,8.25,0,0,1,132.84,137.22Zm8.4-3.34a3.41,3.41,0,0,0-3.39,3.29,3.33,3.33,0,0,0,3.28,3.27,3.28,3.28,0,1,0,.11-6.56Z"/>
  <path id="c1" class="cls-1" d="M142.07,55.37a8.28,8.28,0,0,1,8.14-8.43,8.37,8.37,0,1,1,.12,16.73A8.24,8.24,0,0,1,142.07,55.37Zm8.4-3.34a3.39,3.39,0,0,0-3.38,3.29,3.31,3.31,0,0,0,3.27,3.26,3.28,3.28,0,1,0,.11-6.55Z"/>
  <path class="cls-1" d="M90.93,86.92,68.59,87q-8.51,0-17,.06A2.39,2.39,0,0,0,49,89.44,2.23,2.23,0,0,0,51.4,92c.66,0,1.32,0,2,0H90.92v33.46c-1.43,0-2.79-.07-4.14,0-2.39.15-4.88,0-7.14.66A12.17,12.17,0,0,0,71,138a2.47,2.47,0,0,0,4.91.42c.09-.45.14-.92.2-1.38.35-3,2.92-6,5.88-6.31s6-.06,8.94-.06v17.66c-1.52,0-3-.06-4.39,0A2.53,2.53,0,0,0,83.91,151a2.45,2.45,0,0,0,2.75,2.37h2.78c-1.21,4-6.93,8.11-11.49,8.42-6.18.42-12.2-2.6-14.25-7.2a11,11,0,0,0,1.68-.75c2-1.34,4.11-2.62,6-4.12a2.31,2.31,0,0,0,.14-3.35A2.41,2.41,0,0,0,68.2,146c-.38.26-.72.59-1.09.88a15.31,15.31,0,0,1-13.41,3.35c-7.48-1.67-12.11-7.39-12.54-15.09a1.05,1.05,0,0,1,.67-1.15,43,43,0,0,0,4.53-2.83,2.5,2.5,0,1,0-3-4,17.93,17.93,0,0,1-11.66,3.62,2.3,2.3,0,0,0-2.48,2.13,2.34,2.34,0,0,0,2.07,2.75,18.39,18.39,0,0,0,3.71.07c.86-.05,1.16.18,1.23,1a20.78,20.78,0,0,0,21.05,18.86,1.46,1.46,0,0,1,1.56.83c5,9,14.4,12.34,24.14,9.24a19.16,19.16,0,0,0,13-17.63c0-2,.65-128.12.19-128.12-.09-1-.12-1.91-.24-2.79A19.61,19.61,0,0,0,73.54.17C67.05,1,62.18,4.55,58.94,10.23a1.86,1.86,0,0,1-1.87,1.12A20.76,20.76,0,0,0,36.38,28.79c-.16.85-.25,1.73-.35,2.48-2,.1-3.8.09-5.61.29A20.62,20.62,0,0,0,13.19,57.68a1.87,1.87,0,0,1-.88,2.49C3.22,66.55-.85,75.43.15,86.39.93,95,5.23,101.84,12.39,106.76a1.84,1.84,0,0,1,.91,2.43,20.3,20.3,0,0,0,3.06,18,9.62,9.62,0,0,0,1.72,1.88,2.34,2.34,0,0,0,3-.11,2.38,2.38,0,0,0,.57-3c-.34-.6-.79-1.15-1.19-1.72a15.34,15.34,0,0,1,1.43-20,35.25,35.25,0,0,1,4-3.17,2.48,2.48,0,0,0,.93-2.89c-.42-1.08-1.22-1.88-2.4-1.54A9.84,9.84,0,0,0,21,98.3c-1.8,1.45-3.42,3.12-5.18,4.76C9.52,98.75,5.56,92.84,5.1,84.87A22.7,22.7,0,0,1,20.29,61.79a41.8,41.8,0,0,1,7.84-1.51c1.59-.23,2.67-1.09,2.68-2.51a2.66,2.66,0,0,0-2.64-2.57,6.92,6.92,0,0,0-1.51,0c-2.78.47-5.56,1-8.44,1.48a4.16,4.16,0,0,1-.21-.6C16.5,49.5,18.33,44,23.62,39.72c4.17-3.35,9-4,14.09-2.73,2.34.57,3.57-.42,3.57-2.84a31.31,31.31,0,0,1,.11-4.65,15.75,15.75,0,0,1,29.2-5.2,19.51,19.51,0,0,1,2.22,8,2.4,2.4,0,0,0,2.58,2.29,2.47,2.47,0,0,0,2.32-2.68A19.73,19.73,0,0,0,70.43,16.4a61.93,61.93,0,0,0-6.62-4.28c2.78-5.2,9.68-8.39,16.33-6.57S91.3,13.74,90.88,19.91C90.88,19.91,90.93,73.26,90.93,86.92Z"/>
</svg>
