<?xml version="1.0" encoding="utf-8"?>
<!-- Generator: Adobe Illustrator 25.2.0, SVG Export Plug-In . SVG Version: 6.00 Build 0)  -->
<svg version="1.1" xmlns="http://www.w3.org/2000/svg" xmlns:xlink="http://www.w3.org/1999/xlink" x="0px" y="0px"
	 viewBox="0 0 360 229.6" style="enable-background:new 0 0 360 229.6;" xml:space="preserve">
<style type="text/css">
	.st0{fill:none;stroke:#848484;stroke-width:3;stroke-linecap:square;stroke-miterlimit:10;}
	.st1{fill:#848484;}
	.st2{fill-rule:evenodd;clip-rule:evenodd;fill:#FFD966;stroke:#FFC000;stroke-width:1.3333;stroke-miterlimit:8;}
	.st3{fill:#684F00;}
	.st4{font-family:'Arial-BoldMT';}
	.st5{font-size:15.3483px;}
	.st6{opacity:3.000000e-02;}
	
			#arrows {
			animation: appear_arrows 8s 0s ease infinite; 
		}
		
  		@keyframes appear_arrows {

			0%  {fill-opacity: 0%;}
			20% {fill-opacity: 0%;}
			28% {fill-opacity: 100%;}
			48% {fill-opacity: 100%;}
			58% {fill-opacity: 0%;}
			100% {fill-opacity: 0%;}
		}
		
		
		#b_x5F_tech1, #b_x5F_tech2  {
			animation: change_color 8s 0s ease infinite; 
		}
		
  		@keyframes change_color {

			0%  {fill: #FFD966;}
			28% {fill: #FFD966;}
			38% {fill: #f9ff00;}
			72% {fill: #f9ff00;}
			88% {fill: #FFD966;}
			100% {fill: #FFD966;}
		}
</style>
<g id="paths">
	<path id="mfid7_27_" class="st0" d="M293.5,25.5h-86.9"/>
	<path id="mfid7_26_" class="st0" d="M134.3,15.2l-56,46.4"/>
	<path id="mfid7_25_" class="st0" d="M134.3,15.2l42.4,94.6"/>
	<path id="mfid7_24_" class="st0" d="M304.2,92.7l-127.5,17.1"/>
	<path id="mfid7_23_" class="st0" d="M78.3,61.6l-4.2,68.7"/>
	<path id="mfid7_22_" class="st0" d="M119.8,187.6l-45.7-57.3"/>
	<path id="mfid7_21_" class="st0" d="M257.2,167.1l-58,47.3"/>
	<path id="mfid7_20_" class="st0" d="M78.3,61.6l98.4,48.2"/>
	<path id="mfid7_19_" class="st0" d="M119.8,187.6l56.9-77.8"/>
	<path id="mfid7_18_" class="st0" d="M119.8,187.6l184.4-94.9"/>
	<path id="mfid7_3_" class="st0" d="M176.7,109.8l22.5,104.6"/>
	<path id="mfid7_17_" class="st0" d="M176.7,109.8l29.9-84.3"/>
	<path id="mfid7_16_" class="st0" d="M206.6,25.5l97.5,67.2"/>
	<path id="mfid7_1_" class="st0" d="M293.5,25.5l10.7,67.2"/>
	<path id="mfid7_15_" class="st0" d="M304.2,92.7l-47,74.4"/>
	<path id="mfid7_5_" class="st0" d="M344.7,158.4l-40.6-65.7"/>
	<path id="mfid7_14_" class="st0" d="M15.2,86.6l63.1-25"/>
	<path id="mfid7_2_" class="st0" d="M119.8,187.6l79.4,26.8"/>
	<path id="mfid7_4_" class="st0" d="M15.2,86.6l58.9,43.7"/>
	<path id="mfid7_6_" class="st0" d="M344.7,158.4l-87.6,8.6"/>
</g>
<g id="arrows">
	<path class="st1" d="M215.2,103.3l-7.2-3.8c-1.2-0.6-3,0.2-2.8,1.3l1.6,10.7c0.2,1.1,2.1,1.4,3,0.5l5.8-5.7
		C216.6,105.3,216.4,103.9,215.2,103.3z"/>
	<path class="st1" d="M265.2,99.1l7.1,4c1.2,0.7,3-0.1,2.8-1.2l-1.3-10.7c-0.1-1.1-2-1.4-3-0.5l-6,5.6
		C263.8,97.1,264,98.4,265.2,99.1z"/>
	<path class="st1" d="M269.4,112.1l8,1.6c1.3,0.3,2.8-1,2.3-2.1l-4.5-9.8c-0.5-1-2.4-0.7-3,0.4l-4,7.1
		C267.5,110.6,268,111.9,269.4,112.1z"/>
	<path class="st1" d="M272,72.6l2.5,7.7c0.4,1.3,2.3,1.9,2.9,1l6.4-8.7c0.7-0.9-0.5-2.4-1.8-2.4l-8.2,0
		C272.3,70.2,271.5,71.3,272,72.6z"/>
	<path class="st1" d="M296.6,55.6l-3.7,7.2c-0.6,1.2,0.2,3,1.4,2.8l10.7-1.7c1.1-0.2,1.4-2.1,0.4-3l-5.8-5.7
		C298.6,54.1,297.3,54.3,296.6,55.6z"/>
	<path class="st1" d="M325.9,124.9l0.4-8.1c0.1-1.4-1.4-2.6-2.4-2l-9,6c-0.9,0.6-0.4,2.5,0.9,2.9l7.7,2.8
		C324.7,127,325.9,126.3,325.9,124.9z"/>
	<path class="st1" d="M284.2,127.3l7.6-2.8c1.3-0.5,1.8-2.4,0.9-3l-9-6c-0.9-0.6-2.4,0.6-2.4,2l0.4,8.2
		C281.8,127.1,282.9,127.8,284.2,127.3z"/>
	<path class="st1" d="M186.4,147.5l3.2-7.4c0.5-1.2-0.4-3-1.5-2.7l-10.5,2.4c-1.1,0.2-1.2,2.2-0.2,3.1l6.1,5.4
		C184.5,149.1,185.9,148.8,186.4,147.5z"/>
	<path class="st1" d="M154.8,141.8l7.7-2.5c1.3-0.4,1.9-2.3,1-2.9l-8.7-6.4c-0.9-0.7-2.4,0.5-2.4,1.8l0,8.2
		C152.4,141.5,153.5,142.3,154.8,141.8z"/>
	<path class="st1" d="M140.6,93.5l3.6,7.3c0.6,1.2,2.5,1.6,3,0.6l5-9.6c0.5-1-0.9-2.3-2.2-2.1l-8.1,1.2
		C140.6,91,140,92.2,140.6,93.5z"/>
	<path class="st1" d="M159.7,75.3l-2,7.9c-0.3,1.3,0.9,2.8,1.9,2.4l10-4c1-0.4,0.9-2.3-0.3-3.1l-6.9-4.3
		C161.3,73.4,160.1,73.9,159.7,75.3z"/>
	<path class="st1" d="M188.4,71.9l-6.6,4.7c-1.1,0.8-1.2,2.7-0.1,3.1l10.2,3.5c1.1,0.4,2.2-1.2,1.8-2.5l-2.4-7.8
		C190.8,71.5,189.6,71.1,188.4,71.9z"/>
</g>
<g id="techs">
	<circle class="st2" cx="134.3" cy="15.2" r="14.6"/>
	<circle class="st2" cx="206.6" cy="25.5" r="14.6"/>
	<circle class="st2" cx="293.5" cy="25.5" r="14.6"/>
	<circle id="b_x5F_tech2" class="st2" cx="304.2" cy="92.7" r="14.6"/>
	<circle class="st2" cx="344.7" cy="158.4" r="14.6"/>
	<circle class="st2" cx="257.2" cy="167.1" r="14.6"/>
	<circle class="st2" cx="199.2" cy="214.4" r="14.6"/>
	<circle class="st2" cx="119.8" cy="186.6" r="14.6"/>
	<circle id="b_x5F_tech1" class="st2" cx="176.7" cy="109.8" r="14.6"/>
	<circle class="st2" cx="78.3" cy="61.6" r="14.6"/>
	<circle class="st2" cx="15.2" cy="86.6" r="14.6"/>
	<circle class="st2" cx="74.1" cy="130.3" r="14.6"/>
</g>
<g id="tech_x5F_labels">
	<text transform="matrix(1 0 0 1 71.9007 67.0113)" class="st3 st4 st5">T</text>
	<text transform="matrix(0.583 0 0 0.583 81.2757 68.8336)" class="st3 st4 st5">2</text>
	<text transform="matrix(1 0 0 1 10.1315 92.0392)" class="st3 st4 st5">T</text>
	<text transform="matrix(0.583 0 0 0.583 19.5065 93.8615)" class="st3 st4 st5">3</text>
	<text transform="matrix(1 0 0 1 67.773 135.3927)" class="st3 st4 st5">T</text>
	<text transform="matrix(0.583 0 0 0.583 77.148 137.215)" class="st3 st4 st5">4</text>
	<text transform="matrix(1 0 0 1 113.8583 192.8198)" class="st3 st4 st5">T</text>
	<text transform="matrix(0.583 0 0 0.583 123.2333 194.6421)" class="st3 st4 st5">5</text>
	<text transform="matrix(1 0 0 1 170.5021 114.7595)" class="st3 st4 st5">T</text>
	<text transform="matrix(0.583 0 0 0.583 179.8771 116.5817)" class="st3 st4 st5">6</text>
	<text transform="matrix(1 0 0 1 200.1109 30.8794)" class="st3 st4 st5">T</text>
	<text transform="matrix(0.583 0 0 0.583 209.4859 32.7017)" class="st3 st4 st5">7</text>
	<text transform="matrix(1 0 0 1 287.6137 29.773)" class="st3 st4 st5">T</text>
	<text transform="matrix(0.583 0 0 0.583 296.9887 31.5953)" class="st3 st4 st5">8</text>
	<text transform="matrix(1 0 0 1 297.8689 97.6028)" class="st3 st4 st5">T</text>
	<text transform="matrix(0.583 0 0 0.583 307.2439 99.4251)" class="st3 st4 st5">9</text>
	<text transform="matrix(1 0 0 1 336.4193 162.9991)" class="st3 st4 st5">T</text>
	<text transform="matrix(0.583 0 0 0.583 345.7943 164.8213)" class="st3 st4 st5">10</text>
	<text transform="matrix(1 0 0 1 248.0645 172.0581)" class="st3 st4 st5">T</text>
	<text transform="matrix(0.583 0 0 0.583 257.4395 173.8803)" class="st3 st4 st5">11</text>
	<text transform="matrix(1 0 0 1 190.9921 219.238)" class="st3 st4 st5">T</text>
	<text transform="matrix(0.583 0 0 0.583 200.3671 221.0603)" class="st3 st4 st5">12</text>
	<text transform="matrix(1 0 0 1 128.4116 20.5509)" class="st3 st4 st5">T</text>
	<text transform="matrix(0.583 0 0 0.583 137.7866 22.3732)" class="st3 st4 st5">1</text>
</g>
<g id="copyright">
	<g id="Layer_2_2_" class="st6">
		<g>
			<path d="M124.2,153.4l1.3-0.8c0.7,1.1,0.9,2.2,0.8,3.2c-0.1,1-0.6,2-1.4,2.8c-0.9,0.9-1.8,1.4-2.7,1.6s-1.8,0.1-2.8-0.3
				s-1.8-1-2.6-1.7c-0.8-0.8-1.4-1.7-1.7-2.7c-0.3-0.9-0.3-1.9-0.1-2.8c0.3-0.9,0.8-1.7,1.5-2.5c0.8-0.8,1.7-1.3,2.7-1.4
				s1.9,0.1,2.9,0.6l-0.8,1.3c-0.8-0.4-1.5-0.6-2.1-0.5s-1.2,0.4-1.8,0.9c-0.6,0.6-1,1.3-1.1,2s0,1.4,0.3,2.1s0.8,1.3,1.3,1.8
				c0.7,0.7,1.4,1.2,2.1,1.5c0.7,0.3,1.4,0.4,2.1,0.2c0.7-0.2,1.3-0.5,1.8-1c0.6-0.6,0.9-1.3,1-2C125,155,124.7,154.2,124.2,153.4z"
				/>
			<path d="M126,151.4c-1.1-1.1-1.6-2.2-1.5-3.3c0.1-0.9,0.5-1.8,1.2-2.5c0.8-0.8,1.7-1.2,2.8-1.2c1,0,2,0.5,3,1.4
				c0.8,0.8,1.2,1.5,1.4,2.1s0.2,1.3,0,2s-0.5,1.3-1.1,1.8c-0.8,0.8-1.7,1.2-2.8,1.2C128,152.9,127,152.4,126,151.4z M127,150.4
				c0.8,0.8,1.5,1.2,2.2,1.2s1.3-0.2,1.8-0.7s0.7-1.1,0.7-1.8s-0.5-1.4-1.2-2.2c-0.7-0.7-1.4-1.1-2.1-1.2c-0.7,0-1.3,0.2-1.8,0.7
				s-0.7,1.1-0.7,1.8C125.9,148.9,126.3,149.6,127,150.4z"/>
			<path d="M137.8,149.9l-8.1-8.1l0.9-0.9l0.8,0.8c-0.1-0.5-0.1-1,0.1-1.4c0.1-0.4,0.4-0.8,0.8-1.2c0.5-0.5,1.1-0.8,1.7-0.9
				s1.3,0,2,0.2c0.7,0.3,1.3,0.7,1.8,1.3c0.6,0.6,1,1.2,1.3,1.9c0.3,0.7,0.3,1.4,0.2,2c-0.2,0.7-0.5,1.2-0.9,1.7
				c-0.3,0.3-0.7,0.6-1.1,0.7c-0.4,0.1-0.8,0.2-1.2,0.1l2.9,2.9L137.8,149.9z M133.6,143.9c0.8,0.8,1.5,1.2,2.1,1.2
				c0.7,0.1,1.2-0.1,1.7-0.6c0.4-0.4,0.6-1,0.6-1.7s-0.5-1.4-1.3-2.2c-0.7-0.7-1.5-1.2-2.1-1.2c-0.7-0.1-1.2,0.1-1.7,0.5
				c-0.4,0.4-0.6,1-0.5,1.7C132.4,142.4,132.8,143.1,133.6,143.9z"/>
			<path d="M144.1,143.7l-1-0.8c0.3-0.2,0.5-0.3,0.7-0.5s0.4-0.4,0.4-0.6c0.1-0.2,0.1-0.4,0-0.6c0-0.2-0.2-0.5-0.4-1
				c0-0.1-0.1-0.2-0.2-0.3l-8.1-3.7l1.1-1.1l4.6,2.2c0.6,0.3,1.2,0.6,1.8,0.9c-0.3-0.6-0.7-1.2-0.9-1.7l-2.2-4.7l1-1l3.7,8.2
				c0.4,0.9,0.7,1.5,0.8,1.9c0.2,0.5,0.2,0.9,0.1,1.3c-0.1,0.4-0.3,0.7-0.6,1C144.7,143.4,144.4,143.5,144.1,143.7z"/>
			<path d="M147.5,135.7l-5.9-5.9l0.9-0.9l0.9,0.9c-0.2-0.6-0.3-1.1-0.2-1.5s0.2-0.6,0.4-0.8c0.3-0.3,0.8-0.6,1.3-0.7l0.6,1.3
				c-0.4,0.1-0.7,0.3-0.9,0.5s-0.3,0.5-0.4,0.8c0,0.3,0,0.6,0.2,0.9c0.2,0.5,0.6,0.9,1,1.3l3.1,3.1L147.5,135.7z"/>
			<path d="M144.4,125l-1.1-1.1l1-1l1.1,1.1L144.4,125z M151.3,132l-5.9-5.9l1-1l5.9,5.9L151.3,132z"/>
			<path d="M154.1,130.1l1.1-0.8c0.3,0.3,0.7,0.4,1,0.3c0.4-0.1,0.9-0.3,1.3-0.7c0.5-0.5,0.7-0.9,0.8-1.3s0-0.9-0.3-1.3
				c-0.2-0.3-0.6-0.7-1.2-1.3c0.1,0.9-0.2,1.7-0.9,2.4c-0.8,0.8-1.7,1.1-2.7,1s-1.9-0.6-2.8-1.4c-0.6-0.6-1-1.2-1.2-1.9
				c-0.3-0.7-0.3-1.3-0.2-2s0.5-1.2,1-1.7c0.7-0.7,1.5-1,2.6-0.9l-0.7-0.7l0.9-0.9l5.1,5.1c0.9,0.9,1.5,1.7,1.7,2.2
				c0.2,0.6,0.2,1.2,0,1.8s-0.6,1.2-1.2,1.8c-0.7,0.7-1.4,1.1-2.2,1.2C155.4,131,154.7,130.8,154.1,130.1z M151.4,125.8
				c0.8,0.8,1.5,1.2,2.1,1.2c0.7,0,1.2-0.2,1.7-0.6c0.5-0.5,0.7-1,0.6-1.7c0-0.7-0.4-1.4-1.2-2.1c-0.7-0.7-1.4-1.1-2.1-1.1
				c-0.7,0-1.2,0.2-1.7,0.6c-0.4,0.4-0.6,1-0.6,1.7C150.3,124.4,150.7,125.1,151.4,125.8z"/>
			<path d="M160.1,123.2l-8.1-8.1l1-1l2.9,2.9c-0.1-1,0.2-1.9,1-2.6c0.4-0.4,0.9-0.7,1.4-0.9s1-0.1,1.4,0c0.4,0.2,0.9,0.5,1.5,1.1
				l3.7,3.7l-1,1l-3.7-3.7c-0.5-0.5-1-0.8-1.4-0.8s-0.9,0.2-1.3,0.6c-0.3,0.3-0.5,0.6-0.6,1.1c-0.1,0.4-0.1,0.8,0.1,1.2
				c0.2,0.4,0.5,0.8,0.9,1.2l3.2,3.2L160.1,123.2z"/>
			<path d="M167.7,113.8l1,0.7c-0.2,0.3-0.4,0.6-0.7,0.8c-0.4,0.4-0.7,0.6-1,0.7s-0.6,0.1-0.9,0c-0.3-0.1-0.7-0.5-1.3-1.1l-3.4-3.4
				l-0.7,0.7l-0.8-0.8l0.7-0.7l-1.5-1.5l0.4-1.6l2,2l1-1l0.8,0.8l-1,1l3.4,3.4c0.3,0.3,0.5,0.4,0.6,0.5c0.1,0,0.2,0.1,0.4,0
				c0.1,0,0.3-0.1,0.4-0.3C167.4,114.2,167.5,114,167.7,113.8z"/>
			<path d="M167.9,98.9c0.7-0.7,1.6-1.2,2.6-1.5s2.1-0.3,3.1,0s1.9,0.8,2.6,1.5c0.7,0.7,1.2,1.6,1.5,2.6s0.3,2.1,0,3.1
				s-0.8,1.9-1.5,2.6s-1.6,1.2-2.6,1.5s-2.1,0.3-3.1,0s-1.9-0.8-2.6-1.5c-0.7-0.7-1.2-1.6-1.5-2.7c-0.3-1-0.3-2.1,0-3.1
				S167.2,99.6,167.9,98.9z M168.6,99.6c-0.6,0.6-1,1.3-1.3,2.2c-0.3,0.9-0.3,1.7,0,2.6s0.7,1.6,1.3,2.2s1.3,1,2.2,1.3
				c0.9,0.2,1.7,0.2,2.6,0s1.6-0.7,2.2-1.3s1-1.3,1.3-2.2s0.2-1.7,0-2.6s-0.7-1.6-1.3-2.2s-1.3-1-2.2-1.3c-0.9-0.2-1.7-0.2-2.6,0
				C169.9,98.6,169.2,99,168.6,99.6z M174.1,102.4l0.9-0.5c0.3,0.6,0.5,1.2,0.4,1.8c-0.1,0.6-0.4,1.2-0.9,1.7c-0.6,0.6-1.4,1-2.2,1
				s-1.6-0.4-2.4-1.1c-0.5-0.5-0.8-1-1-1.5s-0.2-1.1,0-1.6s0.5-1,0.9-1.4c0.5-0.5,1-0.8,1.6-0.9s1.1,0,1.6,0.3l-0.5,0.8
				c-0.4-0.2-0.8-0.2-1.1-0.1c-0.4,0.1-0.7,0.2-1,0.5c-0.4,0.4-0.6,0.9-0.6,1.5s0.3,1.1,0.9,1.7s1.1,0.9,1.7,0.9
				c0.5,0,1-0.2,1.4-0.6c0.3-0.3,0.5-0.7,0.6-1.2C174.4,103.2,174.3,102.8,174.1,102.4z"/>
			<path d="M181.3,96.7l0.9-1.1c0.5,0.4,0.9,0.6,1.3,0.7c0.4,0.1,0.9,0,1.4-0.2s1-0.5,1.5-1c0.4-0.4,0.7-0.8,0.9-1.3
				c0.2-0.4,0.3-0.8,0.2-1.2c-0.1-0.4-0.2-0.7-0.5-0.9c-0.3-0.3-0.5-0.4-0.9-0.4c-0.3,0-0.7,0-1.2,0.3c-0.3,0.1-0.9,0.5-1.8,1
				c-0.9,0.6-1.6,0.9-2.1,1.1c-0.6,0.2-1.1,0.2-1.6,0.1s-0.9-0.4-1.3-0.7c-0.4-0.4-0.7-0.9-0.8-1.5s-0.1-1.2,0.2-1.8
				c0.3-0.6,0.7-1.2,1.2-1.8c0.6-0.6,1.2-1,1.9-1.3s1.3-0.3,1.9-0.2c0.6,0.1,1.2,0.4,1.7,0.9l-1,1.1c-0.6-0.5-1.1-0.7-1.7-0.6
				c-0.6,0.1-1.2,0.4-1.8,1s-1,1.2-1.1,1.8c-0.1,0.5,0.1,1,0.4,1.3c0.3,0.3,0.6,0.4,1,0.4s1.1-0.4,2.2-1c1.1-0.7,1.8-1.1,2.3-1.3
				c0.7-0.3,1.3-0.3,1.9-0.2s1.1,0.4,1.5,0.8s0.7,1,0.8,1.6s0.1,1.3-0.2,2s-0.7,1.3-1.2,1.9c-0.7,0.7-1.5,1.2-2.2,1.5
				s-1.4,0.3-2.1,0.2C182.5,97.6,181.9,97.3,181.3,96.7z"/>
			<path d="M194.8,87c-0.1,0.7-0.2,1.3-0.4,1.7c-0.2,0.5-0.5,0.9-0.9,1.3c-0.6,0.6-1.3,1-2,1s-1.2-0.2-1.7-0.7
				c-0.3-0.3-0.5-0.6-0.6-1s-0.1-0.7-0.1-1.1c0.1-0.4,0.2-0.7,0.4-1c0.1-0.2,0.4-0.6,0.7-1c0.7-0.9,1.2-1.6,1.4-2.1
				c-0.1-0.1-0.2-0.2-0.3-0.3c-0.4-0.4-0.8-0.6-1.1-0.6c-0.5,0-1,0.3-1.5,0.8s-0.7,0.9-0.8,1.3s0.1,0.8,0.4,1.4l-1.1,0.8
				c-0.3-0.5-0.5-1-0.6-1.4c-0.1-0.5,0-0.9,0.3-1.5c0.2-0.5,0.6-1,1.1-1.5s1-0.8,1.4-1s0.8-0.3,1.1-0.2c0.3,0,0.7,0.2,1,0.4
				c0.2,0.1,0.5,0.4,1,0.9l1.3,1.3c0.9,0.9,1.5,1.5,1.8,1.7s0.6,0.4,1,0.5l-1,1C195.4,87.4,195.1,87.3,194.8,87z M192.5,84.9
				c-0.2,0.5-0.6,1.2-1.2,2c-0.3,0.5-0.6,0.8-0.7,1.1c-0.1,0.2-0.1,0.5-0.1,0.7s0.2,0.4,0.3,0.6c0.3,0.3,0.6,0.4,1,0.4
				s0.8-0.2,1.1-0.6c0.4-0.4,0.6-0.8,0.8-1.3c0.1-0.5,0.1-0.9,0-1.3c-0.1-0.3-0.4-0.7-0.8-1.2L192.5,84.9z"/>
			<path d="M195.9,83.9l0.8-1.1c0.4,0.3,0.9,0.5,1.4,0.4c0.5,0,0.9-0.3,1.4-0.7c0.5-0.5,0.7-0.9,0.7-1.3s-0.1-0.7-0.3-1
				c-0.2-0.2-0.5-0.3-0.8-0.2c-0.2,0-0.7,0.3-1.4,0.7c-0.9,0.5-1.6,0.9-2,1s-0.8,0.2-1.2,0.1s-0.7-0.3-1-0.6
				c-0.3-0.3-0.4-0.6-0.5-0.9s-0.1-0.7-0.1-1s0.2-0.6,0.3-0.9c0.2-0.3,0.4-0.7,0.7-1c0.5-0.5,0.9-0.8,1.4-1s0.9-0.3,1.3-0.2
				s0.8,0.2,1.3,0.6l-0.8,1.1c-0.3-0.3-0.7-0.4-1.1-0.3c-0.4,0-0.8,0.3-1.2,0.6c-0.5,0.5-0.7,0.9-0.8,1.2c0,0.3,0,0.6,0.2,0.8
				c0.1,0.1,0.3,0.2,0.5,0.2s0.4,0,0.6-0.1c0.1-0.1,0.5-0.3,1.1-0.6c0.9-0.5,1.5-0.9,1.9-1c0.4-0.2,0.8-0.2,1.2-0.1s0.8,0.3,1.1,0.6
				c0.3,0.3,0.5,0.7,0.6,1.2s0,1-0.2,1.5s-0.5,1-1,1.5c-0.8,0.8-1.5,1.2-2.2,1.3C197.3,84.6,196.6,84.4,195.9,83.9z"/>
			<path d="M206.8,75.1c-0.1,0.7-0.2,1.3-0.4,1.7s-0.5,0.9-0.9,1.3c-0.6,0.6-1.3,1-2,1s-1.2-0.2-1.7-0.7c-0.3-0.3-0.5-0.6-0.6-1
				s-0.1-0.7-0.1-1.1c0.1-0.4,0.2-0.7,0.4-1c0.1-0.2,0.4-0.6,0.7-1c0.7-0.9,1.2-1.6,1.4-2.1c-0.1-0.1-0.2-0.2-0.3-0.3
				c-0.4-0.4-0.8-0.6-1.1-0.6c-0.5,0-1,0.3-1.5,0.8s-0.7,0.9-0.8,1.3c-0.1,0.4,0.1,0.8,0.4,1.4l-1.1,0.8c-0.3-0.5-0.5-1-0.6-1.4
				c-0.1-0.5,0-0.9,0.3-1.5c0.2-0.5,0.6-1,1.1-1.5s1-0.8,1.4-1s0.8-0.3,1.1-0.2c0.3,0,0.7,0.2,1,0.4c0.2,0.1,0.5,0.4,1,0.9l1.3,1.3
				c0.9,0.9,1.5,1.5,1.8,1.7s0.6,0.4,1,0.5l-1,1C207.4,75.5,207.1,75.3,206.8,75.1z M204.5,72.9c-0.2,0.5-0.6,1.2-1.2,2
				c-0.3,0.5-0.6,0.8-0.7,1.1c-0.1,0.2-0.1,0.5-0.1,0.7s0.2,0.4,0.3,0.6c0.3,0.3,0.6,0.4,1,0.4s0.8-0.2,1.1-0.6
				c0.4-0.4,0.6-0.8,0.8-1.3c0.1-0.5,0.1-0.9,0-1.3c-0.1-0.3-0.4-0.7-0.8-1.2L204.5,72.9z"/>
			<path d="M210,73.3l-5.9-5.9l0.9-0.9l0.8,0.8c-0.2-1.1,0.1-2,0.9-2.8c0.4-0.4,0.7-0.6,1.2-0.8c0.4-0.2,0.8-0.2,1.2-0.2
				c0.4,0.1,0.7,0.2,1,0.4c0.2,0.1,0.6,0.5,1,0.9l3.6,3.6l-1,1l-3.6-3.6c-0.4-0.4-0.7-0.7-1-0.8s-0.6-0.1-0.9-0.1
				c-0.3,0.1-0.6,0.2-0.9,0.5c-0.4,0.4-0.7,0.9-0.7,1.5s0.3,1.2,1.1,2l3.2,3.2L210,73.3z"/>
			<path d="M218.6,64.6l-5-11.2l1.2-1.2l11.4,4.8l-1.2,1.2l-3.4-1.5l-3.4,3.4l1.6,3.3L218.6,64.6z M217.6,59l2.7-2.7l-3.1-1.4
				c-0.9-0.4-1.7-0.8-2.3-1.1c0.4,0.6,0.8,1.3,1.1,2L217.6,59z"/>
			<path d="M226.4,56.9l-0.8-0.8l-0.6-8c-0.4,0.4-0.8,0.8-1.1,1.2l-2.4,2.4l-0.8-0.8l4.8-4.8l0.7,0.7l0.5,6.9l0.1,1.3
				c0.4-0.5,0.8-0.9,1.2-1.3l2.7-2.7l0.9,0.9L226.4,56.9z"/>
			<path d="M225.6,43.7l-1.1-1.1l1-1l1.1,1.1L225.6,43.7z M232.6,50.7l-5.9-5.9l1-1l5.9,5.9L232.6,50.7z"/>
			<path d="M235.1,48.2l-5.9-5.9l0.9-0.9l0.8,0.8c-0.1-0.5-0.1-0.9,0-1.4s0.4-0.9,0.8-1.3c0.4-0.4,0.9-0.7,1.3-0.8
				c0.5-0.1,0.9,0,1.3,0.2c-0.2-1.2,0-2.1,0.8-2.8c0.6-0.6,1.2-0.9,1.8-0.9s1.3,0.3,2,1l4,4l-1,1l-3.7-3.7c-0.4-0.4-0.7-0.7-1-0.8
				s-0.5-0.1-0.8-0.1c-0.3,0.1-0.5,0.2-0.8,0.4c-0.4,0.4-0.6,0.9-0.6,1.4s0.3,1.1,0.9,1.7l3.4,3.4l-1,1l-3.8-3.8
				c-0.4-0.4-0.9-0.7-1.2-0.8s-0.8,0.1-1.1,0.5c-0.3,0.3-0.5,0.6-0.6,1s0,0.8,0.1,1.2s0.5,0.9,1.1,1.4l3,3L235.1,48.2z"/>
			<path d="M237.6,31.8l-1.1-1.1l1-1l1.1,1.1L237.6,31.8z M244.5,38.7l-5.9-5.9l1-1l5.9,5.9L244.5,38.7z"/>
			<path d="M167,148.8l-7.1-7.1l-2.7,2.7l-1-1l6.4-6.4l1,1l-2.7,2.7l7.1,7.1L167,148.8z"/>
			<path d="M173.9,138.2l1.2-0.9c0.4,0.8,0.6,1.5,0.5,2.3s-0.5,1.5-1.2,2.2c-0.9,0.9-1.8,1.3-2.8,1.2c-1,0-2-0.5-3-1.5
				s-1.5-2-1.5-3.1s0.3-2,1.2-2.8c0.8-0.8,1.7-1.2,2.7-1.1s2,0.5,3,1.5c0.1,0.1,0.1,0.1,0.3,0.3l-4.4,4.4c0.7,0.6,1.4,0.9,2,0.9
				c0.7,0,1.2-0.2,1.7-0.7c0.4-0.4,0.6-0.8,0.6-1.2C174.2,139.2,174.1,138.7,173.9,138.2z M169,139.8l3.3-3.3
				c-0.5-0.5-1-0.7-1.5-0.7c-0.7-0.1-1.3,0.2-1.8,0.7s-0.7,1-0.7,1.6S168.5,139.3,169,139.8z"/>
			<path d="M179.7,131.8l1.1-0.9c0.6,0.8,0.8,1.6,0.8,2.4c-0.1,0.8-0.4,1.6-1.1,2.2c-0.8,0.8-1.7,1.2-2.7,1.1c-1,0-2-0.5-3-1.5
				c-0.6-0.6-1.1-1.3-1.3-2s-0.3-1.4-0.1-2c0.2-0.7,0.5-1.3,1-1.8c0.6-0.6,1.3-1,2-1.1s1.4,0.1,2.2,0.6l-0.8,1.1
				c-0.5-0.3-0.9-0.4-1.4-0.4c-0.4,0-0.8,0.2-1.1,0.5c-0.5,0.5-0.7,1.1-0.7,1.8s0.5,1.4,1.2,2.2c0.8,0.8,1.5,1.2,2.2,1.3
				c0.7,0.1,1.2-0.2,1.7-0.6c0.4-0.4,0.6-0.8,0.6-1.3C180.3,132.9,180.1,132.4,179.7,131.8z"/>
			<path d="M183.7,132.1l-8.1-8.1l1-1l2.9,2.9c-0.1-1,0.2-1.9,1-2.6c0.4-0.4,0.9-0.7,1.4-0.9c0.5-0.1,1-0.1,1.4,0
				c0.4,0.2,0.9,0.5,1.5,1.1l3.7,3.7l-1,1l-3.7-3.7c-0.5-0.5-1-0.8-1.4-0.8s-0.9,0.2-1.3,0.6c-0.3,0.3-0.5,0.6-0.6,1.1
				s-0.1,0.8,0.1,1.2c0.2,0.4,0.5,0.8,0.9,1.2l3.2,3.2L183.7,132.1z"/>
			<path d="M190,125.8l-5.9-5.9l0.9-0.9l0.8,0.8c-0.1-0.5-0.1-0.9,0-1.4s0.4-0.9,0.8-1.3c0.4-0.4,0.9-0.7,1.3-0.8s0.9,0,1.3,0.2
				c-0.2-1.1,0-2.1,0.8-2.8c0.6-0.6,1.2-0.9,1.8-0.9s1.3,0.3,2,1l4,4l-1,1l-3.7-3.7c-0.4-0.4-0.7-0.7-1-0.8
				c-0.2-0.1-0.5-0.1-0.8-0.1c-0.3,0.1-0.5,0.2-0.8,0.4c-0.4,0.4-0.6,0.9-0.6,1.4s0.3,1.1,0.9,1.7l3.4,3.4l-1,1l-3.6-3.6
				c-0.4-0.4-0.9-0.7-1.2-0.8c-0.4-0.1-0.8,0.1-1.1,0.5c-0.3,0.3-0.5,0.6-0.6,1s0,0.8,0.1,1.2s0.5,0.9,1.1,1.4l3,3L190,125.8z"/>
			<path d="M192.4,109.4l-1.1-1.1l1-1l1.1,1.1L192.4,109.4z M199.4,116.4l-5.9-5.9l1-1l5.9,5.9L199.4,116.4z"/>
			<path d="M201.9,113.9L196,108l0.9-0.9l0.8,0.8c-0.2-1.1,0.1-2,0.9-2.8c0.4-0.4,0.7-0.6,1.2-0.8c0.4-0.2,0.8-0.2,1.2-0.2
				c0.4,0.1,0.7,0.2,1,0.4c0.2,0.1,0.6,0.5,1,0.9l3.6,3.6l-1,1l-3.6-3.6c-0.4-0.4-0.7-0.7-1-0.8c-0.3-0.1-0.6-0.1-0.9-0.1
				c-0.3,0.1-0.6,0.2-0.9,0.5c-0.4,0.4-0.7,0.9-0.7,1.5s0.3,1.2,1.1,2l3.2,3.2L201.9,113.9z"/>
			<path d="M201.3,100.6l-1.1-1.1l1-1l1.1,1.1L201.3,100.6z M208.2,107.6l-5.9-5.9l1-1l5.9,5.9L208.2,107.6z"/>
			<path d="M210.7,105.1l-5.9-5.9l0.9-0.9l0.8,0.8c-0.2-1.1,0.1-2,0.9-2.8c0.4-0.4,0.7-0.6,1.2-0.8c0.4-0.2,0.8-0.2,1.2-0.2
				c0.4,0.1,0.7,0.2,1,0.4c0.2,0.1,0.6,0.5,1,0.9l3.6,3.6l-1,1l-3.6-3.6c-0.4-0.4-0.7-0.7-1-0.8c-0.3-0.1-0.6-0.1-0.9-0.1
				s-0.6,0.2-0.9,0.5c-0.4,0.4-0.7,0.9-0.7,1.5s0.3,1.2,1.1,2l3.2,3.2L210.7,105.1z"/>
			<path d="M217.3,99.5l1.1-0.8c0.3,0.3,0.7,0.4,1,0.3c0.4-0.1,0.9-0.3,1.3-0.7c0.5-0.5,0.7-0.9,0.8-1.3s0-0.9-0.3-1.3
				c-0.2-0.3-0.6-0.7-1.2-1.3c0.1,0.9-0.2,1.7-0.9,2.4c-0.8,0.8-1.7,1.1-2.7,1s-1.9-0.6-2.8-1.4c-0.6-0.6-1-1.2-1.2-1.9
				c-0.3-0.7-0.3-1.3-0.2-2s0.4-1.2,1-1.7c0.7-0.7,1.5-1,2.6-0.9l-0.7-0.7l0.9-0.9l5.1,5.1c0.9,0.9,1.5,1.7,1.7,2.2
				c0.2,0.6,0.2,1.2,0,1.8c-0.2,0.6-0.6,1.2-1.2,1.8c-0.7,0.7-1.4,1.1-2.2,1.2C218.6,100.4,217.9,100.1,217.3,99.5z M214.6,95.1
				c0.8,0.8,1.5,1.2,2.1,1.2c0.7,0,1.2-0.2,1.7-0.6c0.5-0.5,0.7-1,0.6-1.7c0-0.7-0.4-1.4-1.2-2.1c-0.7-0.7-1.4-1.1-2.1-1.1
				s-1.2,0.2-1.7,0.6c-0.4,0.4-0.6,1-0.6,1.7C213.5,93.7,213.9,94.4,214.6,95.1z"/>
			<path d="M223.6,92.2l-1.1-1.1l1.1-1.1l1.1,1.1L223.6,92.2z"/>
			<path d="M219.5,82.4l-1.1-1.1l1-1l1.1,1.1L219.5,82.4z M226.5,89.3l-5.9-5.8l1-1l5.9,5.9L226.5,89.3z"/>
			<path d="M228.9,86.8l-5.9-5.9l0.9-0.9l0.9,0.9c-0.2-0.6-0.3-1.1-0.2-1.5s0.2-0.6,0.4-0.8c0.3-0.3,0.8-0.6,1.3-0.7l0.6,1.3
				c-0.4,0.1-0.7,0.3-0.9,0.5s-0.3,0.5-0.4,0.8c0,0.3,0,0.6,0.2,0.9c0.2,0.5,0.6,0.9,1,1.3l3.1,3.1L228.9,86.8z"/>
		</g>
	</g>
</g>
</svg>
