<svg xmlns="http://www.w3.org/2000/svg" viewBox="0 0 530.15 357.52">
  <defs>
    <style>
      .cls-1 {
        fill: none;
      }

      .cls-2 {
        fill: #bcbcbb;
      }
    </style>
  </defs>
  <title>Asset 1</title>
  <g id="Layer_2" data-name="Layer 2">
    <g id="Layer_1-2" data-name="Layer 1">
      <g>
        <path class="cls-1" d="M377.2,251.52A26.21,26.21,0,0,0,391.78,275l1.38.59,0,0a26.23,26.23,0,0,0,34.79-14.84l.15-.38a26.22,26.22,0,0,0-38-31.49l-.92.57A26.18,26.18,0,0,0,377.2,251.52Zm26.22-8.78a8.78,8.78,0,1,1-8.78,8.78A8.78,8.78,0,0,1,403.42,242.74Z"/>
        <path class="cls-1" d="M231.66,121.14,232,121l29.75,62.73a26.57,26.57,0,0,1,31,42.74l.83-.74,66.3,74.94-1.14,1a22.22,22.22,0,0,1,22-4.39L389,277.74a29.92,29.92,0,0,1-2.1-51.17l-43.38-69.84a15.62,15.62,0,0,1-16.76-1.68l-32.39,33.66-2.16-2.08L324.59,153a15.56,15.56,0,0,1-3.22-14.49l-77.76-30A25.5,25.5,0,0,1,231.66,121.14Z"/>
        <path class="cls-1" d="M479.84,289.39a23.49,23.49,0,1,0,15.42-22.07l-1.37.59v0A23.49,23.49,0,0,0,479.84,289.39Zm23.5-11.06a11.06,11.06,0,1,1-11.06,11.06A11.06,11.06,0,0,1,503.34,278.33Z"/>
        <path class="cls-1" d="M433.34,251.52a29.72,29.72,0,0,1-1.45,9.19l46.94,17.79a27,27,0,0,1,13.73-13.67l-35.78-83.12a14.38,14.38,0,0,1-4.27.64,14.22,14.22,0,0,1-5.95-1.3l-26.71,45.47A29.89,29.89,0,0,1,433.34,251.52Z"/>
        <path class="cls-1" d="M274.87,183.53a23.29,23.29,0,1,0,23.28,23.29A23.28,23.28,0,0,0,274.87,183.53Zm0,32a8.76,8.76,0,1,1,8.75-8.75A8.75,8.75,0,0,1,274.87,215.57Z"/>
        <circle class="cls-1" cx="220.27" cy="98.44" r="10.37" transform="translate(-16.73 53.24) rotate(-13.28)"/>
        <path class="cls-1" d="M220.27,120.7A22.26,22.26,0,1,0,198,98.44,22.25,22.25,0,0,0,220.27,120.7Zm0-34.09a11.84,11.84,0,1,1-11.84,11.83A11.83,11.83,0,0,1,220.27,86.61Z"/>
        <circle class="cls-1" cx="265.77" cy="79.11" r="7.1" transform="translate(21.91 211.1) rotate(-45)"/>
        <path class="cls-1" d="M191.1,262.58a23.48,23.48,0,0,0-6.95,1L183,264a23.5,23.5,0,0,0-8.72,38.51l1.13,1,0,.06a23.49,23.49,0,0,0,38.85-13.46l.08-.45a24.55,24.55,0,0,0,.26-3.56A23.49,23.49,0,0,0,191.1,262.58Zm0,34.54a11.06,11.06,0,1,1,11.05-11.05A11,11,0,0,1,191.1,297.12Z"/>
        <path class="cls-1" d="M354,318.29a19.38,19.38,0,0,0,2.83,10.07l.06,0,.68,1.19A19.45,19.45,0,1,0,354,318.29Zm30.52,0a11.06,11.06,0,1,1-11.06-11.06A11.06,11.06,0,0,1,384.55,318.29Z"/>
        <path class="cls-1" d="M24.17,101.71a7.1,7.1,0,0,0,0,14.2,7,7,0,0,0,2.92-.64l0,0,1.31-.72a7.09,7.09,0,0,0-4.21-12.8Z"/>
        <path class="cls-1" d="M310.56,347.79a9,9,0,0,1,6.91,3.25l37-21.3a22.06,22.06,0,0,1-3.18-11.45,23.4,23.4,0,0,1,.13-2.38L217.2,292.2a26.81,26.81,0,0,1-44,13.86l-30.71,35.66a14.28,14.28,0,0,1,2.61,15.8H301.64c0-.25,0-.51,0-.77A9,9,0,0,1,310.56,347.79Z"/>
        <circle class="cls-1" cx="58.9" cy="285.33" r="9.17" transform="translate(-63.98 21.16) rotate(-13.28)"/>
        <path class="cls-1" d="M82,164.54a29.11,29.11,0,1,0-29.11,29.1A29.1,29.1,0,0,0,82,164.54ZM52.93,178.23a13.69,13.69,0,1,1,13.7-13.69A13.69,13.69,0,0,1,52.93,178.23Z"/>
        <path class="cls-1" d="M58.9,256.45a28.88,28.88,0,1,0,28.88,28.88A28.89,28.89,0,0,0,58.9,256.45Zm0,41.42a12.54,12.54,0,1,1,12.54-12.54A12.54,12.54,0,0,1,58.9,297.87Z"/>
        <path class="cls-1" d="M164.29,286.07a26.71,26.71,0,0,1,1-7.36l-17-6a10,10,0,1,1,1-2.83l17.05,6a26.87,26.87,0,0,1,14.32-14.5l-27.85-82.82a14,14,0,0,1-3.13.36A14.38,14.38,0,0,1,135.35,166H86.11a33.2,33.2,0,0,1-31.22,31.65l1.51-.05,1.78,54.74.72,0A33,33,0,0,1,85.35,305l37.4,35.62a14.34,14.34,0,0,1,17.5-.86l30.86-35.83A26.7,26.7,0,0,1,164.29,286.07Z"/>
        <path class="cls-1" d="M131.3,95.05a19.47,19.47,0,1,0-19.46,19.46A19.47,19.47,0,0,0,131.3,95.05Zm-19.46,11a11.06,11.06,0,1,1,11-11A11.06,11.06,0,0,1,111.84,106.1Z"/>
        <path class="cls-1" d="M149.64,150.17A14.37,14.37,0,0,1,164,164.54a14.15,14.15,0,0,1-.29,2.86l27.16,8.54a9,9,0,1,1-1,4.08,9.87,9.87,0,0,1,.09-1.22l-27.16-8.54a14.38,14.38,0,0,1-7.21,7.34l27.83,82.77a26.82,26.82,0,0,1,34.46,25.7,27.71,27.71,0,0,1-.19,3.18L351.93,313a22.13,22.13,0,0,1,6.57-11.06l-.84.75-66.31-74.94,1.28-1.14a26.43,26.43,0,0,1-17.76,6.82,28,28,0,0,1-3.18-.2L267,259.79a9,9,0,1,1-3-.53H264l4.73-26.59a26.57,26.57,0,0,1-8.25-48.19l-1.39.66-29.82-62.87,1.35-.64a25.4,25.4,0,0,1-35.76-23.19c0-.47,0-.94,0-1.4l-61.2,1.85a22.25,22.25,0,0,1-11.2,15.64l1.36-.73,20.28,37.46A14.38,14.38,0,0,1,149.64,150.17Z"/>
        <circle class="cls-1" cx="139.71" cy="268.22" r="7.1" transform="translate(-148.74 177.35) rotate(-45)"/>
        <circle class="cls-2" cx="274.87" cy="206.82" r="8.75" transform="translate(-29.58 46.7) rotate(-9.22)"/>
        <path class="cls-2" d="M58.9,272.79a12.54,12.54,0,1,0,12.54,12.54A12.53,12.53,0,0,0,58.9,272.79Zm0,21.71a9.18,9.18,0,1,1,9.17-9.17A9.18,9.18,0,0,1,58.9,294.5Z"/>
        <path class="cls-2" d="M403.42,260.3a8.78,8.78,0,1,0-8.78-8.78A8.78,8.78,0,0,0,403.42,260.3Z"/>
        <circle class="cls-2" cx="52.93" cy="164.54" r="13.69" transform="translate(-25.67 10.6) rotate(-9.22)"/>
        <circle class="cls-2" cx="191.1" cy="286.07" r="11.06"/>
        <circle class="cls-2" cx="373.49" cy="318.29" r="11.06"/>
        <circle class="cls-2" cx="111.84" cy="95.05" r="11.06"/>
        <circle class="cls-2" cx="503.34" cy="289.39" r="11.06"/>
        <path class="cls-2" d="M146.44,351.56a14.32,14.32,0,0,0-3.92-9.84l30.71-35.66a26.81,26.81,0,0,0,44-13.86l134.21,23.71a23.4,23.4,0,0,0-.13,2.38,22.06,22.06,0,0,0,3.18,11.45l-37,21.3a9,9,0,0,0-15.87,5.71c0,.26,0,.52,0,.77h17.85c0-.25,0-.51,0-.77a8.88,8.88,0,0,0-.57-3.1l37.23-21.44a22.22,22.22,0,0,0,38.7-7.93l34.39,11.52a9.2,9.2,0,0,0-.11,1.39,9,9,0,1,0,1.06-4.23L395.5,321.32a23.24,23.24,0,0,0,.21-3,22.21,22.21,0,0,0-12.21-19.83l8.2-19.4a29.95,29.95,0,0,0,39.13-15.55l46.94,17.79a26.76,26.76,0,1,0,17.6-17.52l-35.84-83.27a14.37,14.37,0,1,0-21.12-15.38l-23.27-2.2a6.91,6.91,0,1,0-.23,3l23.23,2.2A14.31,14.31,0,0,0,444,179.53L417.26,225a29.9,29.9,0,0,0-27.77,0l-43.43-69.92a15.65,15.65,0,0,0,6.09-12.39,16.25,16.25,0,0,0-.26-2.82l22.49-6.39a8.93,8.93,0,1,0-.89-3.86c0,.33,0,.66.06,1L351.07,137a15.68,15.68,0,0,0-28.62-1.34l-77.83-30a25.46,25.46,0,0,0-.34-15.47l.61,1.37,13.64-6a9.69,9.69,0,1,0-2.46-6.44,9.5,9.5,0,0,0,.82,3.88l-13.14,5.78A25.4,25.4,0,0,0,195.26,94L134,95.88c0-.28,0-.55,0-.83a22.21,22.21,0,0,0-33.7-19l1-.64L75.54,34.61A14.35,14.35,0,0,0,81,24.26l59.93-2.89a9,9,0,1,0-.14-3L80.84,21.27a14.36,14.36,0,0,0-27.76-2.7l-37.75-9c0-.2,0-.4,0-.6A9,9,0,0,0,0,2.69V15.24a9,9,0,0,0,14.65-2.76l37.74,9a13.91,13.91,0,0,0,1.72,8.92L39.6,40.72a9.08,9.08,0,1,0,1.73,2.45L55.86,32.84A14.28,14.28,0,0,0,73,36.21L98.83,77l1.25-.79a22.22,22.22,0,0,0,22.25,38.43l-1.1.59,20.29,37.47A14.31,14.31,0,0,0,135.35,163H86.11a33.22,33.22,0,0,0-46.87-28.76l1.31-.72-9.72-17.71a9.72,9.72,0,1,0-2.49,1.71l9.55,17.37a33.21,33.21,0,0,0-13.73,46.2l-.84-1.24-16,10.82a8.9,8.9,0,0,0-6.47-2.77A8.44,8.44,0,0,0,0,188v17.84a8.46,8.46,0,0,0,.87.05,9,9,0,0,0,9-9A9,9,0,0,0,9,193.19L25,182.41a33.15,33.15,0,0,0,28,15.34h.48l1.78,54.84A33,33,0,0,0,28.47,298L5.4,312c-.46-.72-1-1.44-1.5-2.15A33.4,33.4,0,0,0,0,307.3v3.81a19.41,19.41,0,0,1,7.09,15,19.41,19.41,0,0,1-7.09,15v3.42c8.79-5.91,13.12-17.93,6.91-30l22.85-13.86a33,33,0,0,0,53.68,6.59l37.25,35.47a14.3,14.3,0,0,0-1.7,14.72h26.14A14.28,14.28,0,0,0,146.44,351.56ZM265.77,72a7.1,7.1,0,1,1-7.09,7.1A7.1,7.1,0,0,1,265.77,72ZM28.38,114.51l-1.31.72,0,0a7,7,0,0,1-2.92.64,7.12,7.12,0,1,1,4.21-1.4Zm186,175.12-.08.45a23.49,23.49,0,0,1-38.85,13.46l0-.06-1.13-1A23.5,23.5,0,0,1,183,264l1.11-.37a23.52,23.52,0,0,1,30.44,22.45A24.55,24.55,0,0,1,214.33,289.63ZM393,318.29a19.46,19.46,0,0,1-35.36,11.22l-.68-1.19-.06,0A19.46,19.46,0,1,1,393,318.29Zm100.93-50.38,1.37-.59a23.6,23.6,0,1,1-1.38.56Zm-47.33-86.86a14.22,14.22,0,0,0,5.95,1.3,14.38,14.38,0,0,0,4.27-.64l35.78,83.12a27,27,0,0,0-13.73,13.67l-46.94-17.79a29.9,29.9,0,0,0-12-34.19ZM390.1,228.94a26.23,26.23,0,0,1,38,31.49l-.15.38a26.23,26.23,0,0,1-34.79,14.84l0,0-1.38-.59a26.21,26.21,0,0,1-2.6-45.5Zm-68.73-90.46A15.56,15.56,0,0,0,324.59,153l-32.38,33.66,2.16,2.08,32.39-33.66a15.62,15.62,0,0,0,16.76,1.68l43.38,69.84a29.92,29.92,0,0,0,2.1,51.17l-8.26,19.55a22.22,22.22,0,0,0-22,4.39l1.14-1-66.3-74.94-.83.74a26.57,26.57,0,0,0-31-42.74L232,121l-.33.15a25.5,25.5,0,0,0,12-12.67Zm-46.5,91.62a23.29,23.29,0,1,1,23.28-23.28A23.28,23.28,0,0,1,274.87,230.1ZM220.27,76.19A22.26,22.26,0,1,1,198,98.44,22.25,22.25,0,0,1,220.27,76.19ZM111.84,114.51A19.47,19.47,0,1,1,131.3,95.05,19.47,19.47,0,0,1,111.84,114.51Zm12-.71-1.36.73a22.25,22.25,0,0,0,11.2-15.64L194.91,97c0,.46,0,.93,0,1.4a25.4,25.4,0,0,0,35.76,23.19l-1.35.64,29.82,62.87,1.39-.66a26.57,26.57,0,0,0,8.25,48.19L264,259.26h-.08a9,9,0,1,0,3,.53l4.73-26.6a28,28,0,0,0,3.18.2,26.43,26.43,0,0,0,17.76-6.82l-1.28,1.14,66.31,74.94.84-.75A22.13,22.13,0,0,0,351.93,313L217.72,289.25a27.71,27.71,0,0,0,.19-3.18,26.82,26.82,0,0,0-34.46-25.7L155.62,177.6a14.38,14.38,0,0,0,7.21-7.34L190,178.8a9.87,9.87,0,0,0-.09,1.22,9,9,0,1,0,1-4.08l-27.16-8.54a14.15,14.15,0,0,0,.29-2.86,14.38,14.38,0,0,0-19.87-13.28ZM52.93,193.64A29.1,29.1,0,1,1,82,164.54,29.1,29.1,0,0,1,52.93,193.64Zm6,120.57a28.88,28.88,0,1,1,28.88-28.88A28.89,28.89,0,0,1,58.9,314.21Zm73.16,23a14.3,14.3,0,0,0-9.31,3.43L85.35,305A33,33,0,0,0,58.9,252.36l-.72,0L56.4,197.64l-1.51.05A33.2,33.2,0,0,0,86.11,166h49.24a14.38,14.38,0,0,0,14.29,12.88,14,14,0,0,0,3.13-.36l27.85,82.82a26.87,26.87,0,0,0-14.32,14.5l-17.05-6a9.65,9.65,0,0,0-9.54-11.4,9.7,9.7,0,1,0,8.57,14.23l17,6a26.8,26.8,0,0,0,5.79,25.22l-30.86,35.83A14.25,14.25,0,0,0,132.06,337.19Zm14.74-69a7.1,7.1,0,1,1-7.09-7.1A7.09,7.09,0,0,1,146.8,268.22Z"/>
        <path class="cls-2" d="M220.27,110.28a11.84,11.84,0,1,0-11.84-11.84A11.84,11.84,0,0,0,220.27,110.28Zm0-22.2A10.37,10.37,0,1,1,209.9,98.44,10.36,10.36,0,0,1,220.27,88.08Z"/>
      </g>
    </g>
  </g>
</svg>
