<svg xmlns="http://www.w3.org/2000/svg" viewBox="0 0 33.34 33.34"><defs><style>.cls-1{fill:#fbfbfb;}</style></defs><g id="Layer_2" data-name="Layer 2"><g id="Layer_1-2" data-name="Layer 1"><path class="cls-1" d="M30.81,33.34H2.53A2.53,2.53,0,0,1,0,30.81V2.53A2.53,2.53,0,0,1,2.53,0H30.81a2.53,2.53,0,0,1,2.53,2.53V30.81A2.53,2.53,0,0,1,30.81,33.34ZM2.53,2A.53.53,0,0,0,2,2.53V30.81a.53.53,0,0,0,.53.53H30.81a.53.53,0,0,0,.53-.53V2.53A.53.53,0,0,0,30.81,2Z"/><path class="cls-1" d="M25.72,18.17l-8.32-6.7a1.15,1.15,0,0,0-1.46,0l-8.32,6.7a1.16,1.16,0,0,0-.44.91v6.28a1.16,1.16,0,0,0,1.17,1.16h5.84V20.93a.49.49,0,0,1,.48-.48h4a.49.49,0,0,1,.48.48v5.59H25a1.16,1.16,0,0,0,1.17-1.16V19.08A1.16,1.16,0,0,0,25.72,18.17Z"/><path class="cls-1" d="M28.63,16.44,26,14.29V9.13a.41.41,0,0,0-.41-.41H24.38a.41.41,0,0,0-.41.41v3.5l-7-5.7a.48.48,0,0,0-.62,0C14.5,8.45,5,16.23,4.71,16.44A1.09,1.09,0,0,0,4.56,18a1.13,1.13,0,0,0,.83.37A1.27,1.27,0,0,0,6.23,18L16.36,9.82a.5.5,0,0,1,.63,0L27.11,18a1.17,1.17,0,0,0,1.67,0A1.09,1.09,0,0,0,28.63,16.44Z"/></g></g></svg>