<?xml version="1.0" encoding="UTF-8"?>
<svg xmlns="http://www.w3.org/2000/svg" viewBox="0 0 600 400">
  <defs>
    <style>
	
			@keyframes morph {
		20% {
			d: path('M239.96,234.28v27.27c0,6.27-5.1,11.37-11.37,11.37h-85.05v-25.18c0-7.37-6-13.37-13.37-13.37H14.92c-7.37,0-13.37,6-13.37,13.37v55.26c0,7.37,6,13.37,13.37,13.37h115.26c7.37,0,13.37-6,13.37-13.37v-28.08h85.05c7.37,0,13.37-6,13.37-13.37v-27.27h-2ZM141.55,302.99c0,6.27-5.1,11.37-11.37,11.37H14.92c-6.27,0-11.37-5.1-11.37-11.37v-55.26c0-6.27,5.1-11.37,11.37-11.37h115.26c6.27,0,11.37,5.1,11.37,11.37v55.26Z');
		}
		30% {
			d: path('M239.96,234.28v40.27c0,6.27-5.1,11.37-11.37,11.37h-63.05v-25.18c0-7.37-6-13.37-13.37-13.37H36.92c-7.37,0-13.37,6-13.37,13.37v55.26c0,7.37,6,13.37,13.37,13.37h115.26c7.37,0,13.37-6,13.37-13.37v-28.08h63.05c7.37,0,13.37-6,13.37-13.37v-40.27h-2ZM163.55,315.99c0,6.27-5.1,11.37-11.37,11.37H36.92c-6.27,0-11.37-5.1-11.37-11.37v-55.26c0-6.27,5.1-11.37,11.37-11.37h115.26c6.27,0,11.37,5.1,11.37,11.37v55.26Z');}
		60% {
			d: path('M239.96,234.28v29.27c0,6.27-5.1,11.37-11.37,11.37h-68.05v-25.18c0-7.37-6-13.37-13.37-13.37H31.92c-7.37,0-13.37,6-13.37,13.37v55.26c0,7.37,6,13.37,13.37,13.37h115.26c7.37,0,13.37-6,13.37-13.37v-28.08h68.05c7.37,0,13.37-6,13.37-13.37v-29.27h-2ZM158.55,304.99c0,6.27-5.1,11.37-11.37,11.37H31.92c-6.27,0-11.37-5.1-11.37-11.37v-55.26c0-6.27,5.1-11.37,11.37-11.37h115.26c6.27,0,11.37,5.1,11.37,11.37v55.26Z');}
			

		80% {
			d: path('M239.96,234.28v35.27c0,6.27-5.1,11.37-11.37,11.37h-75.05v-25.18c0-7.37-6-13.37-13.37-13.37H24.92c-7.37,0-13.37,6-13.37,13.37v55.26c0,7.37,6,13.37,13.37,13.37h115.26c7.37,0,13.37-6,13.37-13.37v-28.08h75.05c7.37,0,13.37-6,13.37-13.37v-35.27h-2ZM151.55,310.99c0,6.27-5.1,11.37-11.37,11.37H24.92c-6.27,0-11.37-5.1-11.37-11.37v-55.26c0-6.27,5.1-11.37,11.37-11.37h115.26c6.27,0,11.37,5.1,11.37,11.37v55.26Z');
			}
		100% {
			d: path('M239.96,234.28v27.27c0,6.27-5.1,11.37-11.37,11.37h-85.05v-25.18c0-7.37-6-13.37-13.37-13.37H14.92c-7.37,0-13.37,6-13.37,13.37v55.26c0,7.37,6,13.37,13.37,13.37h115.26c7.37,0,13.37-6,13.37-13.37v-28.08h85.05c7.37,0,13.37-6,13.37-13.37v-27.27h-2ZM141.55,302.99c0,6.27-5.1,11.37-11.37,11.37H14.92c-6.27,0-11.37-5.1-11.37-11.37v-55.26c0-6.27,5.1-11.37,11.37-11.37h115.26c6.27,0,11.37,5.1,11.37,11.37v55.26Z');
		}
	}

	#p1 {
		animation: morph 5s infinite linear ;
	}

	
	
	
      .cls-1, .cls-2 {
        fill: #fff;
      }

      .cls-3 {
        fill: #2dbcd3;
        font-family: FallingSkyBlk, 'Falling Sky';
        font-size: 39.94px;
      }

      .cls-4 {
        fill: none;
      }

      .cls-4, .cls-2 {
        stroke: #888;
        stroke-miterlimit: 10;
        stroke-width: 2px;
      }

      .cls-5 {
        fill: #888;
      }
    </style>
  </defs>
  <g id="back">
    <rect class="cls-1" width="600" height="400"/>
  </g>
  <g id="Layer_1" data-name="Layer 1">
    <text class="cls-3" transform="translate(192.53 204.07)"><tspan x="0" y="0">Techmining</tspan></text>
  </g>
  <g id="Layer_2" data-name="Layer 2">
    <rect class="cls-2" x="264.85" y="22.06" width="140" height="80" rx="12.37" ry="12.37"/>
    <rect class="cls-2" x="285.07" y="300.35" width="140" height="80" rx="12.37" ry="12.37"/>
    <rect class="cls-2" x="455.17" y="165.74" width="140" height="80" rx="12.37" ry="12.37"/>
    <rect class="cls-2" x="22.15" y="88.4" width="140" height="80" rx="12.37" ry="12.37"/>
    <path class="cls-2" d="M81.92,169.42v27.27c0,6.83,5.54,12.37,12.37,12.37h86.6"/>
    <path class="cls-2" d="M417.08,209.07h37.52"/>
    <path id="p1" class="cls-5" d="M239.96,234.28v27.27c0,6.27-5.1,11.37-11.37,11.37h-85.05v-25.18c0-7.37-6-13.37-13.37-13.37H14.92c-7.37,0-13.37,6-13.37,13.37v55.26c0,7.37,6,13.37,13.37,13.37h115.26c7.37,0,13.37-6,13.37-13.37v-28.08h85.05c7.37,0,13.37-6,13.37-13.37v-27.27h-2ZM141.55,302.99c0,6.27-5.1,11.37-11.37,11.37H14.92c-6.27,0-11.37-5.1-11.37-11.37v-55.26c0-6.27,5.1-11.37,11.37-11.37h115.26c6.27,0,11.37,5.1,11.37,11.37v55.26Z"/>
    <path class="cls-4" d="M332.65,229.69v17.6c0,6.83,5.54,12.37,12.37,12.37h18.54c6.83,0,12.37,5.54,12.37,12.37v24.6"/>
    <path class="cls-4" d="M331.65,114.65v17.6c0,6.83-5.54,12.37-12.37,12.37h-18.54c-6.83,0-12.37,5.54-12.37,12.37v24.6"/>
  </g>
</svg>