<svg xmlns="http://www.w3.org/2000/svg" viewBox="0 0 33.34 33.34"><defs><style>.cls-1{fill:#fbfbfb;}</style></defs><g id="Layer_2" data-name="Layer 2"><g id="Layer_1-2" data-name="Layer 1"><path class="cls-1" d="M30.81,33.34H2.53A2.53,2.53,0,0,1,0,30.81V2.53A2.53,2.53,0,0,1,2.53,0H30.81a2.53,2.53,0,0,1,2.53,2.53V30.81A2.53,2.53,0,0,1,30.81,33.34ZM2.53,2A.53.53,0,0,0,2,2.53V30.81a.53.53,0,0,0,.53.53H30.81a.53.53,0,0,0,.53-.53V2.53A.53.53,0,0,0,30.81,2Z"/><circle class="cls-1" cx="17" cy="7.94" r="3.78"/><rect class="cls-1" x="13.45" y="12.89" width="7.1" height="16.76" rx="0.91"/></g></g></svg>