<svg id="Layer_1" data-name="Layer 1" xmlns="http://www.w3.org/2000/svg" xmlns:xlink="http://www.w3.org/1999/xlink" viewBox="0 0 411.56 70.66">
  <defs>
    <style>
      .cls-1 {
        fill: url(#linear-gradient);
      }

      .cls-2 {
        fill: url(#linear-gradient-2);
      }

      .cls-3 {
        fill: url(#linear-gradient-3);
      }

      .cls-4 {
        fill: url(#linear-gradient-4);
      }

      .cls-5 {
        fill: #ffc000;
        stroke: #fff;
        stroke-linecap: round;
        stroke-linejoin: round;
        stroke-width: 3px;
        fill-rule: evenodd;
      }
    </style>
    <linearGradient id="linear-gradient" x1="6.37" y1="8.67" x2="66.29" y2="60.41" gradientUnits="userSpaceOnUse">
      <stop offset="0" stop-color="#fff"/>
      <stop offset="0.42" stop-color="#e5e5e5"/>
      <stop offset="1" stop-color="#bababa"/>
    </linearGradient>
    <linearGradient id="linear-gradient-2" x1="118.73" y1="8.67" x2="178.64" y2="60.41" xlink:href="#linear-gradient"/>
    <linearGradient id="linear-gradient-3" x1="343.43" y1="8.67" x2="403.35" y2="60.41" xlink:href="#linear-gradient"/>
    <linearGradient id="linear-gradient-4" x1="231.08" y1="8.67" x2="291" y2="60.41" xlink:href="#linear-gradient"/>
  </defs>
  <title>overall_steps</title>
  <g>
    <rect class="cls-1" width="74.5" height="70.66" rx="6.83"/>
    <g>
      <path d="M13.24,25.43a1.81,1.81,0,0,0,.24,1,1.51,1.51,0,0,0,.75.58,4.1,4.1,0,0,0,1.33.2,3.78,3.78,0,0,0,1.62-.33,2.26,2.26,0,0,0,.62-.44.83.83,0,0,0,.24-.54s0,0,0-.05-.08-.05-.2-.05h-.61a1.76,1.76,0,0,1-1.14-.33,1.16,1.16,0,0,1-.41-1,2.65,2.65,0,0,1,.7-1.87,3.23,3.23,0,0,1,2.5-1h.33v1.47h-.34a2.19,2.19,0,0,0-1.3.36,1,1,0,0,0-.49.81s0,.06,0,.06a.24.24,0,0,0,.15,0h.64a1.79,1.79,0,0,1,.8.14,1.08,1.08,0,0,1,.51.43,1.34,1.34,0,0,1,.18.71,2.47,2.47,0,0,1-.43,1.46,2.85,2.85,0,0,1-1.24,1,4.35,4.35,0,0,1-1,.33,6,6,0,0,1-1.14.11,4.09,4.09,0,0,1-2.72-.79,2.82,2.82,0,0,1-.94-2.31,7.59,7.59,0,0,1,.76-2.94l.09-.18.19.08.85.35.21.08-.09.2A6.23,6.23,0,0,0,13.24,25.43Z"/>
      <path d="M23.38,22.71a5.16,5.16,0,0,1,.47,2.06,3.34,3.34,0,0,1-1,2.58A5,5,0,0,1,19.9,28.5l-.19,0,0-.18-.23-.92-.06-.24.25,0a4,4,0,0,0,2.16-.73,1.92,1.92,0,0,0,.68-1.6,3.91,3.91,0,0,0-.39-1.62L22,23l.23-.08.91-.32.19-.06Z"/>
      <path d="M26.72,25.88a2.47,2.47,0,0,1-1.61-.47,1.65,1.65,0,0,1-.57-1.36,3,3,0,0,1,.3-1.33,2.14,2.14,0,0,1,.71-.87,1.76,1.76,0,0,1,1-.3,1.65,1.65,0,0,1,.75.16,1.79,1.79,0,0,1,.6.46,2.57,2.57,0,0,1,.42.75,5.41,5.41,0,0,1,.34,2,3.24,3.24,0,0,1-1,2.5,4.93,4.93,0,0,1-2.88,1.1H24.6l-.05-.17-.23-.92-.06-.24.25,0q2.1-.22,2.67-1.32l-.29,0Zm.59-1.47a3.68,3.68,0,0,0-.12-.67A1.54,1.54,0,0,0,27,23.3a.63.63,0,0,0-.23-.23A.57.57,0,0,0,26.5,23a.46.46,0,0,0-.21.05.48.48,0,0,0-.18.15,2.09,2.09,0,0,0-.15.3,1.72,1.72,0,0,0-.08.48.46.46,0,0,0,.18.4,1.28,1.28,0,0,0,.66.12A2.53,2.53,0,0,0,27.31,24.41Z"/>
      <path d="M30.33,18a.89.89,0,0,0-.51.07,1.56,1.56,0,0,0-.49.39l-.07.09-.08-.08-.55-.68-.06-.06.05-.08a1.63,1.63,0,0,1,1.65-.81l.8.13a1.84,1.84,0,0,0,1.11-.24l.1-.05,0,.11.35.84,0,.08-.08.06a2.26,2.26,0,0,1-1.56.33Zm0,.94h1.14v6.94H30.11V18.92Z"/>
      <path d="M42.72,24.45a.25.25,0,0,1,.12,0l.08.05a.28.28,0,0,1,.06.08.39.39,0,0,0,0,.09s0,.06,0,.11a.46.46,0,0,1,0,.1v.28a3.08,3.08,0,0,1,0,.42.33.33,0,0,1-.3.27h-.09a1.39,1.39,0,0,1-.57-.12,1.52,1.52,0,0,1-.47-.34,1.57,1.57,0,0,1-1.27.58h0a2.73,2.73,0,0,1-1.08-.29,7.76,7.76,0,0,1-.75-.43,1,1,0,0,0-.47-.15.38.38,0,0,0-.18.09.77.77,0,0,0-.16.25,2.1,2.1,0,0,0-.14.46,4.66,4.66,0,0,0-.1.7c0,.28,0,.6,0,.95,0,.7,0,1.33.07,1.9l0,.24h-1.4V29.5Q36,28.59,36,27.55a6.7,6.7,0,0,1,.44-2.85,1.81,1.81,0,0,1,1.19-1c.56-1.34,1.32-2,2.29-2a1.89,1.89,0,0,1,1.55.72,1.56,1.56,0,0,1,.17.25,2.64,2.64,0,0,1,.15.29c0,.11.08.22.11.33s.07.24.1.37a1.48,1.48,0,0,0,.26.65.52.52,0,0,0,.39.19Zm-2.51.13a.44.44,0,0,0,.36-.11.6.6,0,0,0,.1-.41,1.45,1.45,0,0,0-.11-.51.82.82,0,0,0-.26-.35.67.67,0,0,0-.39-.11q-.54,0-.87.84a4.31,4.31,0,0,0,.69.49A1.1,1.1,0,0,0,40.21,24.58Z"/>
      <path d="M45.63,21.35a.76.76,0,0,1-.18-.09l-.21-.09L45.86,20l.19.09c2.53,1.23,3.8,2.44,3.79,3.62a2.42,2.42,0,0,1-.15.82,2.05,2.05,0,0,1-.4.66,2.23,2.23,0,0,1-1.75.66,7.2,7.2,0,0,1-2.09-.38,8.38,8.38,0,0,1-2.27.38h-.54a.45.45,0,0,1-.4-.2.94.94,0,0,1-.13-.49v-.1a.8.8,0,0,1,.13-.45.49.49,0,0,1,.4-.18h1.13a1.83,1.83,0,0,1-.44-1.2A2,2,0,0,1,43.85,22a1.88,1.88,0,0,1,1.54-.62ZM45.44,24a2.57,2.57,0,0,0,.47-.36.79.79,0,0,0,.26-.59.51.51,0,0,0-.35-.48,1.18,1.18,0,0,0-.35-.05.71.71,0,0,0-.63.36.74.74,0,0,0-.1.35.78.78,0,0,0,.53.71A.85.85,0,0,0,45.44,24Zm1.76-1.77a1.4,1.4,0,0,1,.25.8,1.82,1.82,0,0,1-.53,1.34,4.25,4.25,0,0,0,.65.05,1,1,0,0,0,.4-.05.81.81,0,0,0,.37-.25.68.68,0,0,0,.1-.35C48.45,23.3,48,22.79,47.2,22.25Z"/>
      <path d="M51,18.14h1.15v7.72H50.82V18.14Z"/>
      <path d="M55.69,22.74l.3,1a1,1,0,0,0,.3.52.77.77,0,0,0,.52.16h.25l.08.05.06.06,0,.07a.45.45,0,0,0,0,.08s0,.06,0,.1a.22.22,0,0,0,0,.09v.5a.62.62,0,0,1,0,.12.86.86,0,0,1,0,.13.21.21,0,0,1-.06.1.14.14,0,0,1-.09.08.28.28,0,0,1-.13,0h-.1a2.31,2.31,0,0,1-.82-.13,3,3,0,0,1-1.22,1.89,5.56,5.56,0,0,1-2.62.87l-.19,0,0-.18-.23-.92-.06-.24.25,0a3.94,3.94,0,0,0,2.16-.73,2,2,0,0,0,.69-1.6,3.84,3.84,0,0,0-.41-1.62l-.1-.22.23-.08.91-.32.21-.07Z"/>
      <path d="M59.3,23.87a2.18,2.18,0,0,1-1.45-.43,1.53,1.53,0,0,1-.53-1.24,1,1,0,0,1,0-.17c0-.05,0-.11,0-.16l0-.16a3.42,3.42,0,0,1,.25-.8,2.12,2.12,0,0,1,.42-.62,1.69,1.69,0,0,1,1.26-.53,1.85,1.85,0,0,1,.48.07,1.28,1.28,0,0,1,.43.19,3.05,3.05,0,0,1,1.18,2.4l0,.35c0,.11,0,.22,0,.34a2.63,2.63,0,0,1-.81,2.23,4.13,4.13,0,0,1-2.4.53H56.87a.43.43,0,0,1-.39-.2.86.86,0,0,1-.14-.49v-.1a.73.73,0,0,1,.14-.45.46.46,0,0,1,.39-.18h1.41a3.64,3.64,0,0,0,1.3-.18.82.82,0,0,0,.54-.48l-.26,0a2.4,2.4,0,0,1-.28,0Zm-1-5.71.79-.78.08-.08.08.08.78.79.08.08-.08.08-.78.78-.08.08-.08-.08-.79-.79-.08-.08Zm.35,3.89a.39.39,0,0,0,.16.35,1,1,0,0,0,.57.1,1.94,1.94,0,0,0,.34,0,2,2,0,0,0,.34-.06c0-.16-.06-.3-.1-.44a3,3,0,0,0-.13-.36,1.45,1.45,0,0,0-.12-.22.62.62,0,0,0-.14-.14.39.39,0,0,0-.14-.08l-.15,0a.45.45,0,0,0-.34.13,1,1,0,0,0-.24.44l0,.12s0,.07,0,.1Z"/>
      <path d="M21,39.07a6.38,6.38,0,0,1-3.32-.71,2.31,2.31,0,0,1-1.15-2.12,3.64,3.64,0,0,1,.31-1.46l.09-.2.2.09L18,35l.2.09-.08.19a2.07,2.07,0,0,0-.17.78,1.2,1.2,0,0,0,.3.84,2,2,0,0,0,1,.53,6.18,6.18,0,0,0,1.7.19,14,14,0,0,0,2.14-.13,3,3,0,0,0,1.13-.34.52.52,0,0,0,.1-.11.53.53,0,0,0,.08-.15.66.66,0,0,0,.06-.2,2.11,2.11,0,0,0,0-.26,4,4,0,0,0-.05-.54c0-.22-.08-.46-.14-.73L24.21,35l.2,0,.88-.22.19-.06.07.2a5.07,5.07,0,0,1,.28,1.52,3.07,3.07,0,0,1-.21,1.18,1.88,1.88,0,0,1-.62.79,7.53,7.53,0,0,1-4,.72Zm-1.58-5.15.78-.78.08-.08.08.08.79.79h0v0l.79-.78.08-.08.08.08.78.79L23,34l-.08.08-.78.78-.08.08L22,34.87l-.79-.78h0l-.79.78-.08.08-.08-.08-.78-.78L19.37,34Z"/>
      <path d="M27,31.34h1.15v7.72H26.76V31.34Z"/>
      <path d="M30.81,39.06a9,9,0,0,1-1.58-.15l-.17,0V37.44l.25.05a7.61,7.61,0,0,0,1.52.15,5.34,5.34,0,0,0,.6,0,2,2,0,0,0,.42-.08.85.85,0,0,0,.27-.12.45.45,0,0,0,.15-.16.31.31,0,0,0,0-.17,2.27,2.27,0,0,0-.12-.5c-.09-.25-.2-.55-.35-.91l-.68-1.62-.08-.19.18-.08.89-.41.2-.1.09.22,1.06,2.69a4.62,4.62,0,0,0,.58,1.11c.19.24.36.36.49.36h.11l.11,0a.19.19,0,0,1,.09,0,.28.28,0,0,1,.06.08.23.23,0,0,1,0,.09A.31.31,0,0,1,35,38a.46.46,0,0,1,0,.1v.27a2.16,2.16,0,0,1,0,.31.81.81,0,0,1,0,.21h0a.28.28,0,0,1-.24.16h-.11a1.71,1.71,0,0,1-1.43-.74A3.32,3.32,0,0,1,30.81,39.06Z"/>
      <path d="M38.86,38.38v.2a.54.54,0,0,1,0,.11s0,.08,0,.11a.42.42,0,0,1,0,.1.15.15,0,0,1-.06.09.19.19,0,0,1-.09,0,.2.2,0,0,1-.11,0h-.06A1.81,1.81,0,0,1,37,38.45a2.48,2.48,0,0,1-1.83.62H34.6a.43.43,0,0,1-.39-.2.88.88,0,0,1-.13-.49v-.1a1,1,0,0,1,.05-.31.58.58,0,0,1,.18-.23.46.46,0,0,1,.29-.09h.53c.71,0,1.1-.18,1.16-.53a2.46,2.46,0,0,0,0-.41c0-.18,0-.34,0-.5l0-.44,0-.2.21,0,.88-.11.22,0,0,.22.09,1.25a.84.84,0,0,0,.22.58.82.82,0,0,0,.59.18h0l.13,0a.18.18,0,0,1,.09.08l.06.1a.86.86,0,0,1,0,.13c0,.05,0,.09,0,.12v.28Zm-3.09-4.87.78-.79.08-.08.08.08.79.79.08.08-.08.08-.79.78-.08.09-.08-.09-.78-.78-.08-.08Z"/>
      <path d="M42.71,38.38v.2a.54.54,0,0,1,0,.11s0,.08,0,.11a.42.42,0,0,1,0,.1.15.15,0,0,1-.06.09.19.19,0,0,1-.09,0,.2.2,0,0,1-.11,0h-.06a1.77,1.77,0,0,1-1.48-.62,2.53,2.53,0,0,1-1.84.62h-.56a.43.43,0,0,1-.39-.2.88.88,0,0,1-.13-.49v-.1A1,1,0,0,1,38,38a.58.58,0,0,1,.18-.23.46.46,0,0,1,.29-.09H39c.71,0,1.1-.18,1.16-.53a2.46,2.46,0,0,0,0-.41c0-.18,0-.34,0-.5l0-.44,0-.2.21,0,.89-.11.22,0v.22l.09,1.25a.84.84,0,0,0,.22.58.82.82,0,0,0,.59.18h0l.13,0a.18.18,0,0,1,.09.08l.06.1a.35.35,0,0,1,0,.13.57.57,0,0,1,0,.12v.28ZM38.36,33.5l.78-.79.09-.08.08.08.78.79h0l.78-.79.08-.08.08.08.79.79.08.08-.08.08-.78.78-.08.08-.08-.08-.79-.78h0l-.78.78-.08.08-.08-.08-.79-.78-.08-.08Z"/>
      <path d="M48,37a1.52,1.52,0,0,0,.09.38.45.45,0,0,0,.21.2.83.83,0,0,0,.34.06.51.51,0,0,0,.45-.19,1.08,1.08,0,0,0,.14-.66c0-.28,0-.5,0-.68l0-.33,0-.2.2,0,.89-.1.22,0,0,.22.09,1a1.9,1.9,0,0,0,.08.47,1,1,0,0,0,.16.31.72.72,0,0,0,.23.17,1,1,0,0,0,.31,0h.09l.12,0a.19.19,0,0,1,.09,0,.28.28,0,0,1,.06.08.92.92,0,0,1,0,.09.31.31,0,0,1,0,.11.46.46,0,0,1,0,.1v.28a2.78,2.78,0,0,1,0,.41.32.32,0,0,1-.31.28h-.08A1.57,1.57,0,0,1,50,38.51a1.46,1.46,0,0,1-.57.42,2.06,2.06,0,0,1-.76.14,1.8,1.8,0,0,1-.79-.16,1.4,1.4,0,0,1-.57-.45,2,2,0,0,1-1.51.61,1.8,1.8,0,0,1-1.49-.59,2.24,2.24,0,0,1-1.71.59h-.3a.45.45,0,0,1-.4-.2.85.85,0,0,1-.13-.49v-.1a.73.73,0,0,1,.14-.45.46.46,0,0,1,.39-.18h.31c.62,0,1-.21,1.06-.62a1.43,1.43,0,0,0,0-.33,4,4,0,0,0,0-.48l0-.33,0-.21.21,0,.88-.11.23,0v.22L45.05,37a.68.68,0,0,0,.2.5.88.88,0,0,0,.57.15,1.06,1.06,0,0,0,.33,0,.55.55,0,0,0,.23-.11.58.58,0,0,0,.16-.19,1.51,1.51,0,0,0,.1-.28,2.38,2.38,0,0,0,0-.33c0-.16,0-.32,0-.48l0-.33,0-.21.21,0,.88-.11.22,0,0,.22Z"/>
      <path d="M53,38.39a2.07,2.07,0,0,1-1.51.68h-.11a.43.43,0,0,1-.39-.2.88.88,0,0,1-.13-.49v-.1a.73.73,0,0,1,.13-.45.46.46,0,0,1,.39-.18h.08a1,1,0,0,0,.7-.43,3,3,0,0,0,.37-.68c.51-1.12,1.19-1.69,2-1.69a2.14,2.14,0,0,1,.89.18,1.85,1.85,0,0,1,.68.54,2.5,2.5,0,0,1,.55,1.62,2.12,2.12,0,0,1-.4,1.4l-.16.15-.17.14a1.18,1.18,0,0,1-.19.11l-.2.09-.22.06a.83.83,0,0,1-.22,0h-.25A2.71,2.71,0,0,1,53,38.39Zm1.81-.6a.64.64,0,0,0,.42-.11.56.56,0,0,0,.12-.41.49.49,0,0,0,0-.12.41.41,0,0,0,0-.11.36.36,0,0,0,0-.1.3.3,0,0,0,0-.1l0-.08a1,1,0,0,0-.12-.21.49.49,0,0,0-.15-.14.51.51,0,0,0-.18-.09l-.22,0c-.36,0-.66.28-.88.85A1.59,1.59,0,0,0,54.8,37.79Z"/>
      <path d="M26,50.85l.12,0,.09.05a.28.28,0,0,1,.06.08l0,.09s0,.06,0,.11,0,.08,0,.1v.51s0,.07,0,.12a.86.86,0,0,1,0,.13.37.37,0,0,1-.06.1.14.14,0,0,1-.09.08.32.32,0,0,1-.14,0h-.46a.85.85,0,0,1,.08.39,2,2,0,0,1-1.07,1.63,5,5,0,0,1-2.76.76,4.2,4.2,0,0,1-2.72-.76,2.69,2.69,0,0,1-.94-2.24,5.72,5.72,0,0,1,.56-2.42l.09-.18.19.08.85.35L20,50l-.08.2A5.07,5.07,0,0,0,19.5,52a1.48,1.48,0,0,0,.55,1.27,2.86,2.86,0,0,0,1.74.41,4,4,0,0,0,1.61-.32,1.83,1.83,0,0,0,.79-.6.45.45,0,0,0,.09-.24.3.3,0,0,0,0-.1.15.15,0,0,0-.07-.07.26.26,0,0,0-.15-.06l-.26,0h-.84a.58.58,0,0,1-.39-.21,1,1,0,0,1-.22-.46,1.12,1.12,0,0,1,0-.22.86.86,0,0,1,0-.16.32.32,0,0,1,.2-.35H26Z"/>
      <path d="M28.53,50.09a2.29,2.29,0,0,0,.06.32.64.64,0,0,0,.08.2,10.14,10.14,0,0,1,1.9-2.37,2.87,2.87,0,0,1,1.87-.79,2.19,2.19,0,0,1,1.89.94,2.31,2.31,0,0,1,.3.61,2.48,2.48,0,0,1,.1.68,2.29,2.29,0,0,1-.32,1.14,6.86,6.86,0,0,0,.74,0h.1l.12,0,.09.05a.16.16,0,0,1,0,.08l0,.09s0,.06,0,.11v.1a.16.16,0,0,1,0,.1v.18a.23.23,0,0,0,0,.07c0,.41-.11.62-.33.62h-.13a6,6,0,0,1-1.12-.1,2.11,2.11,0,0,1-.79-.31,6.41,6.41,0,0,1-2.64.41H30.3a3.45,3.45,0,0,1-2.46-.66,2.41,2.41,0,0,1-1.81.66h-.09a.45.45,0,0,1-.4-.2.85.85,0,0,1-.13-.49v-.1a.67.67,0,0,1,.14-.45.46.46,0,0,1,.39-.18H26a2.24,2.24,0,0,0,.63-.07A.87.87,0,0,0,27,50.6a.57.57,0,0,0,.14-.28,3.75,3.75,0,0,0,0-.91l0-.44,0-.2.21,0,.88-.11.22,0,0,.22Zm1.64.76h.43a5.54,5.54,0,0,0,2-.27,1.28,1.28,0,0,0,.5-.37.82.82,0,0,0,.16-.51.73.73,0,0,0-.15-.46.83.83,0,0,0-.72-.33,1.32,1.32,0,0,0-.64.2,4,4,0,0,0-.77.64A9.41,9.41,0,0,0,30.17,50.85Z"/>
      <path d="M37.77,50.09a2.4,2.4,0,0,0,0,.32.63.63,0,0,0,.09.2,9.88,9.88,0,0,1,1.89-2.37,2.89,2.89,0,0,1,1.87-.79,2.19,2.19,0,0,1,1.89.94,2,2,0,0,1,.3.61,2.15,2.15,0,0,1,.1.68,2.29,2.29,0,0,1-.32,1.14,7,7,0,0,0,.74,0h.1l.12,0a.26.26,0,0,1,.09.05.28.28,0,0,1,.06.08.46.46,0,0,0,0,.09s0,.06,0,.11a.25.25,0,0,0,0,.1v.28a.56.56,0,0,1,0,.07c0,.41-.1.62-.33.62h-.13a6,6,0,0,1-1.12-.1,2.18,2.18,0,0,1-.79-.31,6.41,6.41,0,0,1-2.64.41h-.27a3.49,3.49,0,0,1-2.46-.66,2.41,2.41,0,0,1-1.81.66h-.09a.45.45,0,0,1-.4-.2.94.94,0,0,1-.13-.49v-.1a.73.73,0,0,1,.14-.45.46.46,0,0,1,.39-.18h.08a2.19,2.19,0,0,0,.63-.07.87.87,0,0,0,.35-.18.5.5,0,0,0,.14-.28,3.65,3.65,0,0,0,0-.91l0-.44,0-.2.21,0,.88-.11.22,0,0,.22Zm1.64.76h.43a5.52,5.52,0,0,0,2-.27,1.28,1.28,0,0,0,.5-.37.76.76,0,0,0,.16-.51.78.78,0,0,0-.14-.46.86.86,0,0,0-.72-.33,1.35,1.35,0,0,0-.65.2,4,4,0,0,0-.76.64A7.67,7.67,0,0,0,39.41,50.85Z"/>
      <path d="M49,49.54l-.32-.12-.39-.16a4.85,4.85,0,0,0-1.35-.41,1,1,0,0,0-.83.42l-.15.2-.11.13-.16-.07-.82-.41-.21-.1.12-.21.09-.14a2.51,2.51,0,0,1,.89-.91,2.34,2.34,0,0,1,1.18-.32,4,4,0,0,1,1.73.49,7.22,7.22,0,0,0,2.51.83h.21v1.34h-.2a2.62,2.62,0,0,0-.89.28c0,.14.15.24.36.33a2.49,2.49,0,0,0,.89.12h.34l.08,0L52,51A.21.21,0,0,1,52,51a.51.51,0,0,1,0,.09.22.22,0,0,1,0,.09s0,.07,0,.09v.49a.72.72,0,0,1,0,.13.23.23,0,0,1,0,.13.93.93,0,0,1-.05.1.19.19,0,0,1-.1.08.29.29,0,0,1-.14,0h-.31a3.54,3.54,0,0,1-1.09-.15,1.87,1.87,0,0,1-.78-.44,1.63,1.63,0,0,1-.42-.75l-.07,0L49,51,49,51a9.37,9.37,0,0,1-4.29,1.24H44.4a.44.44,0,0,1-.39-.2.86.86,0,0,1-.14-.49v-.1A.73.73,0,0,1,44,51a.46.46,0,0,1,.39-.18h.32A9.81,9.81,0,0,0,49,49.54Zm-2.49-4,.78-.78.08-.08.08.08.79.78.08.08-.08.08-.79.79-.08.08-.08-.08-.78-.79-.09-.08Z"/>
      <path d="M52.07,52.27h-.41a.45.45,0,0,1-.4-.2.85.85,0,0,1-.13-.49v-.1a.73.73,0,0,1,.14-.45.46.46,0,0,1,.39-.18h.41a2.39,2.39,0,0,0,1-.15c.24-.13.35-.44.35-.93a5.48,5.48,0,0,0-.19-1.37l-.05-.21.21,0,.88-.22.19-.05.06.19a5.67,5.67,0,0,1,.27,1.69A2.41,2.41,0,0,1,54,51.81a1.55,1.55,0,0,1-.36.21,2.53,2.53,0,0,1-.44.14,4.21,4.21,0,0,1-.53.08A5.6,5.6,0,0,1,52.07,52.27Zm-.49-6,.78-.78.08-.08.08.08.79.79h0l.78-.78.08-.08.08.08.79.79.08.08-.08.08-.78.78-.08.08-.08-.08-.79-.79h0l-.78.78-.08.08-.08-.08-.79-.79-.08-.08Z"/>
    </g>
  </g>
  <g>
    <rect class="cls-2" x="112.35" width="74.5" height="70.66" rx="6.83"/>
    <g>
      <path d="M144.11,24.45a.25.25,0,0,1,.12,0l.08.05a.12.12,0,0,1,.06.08l0,.09s0,.06,0,.11,0,.08,0,.1,0,.05,0,.1v.53a.23.23,0,0,1,0,.13.47.47,0,0,1,0,.1.14.14,0,0,1-.09.08.32.32,0,0,1-.14,0H144a3.5,3.5,0,0,1-1.91-.41,2.47,2.47,0,0,1-.5.19,4.54,4.54,0,0,1-.6.12c-.22,0-.46.06-.71.07s-.53,0-.83,0h-.27a9.15,9.15,0,0,1-1-.05,4.32,4.32,0,0,1-.74-.16,3.63,3.63,0,0,1-.36,1.25c-.56,1.17-1.69,1.75-3.4,1.75a3.67,3.67,0,0,1-2.57-.82,3.09,3.09,0,0,1-.89-2.39,6.48,6.48,0,0,1,.56-2.51l.08-.2.2.08.85.35.19.08-.07.2a5.53,5.53,0,0,0-.44,2,1.79,1.79,0,0,0,.53,1.41,2.45,2.45,0,0,0,1.65.44,2.5,2.5,0,0,0,1.73-.54,2.16,2.16,0,0,0,.57-1.63,4.33,4.33,0,0,0-.47-1.9l-.1-.22.22-.08.93-.32.21-.07.07.21.36,1.15a1,1,0,0,0,.1.23.53.53,0,0,0,.1.13c1.22-2,2.41-3.07,3.58-3.18h.2a2.38,2.38,0,0,1,1.08.24,2.12,2.12,0,0,1,.82.7,2.24,2.24,0,0,1,.22.4,2.13,2.13,0,0,1,.13.43,2.31,2.31,0,0,1,.05.46,1.79,1.79,0,0,1,0,.23,2,2,0,0,1,0,.24l-.06.23-.09.22a1.64,1.64,0,0,1-.12.22l.32,0h.53Zm-5.08,0h.43a5.29,5.29,0,0,0,2-.28,1.28,1.28,0,0,0,.51-.36.85.85,0,0,0,.15-.51,1.87,1.87,0,0,0,0-.25.7.7,0,0,0-.11-.21.84.84,0,0,0-.72-.33,1.7,1.7,0,0,0-1,.48A6.92,6.92,0,0,0,139,24.45Z"/>
      <path d="M148.29,25.18v.19s0,.07,0,.12a.36.36,0,0,1,0,.11.22.22,0,0,1,0,.1.35.35,0,0,1-.06.09.19.19,0,0,1-.09.05.21.21,0,0,1-.12,0h-.05a1.81,1.81,0,0,1-1.49-.62,2.48,2.48,0,0,1-1.83.62H144a.44.44,0,0,1-.4-.21.9.9,0,0,1-.12-.48v-.1a.75.75,0,0,1,.05-.31.55.55,0,0,1,.17-.23.49.49,0,0,1,.3-.09h.53c.71,0,1.09-.18,1.16-.53a2.46,2.46,0,0,0,0-.41,4,4,0,0,0,0-.5l0-.44,0-.2.21,0,.88-.11.22,0,0,.22.08,1.25a.94.94,0,0,0,.22.58.86.86,0,0,0,.6.18h0l.14,0a.18.18,0,0,1,.09.08l.06.1a.86.86,0,0,1,0,.13s0,.09,0,.12v.28Zm-4.42,2.31.78-.78.08-.09.08.09.79.78h0l.78-.78.08-.09.08.09.79.78.08.08-.08.08-.78.79-.08.08-.09-.08-.78-.79h0l-.78.79-.08.08-.08-.08-.79-.79-.08-.08Z"/>
      <path d="M152.45,23.14l-.31-.12-.39-.16a4.88,4.88,0,0,0-1.36-.41,1,1,0,0,0-.83.42l-.15.2-.11.13-.15-.07-.83-.41-.21-.1.12-.21.09-.14a2.51,2.51,0,0,1,.89-.91A2.38,2.38,0,0,1,150.4,21a4,4,0,0,1,1.72.49,7.22,7.22,0,0,0,2.51.83h.21v1.34h-.2a2.69,2.69,0,0,0-.89.28.59.59,0,0,0,.36.33,2.53,2.53,0,0,0,.89.12h.34a.16.16,0,0,1,.08.05l.06.06s0,0,0,.07a.51.51,0,0,1,0,.09.64.64,0,0,1,0,.09v.71a.86.86,0,0,1,0,.13l-.06.1a.17.17,0,0,1-.09.08.32.32,0,0,1-.14,0h-.32a3.64,3.64,0,0,1-1.09-.15,1.77,1.77,0,0,1-.77-.44,1.56,1.56,0,0,1-.43-.75l-.06,0-.07,0-.06,0a9.37,9.37,0,0,1-4.29,1.24h-.26a.45.45,0,0,1-.39-.2.85.85,0,0,1-.13-.49v-.1a.73.73,0,0,1,.13-.45.47.47,0,0,1,.39-.18h.33A9.81,9.81,0,0,0,152.45,23.14Zm-2.49-4,.78-.78.08-.08.08.08.79.78.08.08-.08.08-.78.79-.08.08-.08-.08-.79-.79-.08-.08Z"/>
      <path d="M160.84,23.8a1,1,0,0,0,.09.38.43.43,0,0,0,.2.2.85.85,0,0,0,.35.06.53.53,0,0,0,.45-.19,1.09,1.09,0,0,0,.13-.66,6.65,6.65,0,0,0,0-.68l0-.33,0-.21.21,0,.88-.1.22,0,0,.22.08,1a2.53,2.53,0,0,0,.08.47,1,1,0,0,0,.17.31.55.55,0,0,0,.23.17.9.9,0,0,0,.3.05h.1a.25.25,0,0,1,.12,0l.08.05a.12.12,0,0,1,.06.08l0,.09a.65.65,0,0,0,0,.11v.38a2.78,2.78,0,0,1,0,.41.31.31,0,0,1-.3.28h-.09a1.58,1.58,0,0,1-1.36-.56,1.46,1.46,0,0,1-.57.42,2,2,0,0,1-.76.14,1.83,1.83,0,0,1-.79-.16,1.4,1.4,0,0,1-.57-.45,2,2,0,0,1-1.5.61,1.83,1.83,0,0,1-1.5-.59,2.23,2.23,0,0,1-1.71.59h-.3a.43.43,0,0,1-.39-.2.86.86,0,0,1-.14-.49v-.1a.73.73,0,0,1,.14-.45.46.46,0,0,1,.39-.18h.31c.62,0,1-.21,1.06-.62a1.31,1.31,0,0,0,0-.33,4.12,4.12,0,0,0,0-.48l0-.33v-.21l.2,0,.89-.11.22,0,0,.22.08,1.25a.68.68,0,0,0,.2.49.84.84,0,0,0,.58.16,1,1,0,0,0,.32,0,.66.66,0,0,0,.24-.11.7.7,0,0,0,.15-.19.77.77,0,0,0,.1-.28,2.38,2.38,0,0,0,0-.33c0-.16,0-.32,0-.48l0-.33,0-.21.21,0,.88-.11.23,0v.22Zm-2.57-3.39.77-.76.08-.08.08.08.77.77,0,0,0,0,.76-.76.08-.08.08.08.77.77.08.08-.08.08-.76.76-.08.08-.08-.08-.77-.77,0,0,0,0-.77.76-.08.08-.08-.08-.77-.77-.08-.08Zm.86-1.44.77-.77.08-.08.08.08.77.77.08.08-.08.08-.77.77L160,20l-.08-.08-.77-.77-.08-.08Z"/>
      <path d="M164.61,25.87h-.4a.45.45,0,0,1-.4-.2.85.85,0,0,1-.13-.49v-.1a.73.73,0,0,1,.14-.45.46.46,0,0,1,.39-.18h.4a2.41,2.41,0,0,0,1.06-.15c.24-.13.35-.44.35-.93a5.48,5.48,0,0,0-.19-1.37l-.05-.21.21-.05.87-.22.2-.05.06.19a5.67,5.67,0,0,1,.27,1.69,2.41,2.41,0,0,1-.84,2.06,1.55,1.55,0,0,1-.36.21,2.53,2.53,0,0,1-.44.14l-.53.08A5.66,5.66,0,0,1,164.61,25.87Zm-.48-6,.78-.78L165,19l.08.08.79.79h0l.78-.78.08-.08.08.08.79.79.08.08-.08.08-.78.78-.08.08-.09-.08-.78-.79h0v0l-.78.78-.08.08-.08-.08-.79-.79-.08-.08Z"/>
      <path d="M132.78,39.06a8.84,8.84,0,0,1-1.57-.15l-.18,0V37.44l.26.05a7.46,7.46,0,0,0,1.52.15,5.15,5.15,0,0,0,.59,0,2,2,0,0,0,.42-.08.85.85,0,0,0,.27-.12.45.45,0,0,0,.15-.16.31.31,0,0,0,0-.17,2.27,2.27,0,0,0-.12-.5c-.08-.25-.2-.55-.35-.91l-.68-1.62-.08-.19.19-.08.88-.41.21-.1.08.22,1.07,2.69a4.28,4.28,0,0,0,.58,1.11q.28.36.48.36h.11l.12,0,.08,0a.12.12,0,0,1,.06.08l0,.09a.65.65,0,0,0,0,.11v.37a1.28,1.28,0,0,1,0,.31.81.81,0,0,1,0,.21h0a.26.26,0,0,1-.24.16h-.11a1.72,1.72,0,0,1-1.43-.74A3.31,3.31,0,0,1,132.78,39.06Z"/>
      <path d="M140.83,38.38v.31s0,.08,0,.11a.42.42,0,0,1,0,.1.19.19,0,0,1-.05.09l-.09,0a.27.27,0,0,1-.12,0h-.06a1.79,1.79,0,0,1-1.48-.62,2.51,2.51,0,0,1-1.84.62h-.56a.45.45,0,0,1-.39-.2.88.88,0,0,1-.13-.49v-.1a1,1,0,0,1,0-.31.58.58,0,0,1,.18-.23.48.48,0,0,1,.29-.09h.53c.71,0,1.1-.18,1.16-.53a2.37,2.37,0,0,0,0-.41c0-.18,0-.34,0-.5l0-.44v-.2l.2,0,.89-.11.22,0v.22l.09,1.25a.84.84,0,0,0,.22.58.83.83,0,0,0,.6.18h0l.13,0a.18.18,0,0,1,.09.08l.06.1a.23.23,0,0,1,0,.13.57.57,0,0,1,0,.12v.28Zm-3.09-4.87.78-.79.08-.08.08.08.79.79.08.08-.08.08-.78.78-.08.09-.08-.09-.79-.78-.08-.08Z"/>
      <path d="M143.92,39.18a2.75,2.75,0,0,1-1.87-.79,2.4,2.4,0,0,1-.71.51,2.05,2.05,0,0,1-.8.17h-.12a.45.45,0,0,1-.39-.2.88.88,0,0,1-.13-.49v-.1a.73.73,0,0,1,.14-.45.43.43,0,0,1,.38-.18h.09a.85.85,0,0,0,.69-.42,5.07,5.07,0,0,0,.38-.69c.5-1.12,1.18-1.69,2-1.69a1.86,1.86,0,0,1,1.54.72,3,3,0,0,1,.55,1.24,2.42,2.42,0,0,0,.12.4.71.71,0,0,0,.15.26.44.44,0,0,0,.17.14.59.59,0,0,0,.2,0h.08l.12,0,.08,0a.12.12,0,0,1,.06.08l0,.09s0,.06,0,.11a.46.46,0,0,1,0,.1v.28a2.78,2.78,0,0,1,0,.41.32.32,0,0,1-.3.28h-.09a1.31,1.31,0,0,1-1-.47A1.8,1.8,0,0,1,143.92,39.18Zm-.06-1.39a.76.76,0,0,0,.33,0,.3.3,0,0,0,.17-.16.69.69,0,0,0,0-.31,1.45,1.45,0,0,0-.11-.51.76.76,0,0,0-.27-.35.71.71,0,0,0-.41-.11c-.35,0-.64.28-.87.85a3.3,3.3,0,0,0,.4.37,1.42,1.42,0,0,0,.37.21A1.06,1.06,0,0,0,143.86,37.79Z"/>
      <path d="M150.67,37a1.55,1.55,0,0,0,0-.33.81.81,0,0,0,0-.16v-.16a.86.86,0,0,1,0-.16l0-.33,0-.21.21,0,.88-.11.22,0,0,.22.09,1.25a.9.9,0,0,0,0,.18,1.55,1.55,0,0,0,0,.15.35.35,0,0,0,.07.12.44.44,0,0,0,.2.15l.13,0h.16a.5.5,0,0,0,.44-.2,1.3,1.3,0,0,0,.15-.73A5,5,0,0,0,153,35.4l-.06-.21.21-.06.92-.25.2-.05.06.2a5,5,0,0,1,.27,1.64v0h0a2.46,2.46,0,0,1-.72,1.95,1.79,1.79,0,0,1-1.21.41,2.38,2.38,0,0,1-.55-.06,1.54,1.54,0,0,1-.45-.2,1.23,1.23,0,0,1-.35-.33,2,2,0,0,1-1.5.6,1.8,1.8,0,0,1-1.49-.59,2.24,2.24,0,0,1-1.71.59h-.3a.45.45,0,0,1-.4-.2.85.85,0,0,1-.13-.49v-.1a.73.73,0,0,1,.14-.45.46.46,0,0,1,.39-.18h.31a1.44,1.44,0,0,0,.74-.15.72.72,0,0,0,.32-.47,2.92,2.92,0,0,0,0-.33v-.16a.76.76,0,0,0,0-.15,1,1,0,0,0,0-.17l0-.33,0-.21.21,0,.88-.11.23,0,0,.22.08,1.25a.72.72,0,0,0,.2.5,1.14,1.14,0,0,0,1.13,0A.73.73,0,0,0,150.67,37Zm-1.19-3.42.76-.76.08-.08.08.08.77.77,0,0,0,0,.76-.76.08-.08.08.08.77.77.08.08-.08.08-.76.76-.08.08-.08-.08-.77-.77,0,0,0,0-.76.76-.08.08-.08-.08-.77-.77-.08-.08Zm.86-1.44.76-.77.09-.08.08.08.77.77.08.08-.08.08-.77.77-.08.08-.08-.08-.77-.77-.08-.08Z"/>
      <path d="M159.45,37.65h.36a.28.28,0,0,1,.13,0,.14.14,0,0,1,.09.08.24.24,0,0,1,.06.09.23.23,0,0,1,0,.13.72.72,0,0,1,0,.13v.34a1.31,1.31,0,0,1,0,.17.65.65,0,0,1,0,.21.34.34,0,0,1-.1.16.25.25,0,0,1-.17.08h-.43a2.89,2.89,0,0,1-1.22,1.82,5.45,5.45,0,0,1-2.56.82h-.18l0-.17-.24-.93,0-.23.24,0c1.42-.15,2.32-.58,2.68-1.28h-.47a2.45,2.45,0,0,1-1.61-.47,1.62,1.62,0,0,1-.57-1.35,3.08,3.08,0,0,1,.3-1.33,2.5,2.5,0,0,1,.44-.64,1.9,1.9,0,0,1,.57-.4,1.83,1.83,0,0,1,.71-.13,1.61,1.61,0,0,1,1.41.75A4.75,4.75,0,0,1,159.45,37.65Zm-1.33,0c-.1-1-.37-1.45-.81-1.46a.42.42,0,0,0-.3.12.88.88,0,0,0-.23.38,1.72,1.72,0,0,0-.08.48.5.5,0,0,0,.06.26.41.41,0,0,0,.24.16,1.59,1.59,0,0,0,.49.06Z"/>
      <path d="M162.72,34.55a.76.76,0,0,1-.18-.09l-.21-.09.62-1.15.19.09c2.53,1.23,3.8,2.44,3.79,3.62a2.42,2.42,0,0,1-.15.82,2.05,2.05,0,0,1-.4.66,2.23,2.23,0,0,1-1.76.66,7.2,7.2,0,0,1-2.08-.38,8.44,8.44,0,0,1-2.27.38h-.54a.45.45,0,0,1-.4-.2.85.85,0,0,1-.13-.49v-.1a.73.73,0,0,1,.13-.45.49.49,0,0,1,.4-.18h1.13a1.83,1.83,0,0,1-.44-1.2,2,2,0,0,1,.52-1.29,1.88,1.88,0,0,1,1.54-.62Zm-.2,2.67a2.3,2.3,0,0,0,.48-.36.78.78,0,0,0,.25-.59.5.5,0,0,0-.34-.48,1.18,1.18,0,0,0-.35,0,.71.71,0,0,0-.63.36.74.74,0,0,0-.1.35.77.77,0,0,0,.53.71Zm1.77-1.77a1.4,1.4,0,0,1,.25.8,1.82,1.82,0,0,1-.53,1.34,4.25,4.25,0,0,0,.65,0,1,1,0,0,0,.4,0,.72.72,0,0,0,.36-.25.61.61,0,0,0,.11-.35C165.54,36.5,165.12,36,164.29,35.45Z"/>
      <path d="M132.51,51.57a1.89,1.89,0,0,1,0,.47.31.31,0,0,1-.3.23h-.11a2.16,2.16,0,0,1-1.71-.66,2.76,2.76,0,0,1-.59-1.89V44.54h1.36v5.17a1.33,1.33,0,0,0,.23.87.9.9,0,0,0,.72.27h.1l.12,0,.09.05a.16.16,0,0,1,0,.08l0,.09a.65.65,0,0,0,0,.11v.37Z"/>
      <path d="M135.1,47.75l-.18-.09-.21-.09.63-1.15.18.09c2.54,1.23,3.8,2.44,3.8,3.62a2.42,2.42,0,0,1-.15.82A2,2,0,0,1,137,52.27a7.26,7.26,0,0,1-2.09-.38,8.38,8.38,0,0,1-2.26.38h-.55a.44.44,0,0,1-.39-.2.86.86,0,0,1-.14-.49v-.1a.73.73,0,0,1,.14-.45.46.46,0,0,1,.39-.18h1.13a1.82,1.82,0,0,1-.43-1.2,1.94,1.94,0,0,1,.51-1.29,1.9,1.9,0,0,1,1.54-.62Zm-.19,2.67a2.27,2.27,0,0,0,.47-.36.79.79,0,0,0,.26-.59.49.49,0,0,0-.35-.47.86.86,0,0,0-.34-.06.69.69,0,0,0-.63.36.64.64,0,0,0-.1.35,1,1,0,0,0,.69.77Zm1.77-1.77a1.47,1.47,0,0,1,.24.8,1.79,1.79,0,0,1-.53,1.34,4.28,4.28,0,0,0,.66.05,1,1,0,0,0,.39-.05.71.71,0,0,0,.37-.25.69.69,0,0,0,.11-.35C137.92,49.7,137.51,49.19,136.68,48.65Z"/>
      <path d="M141.35,51.83a1.81,1.81,0,0,0,.24,1,1.48,1.48,0,0,0,.76.58,4,4,0,0,0,1.32.2,3.78,3.78,0,0,0,1.62-.33,2,2,0,0,0,.62-.44.81.81,0,0,0,.24-.54v-.05s-.08,0-.21,0h-.61a1.71,1.71,0,0,1-1.13-.33,1.14,1.14,0,0,1-.42-1,2.66,2.66,0,0,1,.71-1.87A3.19,3.19,0,0,1,147,48h.33v1.47H147a2.17,2.17,0,0,0-1.3.36,1.06,1.06,0,0,0-.5.81.15.15,0,0,0,0,.06s.07,0,.16,0H146a1.77,1.77,0,0,1,.8.14,1.08,1.08,0,0,1,.51.43,1.34,1.34,0,0,1,.18.71,2.53,2.53,0,0,1-.42,1.46,2.88,2.88,0,0,1-1.25,1,4.42,4.42,0,0,1-1,.33,6,6,0,0,1-1.14.11,4.13,4.13,0,0,1-2.73-.79,2.82,2.82,0,0,1-.94-2.31,7.63,7.63,0,0,1,.77-2.94l.08-.18.2.08.85.35.2.08-.09.2A6.23,6.23,0,0,0,141.35,51.83Z"/>
      <path d="M151.5,49.11a5.14,5.14,0,0,1,.46,2.06,3.34,3.34,0,0,1-1,2.58,5,5,0,0,1-3,1.15l-.18,0-.05-.18-.23-.92-.06-.24.25,0a3.94,3.94,0,0,0,2.16-.73,2,2,0,0,0,.69-1.59,3.79,3.79,0,0,0-.4-1.63l-.1-.22.22-.08.92-.31.18-.07Z"/>
      <path d="M154.83,52.28a2.49,2.49,0,0,1-1.61-.47,1.64,1.64,0,0,1-.56-1.36,3.08,3.08,0,0,1,.3-1.33,2.14,2.14,0,0,1,.71-.87,1.84,1.84,0,0,1,1.76-.14,1.85,1.85,0,0,1,.59.46,2.57,2.57,0,0,1,.42.75,5.41,5.41,0,0,1,.34,2,3.27,3.27,0,0,1-1,2.5,4.94,4.94,0,0,1-2.89,1.1h-.18l0-.17-.23-.92-.06-.24.24,0c1.41-.15,2.3-.59,2.68-1.32l-.29,0Zm.59-1.47a3.74,3.74,0,0,0-.11-.67,1.54,1.54,0,0,0-.18-.44.65.65,0,0,0-.24-.23.54.54,0,0,0-.28-.08.46.46,0,0,0-.21,0,.39.39,0,0,0-.17.15,1.05,1.05,0,0,0-.15.3,1.45,1.45,0,0,0-.09.48.45.45,0,0,0,.19.4,1.28,1.28,0,0,0,.66.12A2.45,2.45,0,0,0,155.42,50.81Z"/>
      <path d="M160.48,51.57a2.3,2.3,0,0,1,0,.47.31.31,0,0,1-.3.23H160a2.16,2.16,0,0,1-1.71-.66,2.76,2.76,0,0,1-.59-1.89V44.54h1.37v5.17a1.34,1.34,0,0,0,.22.87.92.92,0,0,0,.73.27h.09l.12,0,.09.05a.16.16,0,0,1,0,.08l0,.09s0,.06,0,.11,0,.08,0,.1v.27Z"/>
      <path d="M164.33,51.58v.31s0,.08,0,.11l0,.1a.35.35,0,0,1-.06.09l-.09.06-.12,0h0a1.79,1.79,0,0,1-1.49-.62,2.51,2.51,0,0,1-1.84.62h-.56a.45.45,0,0,1-.39-.2.88.88,0,0,1-.13-.49v-.1a.75.75,0,0,1,.06-.31.47.47,0,0,1,.46-.32h.53c.71,0,1.1-.18,1.16-.53a1.68,1.68,0,0,0,0-.41c0-.18,0-.34,0-.5l0-.44v-.2l.2,0,.89-.11.22,0v.22l.09,1.25a.89.89,0,0,0,.22.58.84.84,0,0,0,.6.18h0l.13,0a.25.25,0,0,1,.1.08.93.93,0,0,1,0,.1.23.23,0,0,1,0,.13.57.57,0,0,1,0,.12v.28Zm-3.09-4.87.78-.79.08-.08.08.08.79.79.08.08-.08.08-.78.78-.08.09-.08-.09-.79-.78-.08-.08Z"/>
      <path d="M166.36,50.27a2.18,2.18,0,0,1-1.45-.43,1.53,1.53,0,0,1-.53-1.24,1,1,0,0,1,0-.17.86.86,0,0,1,0-.16l0-.16a3.42,3.42,0,0,1,.25-.8,2.31,2.31,0,0,1,.41-.62,1.73,1.73,0,0,1,1.27-.53,1.85,1.85,0,0,1,.48.07,1.28,1.28,0,0,1,.43.19,3.05,3.05,0,0,1,1.18,2.4l0,.35c0,.11,0,.22,0,.34a2.63,2.63,0,0,1-.81,2.23,4.13,4.13,0,0,1-2.4.53h-1.35a.45.45,0,0,1-.4-.2.94.94,0,0,1-.13-.49v-.1a.73.73,0,0,1,.14-.45.46.46,0,0,1,.39-.18h1.41a3.64,3.64,0,0,0,1.3-.18.82.82,0,0,0,.54-.48l-.26,0a2.4,2.4,0,0,1-.28,0Zm-1-5.71.79-.78.08-.08.08.08.78.79.08.08-.08.08-.78.78-.08.08-.08-.08-.79-.79-.08-.08Zm.35,3.89a.41.41,0,0,0,.15.35,1.05,1.05,0,0,0,.58.1,2,2,0,0,0,.34,0l.34-.06c0-.16-.06-.3-.1-.44a3,3,0,0,0-.13-.36.91.91,0,0,0-.13-.22.44.44,0,0,0-.13-.14.39.39,0,0,0-.14-.08l-.16,0a.44.44,0,0,0-.33.13.91.91,0,0,0-.24.44l0,.12s0,.07,0,.1Z"/>
    </g>
  </g>
  <g>
    <rect class="cls-3" x="337.06" width="74.5" height="70.66" rx="6.83"/>
    <g>
      <path d="M360.81,32.4a6.34,6.34,0,0,1-3.31-.71,2.31,2.31,0,0,1-1.15-2.12,3.64,3.64,0,0,1,.31-1.46l.09-.2.2.09.84.36.19.09-.07.19a2.07,2.07,0,0,0-.17.78,1.2,1.2,0,0,0,.3.84,1.91,1.91,0,0,0,1,.53,6.31,6.31,0,0,0,1.71.19,14,14,0,0,0,2.14-.13,3,3,0,0,0,1.13-.34.52.52,0,0,0,.1-.11.53.53,0,0,0,.08-.15,1.17,1.17,0,0,0,.06-.2,2,2,0,0,0,0-.26,4,4,0,0,0-.05-.54c0-.22-.08-.46-.14-.73l-.05-.21.2,0,.88-.22.19-.06.07.2a5.07,5.07,0,0,1,.28,1.52,3,3,0,0,1-.21,1.18,1.82,1.82,0,0,1-.63.79,7.46,7.46,0,0,1-3.95.72Zm-1.58-5.14.79-.79.08-.08.08.08.78.79h0l.78-.79.08-.08.08.08.79.79.08.08-.08.08-.78.78-.08.08-.08-.08-.79-.78h0l-.78.78-.08.08L360,28.2l-.79-.78-.08-.08Z"/>
      <path d="M369.27,31.7a1.89,1.89,0,0,1,0,.47.31.31,0,0,1-.3.23h-.11a2.2,2.2,0,0,1-1.72-.66,2.81,2.81,0,0,1-.58-1.89V24.67h1.36v5.17a1.38,1.38,0,0,0,.23.88.93.93,0,0,0,.72.26h.1l.12,0,.09.05a.19.19,0,0,1,0,.09.59.59,0,0,1,0,.08.65.65,0,0,0,0,.11v.37Z"/>
      <path d="M373.13,31.71v.2a.54.54,0,0,1,0,.11.37.37,0,0,1,0,.11.42.42,0,0,1,0,.1.15.15,0,0,1-.06.09l-.08.06-.12,0h-.06a1.79,1.79,0,0,1-1.48-.62,2.53,2.53,0,0,1-1.84.62h-.56a.44.44,0,0,1-.39-.2.88.88,0,0,1-.13-.49v-.1a1,1,0,0,1,0-.31.58.58,0,0,1,.18-.23.48.48,0,0,1,.29-.09h.53c.71,0,1.1-.18,1.16-.53a2.46,2.46,0,0,0,0-.41c0-.18,0-.34,0-.49l0-.45v-.2l.2,0,.89-.11.22,0V29l.09,1.25a.84.84,0,0,0,.22.58.82.82,0,0,0,.59.18h.05l.13,0a.24.24,0,0,1,.09.08l.06.1a.23.23,0,0,1,0,.13.57.57,0,0,1,0,.12v.28ZM369.7,34l.78-.78.08-.08.08.08.79.78.08.08-.08.08-.78.79-.08.08-.08-.08-.79-.79-.08-.08Z"/>
      <path d="M377.05,30.36a1.55,1.55,0,0,0,0-.33v-.16a.81.81,0,0,1,0-.16.86.86,0,0,1,0-.16l0-.33,0-.21.21,0,.88-.11.22,0,0,.22.09,1.25a.9.9,0,0,0,0,.18,1.55,1.55,0,0,0,0,.15.35.35,0,0,0,.07.12.44.44,0,0,0,.2.15.5.5,0,0,0,.13,0h.16a.54.54,0,0,0,.45-.2,1.41,1.41,0,0,0,.14-.73,5,5,0,0,0-.23-1.31l-.06-.21.21-.06.92-.25.2-.05.06.2A5,5,0,0,1,381,30v0h0a2.46,2.46,0,0,1-.72,1.95,1.74,1.74,0,0,1-1.21.41,2.38,2.38,0,0,1-.55-.06,1.54,1.54,0,0,1-.45-.2,1.23,1.23,0,0,1-.35-.33,2,2,0,0,1-1.5.6,1.81,1.81,0,0,1-1.49-.59,2.24,2.24,0,0,1-1.71.59h-.3a.45.45,0,0,1-.4-.2.94.94,0,0,1-.13-.49v-.1a.73.73,0,0,1,.14-.45.46.46,0,0,1,.39-.18H373a1.5,1.5,0,0,0,.75-.15.75.75,0,0,0,.31-.47,1.62,1.62,0,0,0,0-.33v-.15a.81.81,0,0,0,0-.16,1,1,0,0,0,0-.17l0-.33,0-.21.21,0,.88-.11.23,0,0,.22.08,1.25a.72.72,0,0,0,.2.5.9.9,0,0,0,.58.15.88.88,0,0,0,.55-.15A.73.73,0,0,0,377.05,30.36Z"/>
      <path d="M384.73,31.7a2.3,2.3,0,0,1,0,.47.3.3,0,0,1-.3.23h-.11a2.16,2.16,0,0,1-1.71-.66,2.76,2.76,0,0,1-.59-1.89V24.67h1.37v5.17a1.39,1.39,0,0,0,.22.88,1,1,0,0,0,.73.26h.09l.12,0,.09.05a.19.19,0,0,1,.05.09l0,.08s0,.06,0,.11,0,.08,0,.1v.27Z"/>
      <path d="M388.9,29.67l-.32-.12-.39-.16a4.94,4.94,0,0,0-1.35-.41,1,1,0,0,0-.84.42l-.15.2-.1.13-.16-.07-.83-.41-.21-.1.13-.21.08-.14a2.53,2.53,0,0,1,.9-.91,2.34,2.34,0,0,1,1.18-.32,4,4,0,0,1,1.73.49,7.22,7.22,0,0,0,2.51.83h.2v1.34h-.19a2.73,2.73,0,0,0-.9.28c0,.14.16.24.36.33a2.56,2.56,0,0,0,.9.12h.34l.08.05.06.06a.19.19,0,0,1,0,.08s0,.06,0,.08a.22.22,0,0,1,0,.09.22.22,0,0,0,0,.09v.49a.72.72,0,0,1,0,.13.23.23,0,0,1,0,.13l0,.1a.19.19,0,0,1-.1.08.32.32,0,0,1-.14,0h-.32a3.52,3.52,0,0,1-1.08-.15,1.87,1.87,0,0,1-.78-.44,1.55,1.55,0,0,1-.42-.75l-.07,0-.06,0-.06,0a9.43,9.43,0,0,1-4.29,1.24h-.26a.45.45,0,0,1-.4-.2.94.94,0,0,1-.13-.49v-.1a.73.73,0,0,1,.14-.45.46.46,0,0,1,.39-.18h.32A9.81,9.81,0,0,0,388.9,29.67Z"/>
      <path d="M393.2,31.72a2.07,2.07,0,0,1-1.51.68h-.11a.43.43,0,0,1-.39-.2.88.88,0,0,1-.13-.49v-.1a.73.73,0,0,1,.13-.45.46.46,0,0,1,.39-.18h.09a1,1,0,0,0,.69-.43,3,3,0,0,0,.37-.68c.51-1.12,1.19-1.69,2-1.69a2.1,2.1,0,0,1,.88.18,1.85,1.85,0,0,1,.68.54,2.51,2.51,0,0,1,.56,1.62,2.13,2.13,0,0,1-.41,1.4l-.16.15-.17.14a1.18,1.18,0,0,1-.19.11l-.2.09-.21.06a.91.91,0,0,1-.23,0l-.24,0A2.72,2.72,0,0,1,393.2,31.72Zm1.81-.6a.59.59,0,0,0,.42-.11.56.56,0,0,0,.12-.41v-.12a.41.41,0,0,1,0-.11.36.36,0,0,1,0-.1l0-.1,0-.08a1.3,1.3,0,0,0-.12-.21.4.4,0,0,0-.15-.14.51.51,0,0,0-.18-.09l-.21,0c-.37,0-.66.28-.89.85A1.59,1.59,0,0,0,395,31.12Z"/>
      <path d="M357.36,44.9a1.89,1.89,0,0,1,0,.47.31.31,0,0,1-.3.23h-.11a2.19,2.19,0,0,1-1.72-.66,2.76,2.76,0,0,1-.58-1.89V37.87H356V43a1.38,1.38,0,0,0,.23.88.92.92,0,0,0,.72.26h.1l.12,0,.09,0a.36.36,0,0,1,.05.09.59.59,0,0,1,0,.08s0,.06,0,.11a.46.46,0,0,1,0,.1v.27Z"/>
      <path d="M360,41.09l-.18-.1-.21-.09.63-1.15.18.09c2.54,1.23,3.8,2.44,3.8,3.62a2.37,2.37,0,0,1-.15.82,2.48,2.48,0,0,1-.4.66,2.25,2.25,0,0,1-1.76.66,7.26,7.26,0,0,1-2.09-.38,8.38,8.38,0,0,1-2.26.38H357a.44.44,0,0,1-.39-.2.86.86,0,0,1-.14-.49v-.1a.73.73,0,0,1,.14-.45.46.46,0,0,1,.39-.18h1.13a1.82,1.82,0,0,1-.43-1.2,1.94,1.94,0,0,1,.51-1.29,1.9,1.9,0,0,1,1.54-.62Zm-.19,2.67a2.79,2.79,0,0,0,.47-.37.79.79,0,0,0,.26-.59.5.5,0,0,0-.35-.47.86.86,0,0,0-.34-.06.68.68,0,0,0-.63.36.64.64,0,0,0-.1.35.76.76,0,0,0,.53.71ZM361.53,42a1.47,1.47,0,0,1,.24.8,1.82,1.82,0,0,1-.53,1.35,5.76,5.76,0,0,0,.66,0,1.33,1.33,0,0,0,.39,0,.78.78,0,0,0,.37-.26.69.69,0,0,0,.11-.35C362.77,43,362.36,42.52,361.53,42Z"/>
      <path d="M370.26,44.85v-7h1.35v5.38a1.58,1.58,0,0,0,.05.41.71.71,0,0,0,.18.29.92.92,0,0,0,.31.17,2,2,0,0,0,.47,0h.21l.08.05.06.06s0,0,0,.08a.41.41,0,0,1,0,.08.22.22,0,0,1,0,.09.34.34,0,0,1,0,.09v.5s0,.07,0,.12a.86.86,0,0,1,0,.13.54.54,0,0,1,0,.11.23.23,0,0,1-.1.07.28.28,0,0,1-.13,0h-.14a2.33,2.33,0,0,1-1.05-.22,3.3,3.3,0,0,1-1,2.24,3.48,3.48,0,0,1-2.38.77,3.4,3.4,0,0,1-2.48-.82,3.18,3.18,0,0,1-.84-2.39,6.29,6.29,0,0,1,.11-1.14,6.53,6.53,0,0,1,.35-1.14l.08-.2.21.09.84.35.2.08-.08.19a4.83,4.83,0,0,0-.34,1.77,1.81,1.81,0,0,0,.47,1.38,2.08,2.08,0,0,0,1.48.45,2.88,2.88,0,0,0,.94-.13,1.69,1.69,0,0,0,.65-.39,1.81,1.81,0,0,0,.39-.68A3.38,3.38,0,0,0,370.26,44.85Z"/>
      <path d="M376.91,44.91v.2a.54.54,0,0,1,0,.11s0,.08,0,.11a.42.42,0,0,1,0,.1.15.15,0,0,1-.06.09l-.09.06-.11,0h-.06A1.81,1.81,0,0,1,375,45a2.48,2.48,0,0,1-1.83.62h-.56a.43.43,0,0,1-.39-.2.88.88,0,0,1-.13-.49v-.1a1,1,0,0,1,.05-.31.58.58,0,0,1,.18-.23.46.46,0,0,1,.29-.09h.53c.71,0,1.1-.18,1.16-.53a2.46,2.46,0,0,0,0-.41c0-.18,0-.34,0-.49l0-.45,0-.2.21,0,.88-.11.22,0,0,.22.09,1.25A.84.84,0,0,0,376,44a.82.82,0,0,0,.59.18h0l.13,0a.24.24,0,0,1,.09.08l.06.1a.86.86,0,0,1,0,.13.57.57,0,0,1,0,.12v.28Zm-4.42,2.31.78-.78.09-.08.08.08.78.78h0l.78-.78.08-.08.08.08.79.78.08.08-.08.09-.78.78-.08.08-.08-.08-.79-.79h0v0l-.78.78-.08.08-.08-.08-.79-.79-.08-.08Z"/>
      <path d="M376.77,45.6h-.27a.44.44,0,0,1-.39-.2.86.86,0,0,1-.14-.49v-.1a.73.73,0,0,1,.14-.45.46.46,0,0,1,.39-.18h.28a2.28,2.28,0,0,0,.71-.1.76.76,0,0,0,.39-.3.93.93,0,0,0,.12-.5l0-5.19v-.22h1.35v5.41a1.27,1.27,0,0,0,.1.52.61.61,0,0,0,.3.29,1.4,1.4,0,0,0,.55.09h.09a.4.4,0,0,1,.15,0,.14.14,0,0,1,.09.08.3.3,0,0,1,.06.11.25.25,0,0,1,0,.13.72.72,0,0,1,0,.13v.46a1.37,1.37,0,0,1,0,.16.53.53,0,0,1,0,.16.38.38,0,0,1-.11.11.29.29,0,0,1-.17.05h-.08a2.26,2.26,0,0,1-1.7-.64A2.49,2.49,0,0,1,376.77,45.6Z"/>
      <path d="M384.93,42.87l-.31-.12-.4-.16a4.75,4.75,0,0,0-1.35-.41,1,1,0,0,0-.83.42l-.15.2-.11.13-.16-.07-.82-.41-.21-.1.12-.21.09-.14a2.51,2.51,0,0,1,.89-.91,2.38,2.38,0,0,1,1.19-.32,4,4,0,0,1,1.72.49,7.22,7.22,0,0,0,2.51.83h.21v1.34h-.2a2.62,2.62,0,0,0-.89.28c0,.14.16.24.36.33a2.53,2.53,0,0,0,.89.12h.34l.08.05.06.06a.19.19,0,0,1,0,.08.31.31,0,0,1,0,.08.22.22,0,0,1,0,.09.34.34,0,0,1,0,.09v.5a.68.68,0,0,1,0,.12.23.23,0,0,1,0,.13.93.93,0,0,1-.05.1.19.19,0,0,1-.1.08.29.29,0,0,1-.14,0h-.31a3.59,3.59,0,0,1-1.09-.15,1.77,1.77,0,0,1-.77-.44,1.56,1.56,0,0,1-.43-.75l-.06,0-.07,0-.06,0a9.37,9.37,0,0,1-4.29,1.24h-.26a.44.44,0,0,1-.39-.2.85.85,0,0,1-.13-.49v-.1a.73.73,0,0,1,.13-.45.46.46,0,0,1,.39-.18h.32A9.81,9.81,0,0,0,384.93,42.87Z"/>
      <path d="M388,45.6h-.41a.45.45,0,0,1-.4-.2.94.94,0,0,1-.13-.49v-.1a.73.73,0,0,1,.14-.45.46.46,0,0,1,.39-.18H388a2.39,2.39,0,0,0,1.05-.15c.24-.13.35-.44.35-.93a5.93,5.93,0,0,0-.18-1.37l-.06-.21.21-.05.88-.22.19,0,.07.19a6,6,0,0,1,.26,1.69,2.44,2.44,0,0,1-.83,2.06,1.88,1.88,0,0,1-.37.21,2.53,2.53,0,0,1-.44.14,4.21,4.21,0,0,1-.53.08A5.47,5.47,0,0,1,388,45.6Zm-.49-6,.78-.78.09-.08.08.08.78.79h0l.78-.78.08-.08.08.08.79.79.08.08-.08.08-.78.78-.08.08-.08-.08-.79-.79h0l-.78.78-.08.08-.08-.08-.79-.79-.08-.08Z"/>
      <path d="M397,45.61a2.44,2.44,0,0,1-1.6-.47,1.65,1.65,0,0,1-.57-1.36,3.08,3.08,0,0,1,.3-1.33,2.14,2.14,0,0,1,.71-.87,1.74,1.74,0,0,1,1-.3,1.71,1.71,0,0,1,.75.16,1.75,1.75,0,0,1,.59.46,2.84,2.84,0,0,1,.43.75,5.41,5.41,0,0,1,.33,2,3.24,3.24,0,0,1-1,2.5,4.94,4.94,0,0,1-2.89,1.1l-.18,0,0-.18-.23-.92-.06-.24.25,0q2.1-.22,2.67-1.32l-.29,0Zm.59-1.47a3.74,3.74,0,0,0-.11-.67,1.54,1.54,0,0,0-.18-.44.63.63,0,0,0-.23-.23.57.57,0,0,0-.29-.08.5.5,0,0,0-.21.05.57.57,0,0,0-.17.15,1.4,1.4,0,0,0-.15.3,1.42,1.42,0,0,0-.08.48.46.46,0,0,0,.18.4,1.28,1.28,0,0,0,.66.12A2.38,2.38,0,0,0,397.62,44.14Z"/>
    </g>
  </g>
  <g>
    <rect class="cls-4" x="224.71" width="74.5" height="70.66" rx="6.83"/>
    <g>
      <path d="M235.8,27.43a2.41,2.41,0,0,1,1.1.24,2.2,2.2,0,0,1,.81.71,2.1,2.1,0,0,1,.36,1.21,2.19,2.19,0,0,1-1.06,2,5.94,5.94,0,0,1-3.09.66h-3.2V30.83H232c.07-.1.16-.26.28-.46V24.52h1.36v4A3,3,0,0,1,235.8,27.43ZM234,30.82a5.59,5.59,0,0,0,2-.27,1.22,1.22,0,0,0,.51-.36.9.9,0,0,0,.09-.82.72.72,0,0,0-.18-.26.87.87,0,0,0-.62-.22,1.7,1.7,0,0,0-1,.48,6.54,6.54,0,0,0-1.23,1.45Z"/>
      <path d="M241.77,31.55a1.89,1.89,0,0,1,0,.47.31.31,0,0,1-.3.23h-.11a2.17,2.17,0,0,1-1.72-.66A2.76,2.76,0,0,1,239,29.7V24.52h1.36v5.17a1.38,1.38,0,0,0,.23.88.92.92,0,0,0,.72.26h.1l.12,0,.08,0,.06.09,0,.08s0,.06,0,.11a.46.46,0,0,1,0,.1v.27Z"/>
      <path d="M245.63,31.56v.2a.54.54,0,0,1,0,.11s0,.08,0,.11a.42.42,0,0,1,0,.1.15.15,0,0,1-.06.09l-.09.06-.11,0h-.06a1.81,1.81,0,0,1-1.49-.62,2.48,2.48,0,0,1-1.83.62h-.56a.43.43,0,0,1-.39-.2.88.88,0,0,1-.13-.49v-.1a1,1,0,0,1,.05-.31.58.58,0,0,1,.18-.23.46.46,0,0,1,.29-.09h.53c.71,0,1.1-.18,1.16-.53a2.46,2.46,0,0,0,0-.41c0-.18,0-.34,0-.49l0-.45,0-.2.21,0,.88-.11.22,0,0,.22.09,1.25a.84.84,0,0,0,.22.58.82.82,0,0,0,.59.18h.05l.13,0a.24.24,0,0,1,.09.08l.06.1a.86.86,0,0,1,0,.13c0,.05,0,.09,0,.12v.28Zm-3.43,2.31.78-.78.08-.08.08.08.79.78L244,34l-.08.09-.78.78-.08.08-.09-.08L242.2,34l-.08-.08Z"/>
      <path d="M245.63,32.25h-.4a.45.45,0,0,1-.4-.2.85.85,0,0,1-.13-.49v-.1a.73.73,0,0,1,.14-.45.46.46,0,0,1,.39-.18h.4a2.41,2.41,0,0,0,1.06-.15c.23-.13.35-.44.35-.93a5.48,5.48,0,0,0-.19-1.37l0-.21.21-.05.87-.22.2,0,.06.19a5.72,5.72,0,0,1,.27,1.69,2.41,2.41,0,0,1-.84,2.06,2.12,2.12,0,0,1-.36.21,2.39,2.39,0,0,1-.45.14,3.79,3.79,0,0,1-.52.08A5.79,5.79,0,0,1,245.63,32.25Zm-.48-6,.78-.78.08-.08.08.08.79.79h0l.78-.78.08-.08.08.08.79.79.08.08-.08.08-.79.78-.08.08-.08-.08-.78-.79h0l-.78.78-.08.08-.08-.08-.79-.79-.08-.08Z"/>
      <path d="M251.78,29.09a5.16,5.16,0,0,1,.47,2.06,3.38,3.38,0,0,1-1,2.59,5,5,0,0,1-2.94,1.14l-.19,0,0-.18-.23-.92-.06-.24.24,0a3.94,3.94,0,0,0,2.16-.73,2,2,0,0,0,.69-1.59,3.79,3.79,0,0,0-.4-1.63l-.1-.22.23-.08.91-.31.19-.07Z"/>
      <path d="M253.41,24.52h1.14v7.72H253.2V24.52Z"/>
      <path d="M258.55,29.85q0-1.68,2.76-2.58v-.06l0-.21.2,0,.88-.18.22,0,0,.22.45,3.18a.84.84,0,0,0,.23.53.79.79,0,0,0,.55.16h.2l.08,0,0,.06.05.06a.19.19,0,0,1,0,.08.25.25,0,0,1,0,.07s0,.05,0,.09v.56a.62.62,0,0,1,0,.12.26.26,0,0,1,0,.14l0,.1a.23.23,0,0,1-.1.07.28.28,0,0,1-.13,0h-.13a2.35,2.35,0,0,1-1.17-.27,1.49,1.49,0,0,1-.68-.8,2.37,2.37,0,0,1-1.33.41,2,2,0,0,1-1.85-.88,1.55,1.55,0,0,1-.17-.4A2.31,2.31,0,0,1,258.55,29.85Zm3-1.25a6.69,6.69,0,0,0-.74.33,2.77,2.77,0,0,0-.49.32,1.71,1.71,0,0,0-.27.28.56.56,0,0,0-.08.26.39.39,0,0,0,.13.33.87.87,0,0,0,.51.11,1.43,1.43,0,0,0,.72-.22.66.66,0,0,0,.28-.32,1,1,0,0,0,0-.49Z"/>
      <path d="M268.1,31.56v.31s0,.08,0,.11a.42.42,0,0,1,0,.1.19.19,0,0,1-.05.09l-.09.06-.12,0h-.06a1.79,1.79,0,0,1-1.48-.62,2.51,2.51,0,0,1-1.84.62h-.56a.45.45,0,0,1-.39-.2.88.88,0,0,1-.13-.49v-.1a1,1,0,0,1,.05-.31.58.58,0,0,1,.18-.23.48.48,0,0,1,.29-.09h.53c.71,0,1.1-.18,1.16-.53a2.37,2.37,0,0,0,0-.41c0-.18,0-.34,0-.49l0-.45v-.2l.2,0,.89-.11.22,0v.22l.09,1.25a.84.84,0,0,0,.22.58.83.83,0,0,0,.6.18h0l.13,0a.24.24,0,0,1,.09.08l.06.1a.23.23,0,0,1,0,.13.57.57,0,0,1,0,.12v.28Zm-3.43,2.31.78-.78.08-.08.08.08.79.78.08.08-.08.09-.78.78-.08.08-.08-.08-.79-.79-.08-.08Z"/>
      <path d="M272,30.21a1.55,1.55,0,0,0,0-.33v-.16a.81.81,0,0,1,0-.16.86.86,0,0,1,0-.16l0-.33,0-.21.21,0,.88-.11.22,0,0,.22.09,1.25a.9.9,0,0,0,0,.18,1.55,1.55,0,0,0,0,.15.35.35,0,0,0,.07.12.26.26,0,0,0,.09.09.24.24,0,0,0,.11.06.5.5,0,0,0,.13,0H274a.53.53,0,0,0,.44-.2,1.41,1.41,0,0,0,.14-.73,4.57,4.57,0,0,0-.23-1.31l-.06-.21.22-.06.91-.25.2,0,.06.2a5.28,5.28,0,0,1,.28,1.64v0h0a2.5,2.5,0,0,1-.73,1.95,1.74,1.74,0,0,1-1.21.41,2.38,2.38,0,0,1-.55-.06,1.54,1.54,0,0,1-.45-.2,1.23,1.23,0,0,1-.35-.33,2,2,0,0,1-1.49.6,1.82,1.82,0,0,1-1.5-.59,2.23,2.23,0,0,1-1.71.59h-.3a.45.45,0,0,1-.4-.2.94.94,0,0,1-.13-.49v-.1a.73.73,0,0,1,.14-.45.46.46,0,0,1,.39-.18H268a1.5,1.5,0,0,0,.75-.15.75.75,0,0,0,.31-.47,1.62,1.62,0,0,0,0-.33v-.15a.81.81,0,0,0,0-.16,1,1,0,0,0,0-.17l0-.33,0-.21.21,0,.89-.11.22,0,0,.22.08,1.25a.72.72,0,0,0,.2.5.9.9,0,0,0,.58.15.88.88,0,0,0,.55-.15A.73.73,0,0,0,272,30.21Z"/>
      <path d="M279.7,31.55a2.3,2.3,0,0,1,0,.47.3.3,0,0,1-.3.23h-.11a2.16,2.16,0,0,1-1.71-.66A2.76,2.76,0,0,1,277,29.7V24.52h1.37v5.17a1.39,1.39,0,0,0,.22.88,1,1,0,0,0,.73.26h.09l.12,0,.09,0a.19.19,0,0,1,.05.09l0,.08s0,.06,0,.11,0,.08,0,.1v.27Z"/>
      <path d="M283.87,29.52l-.32-.12-.39-.16a4.94,4.94,0,0,0-1.35-.41,1,1,0,0,0-.83.42l-.15.2-.11.13-.16-.07-.83-.41-.2-.1.12-.21.08-.14a2.61,2.61,0,0,1,.9-.91,2.34,2.34,0,0,1,1.18-.32,4,4,0,0,1,1.73.49,7.22,7.22,0,0,0,2.51.83h.2v1.34h-.19a2.73,2.73,0,0,0-.9.28c0,.14.16.24.36.33a2.56,2.56,0,0,0,.9.12h.34l.08.05.06.06a.19.19,0,0,1,0,.08.31.31,0,0,1,0,.08.22.22,0,0,1,0,.09.22.22,0,0,0,0,.09v.5a.68.68,0,0,1,0,.12.23.23,0,0,1,0,.13.93.93,0,0,1-.05.1.19.19,0,0,1-.1.08.29.29,0,0,1-.14,0h-.31a3.54,3.54,0,0,1-1.09-.15,1.87,1.87,0,0,1-.78-.44,1.63,1.63,0,0,1-.42-.75l-.07,0-.06,0-.06,0a9.43,9.43,0,0,1-4.29,1.24h-.26a.43.43,0,0,1-.39-.2.86.86,0,0,1-.14-.49v-.1a.73.73,0,0,1,.14-.45.46.46,0,0,1,.39-.18h.32A9.81,9.81,0,0,0,283.87,29.52Z"/>
      <path d="M288.17,31.58a2.08,2.08,0,0,1-1.51.67h-.11a.43.43,0,0,1-.39-.2.88.88,0,0,1-.13-.49v-.1a.73.73,0,0,1,.13-.45.46.46,0,0,1,.39-.18h.09a1,1,0,0,0,.69-.43,3,3,0,0,0,.38-.68c.5-1.12,1.18-1.69,2-1.69a2.1,2.1,0,0,1,.88.18,1.85,1.85,0,0,1,.68.54,2.51,2.51,0,0,1,.56,1.62,2.13,2.13,0,0,1-.41,1.4l-.16.15-.17.14a1.18,1.18,0,0,1-.19.11l-.2.09-.21.06a.91.91,0,0,1-.23,0l-.24,0A2.75,2.75,0,0,1,288.17,31.58ZM290,31a.59.59,0,0,0,.42-.11.56.56,0,0,0,.12-.41v-.12s0-.07,0-.11,0-.07,0-.1l0-.1,0-.08a2,2,0,0,0-.12-.21.4.4,0,0,0-.15-.14.56.56,0,0,0-.17-.09l-.22,0c-.37,0-.66.28-.89.85A1.61,1.61,0,0,0,290,31Z"/>
      <path d="M235.52,44.75a1.89,1.89,0,0,1,0,.47.31.31,0,0,1-.3.23h-.11a2.19,2.19,0,0,1-1.72-.66,2.76,2.76,0,0,1-.58-1.89V37.72h1.36v5.17a1.38,1.38,0,0,0,.23.88.92.92,0,0,0,.72.26h.1l.12,0,.08.05a.2.2,0,0,1,.06.09l0,.08s0,.06,0,.11a.46.46,0,0,1,0,.1v.27Z"/>
      <path d="M238.11,40.94l-.18-.1-.21-.09.63-1.15.18.09c2.54,1.23,3.8,2.44,3.8,3.62a2.37,2.37,0,0,1-.15.82,2.28,2.28,0,0,1-.41.66,2.23,2.23,0,0,1-1.75.66,7.2,7.2,0,0,1-2.09-.38,8.38,8.38,0,0,1-2.26.38h-.55a.43.43,0,0,1-.39-.2.86.86,0,0,1-.14-.49v-.1a.73.73,0,0,1,.14-.45.46.46,0,0,1,.39-.18h1.13a1.82,1.82,0,0,1-.43-1.2,1.94,1.94,0,0,1,.51-1.29,1.9,1.9,0,0,1,1.54-.62Zm-.19,2.67a3.29,3.29,0,0,0,.47-.36.83.83,0,0,0,.26-.6.5.5,0,0,0-.35-.47.86.86,0,0,0-.34-.06.68.68,0,0,0-.63.36.64.64,0,0,0-.1.35.76.76,0,0,0,.53.71Zm1.77-1.78a1.47,1.47,0,0,1,.24.8A1.86,1.86,0,0,1,239.4,44a5.76,5.76,0,0,0,.66,0,1.33,1.33,0,0,0,.39,0,.84.84,0,0,0,.37-.26.69.69,0,0,0,.11-.35C240.93,42.88,240.52,42.37,239.69,41.83Z"/>
      <path d="M244.36,45a1.81,1.81,0,0,0,.24,1,1.5,1.5,0,0,0,.75.58,4.1,4.1,0,0,0,1.33.2,3.78,3.78,0,0,0,1.62-.33,2.12,2.12,0,0,0,.62-.44.79.79,0,0,0,.24-.54s0,0,0-.05-.07,0-.2,0h-.61a1.71,1.71,0,0,1-1.13-.33,1.14,1.14,0,0,1-.42-1,2.66,2.66,0,0,1,.71-1.87,3.19,3.19,0,0,1,2.49-1h.33v1.46H250a2.17,2.17,0,0,0-1.3.36,1,1,0,0,0-.5.81.15.15,0,0,0,0,.06.24.24,0,0,0,.15,0H249a1.94,1.94,0,0,1,.8.14,1.14,1.14,0,0,1,.51.43,1.34,1.34,0,0,1,.18.71,2.53,2.53,0,0,1-.42,1.46,2.94,2.94,0,0,1-1.25,1,4.42,4.42,0,0,1-1,.33,6.12,6.12,0,0,1-1.14.11,4.1,4.1,0,0,1-2.73-.79A2.82,2.82,0,0,1,243,45a7.37,7.37,0,0,1,.77-2.93l.08-.19.2.08.84.35.21.08-.09.2A6.23,6.23,0,0,0,244.36,45Z"/>
      <path d="M254.5,42.29a5,5,0,0,1,.47,2.06,3.38,3.38,0,0,1-1,2.59A5,5,0,0,1,251,48.08l-.18,0-.05-.18-.23-.92-.06-.24.25,0a3.94,3.94,0,0,0,2.16-.73,2,2,0,0,0,.69-1.59,3.94,3.94,0,0,0-.4-1.63l-.1-.22.22-.08.92-.31.18-.07Z"/>
      <path d="M257.84,45.46a2.47,2.47,0,0,1-1.61-.47,1.65,1.65,0,0,1-.57-1.36,3.08,3.08,0,0,1,.3-1.33,2.16,2.16,0,0,1,.72-.87,1.84,1.84,0,0,1,1.76-.14,1.85,1.85,0,0,1,.59.46,2.57,2.57,0,0,1,.42.75,5.41,5.41,0,0,1,.34,2,3.27,3.27,0,0,1-1,2.5,5,5,0,0,1-2.89,1.1l-.18,0-.05-.18-.23-.92-.06-.24.25,0c1.41-.15,2.3-.59,2.68-1.32l-.3,0Zm.59-1.47a3.74,3.74,0,0,0-.11-.67,1.29,1.29,0,0,0-.19-.44.56.56,0,0,0-.23-.23.54.54,0,0,0-.28-.08.46.46,0,0,0-.21,0,.47.47,0,0,0-.17.15,1.05,1.05,0,0,0-.15.3,1.49,1.49,0,0,0-.09.48.46.46,0,0,0,.18.4,1.33,1.33,0,0,0,.66.12A2.46,2.46,0,0,0,258.43,44Z"/>
      <path d="M263.48,44.75a1.89,1.89,0,0,1,0,.47.31.31,0,0,1-.3.23h-.11a2.16,2.16,0,0,1-1.71-.66,2.76,2.76,0,0,1-.59-1.89V37.72h1.37v5.17a1.39,1.39,0,0,0,.22.88.94.94,0,0,0,.73.26h.09l.12,0,.09.05a.19.19,0,0,1,.05.09.59.59,0,0,1,0,.08.65.65,0,0,0,0,.11v.37Z"/>
      <path d="M267.34,44.76v.31s0,.08,0,.11a.42.42,0,0,1,0,.1.19.19,0,0,1,0,.09l-.09.06-.12,0H267a1.79,1.79,0,0,1-1.48-.62,2.51,2.51,0,0,1-1.84.62h-.56a.45.45,0,0,1-.39-.2.88.88,0,0,1-.13-.49v-.1a1,1,0,0,1,.05-.31.58.58,0,0,1,.18-.23.48.48,0,0,1,.29-.09h.53c.71,0,1.1-.18,1.16-.53a2.37,2.37,0,0,0,0-.41c0-.18,0-.34,0-.49l0-.45V42l.2,0,.89-.11.22,0V42l.09,1.25a.84.84,0,0,0,.22.58.83.83,0,0,0,.6.18h0l.13,0a.24.24,0,0,1,.09.08l.06.1a.23.23,0,0,1,0,.13.57.57,0,0,1,0,.12v.28Zm-3.09-4.87.78-.78.08-.08.08.08.79.78.08.08-.08.08-.78.78-.08.09-.08-.09-.79-.78-.08-.08Z"/>
      <path d="M269.37,43.45a2.18,2.18,0,0,1-1.45-.43,1.53,1.53,0,0,1-.53-1.24v-.16c0-.06,0-.12,0-.17l0-.16a3.58,3.58,0,0,1,.25-.8,2.31,2.31,0,0,1,.41-.62,1.7,1.7,0,0,1,1.27-.52,1.86,1.86,0,0,1,.48.06,1.66,1.66,0,0,1,.43.19,3.08,3.08,0,0,1,1.18,2.4l0,.35c0,.11,0,.23,0,.34a2.63,2.63,0,0,1-.81,2.23,4.13,4.13,0,0,1-2.4.53h-1.35a.45.45,0,0,1-.4-.2.94.94,0,0,1-.13-.49v-.1a.73.73,0,0,1,.14-.45.46.46,0,0,1,.39-.18h1.41a3.64,3.64,0,0,0,1.3-.18.82.82,0,0,0,.54-.48l-.26,0a1.27,1.27,0,0,1-.28,0Zm-1-5.71.78-.78.08-.08.09.08.78.79.08.08-.08.08-.78.78-.08.08-.08-.08-.79-.78-.08-.09Zm.35,3.89a.41.41,0,0,0,.15.35,1.05,1.05,0,0,0,.58.1,2,2,0,0,0,.34,0l.34-.06c0-.16-.06-.3-.1-.44a3,3,0,0,0-.13-.36.91.91,0,0,0-.13-.22.44.44,0,0,0-.13-.14.39.39,0,0,0-.14-.08l-.16,0a.49.49,0,0,0-.33.13.91.91,0,0,0-.24.44.53.53,0,0,0,0,.12.36.36,0,0,0,0,.1Z"/>
      <path d="M282.39,45.31a4.29,4.29,0,0,1-.13.6,4.66,4.66,0,0,1-.23.58c-.57,1.17-1.7,1.75-3.4,1.75a3.65,3.65,0,0,1-2.58-.82,3.13,3.13,0,0,1-.88-2.41,6.42,6.42,0,0,1,.56-2.49l.08-.2.19.08.86.35.19.08L277,43a5.44,5.44,0,0,0-.44,2,1.82,1.82,0,0,0,.51,1.41,2.43,2.43,0,0,0,1.62.45,2.55,2.55,0,0,0,1.77-.53,2.2,2.2,0,0,0,.58-1.65,4.32,4.32,0,0,0-.47-1.89l-.1-.22.22-.08.93-.32.21-.07.06.21.4,1.23a.66.66,0,0,0,.28.37,1,1,0,0,0,.55.12h.21l.08.05.06.06a.22.22,0,0,1,0,.08l0,.08a.22.22,0,0,1,0,.09s0,.07,0,.09v.34c0,.41-.09.62-.32.62h-.08A1.76,1.76,0,0,1,282.39,45.31Zm-4.58-3.25.78-.78.08-.08.08.08.79.79.08.08-.08.08-.78.78-.08.08L278.6,43l-.79-.79-.08-.08Z"/>
      <path d="M287.37,44.76v.31a.36.36,0,0,1,0,.11.38.38,0,0,1,0,.1.35.35,0,0,1-.06.09l-.09.06-.12,0H287a1.81,1.81,0,0,1-1.49-.62,2.49,2.49,0,0,1-1.84.62h-.55a.45.45,0,0,1-.4-.2,1,1,0,0,1-.13-.49v-.1a.75.75,0,0,1,.06-.31.48.48,0,0,1,.17-.23.49.49,0,0,1,.3-.09h.53c.71,0,1.09-.18,1.16-.53a2.46,2.46,0,0,0,0-.41c0-.18,0-.34,0-.49l0-.45,0-.2.21,0,.88-.11.22,0,0,.22.08,1.25a.89.89,0,0,0,.22.58.86.86,0,0,0,.6.18h0l.14,0a.24.24,0,0,1,.09.08.93.93,0,0,1,.05.1.33.33,0,0,1,0,.13v.4ZM283,47.07l.78-.78.08-.08.08.08.79.78h0l.78-.78.08-.08.08.08.79.78.08.08-.08.09-.78.78-.09.08-.08-.08-.78-.79h0v0l-.78.78-.08.08-.08-.08-.79-.79-.08-.08Z"/>
      <path d="M287.38,45.45H287a.44.44,0,0,1-.39-.2.85.85,0,0,1-.13-.49v-.1a.73.73,0,0,1,.13-.45A.46.46,0,0,1,287,44h.41a2.44,2.44,0,0,0,1.06-.15c.23-.13.35-.44.35-.93a5.48,5.48,0,0,0-.19-1.37l-.05-.21.21,0,.87-.22.19-.05.07.19a5.72,5.72,0,0,1,.27,1.69,2.47,2.47,0,0,1-.84,2.06,2.12,2.12,0,0,1-.36.21,3,3,0,0,1-.45.14,4,4,0,0,1-.52.08A5.79,5.79,0,0,1,287.38,45.45Zm.21,1.62.78-.78.08-.08.08.08.79.78.08.08-.08.09-.79.78-.08.08-.08-.08-.78-.79-.08-.08Z"/>
    </g>
  </g>
  <path class="cls-5" d="M102.16,16.77c2.27.1,2.78,1.88,3.7,3.49l9.53,16.33-9.53,16.35c-.92,1.62-1.43,3.39-3.7,3.48-3,0-5.43-1.62-5.43-4.82V49.26H75.23A4,4,0,0,1,71.46,45V28.16A4,4,0,0,1,75.23,24h21.5V21.6C96.73,18.4,99.13,16.77,102.16,16.77Z"/>
  <path class="cls-5" d="M214.52,16.77c2.26.1,2.78,1.88,3.69,3.49l9.54,16.33-9.54,16.35c-.91,1.62-1.43,3.39-3.69,3.48-3,0-5.44-1.62-5.44-4.82V49.26H187.59A4,4,0,0,1,183.81,45V28.16A4,4,0,0,1,187.59,24h21.49V21.6C209.08,18.4,211.48,16.77,214.52,16.77Z"/>
  <path class="cls-5" d="M326.87,16.77c2.27.1,2.78,1.88,3.7,3.49l9.53,16.33-9.53,16.35c-.92,1.62-1.43,3.39-3.7,3.48-3,0-5.43-1.62-5.43-4.82V49.26h-21.5A4,4,0,0,1,296.17,45V28.16A4,4,0,0,1,299.94,24h21.5V21.6C321.44,18.4,323.84,16.77,326.87,16.77Z"/>
</svg>
