<?xml version="1.0" encoding="utf-8"?>
<!-- Generator: Adobe Illustrator 25.2.0, SVG Export Plug-In . SVG Version: 6.00 Build 0)  -->
<svg version="1.1" id="Layer_1" xmlns="http://www.w3.org/2000/svg" xmlns:xlink="http://www.w3.org/1999/xlink" x="0px" y="0px"
	 viewBox="0 0 200 200" style="enable-background:new 0 0 200 200;" xml:space="preserve">
<style type="text/css">
	.st0{opacity:0.95;}
	.st1{display:none;fill:#FA9600;}
	.st2{display:none;fill:#F9B200;}
	.st3{fill:url(#SVGID_1_);}
	.st4{fill:#FA9600;fill-opacity:0.5;}
	.st5{fill:#FC7200;fill-opacity:0.5;}
	.st6{fill:#FFF200;fill-opacity:0.6;}
		#p1
        {
          animation: blink 10s 0s linear infinite;
        }		
		
		
		#G1
        {
		  animation: roll 15s 0s linear infinite;
		  transform-origin:  100px 100px;
	  
        }		
		#G2
        {
		  animation: roll 15s 0s linear infinite;
		  transform-origin: 100px 100px;
        }		
		#G3
        {
		  animation: roll 15s 0s linear infinite;
		  transform-origin: 100px 100px;
        }

        
        @keyframes roll {
          100% {transform: rotate(360deg)}
        }
		
		
		@keyframes blink {

			0% {fill: #FC7200;}
			50% {fill: #f9f200;}
			100% {fill: #FC7200;}
        }
	
	
</style>
<g id="Back" class="st0">
	<circle class="st1" cx="100" cy="100" r="53.6"/>
	<circle class="st2" cx="100" cy="100" r="49.3"/>
	
		<linearGradient id="SVGID_1_" gradientUnits="userSpaceOnUse" x1="99.9176" y1="686.6099" x2="100.087" y2="800.5098" gradientTransform="matrix(1 0 0 1 0 -642)">
		<stop  offset="0.1952" style="stop-color:#F9FFE4"/>
		<stop  offset="0.3487" style="stop-color:#FAFFAC"/>
		<stop  offset="0.7014" style="stop-color:#FEFF31"/>
		<stop  offset="0.857" style="stop-color:#FFFF00"/>
	</linearGradient>
	<circle class="st3" cx="100" cy="100" r="64"/>
</g>
<g id="G3">
	<path class="st4" d="M181.1,141.7c21.3-37,7.7-84.8-30.5-106.9s-86.5-10-107.8,27s-7.7,84.8,30.5,106.9S159.8,178.7,181.1,141.7z
		 M47.9,64.7C63.4,37.8,98.5,29,126.3,45.1c27.8,16,37.7,50.8,22.2,77.7s-50.6,35.7-78.4,19.6C42.3,126.4,32.3,91.6,47.9,64.7z"/>
</g>
<g id="G2">
	<path id="p1" class="st5" d="M18.8,141.7c21.3,37,69.6,49.1,107.8,27s51.9-69.9,30.5-106.8s-69.6-49.1-107.8-27
		S-2.5,104.7,18.8,141.7z M152.1,64.8c15.5,26.9,5.6,61.7-22.2,77.7s-62.9,7.2-78.4-19.6c-15.4-27-5.5-61.8,22.3-77.8
		C101.5,29.1,136.6,37.9,152.1,64.8z"/>
</g>
<g id="G1">
	<path class="st6" d="M100,9.9c-42.7,0-77.3,35.7-77.3,79.8s34.6,79.9,77.3,79.9s77.3-35.7,77.3-79.8S142.7,9.9,100,9.9z M100,163.8
		c-31,0-56.2-26-56.2-58.1S69,47.6,100,47.7c31,0,56.2,26,56.2,58.1S131,163.9,100,163.8z"/>
</g>
</svg>
