<?xml version="1.0" encoding="utf-8"?>
<!-- Generator: Adobe Illustrator 24.0.0, SVG Export Plug-In . SVG Version: 6.00 Build 0)  -->
<svg version="1.1" id="Capa_1" xmlns="http://www.w3.org/2000/svg" xmlns:xlink="http://www.w3.org/1999/xlink" x="0px" y="0px"
	 viewBox="0 0 250.6 487.8" style="enable-background:new 0 0 250.6 487.8;" xml:space="preserve">
<style type="text/css">
	.st0{fill:#FFC550;}
	.st2{fill:#FF0000;}
	.st3{fill:#E2E0DE;}
	.st4{fill:#F7F6F5;}

		#star{
			animation: recolor 15s 1s ease infinite;
		}

		@keyframes recolor {
			0% {
				fill: #FFC550;
			}

			1% {
				fill: #FFFFFF;
			}

			3% {
				fill: #FFDD11;
			}
			5% {
				fill: #FFFFFF;
			}
			7% {
				fill: #FFC550;
			}
		}

</style>
<path id="star" class="st0" d="M86,150.2c3.4,0,6.6,1.7,8.6,4.5l30.7,43.7l14.2-51.4c1-3.5,3.7-6.3,7.2-7.3l50.9-15L153,94.6
	c-2.9-2-4.7-5.3-4.6-8.9l0.8-53.4l-41.8,33.3c-2.8,2.2-6.6,2.9-9.9,1.7L47,50l18.7,50c1.3,3.4,0.7,7.1-1.4,10l-32,42.7l53.3-2.4
	C85.7,150.2,85.9,150.2,86,150.2z"/>
<path id="base" class="st0" d="M84,433.9v32.7h124.8v-32.7c0-4.8-3.9-8.7-8.7-8.7H92.7C87.9,425.2,84,429.1,84,433.9z"/>
<!-- <rect id="star_sparkle" x="17.6" y="79.8" transform="matrix(0.9486 -0.3164 0.3164 0.9486 -25 -48)" class="st2" width="167.1" height="36"/> -->
<!-- <rect id="star_sparkle" x="-30" y="50" transform="rotate(-20)" class="st2" width="167.1" height="36"/> -->
<path id="gray_base" class="st3" d="M158.2,158.1l-18.6,67.3c-1.1,3.9-4.3,6.9-8.3,7.6c-0.6,0.1-1.2,0.2-1.8,0.2
	c-3.4,0-6.6-1.6-8.6-4.5l-40.2-57.1l-39.5,1.8c51.9,43.1,99.7,121,100.8,231h14.6c67.5-71.3,90.6-175.7,58.9-263L158.2,158.1z"/>
<path id="sparkle" class="st4" d="M173.6,384.6c54.3-70,70.9-163.8,42-243.3l-34,9.9C201,228.6,197,309.1,173.6,384.6z"/>
<path id="outline" d="M231.6,124.7C231.6,124.7,231.6,124.6,231.6,124.7c-0.8-1.9-2.1-3.5-3.8-4.7l-58.4-39.4l1.1-69.9
	c0.1-4.1-2.2-7.8-5.9-9.6c-3.6-1.8-8-1.3-11.2,1.2L98.8,45.8L32.7,23.2c-3.8-1.3-8.1-0.3-10.9,2.6s-3.7,7.2-2.3,11L44,102.2
	L2.1,158.1c-2.4,3.3-2.8,7.6-0.9,11.2c0.8,1.5,2,2.8,3.4,3.7c0.1,0.1,0.3,0.2,0.5,0.3C60.7,207.2,119.8,285.5,121,404.4H92.7
	c-16.4,0-29.7,13.3-29.7,29.7v43.2c0,5.8,4.7,10.5,10.5,10.5h145.8c5.8,0,10.5-4.7,10.5-10.5v-43.2c0-16.4-13.3-29.7-29.7-29.7
	h-15.4c31.5-38,52.7-82.9,61.4-131.1C255.4,222.7,250.2,169.9,231.6,124.7z M64.3,110.2c2.1-2.9,2.7-6.6,1.4-10L47,50.2l50.5,17.3
	c3.4,1.2,7.1,0.5,9.9-1.7l41.7-33.3l-0.8,53.4c-0.1,3.5,1.7,6.9,4.6,8.9l44.6,30.1l-50.9,15c-3.5,1-6.2,3.8-7.2,7.3l-14.2,51.4
	L94.6,155c-2-2.8-5.2-4.5-8.6-4.5c-0.2,0-0.3,0-0.5,0l-53.3,2.4L64.3,110.2z M208.8,434.2v32.7H84v-32.7c0-4.8,3.9-8.7,8.7-8.7
	h107.5C204.9,425.5,208.8,429.4,208.8,434.2z M156.7,404.5H142c-1.1-109.9-48.9-187.9-100.8-231l39.5-1.8l40.2,57.1
	c2,2.8,5.2,4.5,8.6,4.5c0.6,0,1.2-0.1,1.8-0.2c4-0.7,7.2-3.6,8.3-7.6l18.6-67.3l57.4-16.9C247.3,228.8,224.2,333.2,156.7,404.5z"/>
</svg>
