<?xml version="1.0" encoding="utf-8"?>
<!-- Generator: Adobe Illustrator 25.2.0, SVG Export Plug-In . SVG Version: 6.00 Build 0)  -->
<svg version="1.1" id="Layer_1" xmlns="http://www.w3.org/2000/svg" xmlns:xlink="http://www.w3.org/1999/xlink" x="0px" y="0px"
	 viewBox="0 0 262 60" style="enable-background:new 0 0 262 60;" xml:space="preserve">
<style type="text/css">
	.st0{fill:#FDEB27;}
	.st1{fill:#F49516;}
	
	     .cls-1 {
        fill: #fdeb27;
      }

      .cls-2 {
        fill: #f49516;
      }

      #C2 {
		<!-- cx="23.88" cy="7.21" r="7.21"   --> 
		transform-origin: 27.48px 10.815px;
		animation: recolor 12s 1s ease infinite; // (x+(w/2) , y+(h/2))
      }

      #C4 {
		transform-origin: 60.805px 10.815px;     
        animation: recolor 12s 2.4s ease infinite; // coments
      }

      #C3 {
		<!-- cx="40.54" cy="43.72" r="7.21" -->
   		transform-origin: 47.75px 47.325px;    
		animation: recolor 12s 2.6s ease infinite; // coments
      }

      #C5 {
   		transform-origin: 73.87px 47.325px;    
        animation: recolor 12s 2.8s ease infinite; // coments
      }

      #C1 {
		<!-- cx="7.21" cy="43.72" r="7.21" -->
   		transform-origin: 10.815px 47.325px;    
        animation: recolor 12s 3.0s ease infinite; // coments
      }

      #C6 {
		<!-- cx="236.95" cy="7.21" r="7.21" -->
   		transform-origin: 240.565px 10.815px;    
        animation: recolor 12s 4.1s ease infinite; // coments
      }

      @keyframes recolor {
        0% {
          fill: #f49516;
          transform: scale(1,1);
        }

        1% {
          fill: #ffff00;
		            transform: scale(1.3,1.3);

        }

        10% {
          fill: #f49516;         
		  transform: scale(1,1);

        }
      }
</style>
<path id="Last_edge" class="st0" d="M248.7,31.4l-7.5-16.6c-0.3-0.8,0-1.6,0.7-2l0,0c0.8-0.3,1.6,0,2,0.7l7.5,16.6
	c0.3,0.8,0,1.6-0.7,2l0,0C249.9,32.5,249,32.2,248.7,31.4z"/>
<path id="H_line_3" class="st0" d="M239.5,13.2h-26.9c-0.8,0-1.5-0.7-1.5-1.5l0,0c0-0.8,0.7-1.5,1.5-1.5h26.9c0.8,0,1.5,0.7,1.5,1.5
	l0,0C241,12.5,240.3,13.2,239.5,13.2z"/>
<path id="H_line_2" class="st0" d="M103.8,49.8H76.9c-0.8,0-1.5-0.7-1.5-1.5l0,0c0-0.8,0.7-1.5,1.5-1.5h26.9c0.8,0,1.5,0.7,1.5,1.5
	l0,0C105.3,49.1,104.6,49.8,103.8,49.8z"/>
<path id="H_line_1" class="st0" d="M88.8,13.2H61.9c-0.8,0-1.5-0.7-1.5-1.5l0,0c0-0.8,0.7-1.5,1.5-1.5h26.9c0.8,0,1.5,0.7,1.5,1.5
	l0,0C90.3,12.5,89.6,13.2,88.8,13.2z"/>
<rect id="Long_edge_2" x="7.4" y="29.3" transform="matrix(0.7957 -0.6057 0.6057 0.7957 -11.1275 28.5466)" class="st0" width="58.7" height="3"/>
<rect id="Long_Edge_1" x="50.7" y="1.4" transform="matrix(0.6057 -0.7957 0.7957 0.6057 -3.8741 53.7011)" class="st0" width="3" height="58.7"/>
<rect id="L4" x="68.8" y="10.3" transform="matrix(0.9108 -0.4128 0.4128 0.9108 -6.4323 31.7563)" class="st0" width="3" height="41"/>
<rect id="L3" x="31.6" y="28.3" transform="matrix(0.4199 -0.9076 0.9076 0.4199 3.1367 64.5457)" class="st0" width="41" height="3"/>
<rect id="L2" x="35.3" y="10.3" transform="matrix(0.9108 -0.4128 0.4128 0.9108 -9.4222 17.9158)" class="st0" width="3" height="41"/>
<rect id="L1" x="-1.2" y="28.3" transform="matrix(0.4199 -0.9076 0.9076 0.4199 -15.8735 34.8045)" class="st0" width="41" height="3"/>
<circle id="C6" class="st1" cx="241.4" cy="11.7" r="7.2"/>
<circle id="C5" class="st1" cx="78.4" cy="48.3" r="7.2"/>
<circle id="C4" class="st1" cx="61.7" cy="11.7" r="7.2"/>
<circle id="C3" class="st1" cx="45" cy="48.2" r="7.2"/>
<circle id="C2" class="st1" cx="28.4" cy="11.7" r="7.2"/>
<circle id="C1" class="st1" cx="11.7" cy="48.2" r="7.2"/>
<path id="T" class="st1" d="M121.7,5.1l-4.3,5.7h-7.8v16.1h-6.7V10.8H92.7L97,5.1H121.7z"/>
<path id="E" class="st1" d="M149,21.3l-4.3,5.6h-20.9V5.1h25.2l-4.4,5.7h-14.1v2.6h17.2l-3.9,4.9h-13.4v3L149,21.3z"/>
<path id="C" class="st1" d="M178.9,21.3l-4.3,5.6h-10.9c-1.8,0-3.5-0.3-5.2-0.8c-1.5-0.5-2.9-1.3-4.1-2.3c-1.1-1-2.1-2.2-2.7-3.5
	c-0.7-1.4-1-2.9-1-4.4c0-1.5,0.3-3,1-4.3c0.7-1.3,1.6-2.5,2.7-3.4c1.2-1,2.7-1.7,4.2-2.2c1.7-0.5,3.4-0.8,5.2-0.8h15.2l-4.3,5.7
	h-10.9c-0.9,0-1.7,0.1-2.5,0.4c-0.7,0.2-1.4,0.6-2,1.1c-0.6,0.5-1,1-1.3,1.7c-0.3,0.7-0.5,1.4-0.5,2.1c0,1.5,0.7,2.9,1.8,3.8
	c0.6,0.5,1.3,0.8,2,1c0.8,0.3,1.7,0.4,2.5,0.4H178.9z"/>
<path id="H" class="st1" d="M207.6,26.9H201v-8.4H188v8.4h-6.8V5.1h6.8v7.7H201V5.1h6.7V26.9z"/>
<path id="M" class="st1" d="M122.8,41.7l1.2,2.2c0.4,0.6,0.7,1.2,0.9,1.7s0.5,1,0.7,1.4s0.4,0.8,0.6,1.2c0.2-0.4,0.4-0.8,0.6-1.2
	s0.4-0.8,0.7-1.4s0.6-1.1,0.9-1.7s0.8-1.4,1.2-2.2l3.5-6.2c0.4-0.7,0.9-1.2,1.5-1.7c0.7-0.4,1.4-0.7,2.2-0.6c0.8,0,1.6,0.2,2.3,0.7
	c0.7,0.6,1.3,1.4,1.5,2.3l5.5,19.1h-6.7l-2-7.5c-0.3-1.2-0.6-2.3-0.9-3.2s-0.4-1.8-0.6-2.7c-0.4,0.8-0.8,1.6-1.2,2.5
	s-1.1,2.1-1.8,3.5l-2.9,5.5c-0.2,0.5-0.5,0.9-0.9,1.3c-0.3,0.3-0.6,0.5-0.9,0.7c-0.3,0.2-0.6,0.3-1,0.3c-0.4,0.1-0.8,0.1-1.1,0.1
	c-0.4,0-0.8,0-1.1-0.1c-0.4,0-0.7-0.2-1-0.3c-0.3-0.2-0.6-0.4-0.9-0.7c-0.3-0.4-0.6-0.8-0.9-1.3l-2.9-5.5l-1-2
	c-0.3-0.6-0.6-1.1-0.8-1.6s-0.5-0.9-0.7-1.3l-0.5-1.1c-0.2,0.9-0.4,1.8-0.6,2.7s-0.5,2-0.8,3.3l-2,7.6h-6.6l5.6-19.1
	c0.2-0.9,0.8-1.7,1.5-2.3c0.7-0.5,1.5-0.7,2.3-0.7c0.8,0,1.5,0.2,2.2,0.6c0.6,0.4,1.1,1,1.4,1.7L122.8,41.7z"/>
<path id="I_1" class="st1" d="M155.5,55.3h-6.7V33.6h6.7V55.3z"/>
<path id="N_1" class="st1" d="M181.7,55.7c-1,0-2-0.4-2.7-1.2l-13.3-12v12.8h-6.1v-18c0-0.6,0.1-1.3,0.3-1.8
	c0.2-0.5,0.5-0.9,0.8-1.3c0.3-0.3,0.7-0.6,1.2-0.7c0.4-0.2,0.9-0.2,1.4-0.2c0.4,0,0.8,0.1,1.2,0.2c0.5,0.2,1,0.6,1.4,1l13.3,12V33.6
	h6.1v18c0,0.6-0.1,1.3-0.3,1.8c-0.2,0.5-0.5,0.9-0.8,1.3c-0.3,0.3-0.7,0.6-1.2,0.7C182.7,55.6,182.2,55.7,181.7,55.7z"/>
<path id="I_2" class="st1" d="M196.2,55.3h-6.7V33.6h6.7L196.2,55.3z"/>
<path id="N" class="st1" d="M222.4,55.7c-0.4,0-0.9-0.1-1.3-0.2c-0.5-0.2-1-0.6-1.4-1l-13.3-12v12.9h-6.1v-18c0-0.6,0.1-1.3,0.3-1.8
	c0.2-0.5,0.4-0.9,0.8-1.3c0.3-0.3,0.7-0.6,1.2-0.7c0.4-0.2,0.9-0.2,1.4-0.2c0.4,0,0.8,0.1,1.2,0.2c0.5,0.2,1,0.6,1.4,1l13.3,12V33.6
	h6.1v18c0,0.6-0.1,1.3-0.3,1.8c-0.2,0.5-0.5,0.9-0.8,1.3c-0.3,0.3-0.7,0.6-1.2,0.7C223.4,55.6,222.9,55.7,222.4,55.7z"/>
<path id="G" class="st1" d="M243.5,41.7h13.9v13.6h-14.9c-1.8,0-3.5-0.3-5.2-0.8c-1.5-0.5-2.9-1.3-4.1-2.3c-1.1-1-2.1-2.2-2.7-3.5
	c-0.7-1.4-1-2.9-1-4.4c0-1.5,0.3-3,1-4.3c0.6-1.3,1.6-2.5,2.7-3.4c1.2-1,2.6-1.7,4.1-2.2c1.7-0.5,3.5-0.8,5.2-0.8H258l-4.4,5.7
	h-11.2c-0.9,0-1.7,0.1-2.5,0.4c-0.7,0.2-1.4,0.6-2,1.1c-0.6,0.5-1,1-1.4,1.7c-1,2-0.5,4.5,1.3,5.9c0.6,0.5,1.3,0.8,2,1.1
	c0.8,0.3,1.7,0.4,2.6,0.4h8.2v-3.1h-11.2L243.5,41.7z"/>
</svg>
