<svg xmlns="http://www.w3.org/2000/svg" viewBox="0 0 545.59 335.98">
  <defs>
    <style>
      .cls-1, .cls-3 {
        fill: #fff;
      }

      .cls-2 {
        fill: #bcbbbb;
      }

      .cls-3 {
        stroke: #94e520;
        stroke-linecap: round;
        stroke-opacity: 0.88;
        stroke-width: 8px;
      }

      .cls-10, .cls-12, .cls-3, .cls-6, .cls-7, .cls-8, .cls-9 {
        stroke-miterlimit: 10;
      }

      .cls-4 {
        fill: #b3c600;
      }

      .cls-5 {
        fill: #94e520;
      }

      .cls-10, .cls-12, .cls-6, .cls-7, .cls-8, .cls-9 {
        fill: none;
      }

      .cls-10, .cls-6, .cls-7, .cls-8, .cls-9 {
        stroke: #7e897a;
      }

      .cls-6 {
        stroke-width: 2px;
      }

      .cls-8 {
        stroke-width: 5px;
      }

      .cls-12, .cls-9 {
        stroke-width: 3px;
      }

      .cls-10 {
        stroke-width: 4px;
      }

      .cls-11 {
        font-size: 8px;
        fill: #c1ccac;
        font-family: ArialMT, Arial;
      }

      .cls-12 {
        stroke: #f9ff00;
      }

      .cls-13 {
        fill: #5e6d5f;
      }

      .cls-14 {
        fill: #fdea2b;
      }

      .cls-15 {
        font-size: 16.08px;
        font-family: Impact;
      }

      .cls-15, .cls-16 {
        fill: #5f6d41;
      }
	  
	  
	  	  
	  
	  	#nodes {
			animation: appear_nodes 40s 0s ease infinite; 
		}


		@keyframes appear_nodes {

			0%  {fill-opacity: 0%;}
			5%  {fill-opacity: 0%;}
			7% {fill-opacity: 100%;}
			96% {fill-opacity: 100%;}
			100% {fill-opacity: 0%;}
		}

		#edges {
			animation: appear_edges 40s 0s ease infinite; 
		}


		@keyframes appear_edges {

			0%  {stroke-opacity: 0%;}
			11%  {stroke-opacity: 0%;}
			15% {stroke-opacity: 100%;}
			92% {stroke-opacity: 100%;}
			96% {stroke-opacity: 0%;}
			100% {stroke-opacity: 0%;}
		}  
		
		
		
		#portfo_nodes {
			animation: appear_p_nodes 40s 0s ease infinite; 
		}


		@keyframes appear_p_nodes {

			0%  {fill-opacity: 0%;}
			22%  {fill-opacity: 0%;}
			25% {fill-opacity: 100%;}
			95% {fill-opacity: 100%;}
			100% {fill-opacity: 0%;}
		}
 
 
 	  	
		#e1, #e9, #e15, #e16, #e19, #e23, #e25, #e28, #e27 {
			animation: e_recolor 40s 0s ease infinite; 
		}

		@keyframes e_recolor {

			0%   {stroke: #7e897a;}
			29%  {stroke: #7e897a;}
			33%  {stroke: #FF7F0B;}
			95%  {stroke: #FF7F0B;}
			100% {stroke: #7e897a;}
		}
	  
	  
	  
 	  	#subgraph_nodes {
			animation: appear_sg_nodes 40s 0s ease infinite; 
		}


		@keyframes appear_sg_nodes {

			0%  {fill-opacity: 0%;}
			35%  {fill-opacity: 0%;}
			37% {fill-opacity: 100%;}
			95% {fill-opacity: 100%;}
			100% {fill-opacity: 0%;}
		}
 
		#portfo-2 {
			animation: appear_portfo 40s 0s ease infinite; 
		}


		@keyframes appear_portfo {

			0%  {fill-opacity: 0%;}
			43%  {fill-opacity: 0%;}
			46% {fill-opacity: 100%;}
			95% {fill-opacity: 100%;}
			100% {fill-opacity: 0%;}
		}

	  
 	  	#persons {
			animation: appear_persons 40s 0s ease infinite; 
		}


		@keyframes appear_persons {

			0%  {fill-opacity: 0%;}
			52%  {fill-opacity: 0%;}
			56% {fill-opacity: 100%;}
			95% {fill-opacity: 100%;}
			100% {fill-opacity: 0%;}
		}
 
	  	  
 	  	#person_edges {
			animation: appear_persons_edges 40s 0s ease infinite; 
		}


		@keyframes appear_persons_edges {

			0%  {stroke-opacity: 0%;}
			58%  {stroke-opacity: 0%;}
			61% {stroke-opacity: 100%;}
			92% {stroke-opacity: 100%;}
			96% {stroke-opacity: 0%;}
			100% {stroke-opacity: 0%;}
		} 
 

		
		#e2, #e3, #e4, #e5, #e6, #e7, #e8, #e11, #e12, #e13, #e14, #e20, #e21, #e22, #e29, #e30, #e31 {
			animation: disappear_edges 40s 0s ease infinite; 
		}


		@keyframes disappear_edges {

			0%  {stroke-opacity: 0%;}
			11%  {stroke-opacity: 0%;}
			15% {stroke-opacity: 100%;}
			61% {stroke-opacity: 100%;}
			63% {stroke-opacity: 10%;}
			94% {stroke-opacity: 10%;}
			100% {stroke-opacity: 0%;}
		}
 
   
	  	 #texts {
			animation: appear_priority 40s 0s ease infinite; 
		}


		@keyframes appear_priority {

			0%  {fill-opacity: 0%;}
			72%  {fill-opacity: 0%;}
			74% {fill-opacity: 100%;}
			95% {fill-opacity: 100%;}
			100% {fill-opacity: 0%;}
		} 
		
		#checks {
			animation: appear_checks 40s 0s ease infinite; 
		}


		@keyframes appear_checks {

			0%  {fill-opacity: 0%;}
			78%  {fill-opacity: 0%;}
			80% {fill-opacity: 100%;}
			95% {fill-opacity: 100%;}
			100% {fill-opacity: 0%;}
		} 
	  
	  	#play_circle {
			animation: circle 40s 0s ease infinite; 
		}


		@keyframes circle {

			0%  {stroke-dasharray: 0, 190;}
			100% {stroke-dasharray: 142, 190;}
		} 
	  
    </style>
  </defs>
  <title>TM_Steps-v0.9</title>
  <g id="background">
    <rect class="cls-1" width="545.59" height="335.98" rx="8.46"/>
  </g>
  <g id="play_btn">
    <path class="cls-2" d="M519.61,129.21v-.86h-3a24.39,24.39,0,0,0-.26-3.22l3-.53-.15-.84-3,.52a24.66,24.66,0,0,0-.83-3.12l2.86-1-.29-.8-2.86,1a23.76,23.76,0,0,0-1.36-2.94l2.64-1.52-.43-.74-2.64,1.52A22,22,0,0,0,511.4,114l2.34-2-.55-.65-2.34,2a23.57,23.57,0,0,0-2.28-2.3l2-2.34-.66-.55-2,2.34a22.43,22.43,0,0,0-2.64-1.87l1.53-2.64-.75-.43-1.52,2.64a22.37,22.37,0,0,0-2.93-1.38l1.05-2.86-.81-.3-1,2.86a23.13,23.13,0,0,0-3.12-.85l.53-3-.85-.15-.53,3a22.67,22.67,0,0,0-3.22-.29v-3h-.86v3a22.8,22.8,0,0,0-3.22.27l-.53-3-.84.15.52,3a21.69,21.69,0,0,0-3.12.83l-1.05-2.87-.8.3,1,2.85a23.76,23.76,0,0,0-2.94,1.36l-1.52-2.64-.74.43,1.52,2.64a24.59,24.59,0,0,0-2.65,1.85l-2-2.34-.65.55,2,2.34a24.75,24.75,0,0,0-2.3,2.28l-2.34-2-.55.66,2.34,2a24.23,24.23,0,0,0-1.87,2.64L470.41,115l-.43.74,2.64,1.52a22.37,22.37,0,0,0-1.38,2.93l-2.87-1-.29.8,2.86,1a23.69,23.69,0,0,0-.85,3.13l-3-.53-.15.84,3,.53a22.8,22.8,0,0,0-.29,3.22h-3V129h3a23.07,23.07,0,0,0,.27,3.23l-3,.52.15.85,3-.53a23.59,23.59,0,0,0,.82,3.13l-2.86,1,.3.8,2.85-1a23.1,23.1,0,0,0,1.36,2.94l-2.64,1.52.43.75,2.64-1.53a24.72,24.72,0,0,0,1.85,2.66l-2.34,2,.55.66,2.34-2a23.58,23.58,0,0,0,2.28,2.3l-2,2.34.66.55,2-2.33a25.68,25.68,0,0,0,2.64,1.87l-1.52,2.63.74.43,1.52-2.64a23.8,23.8,0,0,0,2.93,1.39l-1,2.86.8.29,1-2.86a23.72,23.72,0,0,0,3.13.86l-.53,3,.84.15.53-3a24.39,24.39,0,0,0,3.22.29v3h.86v-3a24.39,24.39,0,0,0,3.22-.26l.53,3,.85-.15-.53-3a25.27,25.27,0,0,0,3.13-.83l1,2.86.8-.29-1-2.86a23.1,23.1,0,0,0,2.94-1.36l1.52,2.64.75-.43-1.53-2.64a22.16,22.16,0,0,0,2.66-1.85l2,2.34.66-.55-2-2.34a23.58,23.58,0,0,0,2.3-2.28l2.34,2,.55-.66-2.33-2a23.67,23.67,0,0,0,1.87-2.64l2.63,1.53.43-.75-2.64-1.52A23.8,23.8,0,0,0,515,137.2l2.86,1.05.29-.81-2.86-1a23.16,23.16,0,0,0,.86-3.12l3,.53.15-.85-3-.53a24.23,24.23,0,0,0,.29-3.22Zm-3.54,3.19-3.7-.65-.15.84,3.7.65a22.69,22.69,0,0,1-.84,3.09L511.55,135l-.29.81,3.52,1.28a23.23,23.23,0,0,1-1.36,2.9l-3.25-1.88-.43.74,3.25,1.88a20.85,20.85,0,0,1-1.85,2.61L508.27,141l-.56.66,2.88,2.41a25.36,25.36,0,0,1-2.27,2.25l-2.42-2.88-.65.56,2.41,2.87a22.86,22.86,0,0,1-2.63,1.83l-1.88-3.26-.74.43,1.88,3.26a24,24,0,0,1-2.91,1.34l-1.28-3.54-.81.3,1.29,3.53a23.13,23.13,0,0,1-3.1.81l-.65-3.7L496,148l.65,3.7a23.94,23.94,0,0,1-3.19.26V148.2h-.86V152a23.78,23.78,0,0,1-3.18-.29l.65-3.7-.85-.15-.65,3.7a22.69,22.69,0,0,1-3.09-.84l1.29-3.53-.81-.29-1.28,3.52a23.23,23.23,0,0,1-2.9-1.36l1.88-3.25-.74-.43L481,148.58a22.43,22.43,0,0,1-2.61-1.85l2.41-2.87-.65-.56-2.41,2.88a25.48,25.48,0,0,1-2.26-2.27l2.88-2.42-.55-.65L475,143.25a22.78,22.78,0,0,1-1.82-2.63l3.25-1.88L476,138l-3.25,1.88a22.6,22.6,0,0,1-1.34-2.91l3.53-1.28-.29-.81-3.53,1.29a23.17,23.17,0,0,1-.82-3.1l3.7-.65-.15-.84-3.7.65a23.94,23.94,0,0,1-.26-3.19h3.76v-.86h-3.75a23.79,23.79,0,0,1,.28-3.18l3.7.65.15-.85-3.7-.65a24.23,24.23,0,0,1,.84-3.09l3.53,1.29.3-.81-3.53-1.28a22.45,22.45,0,0,1,1.36-2.89l3.26,1.87.43-.74-3.26-1.88a25.11,25.11,0,0,1,1.85-2.61l2.88,2.41.55-.65-2.87-2.41a23.06,23.06,0,0,1,2.27-2.26l2.41,2.88.66-.55-2.41-2.88a22.66,22.66,0,0,1,2.62-1.82l1.88,3.25.74-.43-1.88-3.25a23.24,23.24,0,0,1,2.91-1.34l1.28,3.53.81-.29-1.28-3.53a22.63,22.63,0,0,1,3.09-.82l.65,3.7.85-.15-.66-3.7a24.08,24.08,0,0,1,3.19-.26v3.76h.86v-3.75a23.94,23.94,0,0,1,3.19.28l-.65,3.7.84.15.65-3.7a24.23,24.23,0,0,1,3.09.84l-1.29,3.53.81.3,1.28-3.53a23.23,23.23,0,0,1,2.9,1.36l-1.88,3.26.74.43,1.88-3.26a23.15,23.15,0,0,1,2.61,1.85l-2.41,2.88.66.55,2.41-2.87a23,23,0,0,1,2.25,2.27l-2.88,2.41.56.66,2.87-2.41a22.74,22.74,0,0,1,1.83,2.62l-3.26,1.88.43.74,3.26-1.88a24.77,24.77,0,0,1,1.34,2.91l-3.54,1.28.3.81,3.53-1.28a22.61,22.61,0,0,1,.81,3.09l-3.7.65.15.85,3.7-.66a24.08,24.08,0,0,1,.26,3.19h-3.75v.86h3.75A23.93,23.93,0,0,1,516.07,132.4Z" transform="translate(0 -89.15)"/>
    <circle id="play_circle" class="cls-3" cx="493.11" cy="39.54" r="23"/>
    <path class="cls-4" d="M488.09,120.78v15.84a2,2,0,0,0,3.21,1.55l10.06-7.92a2,2,0,0,0,0-3.11l-10.06-7.92A2,2,0,0,0,488.09,120.78Z" transform="translate(0 -89.15)"/>
  </g>
  <g id="portfo">
    <path id="portfo-2" data-name="portfo" class="cls-5" d="M323.31,204.94l.79.5c7,4.61,13.54,11.17,16.09,19.33,2.66,8.5.81,17.76-2.15,26.16C331,271,321.49,291.22,321.89,313c.24,12.65,1.74,25.32.66,37.93s-5.1,25.52-14.18,34.32c-10,9.72-24.89,13-38.8,12C254.62,396,241,390,226.84,385.81c-14.94-4.39-29.92-8.6-45.39-10.63-18.89-2.46-38-2.68-56.9-4.72-11.42-1.24-23-3.23-33.08-8.84s-18.34-15.44-19.42-26.9c-1.26-13.37,7.87-20.72,17.86-27.28,9.13-6,22.21-11.31,19.29-24.68-1.81-8.29-8.69-14.55-16-18.77s-15.49-7-22.59-11.61c-30.8-20.07-.61-45.3,17.77-59.61,12-9.33,24.51-18.21,34.5-29.66,5.61-6.43,11.41-14.05,13.2-22.43,1.94-9.09,5.44-18,11.37-25.27,14.49-17.71,41.49-18,61.63-11.36a35.76,35.76,0,0,1,16.06,10.14c3.65,4.23,5.9,9.42,7.54,14.71,1.52,4.93,1.67,9.91,5.79,13.45,4,3.4,9.7,3.87,14.84,3s10-3,15.08-4.11c9.65-2.14,20.12,1.85,27.38,8.32a27.48,27.48,0,0,1,9,19c.38,7.91-3.31,16.5,1,23.87C309.6,198.89,317.25,201.19,323.31,204.94Z" transform="translate(0 -89.15)"/>
  </g>
  <g id="edges">
    <line id="e31" class="cls-6" x1="363.15" y1="228.57" x2="355.46" y2="312.39"/>
    <line id="e30" class="cls-6" x1="481.63" y1="270.49" x2="363.15" y2="228.57"/>
    <line id="e29" class="cls-6" x1="26.66" y1="126.88" x2="76.88" y2="144.03"/>
    <line id="e28" class="cls-7" x1="79.27" y1="144.18" x2="153.9" y2="129.65"/>
    <line id="e27" class="cls-8" x1="80.96" y1="144.03" x2="210.18" y2="250.93"/>
    <line id="e26" class="cls-9" x1="76.88" y1="144.03" x2="183.81" y2="42.74"/>
    <line id="e25" class="cls-8" x1="183.81" y1="42.74" x2="153.9" y2="132.81"/>
    <line id="e24" class="cls-7" x1="153.9" y1="132.81" x2="210.18" y2="250.93"/>
    <line id="e23" class="cls-9" x1="153.9" y1="129.65" x2="112.1" y2="246.2"/>
    <line id="e22" class="cls-6" x1="112.1" y1="246.2" x2="170.54" y2="313.61"/>
    <line id="e21" class="cls-8" x1="112.1" y1="246.2" x2="31.99" y2="238.35"/>
    <line id="e20" class="cls-7" x1="308.71" y1="152.6" x2="379.27" y2="54.09"/>
    <line id="e19" class="cls-6" x1="276.27" y1="223.65" x2="183.81" y2="42.74"/>
    <line id="e18" class="cls-9" x1="112.1" y1="246.2" x2="308.71" y2="152.6"/>
    <line id="e17" class="cls-7" x1="210.18" y1="250.93" x2="276.27" y2="223.65"/>
    <line id="e16" class="cls-8" x1="276.03" y1="225.22" x2="308.71" y2="152.6"/>
    <line id="e15" class="cls-9" x1="279.9" y1="280.33" x2="210.18" y2="250.93"/>
    <line id="e14" class="cls-9" x1="355.46" y1="312.39" x2="460.21" y2="169.85"/>
    <line id="e13" class="cls-8" x1="459.8" y1="171.62" x2="520.21" y2="205.58"/>
    <line id="e12" class="cls-9" x1="308.71" y1="152.6" x2="459.8" y2="171.62"/>
    <line id="e11" class="cls-8" x1="308.71" y1="152.6" x2="363.15" y2="228.57"/>
    <line id="e10" class="cls-9" x1="153.9" y1="132.81" x2="276.27" y2="223.65"/>
    <line id="e9" class="cls-7" x1="153.9" y1="129.65" x2="267.62" y2="74.5"/>
    <line id="e8" class="cls-9" x1="174.97" y1="313.61" x2="355.46" y2="312.39"/>
    <line id="e7" class="cls-7" x1="379.27" y1="54.09" x2="490.45" y2="98.62"/>
    <line id="e6" class="cls-10" x1="267.62" y1="74.5" x2="379.27" y2="54.09"/>
    <line id="e5" class="cls-6" x1="481.63" y1="270.49" x2="520.21" y2="205.58"/>
    <line id="e4" class="cls-6" x1="519.84" y1="206.11" x2="490.45" y2="98.62"/>
    <line id="e3" class="cls-9" x1="459.8" y1="171.62" x2="490.45" y2="98.62"/>
    <line id="e2" class="cls-7" x1="379.27" y1="54.09" x2="459.8" y2="171.62"/>
    <line id="e1" class="cls-7" x1="279.9" y1="280.33" x2="276.27" y2="223.65"/>
    <text class="cls-11" transform="translate(383.63 328.36)">Copyright © Techmining.ir - Sasan Azimi</text>
  </g>
  <g id="person_edges">
    <line id="pe9" class="cls-12" x1="66.26" y1="54.09" x2="183.81" y2="42.74"/>
    <line id="pe8" class="cls-12" x1="53.5" y1="95.45" x2="153.9" y2="129.65"/>
    <line id="pe7" class="cls-12" x1="46.64" y1="202.36" x2="112.1" y2="246.2"/>
    <line id="pe6" class="cls-12" x1="66.26" y1="54.09" x2="153.9" y2="129.65"/>
    <line id="pe5" class="cls-12" x1="210.18" y1="250.93" x2="133" y2="305.8"/>
    <line id="pe4" class="cls-12" x1="279.9" y1="280.33" x2="342.66" y2="280.33"/>
    <line id="pe3" class="cls-12" x1="308.71" y1="152.6" x2="376.17" y2="122.81"/>
    <line id="pe2" class="cls-12" x1="267.62" y1="34.01" x2="267.62" y2="74.5"/>
    <line id="pe1" class="cls-12" x1="73.08" y1="192.57" x2="153.9" y2="129.65"/>
  </g>
  <g id="nodes">
    <circle id="n16" class="cls-2" cx="460.21" cy="169.85" r="14.38"/>
    <circle id="n19" class="cls-2" cx="363.15" cy="228.57" r="14.38"/>
    <path id="n15" class="cls-2" d="M534.59,294.74a14.38,14.38,0,1,1-14.38-14.38,14.37,14.37,0,0,1,14.38,14.38" transform="translate(0 -89.15)"/>
    <circle id="n14" class="cls-2" cx="481.63" cy="270.49" r="14.38"/>
    <circle id="n13" class="cls-2" cx="490.45" cy="98.62" r="14.38"/>
    <circle id="n12" class="cls-2" cx="355.46" cy="312.39" r="14.38"/>
    <circle id="n11" class="cls-2" cx="308.71" cy="152.6" r="14.38"/>
    <circle id="n10" class="cls-2" cx="210.18" cy="250.93" r="14.38"/>
    <circle id="n9" class="cls-2" cx="276.27" cy="223.65" r="14.38"/>
    <circle id="n8" class="cls-2" cx="153.9" cy="129.65" r="14.38"/>
    <circle id="n7" class="cls-2" cx="183.81" cy="42.74" r="14.38"/>
    <circle id="n6" class="cls-2" cx="79.27" cy="144.18" r="14.38"/>
    <circle id="n17" class="cls-2" cx="26.66" cy="126.88" r="14.38"/>
    <circle id="n5" class="cls-2" cx="379.27" cy="54.09" r="14.38"/>
    <circle id="n18" class="cls-2" cx="267.62" cy="74.5" r="14.38"/>
    <circle id="n4" class="cls-2" cx="112.1" cy="246.2" r="14.38"/>
    <circle id="n3" class="cls-2" cx="279.9" cy="280.33" r="14.38"/>
    <circle id="n2" class="cls-2" cx="170.54" cy="313.61" r="14.38"/>
    <circle id="n1" class="cls-2" cx="31.99" cy="238.35" r="14.38"/>
  </g>
  <g id="subgraph_nodes">
    <circle id="sg-n6" class="cls-13" cx="308.74" cy="152.56" r="14.38"/>
    <circle id="sg-n5" class="cls-13" cx="267.62" cy="74.5" r="14.38"/>
    <circle id="sg-n4" class="cls-13" cx="279.9" cy="280.33" r="14.38"/>
    <circle id="sg-n3" class="cls-13" cx="79.27" cy="144.18" r="14.38"/>
    <circle id="sg-n2" class="cls-13" cx="183.84" cy="42.7" r="14.38"/>
    <circle id="sg-n1" class="cls-13" cx="112.14" cy="246.16" r="14.38"/>
  </g>
  <g id="portfo_nodes">
    <circle id="portfo_e3" class="cls-14" cx="210.14" cy="251.06" r="14.38"/>
    <circle id="portfo_e2" class="cls-14" cx="276.23" cy="223.77" r="14.38"/>
    <circle id="portfo_e1" class="cls-14" cx="153.85" cy="129.77" r="14.38"/>
  </g>
  <g id="persons">
    <g>
      <path class="cls-4" d="M66.26,136.3c-6.88,0-12.46.24-12.46,13H78.72C78.72,136.54,73.14,136.3,66.26,136.3Z" transform="translate(0 -89.15)"/>
      <path class="cls-4" d="M66.26,134.48c7.54-.36,7.2-11,0-11.32C58.72,123.51,59.06,134.18,66.26,134.48Z" transform="translate(0 -89.15)"/>
    </g>
    <path class="cls-4" d="M267.62,115.84c-6.88,0-12.46.24-12.46,13h24.92C280.08,116.08,274.5,115.84,267.62,115.84Z" transform="translate(0 -89.15)"/>
    <path class="cls-4" d="M267.62,114c7.13-.18,7.46-10.88,0-11.32C260.48,102.88,260.16,113.57,267.62,114Z" transform="translate(0 -89.15)"/>
    <g>
      <path class="cls-4" d="M376.17,205.47c-6.88,0-12.45.24-12.45,13h24.91C388.63,205.71,383.06,205.47,376.17,205.47Z" transform="translate(0 -89.15)"/>
      <path class="cls-4" d="M376.17,203.65c7.55-.36,7.21-11,0-11.32C368.63,192.68,369,203.35,376.17,203.65Z" transform="translate(0 -89.15)"/>
    </g>
    <g>
      <path class="cls-4" d="M73.08,275.23c-6.88,0-12.46.24-12.46,13H85.54C85.54,275.47,80,275.23,73.08,275.23Z" transform="translate(0 -89.15)"/>
      <path class="cls-4" d="M73.08,273.41c7.54-.36,7.21-11,0-11.32C65.54,262.44,65.88,273.11,73.08,273.41Z" transform="translate(0 -89.15)"/>
    </g>
    <g>
      <path class="cls-4" d="M51.77,178.11c-6.88,0-12.46.24-12.46,13H64.23C64.23,178.35,58.65,178.11,51.77,178.11Z" transform="translate(0 -89.15)"/>
      <path class="cls-4" d="M51.77,176.29c7.54-.36,7.2-11,0-11.32C44.23,165.32,44.57,176,51.77,176.29Z" transform="translate(0 -89.15)"/>
    </g>
    <g>
      <path class="cls-4" d="M46.64,284.55c-6.88,0-12.45.24-12.45,13H59.1C59.1,284.79,53.53,284.55,46.64,284.55Z" transform="translate(0 -89.15)"/>
      <path class="cls-4" d="M46.64,282.72c7.55-.35,7.21-11,0-11.31C39.1,271.76,39.44,282.43,46.64,282.72Z" transform="translate(0 -89.15)"/>
    </g>
    <g>
      <path class="cls-4" d="M342.66,362.16c-6.88,0-12.45.24-12.45,13h24.91C355.12,362.4,349.55,362.16,342.66,362.16Z" transform="translate(0 -89.15)"/>
      <path class="cls-4" d="M342.66,360.34c7.55-.36,7.21-11,0-11.32C335.12,349.37,335.46,360,342.66,360.34Z" transform="translate(0 -89.15)"/>
    </g>
    <g>
      <path class="cls-4" d="M133,388.47c-6.88,0-12.46.24-12.46,13h24.92C145.46,388.71,139.88,388.47,133,388.47Z" transform="translate(0 -89.15)"/>
      <path class="cls-4" d="M133,386.64c7.54-.35,7.2-11,0-11.32C125.46,375.68,125.8,386.34,133,386.64Z" transform="translate(0 -89.15)"/>
    </g>
  </g>
  <g id="texts">
    <text class="cls-15" transform="translate(148.05 136.23) scale(1.38 1)">3</text>
    <text class="cls-15" transform="translate(204.98 258.27) scale(1.38 1)">2</text>
    <text class="cls-15" transform="translate(271.49 229.97) scale(1.38 1)">1</text>
  </g>
  <g id="checks">
    <path id="check3" class="cls-16" d="M297.44,310.28a63.3,63.3,0,0,0-6.32,9,1.09,1.09,0,0,1-1.51.28l-2.09-1.44c-.49-.34-.91-.36-1.25.13l-.25.37a1,1,0,0,0,.32,1.43,35.67,35.67,0,0,1,3.86,3.08,1.08,1.08,0,0,0,1.51-.28,74.34,74.34,0,0,1,7.69-11.21,1.08,1.08,0,0,0-.28-1.51l-.36-.25C298.26,309.5,297.78,309.78,297.44,310.28Z" transform="translate(0 -89.15)"/>
    <path id="check2" class="cls-16" d="M231.54,338.21a63.62,63.62,0,0,0-6.32,9,1.08,1.08,0,0,1-1.51.28L221.62,346c-.5-.34-.92-.36-1.25.13l-.25.37a1,1,0,0,0,.31,1.43A35.6,35.6,0,0,1,224.3,351a1.08,1.08,0,0,0,1.51-.29,73.61,73.61,0,0,1,7.69-11.21,1.09,1.09,0,0,0-.28-1.51l-.37-.25C232.36,337.43,231.88,337.72,231.54,338.21Z" transform="translate(0 -89.15)"/>
    <path id="check1" class="cls-16" d="M176.32,216.14a62.49,62.49,0,0,0-6.32,9,1.08,1.08,0,0,1-1.51.28l-2.09-1.44c-.5-.34-.92-.36-1.26.13l-.25.37a1,1,0,0,0,.32,1.43,37,37,0,0,1,3.87,3.08,1.08,1.08,0,0,0,1.51-.28,73.61,73.61,0,0,1,7.69-11.21A1.09,1.09,0,0,0,178,216l-.37-.25C177.14,215.36,176.66,215.64,176.32,216.14Z" transform="translate(0 -89.15)"/>
  </g>
</svg>
