<?xml version="1.0" encoding="UTF-8"?>
<svg id="Layer_2" data-name="Layer 2" xmlns="http://www.w3.org/2000/svg" viewBox="0 0 134.65 60.53">
  <defs>
    <style>
      .cls-1 {
        fill: #999481;
      }

      .cls-2 {
        fill: #f7ce0c;
      }
    </style>
  </defs>
  <g id="Layer_1-2" data-name="Layer 1">
    <path id="T" class="cls-1" d="m72.82.93l-1.97,2.56h-3.52v7.29h-3.05V3.49h-4.62l1.97-2.56h11.19Z"/>
    <path id="E" class="cls-1" d="m85.2,8.25l-1.96,2.53h-9.48V.93h11.41l-1.97,2.56h-6.38v1.18h7.81l-1.75,2.24h-6.05v1.34h8.38Z"/>
    <path id="C" class="cls-1" d="m98.77,8.25l-1.96,2.53h-4.95c-.85,0-1.64-.13-2.37-.38s-1.35-.61-1.88-1.05-.94-.98-1.24-1.59c-.3-.61-.45-1.28-.45-2s.15-1.37.45-1.97c.3-.59.71-1.1,1.24-1.53s1.15-.76,1.88-.99c.73-.23,1.52-.35,2.37-.35h6.91l-1.96,2.56h-4.95c-.41,0-.8.06-1.15.18-.35.12-.66.28-.91.49-.26.21-.46.46-.6.76-.15.29-.22.62-.22.97s.07.68.21.96c.14.29.34.54.6.74.26.21.57.37.92.48.35.11.74.17,1.15.17h6.91Z"/>
    <path id="H" class="cls-1" d="m111.79,10.78h-3.03v-3.8h-5.86v3.8h-3.06V.93h3.06v3.49h5.86V.93h3.03v9.85Z"/>
    <path id="M" class="cls-1" d="m73.32,17.49c.22.38.41.72.57,1.01.16.29.3.55.43.77.12.23.23.43.32.62.09.19.18.37.27.54.08-.18.16-.36.26-.54.09-.18.2-.39.32-.62.12-.23.26-.49.43-.77.16-.28.35-.62.57-1l1.58-2.8c.18-.31.4-.57.67-.76.27-.19.61-.29,1.01-.29s.73.11,1.04.33c.31.22.53.56.67,1.02l2.49,8.66h-3.03l-.93-3.43c-.16-.56-.29-1.05-.4-1.47-.11-.42-.2-.83-.28-1.24-.17.34-.35.72-.56,1.14-.21.42-.48.95-.81,1.58l-1.33,2.47c-.13.25-.26.44-.39.58-.13.14-.27.25-.4.33-.14.08-.28.13-.44.15-.16.02-.33.04-.52.04s-.36-.01-.52-.04c-.16-.02-.3-.08-.44-.15s-.27-.19-.4-.33-.26-.34-.39-.58l-1.33-2.49c-.18-.33-.33-.63-.47-.9-.14-.27-.26-.5-.38-.71-.11-.21-.21-.41-.29-.58-.08-.18-.16-.35-.24-.52-.08.39-.17.8-.28,1.23-.11.43-.24.92-.38,1.48l-.93,3.43h-2.99l2.55-8.66c.14-.46.36-.8.68-1.02.31-.22.66-.33,1.05-.33s.72.09.99.28.49.44.67.77l1.58,2.78Z"/>
    <path id="I_1" class="cls-1" d="m88.15,23.68h-3.05v-9.85h3.05v9.85Z"/>
    <path id="N_1" class="cls-1" d="m100.04,23.84c-.2,0-.39-.03-.58-.1s-.4-.21-.64-.43l-6.04-5.42v5.79h-2.77v-8.17c0-.32.05-.6.14-.84.09-.24.22-.43.37-.57.15-.15.33-.26.53-.32s.41-.1.63-.1c.19,0,.38.03.57.1.19.06.41.21.66.43l6.04,5.42v-5.79h2.78v8.16c0,.32-.05.6-.14.84s-.22.43-.37.58-.33.26-.54.33c-.21.07-.42.1-.63.1Z"/>
    <path id="I_2" class="cls-1" d="m106.61,23.68h-3.05v-9.85h3.05v9.85Z"/>
    <path id="N" class="cls-1" d="m118.49,23.84c-.2,0-.39-.03-.58-.1s-.4-.21-.64-.43l-6.04-5.42v5.79h-2.77v-8.17c0-.32.05-.6.14-.84.09-.24.22-.43.37-.57.15-.15.33-.26.53-.32s.41-.1.63-.1c.19,0,.38.03.57.1s.41.21.66.43l6.04,5.42v-5.79h2.78v8.16c0,.32-.05.6-.14.84-.09.24-.22.43-.37.58s-.33.26-.54.33c-.21.07-.42.1-.63.1Z"/>
    <path id="G" class="cls-1" d="m128.05,17.52h6.3v6.16h-6.76c-.85,0-1.64-.13-2.37-.38-.73-.26-1.35-.61-1.88-1.05-.53-.45-.94-.98-1.24-1.59-.3-.61-.45-1.28-.45-2s.15-1.37.45-1.97c.3-.59.71-1.1,1.24-1.53.53-.43,1.15-.76,1.88-.99.73-.23,1.52-.35,2.37-.35h7.06l-1.97,2.56h-5.08c-.41,0-.79.06-1.15.18-.35.12-.66.28-.92.5-.26.22-.46.47-.61.76-.15.29-.22.61-.22.96s.07.68.21.96c.14.29.34.54.6.74.26.21.57.37.92.48.35.11.74.17,1.16.17h3.73v-1.43h-5.1l1.83-2.19Z"/>
    <g>
      <path class="cls-1" d="m61.22,29.76l2.29,3.38,2.39-3.38h1.86l-3.26,4.61c-.11.15-.25.28-.41.4-.16.12-.37.18-.61.18s-.44-.05-.6-.16c-.16-.11-.3-.25-.41-.41l-3.19-4.61h1.94Z"/>
      <path class="cls-1" d="m69.93,34.86h-1.58v-5.1h1.58v5.1Z"/>
      <path class="cls-1" d="m75.64,31.79c.62,0,1.1.12,1.42.35.32.23.49.58.49,1.05,0,.26-.04.49-.12.7-.08.21-.21.38-.39.53s-.41.25-.68.33c-.28.08-.61.11-.99.11h-4.75l1.01-1.31h3.86c.19,0,.32-.03.41-.09s.13-.15.13-.29-.04-.23-.13-.28c-.09-.06-.22-.08-.41-.08h-2.77c-.33,0-.61-.04-.85-.11-.24-.07-.44-.17-.59-.3-.16-.13-.27-.28-.35-.46-.08-.18-.11-.38-.11-.6,0-.24.04-.46.13-.65.08-.2.21-.36.39-.5s.4-.24.68-.32c.28-.08.61-.11.99-.11h4.43l-1.01,1.33h-3.54c-.18,0-.32.03-.41.08-.09.05-.13.14-.13.27s.04.22.13.28c.09.05.22.08.41.08h2.77Z"/>
      <path class="cls-1" d="m84.87,32.63c0,1.54-1.06,2.31-3.18,2.31-.61,0-1.14-.05-1.58-.14-.44-.1-.81-.24-1.09-.43-.29-.19-.5-.43-.63-.72-.13-.29-.2-.62-.2-1.01v-2.87h1.57v2.87c0,.19.03.35.08.47.05.13.15.23.29.31.14.08.34.13.59.17.25.03.58.05.99.05.3,0,.56-.02.76-.05s.37-.09.49-.18c.12-.08.21-.19.26-.31.05-.13.08-.28.08-.46v-2.87h1.58v2.87Z"/>
      <path class="cls-1" d="m87.32,34.86l.95-1.31h1.76c.16,0,.31,0,.43.02-.07-.09-.15-.21-.25-.35-.09-.14-.18-.27-.27-.39l-.91-1.35-2.39,3.38h-1.87l3.27-4.61c.11-.15.24-.28.4-.4.16-.12.37-.18.62-.18s.44.05.6.16c.16.11.3.25.41.41l3.18,4.61h-5.93Z"/>
      <path class="cls-1" d="m99.34,33.55l-1.02,1.31h-4.5v-5.1h1.58v3.79h3.95Z"/>
      <path class="cls-1" d="m101.46,34.86h-1.58v-5.1h1.58v5.1Z"/>
      <path class="cls-1" d="m107.8,34.86h-4.83c-.2,0-.37-.05-.51-.16-.14-.11-.22-.27-.22-.48,0-.12.03-.23.09-.34s.14-.21.25-.29l1.86-1.46c.21-.17.4-.31.55-.43.15-.12.28-.22.4-.3.11-.08.2-.15.28-.2.07-.05.13-.09.18-.13-.07,0-.15.01-.25.02-.09,0-.21,0-.35.01-.14,0-.3,0-.49,0h-2.7l1.01-1.33h4.7c.2,0,.37.05.51.16.14.11.22.27.22.48,0,.12-.03.23-.09.34-.06.11-.14.2-.25.29l-1.88,1.49c-.21.17-.39.31-.54.43-.15.12-.28.22-.39.3-.11.08-.2.15-.27.2-.07.05-.13.09-.18.13.06,0,.16,0,.31-.01.14,0,.31,0,.5,0,.19,0,.39,0,.6,0,.21,0,.42,0,.62,0h1.85l-.95,1.31Z"/>
      <path class="cls-1" d="m111.45,34.86l.95-1.31h1.76c.16,0,.31,0,.43.02-.07-.09-.15-.21-.25-.35-.09-.14-.18-.27-.27-.39l-.91-1.35-2.39,3.38h-1.87l3.27-4.61c.11-.15.24-.28.4-.4s.37-.18.62-.18.44.05.6.16c.16.11.3.25.41.41l3.18,4.61h-5.93Z"/>
      <path class="cls-1" d="m119.54,34.86h-1.58v-5.1h1.58v5.1Z"/>
      <path class="cls-1" d="m124.09,29.68c1.24,0,2.17.21,2.79.63.62.42.93,1.09.93,2s-.31,1.58-.93,2c-.62.42-1.55.63-2.8.63s-2.18-.21-2.8-.63c-.62-.42-.93-1.09-.93-2s.31-1.57.93-2c.62-.42,1.55-.63,2.8-.63Zm0,3.94c.4,0,.73-.02,1.01-.05.27-.03.5-.1.67-.19.17-.1.29-.23.37-.4.08-.17.11-.39.11-.67s-.04-.5-.11-.67c-.08-.17-.2-.3-.37-.4-.17-.09-.39-.16-.67-.19-.27-.03-.61-.05-1.01-.05s-.73.02-1.01.05c-.27.03-.5.1-.67.19-.17.09-.29.23-.37.4-.08.17-.11.39-.11.67s.04.5.11.67c.08.17.2.3.37.4.17.1.39.16.67.19.27.03.61.05,1.01.05Z"/>
      <path class="cls-1" d="m133.78,34.94c-.1,0-.2-.02-.3-.05-.1-.03-.21-.11-.33-.22l-3.12-2.8v2.99h-1.43v-4.23c0-.17.02-.31.07-.43.05-.12.11-.22.19-.3.08-.08.17-.13.27-.17.1-.04.21-.05.32-.05.1,0,.19.02.29.05.1.03.21.11.34.22l3.12,2.8v-2.99h1.44v4.22c0,.17-.02.31-.07.43-.05.12-.11.22-.19.3-.08.08-.17.14-.28.17-.11.04-.22.05-.33.05Z"/>
    </g>
    <g>
      <path class="cls-1" d="m75.15,53.43l-3.53,4.53h-15.57v-17.62h5.45v13.09h13.65Z"/>
      <path class="cls-1" d="m83.55,57.96l3.29-4.53h6.07c.57,0,1.07.02,1.49.05-.25-.32-.53-.72-.86-1.2-.33-.48-.64-.94-.93-1.36l-3.16-4.66-8.27,11.7h-6.45l11.3-15.94c.37-.51.83-.97,1.4-1.37.56-.4,1.27-.61,2.13-.61s1.52.19,2.07.57c.55.38,1.02.85,1.41,1.41l11.01,15.94h-20.5Z"/>
      <path class="cls-1" d="m125.89,48.9c.77.23,1.43.68,1.96,1.34.54.67.8,1.53.8,2.58,0,.74-.11,1.42-.34,2.04-.23.62-.62,1.16-1.16,1.62-.54.46-1.28.82-2.2,1.08-.92.26-2.08.4-3.46.4h-15.49v-10.72h15.6c.4,0,.76-.08,1.07-.25.31-.17.46-.48.46-.94s-.16-.74-.47-.9-.67-.24-1.05-.24h-15.6l3.69-4.58h11.67c1.05,0,2.01.1,2.86.3.85.2,1.58.51,2.19.92.61.41,1.07.92,1.4,1.53.32.61.49,1.31.49,2.12,0,.53-.07.99-.21,1.4-.14.4-.32.76-.54,1.07-.22.31-.47.56-.76.76-.29.2-.58.36-.88.46Zm-14.41,2.11v2.42h10.04c.6,0,1.03-.11,1.29-.32.26-.21.4-.52.4-.92s-.13-.68-.4-.88c-.26-.2-.69-.3-1.29-.3h-10.04Z"/>
    </g>
    <g>
      <rect class="cls-1" x="49.41" y="12.74" width="2.41" height="10.61" transform="translate(-2.56 25.78) rotate(-27.9)"/>
      <rect class="cls-1" x="41.2" y="2.96" width="2.41" height="13.56" transform="translate(11.55 40.41) rotate(-57.76)"/>
      <rect class="cls-1" x="20.12" y="5.81" width="16.6" height="2.41" transform="translate(-.59 3.09) rotate(-6.17)"/>
      <rect class="cls-1" x="4.51" y="14.32" width="19.36" height="2.41" transform="translate(-6.78 17.09) rotate(-51.85)"/>
      <rect class="cls-1" x="10.07" y="22.71" width="2.41" height="22.53" transform="translate(-8.8 4.34) rotate(-15.76)"/>
      <rect class="cls-1" x="25.52" y="34.78" width="2.41" height="25.34" transform="translate(-25.24 63.73) rotate(-78.01)"/>
      <rect class="cls-1" x="30.75" y="35.2" width="30.72" height="2.41" transform="translate(-7.3 60.88) rotate(-62.91)"/>
      <g>
        <circle class="cls-2" cx="53.1" cy="22.73" r="2.83"/>
        <path class="cls-1" d="m53.1,26.76s-.08,0-.12,0c-2.22-.06-3.98-1.93-3.92-4.15.03-1.08.48-2.08,1.26-2.82.78-.74,1.8-1.13,2.89-1.1,1.08.03,2.08.48,2.82,1.26s1.13,1.81,1.1,2.89c-.03,1.08-.48,2.08-1.26,2.82-.75.71-1.73,1.1-2.77,1.1Zm0-5.66c-.42,0-.81.16-1.12.44-.32.3-.5.7-.51,1.14-.03.9.68,1.65,1.58,1.67.43,0,.85-.15,1.17-.44.32-.3.5-.7.51-1.14h0c.01-.43-.14-.85-.44-1.16-.3-.32-.7-.5-1.14-.51-.02,0-.03,0-.05,0Z"/>
      </g>
      <g>
        <circle class="cls-2" cx="48.14" cy="13.35" r="3.88"/>
        <path class="cls-1" d="m48.14,18.43s-.1,0-.15,0c-2.8-.08-5.01-2.42-4.93-5.22.08-2.8,2.43-5,5.22-4.93,1.36.04,2.62.6,3.55,1.59s1.42,2.28,1.38,3.63c-.04,1.36-.6,2.62-1.59,3.55-.95.9-2.18,1.39-3.48,1.39Zm0-7.75c-1.44,0-2.63,1.15-2.67,2.59-.04,1.47,1.12,2.71,2.59,2.75.71.02,1.39-.24,1.91-.73.52-.49.82-1.15.84-1.87h0c.02-.71-.24-1.39-.73-1.91-.49-.52-1.15-.82-1.87-.84-.03,0-.05,0-.08,0Z"/>
      </g>
      <g>
        <circle class="cls-2" cx="36.67" cy="6.12" r="4.92"/>
        <path class="cls-1" d="m36.67,12.25c-.06,0-.12,0-.18,0-3.37-.1-6.04-2.92-5.94-6.3.1-3.31,2.82-5.95,6.12-5.95.06,0,.12,0,.18,0,3.37.1,6.04,2.92,5.94,6.3-.1,3.31-2.82,5.95-6.12,5.95Zm0-9.84c-2,0-3.65,1.6-3.71,3.61-.03.99.33,1.94,1.01,2.66.68.72,1.6,1.13,2.59,1.16,2.07.07,3.76-1.56,3.82-3.61.06-2.05-1.56-3.76-3.61-3.82-.04,0-.07,0-.11,0Z"/>
      </g>
      <g>
        <circle class="cls-2" cx="20.17" cy="7.91" r="5.96"/>
        <path class="cls-1" d="m20.17,15.08c-.07,0-.14,0-.21,0-3.95-.11-7.07-3.42-6.96-7.37.11-3.95,3.43-7.07,7.37-6.96,3.95.11,7.07,3.42,6.96,7.37-.06,1.91-.85,3.69-2.24,5-1.34,1.27-3.08,1.95-4.91,1.95Zm0-11.93c-2.56,0-4.68,2.05-4.76,4.62-.08,2.62,2,4.82,4.62,4.89,1.26.04,2.48-.42,3.4-1.3.92-.87,1.45-2.05,1.49-3.32h0c.08-2.62-2-4.82-4.62-4.89-.05,0-.09,0-.14,0Z"/>
      </g>
      <g>
        <circle class="cls-2" cx="8.21" cy="23.13" r="7.01"/>
        <path class="cls-1" d="m8.22,31.34c-.08,0-.16,0-.24,0-2.19-.06-4.23-.98-5.73-2.57C.73,27.17-.06,25.09,0,22.9c.13-4.53,3.91-8.11,8.44-7.97,4.52.13,8.1,3.92,7.97,8.44h0c-.06,2.19-.98,4.23-2.57,5.73-1.54,1.45-3.53,2.24-5.63,2.24Zm0-14.01c-3.12,0-5.71,2.49-5.8,5.63-.04,1.55.52,3.02,1.58,4.15,1.06,1.13,2.5,1.77,4.05,1.82,1.54.04,3.02-.52,4.15-1.58s1.77-2.5,1.82-4.05c.09-3.2-2.43-5.88-5.63-5.97-.06,0-.11,0-.17,0Z"/>
      </g>
      <g>
        <circle class="cls-2" cx="14.33" cy="44.82" r="8.2"/>
        <path class="cls-1" d="m14.34,54.22c-.09,0-.19,0-.28,0-5.18-.15-9.28-4.49-9.13-9.67.07-2.51,1.12-4.84,2.94-6.57,1.83-1.72,4.21-2.63,6.73-2.56,2.51.07,4.84,1.12,6.57,2.94,1.72,1.83,2.63,4.21,2.56,6.73-.07,2.51-1.12,4.84-2.94,6.57-1.76,1.66-4.04,2.56-6.45,2.56Zm-.01-16.4c-1.79,0-3.49.67-4.8,1.91-1.36,1.28-2.14,3.02-2.19,4.88-.11,3.86,2.93,7.08,6.79,7.19,1.87.06,3.64-.62,5-1.91,1.36-1.28,2.14-3.02,2.19-4.88.05-1.87-.62-3.64-1.91-5-1.28-1.36-3.02-2.14-4.88-2.19-.07,0-.14,0-.21,0Z"/>
      </g>
      <g>
        <circle class="cls-2" cx="39.11" cy="50.08" r="9.24"/>
        <path class="cls-1" d="m39.12,60.53c-.1,0-.21,0-.31,0-2.79-.08-5.38-1.24-7.3-3.27-1.92-2.03-2.93-4.68-2.84-7.47.17-5.76,4.98-10.3,10.74-10.14,2.79.08,5.38,1.24,7.29,3.27s2.93,4.68,2.84,7.47h0c-.08,2.79-1.24,5.38-3.27,7.29-1.95,1.84-4.49,2.85-7.16,2.85Zm-.01-18.48c-2.06,0-4.01.77-5.51,2.19-1.56,1.47-2.46,3.47-2.52,5.61-.06,2.15.72,4.19,2.19,5.75,1.47,1.56,3.47,2.46,5.61,2.52,2.15.06,4.19-.72,5.75-2.19s2.46-3.47,2.52-5.61h0c.06-2.15-.72-4.19-2.19-5.75-1.47-1.56-3.47-2.46-5.61-2.52-.08,0-.16,0-.24,0Z"/>
      </g>
    </g>
  </g>
</svg>